<?xml version="1.0" standalone="no"?>
<!DOCTYPE svg PUBLIC "-//W3C//DTD SVG 1.1//EN" "http://www.w3.org/Graphics/SVG/1.1/DTD/svg11.dtd" >
<svg>
<metadata>
Created by FontForge 20120731 at Thu Oct 23 09:46:06 2014
 By World Wide Web Server
Copyright (c) 2003 - 2012 Linotype GmbH, www.linotype.com. All rights reserved. This font software may not be reproduced, modified, disclosed or transferred without the express written approval of Linotype GmbH. Avenir is a trademark of Linotype GmbH registered in the U.S. Patent and Trademark Office and may be registered in certain other jurisdictions. This typeface is original artwork of Adrian Frutiger and Akira Kobayashi. The design may be protected in certain jurisdictions.
</metadata>
<defs>
<font id="AvenirNextCyr-UltraLightIt" horiz-adv-x="350" >
  <font-face 
    font-family="Avenir Next Cyr Ultra Light"
    font-weight="275"
    font-style="italic"
    font-stretch="normal"
    units-per-em="1000"
    panose-1="2 11 2 3 2 2 2 9 2 4"
    ascent="756"
    descent="-244"
    x-height="460"
    cap-height="708"
    bbox="-237 -250 1053 945"
    underline-thickness="50"
    underline-position="125"
    slope="-12"
    stemh="20"
    stemv="22"
    unicode-range="U+000D-FB04"
  />
<missing-glyph horiz-adv-x="512" 
d="M278 117h-56v67h56v-67zM271 234h-46l-2 17c0 37 4 64 13 81s24 37 46 59c43 41 50 58 50 83c0 48 -35 85 -76 85s-74 -27 -82 -95l-50 8c9 95 63 137 135 137c71 0 124 -52 124 -131c0 -43 -12 -73 -63 -120c-25 -22 -39 -39 -43 -52s-6 -37 -6 -72zM50 50h412v617h-412
v-617zM0 718h512v-718h-512v718z" />
    <glyph glyph-name="napostrophe" unicode="&#x22;n" horiz-adv-x="566" 
d="M335 474c99 0 146 -71 146 -149c0 -14 -2 -32 -6 -52l-48 -273h-22l49 274c3 15 5 36 5 50c0 65 -34 131 -127 131c-101 0 -183 -84 -207 -225l-41 -230h-22l61 344c5 29 14 90 15 116h22c-2 -26 -11 -87 -17 -121h2c41 89 111 135 190 135zM230 708l-95 -188h-17l88 188
h24z" />
    <glyph glyph-name="fi" unicode="fi" horiz-adv-x="494" 
d="M370 762l-4 -17c-12 3 -25 5 -40 5c-73 0 -102 -63 -113 -124l-29 -166h125l-3 -19h-125l-78 -441h-22l78 441h-97l3 19h96l29 165c20 112 80 143 135 143c19 0 33 -2 45 -6zM352 0h-22l81 460h22zM449 633c-12 0 -21 7 -21 23c0 14 11 28 25 28c12 0 21 -8 21 -22
c0 -16 -12 -29 -25 -29z" />
    <glyph glyph-name="fl" unicode="fl" horiz-adv-x="494" 
d="M352 0h-22l133 756h22zM370 762l-4 -17c-12 3 -25 5 -40 5c-73 0 -102 -63 -113 -124l-29 -166h125l-3 -19h-125l-78 -441h-22l78 441h-97l3 19h96l29 165c20 112 80 143 135 143c19 0 33 -2 45 -6z" />
    <glyph glyph-name="f_f_l" unicode="ffl" horiz-adv-x="758" 
d="M634 762l-4 -17c-12 3 -25 5 -40 5c-73 0 -102 -63 -113 -124l-29 -166h125l-3 -19h-125l-78 -441h-22l78 441h-242l-78 -441h-22l78 441h-97l3 19h96l29 165c20 112 80 143 135 143c19 0 33 -2 45 -6l-4 -17c-12 3 -25 5 -40 5c-73 0 -102 -63 -113 -124l-29 -166h241
l29 165c20 112 80 143 135 143c19 0 33 -2 45 -6zM616 0h-22l133 756h22z" />
    <glyph glyph-name="f_f_i" unicode="ffi" horiz-adv-x="758" 
d="M634 762l-4 -17c-12 3 -25 5 -40 5c-73 0 -102 -63 -113 -124l-29 -166h125l-3 -19h-125l-78 -441h-22l78 441h-242l-78 -441h-22l78 441h-97l3 19h96l29 165c20 112 80 143 135 143c19 0 33 -2 45 -6l-4 -17c-12 3 -25 5 -40 5c-73 0 -102 -63 -113 -124l-29 -166h241
l29 165c20 112 80 143 135 143c19 0 33 -2 45 -6zM616 0h-22l81 460h22zM713 633c-12 0 -21 7 -21 23c0 14 11 28 25 28c12 0 21 -8 21 -22c0 -16 -12 -29 -25 -29z" />
    <glyph glyph-name="f_f" unicode="ff" horiz-adv-x="546" 
d="M634 762l-4 -17c-12 3 -25 5 -40 5c-73 0 -102 -63 -113 -124l-29 -166h125l-3 -19h-125l-78 -441h-22l78 441h-242l-78 -441h-22l78 441h-97l3 19h96l29 165c20 112 80 143 135 143c19 0 33 -2 45 -6l-4 -17c-12 3 -25 5 -40 5c-73 0 -102 -63 -113 -124l-29 -166h241
l29 165c20 112 80 143 135 143c19 0 33 -2 45 -6z" />
    <glyph glyph-name=".notdef" horiz-adv-x="512" 
d="M278 117h-56v67h56v-67zM271 234h-46l-2 17c0 37 4 64 13 81s24 37 46 59c43 41 50 58 50 83c0 48 -35 85 -76 85s-74 -27 -82 -95l-50 8c9 95 63 137 135 137c71 0 124 -52 124 -131c0 -43 -12 -73 -63 -120c-25 -22 -39 -39 -43 -52s-6 -37 -6 -72zM50 50h412v617h-412
v-617zM0 718h512v-718h-512v718z" />
    <glyph glyph-name=".null" horiz-adv-x="500" 
 />
    <glyph glyph-name=".null" horiz-adv-x="500" 
 />
    <glyph glyph-name="CR" unicode="&#xd;" horiz-adv-x="0" 
 />
    <glyph glyph-name="space" unicode=" " horiz-adv-x="250" 
 />
    <glyph glyph-name="exclam" unicode="!" horiz-adv-x="276" 
d="M234 708l-91 -513h-22l91 513h22zM105 -6c-12 0 -21 7 -21 23c0 14 11 28 25 28c12 0 21 -8 21 -22c0 -16 -12 -29 -25 -29z" />
    <glyph glyph-name="quotedbl" unicode="&#x22;" horiz-adv-x="404" 
d="M186 480h-22l40 228h22zM330 480h-22l40 228h22z" />
    <glyph glyph-name="numbersign" unicode="#" horiz-adv-x="550" 
d="M532 453h-114l-61 -196h112l-3 -17h-114l-72 -240h-19l72 240h-172l-72 -240h-19l72 240h-111l3 17h113l62 196h-111l3 17h113l72 238h19l-73 -238h172l73 238h19l-73 -238h112zM399 453h-171l-61 -196h171z" />
    <glyph glyph-name="dollar" unicode="$" horiz-adv-x="560" 
d="M361 703l-57 -328c104 -38 178 -78 178 -182c0 -127 -99 -207 -246 -207l-12 -70h-20l12 71c-78 5 -149 43 -179 92l16 13c25 -40 86 -80 167 -86l62 354c-91 31 -162 65 -162 166c0 128 118 192 225 197l12 69h20l-12 -69c90 -2 154 -39 182 -84l-16 -14
c-24 45 -94 77 -170 78zM301 353l-61 -348c127 0 221 68 221 187c0 91 -69 129 -160 161zM341 703c-87 -6 -199 -57 -199 -176c0 -89 57 -115 143 -146z" />
    <glyph glyph-name="percent" unicode="%" horiz-adv-x="820" 
d="M406 579c0 62 -38 116 -118 116c-91 0 -148 -78 -148 -161c0 -63 36 -116 117 -116c90 0 149 77 149 161zM119 532c0 95 66 182 171 182c91 0 137 -59 137 -133c0 -96 -66 -181 -171 -181c-91 0 -137 58 -137 132zM734 172c0 62 -38 116 -118 116
c-91 0 -148 -78 -148 -161c0 -63 36 -116 117 -116c90 0 149 77 149 161zM447 125c0 95 66 182 171 182c91 0 137 -59 137 -133c0 -96 -66 -181 -171 -181c-91 0 -137 58 -137 132zM723 725l-573 -752l-16 11l573 752z" />
    <glyph glyph-name="ampersand" unicode="&#x26;" horiz-adv-x="704" 
d="M606 0h-27l-95 124c-69 -89 -138 -142 -238 -142c-89 0 -182 53 -182 175c0 123 94 190 214 238c-48 63 -71 113 -71 159c0 104 75 172 171 172c82 0 137 -56 137 -128c0 -90 -47 -149 -204 -213l173 -227l144 211h27l-158 -227zM492 595c0 65 -49 113 -115 113
c-64 0 -148 -47 -148 -152c0 -52 30 -100 70 -155c130 51 193 102 193 194zM471 140l-181 238c-102 -37 -204 -104 -204 -220c0 -103 76 -157 161 -157c90 0 163 55 224 139z" />
    <glyph glyph-name="quotesingle" unicode="'" horiz-adv-x="260" 
d="M186 480h-22l40 228h22z" />
    <glyph glyph-name="parenleft" unicode="(" horiz-adv-x="300" 
d="M292 732l19 -10c-103 -112 -217 -331 -217 -578c0 -107 22 -215 62 -290l-20 -10c-40 80 -64 188 -64 297c0 194 67 418 220 591z" />
    <glyph glyph-name="parenright" unicode=")" horiz-adv-x="300" 
d="M27 -156l-19 10c103 112 217 331 217 578c0 107 -22 215 -62 290l20 10c40 -80 64 -188 64 -297c0 -194 -67 -418 -220 -591z" />
    <glyph glyph-name="asterisk" unicode="*" horiz-adv-x="444" 
d="M267 537l163 52l6 -17l-165 -50l102 -142l-14 -10l-101 143l-101 -143l-14 10l102 142l-165 50l6 17l163 -52v171h18v-171z" />
    <glyph glyph-name="plus" unicode="+" horiz-adv-x="666" 
d="M345 295v-230h-21v230h-224v19h224v230h21v-230h221v-19h-221z" />
    <glyph glyph-name="comma" unicode="," horiz-adv-x="240" 
d="M128 90l-104 -228h-17l97 228h24z" />
    <glyph glyph-name="hyphen" unicode="-" horiz-adv-x="300" 
d="M243 245h-180l4 19h180z" />
    <glyph glyph-name="period" unicode="." horiz-adv-x="240" 
d="M81 -6c-12 0 -21 7 -21 23c0 14 11 28 25 28c12 0 21 -8 21 -22c0 -16 -12 -29 -25 -29z" />
    <glyph glyph-name="slash" unicode="/" horiz-adv-x="370" 
d="M436 722l-437 -737l-17 7l437 737z" />
    <glyph glyph-name="zero" unicode="0" horiz-adv-x="560" 
d="M247 -12c-132 0 -173 111 -173 231c0 215 83 501 287 501c131 0 172 -111 172 -231c0 -215 -83 -501 -286 -501zM360 700c-170 0 -264 -245 -264 -474c0 -106 30 -218 151 -218c170 0 264 245 264 474c0 106 -30 218 -151 218z" />
    <glyph glyph-name="one" unicode="1" horiz-adv-x="560" 
d="M272 0h-22l120 682l-154 -107l-10 17l169 116h22z" />
    <glyph glyph-name="two" unicode="2" horiz-adv-x="560" 
d="M430 0h-407l5 26l298 289c124 120 164 184 164 257c0 82 -66 129 -146 129c-77 0 -145 -42 -183 -121l-19 7c39 85 114 133 202 133c96 0 168 -57 168 -147c0 -101 -60 -165 -178 -279l-281 -273h381z" />
    <glyph glyph-name="three" unicode="3" horiz-adv-x="560" 
d="M231 -12c-90 0 -160 43 -188 111l18 11c30 -65 93 -102 171 -102c135 0 207 98 207 197c0 104 -85 157 -175 157h-22l3 20h22c133 0 207 88 207 188c0 75 -64 131 -142 131c-58 0 -112 -27 -151 -73l-16 12c41 49 94 80 166 80c96 0 164 -65 164 -149
c0 -97 -56 -180 -175 -199v-2c91 -15 141 -84 141 -164c0 -106 -71 -218 -230 -218z" />
    <glyph glyph-name="four" unicode="4" horiz-adv-x="560" 
d="M506 184h-117l-32 -184h-22l32 184h-334l5 27l407 497h36l-89 -504h118zM370 204l85 480h-3l-393 -480h311z" />
    <glyph glyph-name="five" unicode="5" horiz-adv-x="560" 
d="M233 -12c-87 0 -151 39 -187 94l18 14c32 -54 94 -88 168 -88c137 0 224 111 224 241c0 95 -66 170 -176 170c-49 0 -94 -14 -134 -36l62 325h309l-4 -20h-287l-54 -275c38 18 75 25 109 25c122 0 197 -83 197 -187c0 -142 -91 -263 -245 -263z" />
    <glyph glyph-name="six" unicode="6" horiz-adv-x="560" 
d="M85 174c0 -90 64 -167 167 -167c132 0 217 106 217 225c0 92 -62 166 -163 166c-128 0 -221 -105 -221 -224zM63 174c0 71 28 127 94 213l244 321h28l-263 -340l2 -1c28 24 77 50 139 50c108 0 184 -72 184 -184c0 -131 -94 -245 -241 -245c-109 0 -187 73 -187 186z" />
    <glyph glyph-name="seven" unicode="7" horiz-adv-x="560" 
d="M544 708l-5 -27l-423 -681h-26l429 688h-354l4 20h375z" />
    <glyph glyph-name="eight" unicode="8" horiz-adv-x="560" 
d="M487 218c0 -157 -125 -230 -239 -230c-94 0 -187 54 -187 170c0 112 77 200 191 223v2c-75 24 -101 84 -101 141c0 120 96 196 198 196c96 0 170 -53 170 -161c0 -97 -70 -162 -153 -180v-2c63 -19 121 -76 121 -159zM173 523c0 -77 53 -135 136 -135
c115 0 188 84 188 169c0 93 -63 143 -148 143c-102 0 -176 -84 -176 -177zM83 160c0 -90 71 -151 165 -151c128 0 218 89 218 208c0 84 -70 153 -163 153c-121 0 -220 -91 -220 -210z" />
    <glyph glyph-name="nine" unicode="9" horiz-adv-x="560" 
d="M527 534c0 90 -64 167 -167 167c-132 0 -217 -101 -217 -220c0 -92 62 -166 163 -166c128 0 221 100 221 219zM549 534c0 -71 -28 -127 -94 -213l-244 -321h-28l263 340l-2 1c-28 -24 -77 -45 -139 -45c-108 0 -184 72 -184 184c0 131 94 240 241 240
c109 0 187 -73 187 -186z" />
    <glyph glyph-name="colon" unicode=":" horiz-adv-x="280" 
d="M102 -6c-12 0 -21 7 -21 23c0 14 11 28 25 28c12 0 21 -8 21 -22c0 -16 -12 -29 -25 -29zM168 409c-12 0 -21 7 -21 23c0 14 11 28 25 28c12 0 21 -8 21 -22c0 -16 -12 -29 -25 -29z" />
    <glyph glyph-name="semicolon" unicode=";" horiz-adv-x="280" 
d="M138 90l-104 -228h-17l97 228h24zM168 409c-12 0 -21 7 -21 23c0 14 11 28 25 28c12 0 21 -8 21 -22c0 -16 -12 -29 -25 -29z" />
    <glyph glyph-name="less" unicode="&#x3c;" horiz-adv-x="666" 
d="M566 67l-466 224v24l466 224v-20l-454 -216l454 -216v-20z" />
    <glyph glyph-name="equal" unicode="=" horiz-adv-x="666" 
d="M566 380h-466v19h466v-19zM566 209h-466v19h466v-19z" />
    <glyph glyph-name="greater" unicode="&#x3e;" horiz-adv-x="666" 
d="M100 67v20l454 216l-454 216v20l466 -224v-24z" />
    <glyph glyph-name="question" unicode="?" horiz-adv-x="472" 
d="M246 244l-8 -44h-22l10 53c7 44 27 91 93 137l39 30c48 37 94 82 94 154c0 89 -61 131 -136 131c-94 0 -154 -60 -182 -139l-20 6c34 97 105 154 203 154c84 0 157 -48 157 -151c0 -87 -61 -140 -118 -181c-80 -57 -99 -85 -110 -150zM203 -6c-12 0 -21 7 -21 23
c0 14 11 28 25 28c12 0 21 -8 21 -22c0 -16 -12 -29 -25 -29z" />
    <glyph glyph-name="at" unicode="@" horiz-adv-x="800" 
d="M558 160c-45 0 -86 30 -67 94h-2c-20 -34 -76 -94 -150 -94c-73 0 -98 49 -98 102c0 108 104 291 246 291c56 0 90 -36 90 -91h4l33 73h21l-109 -237c-9 -19 -21 -52 -21 -75c0 -32 27 -43 57 -43c108 0 215 108 215 284c0 141 -121 244 -285 244
c-237 0 -407 -204 -406 -411c1 -176 129 -297 312 -297c120 0 220 52 290 123l15 -13c-77 -75 -178 -130 -305 -130c-197 0 -334 129 -334 315c0 239 192 433 428 433c177 0 306 -109 306 -264c0 -181 -111 -304 -240 -304zM561 450c0 42 -13 83 -76 83
c-130 0 -222 -182 -222 -271c0 -48 23 -82 80 -82c122 0 218 205 218 270z" />
    <glyph glyph-name="A" unicode="A" horiz-adv-x="633" 
d="M577 0h-22l-36 203h-400l-129 -203h-27l455 708h33zM516 222l-84 471l-301 -471h385z" />
    <glyph glyph-name="B" unicode="B" horiz-adv-x="605" 
d="M276 0h-210l125 708h181c99 0 196 -46 196 -152c0 -99 -60 -162 -175 -182v-2c64 -8 147 -60 147 -161c0 -148 -121 -211 -264 -211zM547 554c0 91 -84 135 -180 135h-158l-54 -307h163c132 0 229 58 229 172zM518 207c0 107 -94 156 -177 156h-189l-61 -344h178
c157 0 249 69 249 188z" />
    <glyph glyph-name="C" unicode="C" horiz-adv-x="724" 
d="M635 89l10 -17c-69 -62 -153 -92 -240 -92c-214 0 -315 131 -315 308c0 230 176 440 415 440c88 0 176 -30 223 -91l-16 -16c-45 60 -130 87 -208 87c-225 0 -392 -202 -392 -416c0 -162 89 -292 292 -292c82 0 165 30 231 89z" />
    <glyph glyph-name="D" unicode="D" horiz-adv-x="775" 
d="M257 0h-191l125 708h186c193 0 339 -104 339 -292c0 -292 -211 -416 -459 -416zM373 688h-163l-117 -668h163c237 0 438 114 438 393c0 179 -137 275 -321 275z" />
    <glyph glyph-name="E" unicode="E" horiz-adv-x="576" 
d="M489 0h-423l125 708h393l-4 -20h-372l-55 -311h358l-3 -20h-358l-59 -337h402z" />
    <glyph glyph-name="F" unicode="F" horiz-adv-x="540" 
d="M568 688h-359l-55 -311h340l-3 -20h-340l-63 -357h-22l125 708h381z" />
    <glyph glyph-name="G" unicode="G" horiz-adv-x="770" 
d="M402 -20c-214 0 -312 130 -312 308c0 230 176 440 415 440c88 0 176 -30 223 -91l-16 -16c-45 60 -130 87 -208 87c-225 0 -392 -202 -392 -416c0 -162 87 -292 290 -292c87 0 170 22 222 53l49 278h-184l4 19h205l-55 -309c-54 -34 -145 -61 -241 -61z" />
    <glyph glyph-name="H" unicode="H" horiz-adv-x="720" 
d="M574 0h-22l63 356h-464l-63 -356h-22l125 708h22l-59 -332h464l59 332h22z" />
    <glyph glyph-name="I" unicode="I" horiz-adv-x="234" 
d="M88 0h-22l125 708h22z" />
    <glyph glyph-name="J" unicode="J" horiz-adv-x="480" 
d="M372 193c-23 -130 -85 -211 -210 -211c-83 0 -140 50 -156 111l20 9c17 -60 70 -100 138 -100c114 0 167 79 187 194l90 512h22z" />
    <glyph glyph-name="K" unicode="K" horiz-adv-x="529" 
d="M156 385h1l394 323h32l-399 -327l308 -381h-28l-308 381h-1l-67 -381h-22l125 708h22z" />
    <glyph glyph-name="L" unicode="L" horiz-adv-x="498" 
d="M440 0h-374l125 708h22l-121 -688h352z" />
    <glyph glyph-name="M" unicode="M" horiz-adv-x="901" 
d="M755 0h-22l120 683h-4l-430 -683h-18l-190 683h-3l-120 -683h-22l125 708h34l191 -676l424 676h40z" />
    <glyph glyph-name="N" unicode="N" horiz-adv-x="749" 
d="M603 0h-32l-360 683h-3l-120 -683h-22l125 708h31l361 -682h3l120 682h22z" />
    <glyph glyph-name="O" unicode="O" horiz-adv-x="872" 
d="M791 411c0 164 -93 297 -296 297c-230 0 -383 -199 -383 -413c0 -164 94 -295 297 -295c230 0 382 197 382 411zM90 295c0 227 159 433 405 433c214 0 318 -137 318 -317c0 -227 -158 -431 -404 -431c-214 0 -319 135 -319 315z" />
    <glyph glyph-name="P" unicode="P" horiz-adv-x="560" 
d="M319 348h-170l-61 -348h-22l125 708h179c93 0 191 -38 191 -157c0 -107 -73 -203 -242 -203zM539 552c0 100 -86 137 -164 137h-166l-56 -322h171c139 0 215 75 215 185z" />
    <glyph glyph-name="Q" unicode="Q" horiz-adv-x="883" 
d="M531 22v-2h271l-4 -20h-394c-213 0 -314 123 -314 298c0 223 159 430 405 430c214 0 318 -139 318 -314c0 -173 -103 -343 -282 -392zM791 413c0 159 -93 295 -296 295c-230 0 -383 -201 -383 -409c0 -159 90 -279 293 -279c233 0 386 187 386 393z" />
    <glyph glyph-name="R" unicode="R" horiz-adv-x="594" 
d="M503 0h-24l-162 357h-166l-63 -357h-22l125 708h165c96 0 203 -35 203 -150c0 -166 -132 -197 -220 -200zM537 555c0 101 -92 134 -189 134h-139l-55 -313h160c136 0 223 53 223 179z" />
    <glyph glyph-name="S" unicode="S" horiz-adv-x="570" 
d="M552 643l-17 -14c-25 46 -98 79 -177 79c-91 0 -218 -52 -218 -179c0 -94 63 -118 156 -151c110 -39 189 -80 189 -188c0 -128 -101 -210 -250 -210c-86 0 -168 41 -202 95l17 13c27 -45 98 -88 191 -88c128 0 222 69 222 189c0 102 -82 137 -185 172
c-88 30 -160 65 -160 167c0 136 129 200 242 200c95 0 162 -38 192 -85z" />
    <glyph glyph-name="T" unicode="T" horiz-adv-x="515" 
d="M586 688h-237l-121 -688h-22l121 688h-245l4 20h504z" />
    <glyph glyph-name="U" unicode="U" horiz-adv-x="716" 
d="M629 268c-28 -160 -94 -288 -294 -288c-158 0 -239 82 -239 217c0 24 4 54 9 80l76 431h22l-76 -432c-5 -31 -9 -58 -9 -79c0 -111 66 -197 217 -197c210 0 253 156 273 272l77 436h22z" />
    <glyph glyph-name="V" unicode="V" horiz-adv-x="588" 
d="M672 708l-420 -708h-34l-116 708h22l113 -688h2l407 688h26z" />
    <glyph glyph-name="W" unicode="W" horiz-adv-x="943" 
d="M1017 708l-365 -708h-35l-57 685h-2l-349 -685h-35l-59 708h23l56 -687h3l349 687h34l57 -687h3l352 687h25z" />
    <glyph glyph-name="X" unicode="X" horiz-adv-x="570" 
d="M508 0h-25l-174 354l-299 -354h-28l315 371l-166 337h24l156 -320l270 320h27l-285 -337z" />
    <glyph glyph-name="Y" unicode="Y" horiz-adv-x="513" 
d="M598 708l-324 -398l-55 -310h-22l55 310l-162 398h24l152 -376l305 376h27z" />
    <glyph glyph-name="Z" unicode="Z" horiz-adv-x="594" 
d="M512 0h-498l4 27l582 661h-452l4 20h473l-5 -29l-581 -659h477z" />
    <glyph glyph-name="bracketleft" unicode="[" horiz-adv-x="300" 
d="M152 -156h-140l157 888h140l-3 -19h-118l-150 -850h118z" />
    <glyph glyph-name="backslash" unicode="\" horiz-adv-x="370" 
d="M23 722l19 7l307 -737l-19 -7z" />
    <glyph glyph-name="bracketright" unicode="]" horiz-adv-x="300" 
d="M12 -156l4 19h118l150 850h-118l3 19h140l-157 -888h-140z" />
    <glyph glyph-name="asciicircum" unicode="^" horiz-adv-x="666" 
d="M97 242l224 466h24l224 -466h-20l-216 454l-216 -454h-20z" />
    <glyph glyph-name="underscore" unicode="_" horiz-adv-x="500" 
d="M500 -114h-500v20h500v-20z" />
    <glyph glyph-name="grave" unicode="`" horiz-adv-x="240" 
d="M89 708h28l106 -144h-20z" />
    <glyph glyph-name="a" unicode="a" horiz-adv-x="512" 
d="M396 104c-6 -35 -10 -79 -10 -104h-21c0 26 6 74 13 110h-3c-34 -78 -101 -124 -183 -124c-60 0 -147 28 -147 119c0 140 163 165 359 165c6 26 9 53 9 64c0 82 -50 121 -130 121c-54 0 -102 -22 -144 -55l-12 17c48 37 105 57 157 57c96 0 151 -50 151 -137
c0 -14 -4 -38 -6 -51zM393 207l8 44h-28c-176 0 -306 -31 -306 -143c0 -80 73 -103 128 -103c121 0 183 112 198 202z" />
    <glyph glyph-name="b" unicode="b" horiz-adv-x="623" 
d="M143 342h3c36 74 112 132 208 132c138 0 207 -88 207 -205c0 -149 -102 -283 -262 -283c-98 0 -170 59 -190 142h-3l-22 -128h-22l133 756h22zM352 455c-132 0 -233 -131 -233 -267c0 -101 70 -183 180 -183c145 0 240 126 240 263c0 103 -61 187 -187 187z" />
    <glyph glyph-name="c" unicode="c" horiz-adv-x="468" 
d="M425 46c-42 -41 -102 -64 -164 -64c-140 0 -203 89 -203 202c0 151 114 290 270 290c58 0 119 -20 150 -60l-14 -15c-29 38 -84 56 -134 56c-145 0 -250 -130 -250 -268c0 -103 58 -185 182 -185c56 0 114 22 152 59z" />
    <glyph glyph-name="d" unicode="d" horiz-adv-x="617" 
d="M265 -14c-138 0 -207 88 -207 205c0 149 102 283 262 283c98 0 170 -59 190 -142h3l73 424h22l-133 -756h-22l23 118h-3c-36 -74 -112 -132 -208 -132zM267 5c132 0 233 131 233 267c0 101 -70 183 -180 183c-145 0 -240 -126 -240 -263c0 -103 61 -187 187 -187z" />
    <glyph glyph-name="e" unicode="e" horiz-adv-x="553" 
d="M495 235h-412c-2 -13 -3 -25 -3 -35c0 -123 71 -195 190 -195c76 0 133 35 176 86l12 -14c-39 -49 -105 -91 -188 -91c-137 0 -212 87 -212 209c0 145 107 279 263 279c125 0 181 -82 181 -181c0 -13 -2 -37 -7 -58zM478 254c2 15 3 27 3 41c0 96 -60 160 -160 160
c-141 0 -220 -116 -235 -201h392z" />
    <glyph glyph-name="f" unicode="f" horiz-adv-x="282" 
d="M370 762l-4 -17c-12 3 -25 5 -40 5c-73 0 -102 -63 -113 -124l-29 -166h125l-3 -19h-125l-78 -441h-22l78 441h-97l3 19h96l29 165c20 112 80 143 135 143c19 0 33 -2 45 -6z" />
    <glyph glyph-name="g" unicode="g" horiz-adv-x="617" 
d="M477 118h-3c-36 -74 -112 -132 -208 -132c-138 0 -207 88 -207 205c0 149 102 283 262 283c98 0 170 -59 190 -142h3l22 128h21l-76 -435c-26 -146 -85 -275 -259 -275c-86 0 -151 32 -194 86l15 15c44 -57 109 -82 179 -82c164 0 213 125 238 258zM268 5
c132 0 233 131 233 267c0 101 -70 183 -180 183c-145 0 -240 -126 -240 -263c0 -103 61 -187 187 -187z" />
    <glyph glyph-name="h" unicode="h" horiz-adv-x="566" 
d="M144 339h2c40 89 110 135 189 135c99 0 146 -71 146 -149c0 -14 -2 -32 -6 -52l-48 -273h-22l49 274c3 15 5 36 5 50c0 65 -34 131 -127 131c-101 0 -183 -84 -207 -225l-41 -230h-22l133 756h22z" />
    <glyph glyph-name="i" unicode="i" horiz-adv-x="226" 
d="M84 0h-22l81 460h22zM181 633c-12 0 -21 7 -21 23c0 14 11 28 25 28c12 0 21 -8 21 -22c0 -16 -12 -29 -25 -29z" />
    <glyph glyph-name="j" unicode="j" horiz-adv-x="226" 
d="M67 -97c-14 -75 -41 -144 -132 -144c-9 0 -21 1 -29 3l2 19c9 -2 17 -3 25 -3c85 0 101 64 112 123l98 559h22zM181 633c-12 0 -21 7 -21 23c0 14 11 28 25 28c12 0 21 -8 21 -22c0 -16 -12 -29 -25 -29z" />
    <glyph glyph-name="k" unicode="k" horiz-adv-x="436" 
d="M128 249h2l272 211h34l-280 -215l226 -245h-31l-222 243h-2l-43 -243h-22l133 756h22z" />
    <glyph glyph-name="l" unicode="l" horiz-adv-x="226" 
d="M84 0h-22l133 756h22z" />
    <glyph glyph-name="m" unicode="m" horiz-adv-x="888" 
d="M657 474c99 0 146 -71 146 -149c0 -14 -2 -32 -6 -52l-48 -273h-22l49 274c3 15 5 36 5 50c0 65 -34 131 -127 131c-97 0 -176 -84 -199 -225l-41 -230h-22l49 276c3 15 4 34 4 48c0 65 -31 131 -124 131c-97 0 -173 -84 -196 -225l-41 -230h-22l61 344
c5 29 14 90 15 116h22c-2 -26 -11 -87 -17 -121h2c38 89 103 135 179 135c95 0 143 -66 143 -141h2c39 93 112 141 188 141z" />
    <glyph glyph-name="n" unicode="n" horiz-adv-x="566" 
d="M335 474c99 0 146 -71 146 -149c0 -14 -2 -32 -6 -52l-48 -273h-22l49 274c3 15 5 36 5 50c0 65 -34 131 -127 131c-101 0 -183 -84 -207 -225l-41 -230h-22l61 344c5 29 14 90 15 116h22c-2 -26 -11 -87 -17 -121h2c41 89 111 135 190 135z" />
    <glyph glyph-name="o" unicode="o" horiz-adv-x="598" 
d="M514 267c0 101 -61 188 -192 188c-148 0 -242 -126 -242 -262c0 -102 60 -188 191 -188c148 0 243 125 243 262zM58 192c0 148 103 282 266 282c141 0 212 -91 212 -206c0 -149 -102 -282 -265 -282c-142 0 -213 90 -213 206z" />
    <glyph glyph-name="p" unicode="p" horiz-adv-x="623" 
d="M106 128l-64 -368h-22l123 700h22l-22 -118h3c36 74 112 132 208 132c138 0 207 -88 207 -205c0 -149 -102 -283 -262 -283c-98 0 -170 59 -190 142h-3zM352 455c-132 0 -233 -131 -233 -267c0 -101 70 -183 180 -183c145 0 240 126 240 263c0 103 -61 187 -187 187z" />
    <glyph glyph-name="q" unicode="q" horiz-adv-x="617" 
d="M513 332l22 128h22l-123 -700h-22l64 358h-3c-36 -74 -112 -132 -208 -132c-138 0 -207 88 -207 205c0 149 102 283 262 283c98 0 170 -59 190 -142h3zM267 5c132 0 233 131 233 267c0 101 -70 183 -180 183c-145 0 -240 -126 -240 -263c0 -103 61 -187 187 -187z" />
    <glyph glyph-name="r" unicode="r" horiz-adv-x="309" 
d="M145 339c43 95 109 135 177 135c6 0 12 0 17 -1l-3 -19c-5 1 -10 1 -13 1c-116 0 -179 -116 -197 -217l-42 -238h-22l61 344c5 29 14 90 15 116h22c-2 -26 -11 -87 -17 -121h2z" />
    <glyph glyph-name="s" unicode="s" horiz-adv-x="400" 
d="M20 50l16 14c22 -33 75 -56 129 -56c84 0 137 54 137 118c0 51 -27 77 -116 106c-79 26 -108 54 -108 106c0 90 84 136 161 136c62 0 107 -24 127 -55l-18 -13c-16 30 -65 49 -110 49c-55 0 -138 -29 -138 -114c0 -52 34 -70 99 -91c96 -31 125 -67 125 -123
c0 -79 -64 -139 -163 -139c-60 0 -117 26 -141 62z" />
    <glyph glyph-name="t" unicode="t" horiz-adv-x="292" 
d="M232 -1c-17 -6 -35 -11 -55 -11c-57 0 -87 29 -87 77c0 10 3 34 5 44l59 332h-106l3 19h105l24 135h22l-24 -135h126l-3 -19h-126l-59 -335c-2 -10 -4 -31 -4 -39c0 -44 28 -60 70 -60c12 0 34 3 50 9v-17z" />
    <glyph glyph-name="u" unicode="u" horiz-adv-x="566" 
d="M222 -14c-99 0 -146 71 -146 149c0 14 2 32 6 52l48 273h22l-49 -274c-3 -15 -5 -36 -5 -50c0 -65 34 -131 127 -131c101 0 183 84 207 225l41 230h22l-61 -344c-5 -29 -14 -90 -15 -116h-22c2 26 11 87 17 121h-2c-41 -89 -111 -135 -190 -135z" />
    <glyph glyph-name="v" unicode="v" horiz-adv-x="429" 
d="M448 460l-272 -460h-29l-85 460h23l80 -438h2l256 438h25z" />
    <glyph glyph-name="w" unicode="w" horiz-adv-x="692" 
d="M707 460l-232 -460h-30l-58 436h-2l-241 -436h-30l-38 460h23l34 -438h2l240 438h31l57 -438h2l218 438h24z" />
    <glyph glyph-name="x" unicode="x" horiz-adv-x="435" 
d="M342 0l-131 228l-208 -228h-29l226 244l-120 216h25l110 -202l181 202h30l-199 -218l141 -242h-26z" />
    <glyph glyph-name="y" unicode="y" horiz-adv-x="428" 
d="M447 460l-336 -612c-31 -57 -64 -90 -123 -90c-12 0 -31 3 -40 7l4 19c7 -3 23 -6 36 -6c62 0 89 47 112 89l65 120l-96 473h22l89 -448l242 448h25z" />
    <glyph glyph-name="z" unicode="z" horiz-adv-x="430" 
d="M343 0h-338l2 21l378 420h-286l3 19h310l-4 -22l-375 -419h313z" />
    <glyph glyph-name="braceleft" unicode="{" horiz-adv-x="300" 
d="M9 279l3 18c44 0 81 22 98 115l34 195c17 94 67 125 128 125h47l-3 -19h-47c-58 0 -91 -39 -103 -106l-35 -196c-14 -84 -48 -115 -88 -122v-2c37 -7 60 -38 45 -122l-34 -196c-12 -67 7 -106 65 -106h47l-4 -19h-47c-61 0 -100 31 -83 125l34 195c16 93 -13 115 -57 115
z" />
    <glyph glyph-name="bar" unicode="|" horiz-adv-x="222" 
d="M99 750h22v-1000h-22v1000z" />
    <glyph glyph-name="braceright" unicode="}" horiz-adv-x="300" 
d="M309 279c-44 0 -81 -22 -97 -115l-34 -195c-17 -94 -68 -125 -129 -125h-47l4 19h47c58 0 91 39 103 106l34 196c15 84 48 115 89 122v2c-38 7 -60 38 -46 122l35 196c12 67 -7 106 -65 106h-47l3 19h47c61 0 101 -31 84 -125l-34 -195c-17 -93 12 -115 56 -115z" />
    <glyph glyph-name="asciitilde" unicode="~" horiz-adv-x="666" 
d="M93 264c43 73 86 93 132 93c37 0 64 -10 100 -35c59 -41 91 -50 119 -50c53 0 88 40 116 85l15 -16c-40 -62 -86 -90 -131 -90s-68 13 -101 35c-59 39 -79 50 -116 50c-54 0 -88 -33 -117 -86z" />
    <glyph glyph-name="uni00A0" unicode="&#xa0;" horiz-adv-x="250" 
 />
    <glyph glyph-name="Agrave" unicode="&#xc0;" horiz-adv-x="633" 
d="M577 0h-22l-36 203h-400l-129 -203h-27l455 708h33zM516 222l-84 471l-301 -471h385zM320 908h28l106 -144h-20z" />
    <glyph glyph-name="Aacute" unicode="&#xc1;" horiz-adv-x="633" 
d="M577 0h-22l-36 203h-400l-129 -203h-27l455 708h33zM516 222l-84 471l-301 -471h385zM578 908l-135 -144h-20l127 144h28z" />
    <glyph glyph-name="Acircumflex" unicode="&#xc2;" horiz-adv-x="633" 
d="M577 0h-22l-36 203h-400l-129 -203h-27l455 708h33zM516 222l-84 471l-301 -471h385zM454 908h29l73 -144h-20l-68 132l-120 -132h-24z" />
    <glyph glyph-name="Atilde" unicode="&#xc3;" horiz-adv-x="633" 
d="M577 0h-22l-36 203h-400l-129 -203h-27l455 708h33zM516 222l-84 471l-301 -471h385zM456 838c32 -22 41 -24 56 -24c23 0 38 15 49 48h17c-14 -48 -42 -67 -69 -67c-21 0 -33 5 -60 24c-30 22 -40 24 -55 24c-23 0 -38 -18 -49 -51h-17c14 48 42 70 69 70
c21 0 33 -6 59 -24z" />
    <glyph glyph-name="Adieresis" unicode="&#xc4;" horiz-adv-x="633" 
d="M577 0h-22l-36 203h-400l-129 -203h-27l455 708h33zM516 222l-84 471l-301 -471h385zM382 833c-12 0 -21 7 -21 23c0 14 11 28 25 28c12 0 21 -8 21 -22c0 -16 -12 -29 -25 -29zM532 833c-12 0 -21 7 -21 23c0 14 11 28 25 28c12 0 21 -8 21 -22c0 -16 -12 -29 -25 -29z
" />
    <glyph glyph-name="Amacron" unicode="&#x100;" horiz-adv-x="633" 
d="M577 0h-22l-36 203h-400l-129 -203h-27l455 708h33zM516 222l-84 471l-301 -471h385zM568 821h-232l4 20h232z" />
    <glyph glyph-name="Abreve" unicode="&#x102;" horiz-adv-x="633" 
d="M577 0h-22l-36 203h-400l-129 -203h-27l455 708h33zM516 222l-84 471l-301 -471h385zM582 898c-21 -83 -73 -126 -144 -126c-65 0 -107 45 -107 126h17c0 -69 37 -106 91 -106c62 0 104 30 127 106h16z" />
    <glyph glyph-name="Aring" unicode="&#xc5;" horiz-adv-x="633" 
d="M577 0h-22l-36 203h-400l-129 -203h-27l455 708h33zM516 222l-84 471l-301 -471h385zM532 864c0 34 -20 65 -65 65c-52 0 -84 -44 -84 -93c0 -35 19 -64 65 -64c51 0 84 43 84 92zM365 835c0 58 40 110 103 110c55 0 82 -36 82 -80c0 -58 -39 -110 -103 -110
c-55 0 -82 35 -82 80z" />
    <glyph glyph-name="Aogonek" unicode="&#x104;" horiz-adv-x="633" 
d="M588 -176l7 -16c-24 -19 -51 -31 -82 -31c-42 0 -77 20 -77 63c0 51 34 91 119 160l-36 203h-400l-129 -203h-27l455 708h33l126 -708h1c-93 -81 -119 -111 -119 -156c0 -31 21 -49 55 -49c27 0 55 12 74 29zM516 222l-84 471l-301 -471h385z" />
    <glyph glyph-name="AE" unicode="&#xc6;" horiz-adv-x="935" 
d="M943 708l-4 -20h-345l-55 -311h331l-3 -20h-331l-59 -337h375l-4 -20h-397l36 206h-323l-171 -206h-27l585 708h392zM491 226l81 462h-12l-379 -462h310z" />
    <glyph glyph-name="Cacute" unicode="&#x106;" horiz-adv-x="724" 
d="M635 89l10 -17c-69 -62 -153 -92 -240 -92c-214 0 -315 131 -315 308c0 230 176 440 415 440c88 0 176 -30 223 -91l-16 -16c-45 60 -130 87 -208 87c-225 0 -392 -202 -392 -416c0 -162 89 -292 292 -292c82 0 165 30 231 89zM618 908l-135 -144h-20l127 144h28z" />
    <glyph glyph-name="Ccircumflex" unicode="&#x108;" horiz-adv-x="724" 
d="M635 89l10 -17c-69 -62 -153 -92 -240 -92c-214 0 -315 131 -315 308c0 230 176 440 415 440c88 0 176 -30 223 -91l-16 -16c-45 60 -130 87 -208 87c-225 0 -392 -202 -392 -416c0 -162 89 -292 292 -292c82 0 165 30 231 89zM526 908h29l73 -144h-20l-68 132l-120 -132
h-24z" />
    <glyph glyph-name="Ccaron" unicode="&#x10c;" horiz-adv-x="724" 
d="M635 89l10 -17c-69 -62 -153 -92 -240 -92c-214 0 -315 131 -315 308c0 230 176 440 415 440c88 0 176 -30 223 -91l-16 -16c-45 60 -130 87 -208 87c-225 0 -392 -202 -392 -416c0 -162 89 -292 292 -292c82 0 165 30 231 89zM523 764h-29l-73 144h20l68 -132l120 132
h24z" />
    <glyph glyph-name="Cdotaccent" unicode="&#x10a;" horiz-adv-x="724" 
d="M635 89l10 -17c-69 -62 -153 -92 -240 -92c-214 0 -315 131 -315 308c0 230 176 440 415 440c88 0 176 -30 223 -91l-16 -16c-45 60 -130 87 -208 87c-225 0 -392 -202 -392 -416c0 -162 89 -292 292 -292c82 0 165 30 231 89zM538 833c-12 0 -21 7 -21 23
c0 14 11 28 25 28c12 0 21 -8 21 -22c0 -16 -12 -29 -25 -29z" />
    <glyph glyph-name="Ccedilla" unicode="&#xc7;" horiz-adv-x="724" 
d="M366 -226c-25 0 -66 7 -92 20l7 17c22 -11 61 -18 85 -18c73 0 99 31 99 66c0 34 -32 46 -61 46c-18 0 -57 -6 -74 -15l-9 9l71 81c-205 5 -302 134 -302 308c0 230 176 440 415 440c88 0 176 -30 223 -91l-16 -16c-45 60 -130 87 -208 87c-225 0 -392 -202 -392 -416
c0 -162 89 -292 292 -292c82 0 165 30 231 89l10 -17c-67 -60 -148 -90 -232 -92l-58 -66c18 6 32 8 51 8c37 0 80 -15 80 -61c0 -61 -51 -87 -120 -87z" />
    <glyph glyph-name="Dcaron" unicode="&#x10e;" horiz-adv-x="775" 
d="M257 0h-191l125 708h186c193 0 339 -104 339 -292c0 -292 -211 -416 -459 -416zM373 688h-163l-117 -668h163c237 0 438 114 438 393c0 179 -137 275 -321 275zM428 764h-29l-73 144h20l68 -132l120 132h24z" />
    <glyph glyph-name="Dcroat" unicode="&#x110;" horiz-adv-x="775" 
d="M129 358h-78l4 20h78l58 330h186c193 0 339 -104 339 -292c0 -292 -211 -416 -459 -416h-191zM156 378h266l-4 -20h-266l-59 -338h163c237 0 438 114 438 393c0 179 -137 275 -321 275h-163z" />
    <glyph glyph-name="Eth" unicode="&#xd0;" horiz-adv-x="775" 
d="M129 358h-78l4 20h78l58 330h186c193 0 339 -104 339 -292c0 -292 -211 -416 -459 -416h-191zM156 378h266l-4 -20h-266l-59 -338h163c237 0 438 114 438 393c0 179 -137 275 -321 275h-163z" />
    <glyph glyph-name="Egrave" unicode="&#xc8;" horiz-adv-x="576" 
d="M489 0h-423l125 708h393l-4 -20h-372l-55 -311h358l-3 -20h-358l-59 -337h402zM292 908h28l106 -144h-20z" />
    <glyph glyph-name="Eacute" unicode="&#xc9;" horiz-adv-x="576" 
d="M489 0h-423l125 708h393l-4 -20h-372l-55 -311h358l-3 -20h-358l-59 -337h402zM529 908l-135 -144h-20l127 144h28z" />
    <glyph glyph-name="Ecircumflex" unicode="&#xca;" horiz-adv-x="576" 
d="M489 0h-423l125 708h393l-4 -20h-372l-55 -311h358l-3 -20h-358l-59 -337h402zM410 908h29l73 -144h-20l-68 132l-120 -132h-24z" />
    <glyph glyph-name="Ecaron" unicode="&#x11a;" horiz-adv-x="576" 
d="M489 0h-423l125 708h393l-4 -20h-372l-55 -311h358l-3 -20h-358l-59 -337h402zM414 764h-29l-73 144h20l68 -132l120 132h24z" />
    <glyph glyph-name="Edieresis" unicode="&#xcb;" horiz-adv-x="576" 
d="M489 0h-423l125 708h393l-4 -20h-372l-55 -311h358l-3 -20h-358l-59 -337h402zM333 833c-12 0 -21 7 -21 23c0 14 11 28 25 28c12 0 21 -8 21 -22c0 -16 -12 -29 -25 -29zM483 833c-12 0 -21 7 -21 23c0 14 11 28 25 28c12 0 21 -8 21 -22c0 -16 -12 -29 -25 -29z" />
    <glyph glyph-name="Emacron" unicode="&#x112;" horiz-adv-x="576" 
d="M489 0h-423l125 708h393l-4 -20h-372l-55 -311h358l-3 -20h-358l-59 -337h402zM525 821h-232l4 20h232z" />
    <glyph glyph-name="Ebreve" unicode="&#x114;" horiz-adv-x="576" 
d="M489 0h-423l125 708h393l-4 -20h-372l-55 -311h358l-3 -20h-358l-59 -337h402zM539 898c-21 -83 -73 -126 -144 -126c-65 0 -107 45 -107 126h17c0 -69 37 -106 91 -106c62 0 104 30 127 106h16z" />
    <glyph glyph-name="Edotaccent" unicode="&#x116;" horiz-adv-x="576" 
d="M489 0h-423l125 708h393l-4 -20h-372l-55 -311h358l-3 -20h-358l-59 -337h402zM414 833c-12 0 -21 7 -21 23c0 14 11 28 25 28c12 0 21 -8 21 -22c0 -16 -12 -29 -25 -29z" />
    <glyph glyph-name="Eogonek" unicode="&#x118;" horiz-adv-x="585" 
d="M486 -176l7 -16c-24 -19 -51 -31 -82 -31c-42 0 -77 20 -77 63c0 51 34 91 119 160h-387l125 708h398l-4 -20h-377l-55 -311h363l-3 -20h-363l-59 -337h407l-4 -20h-18c-93 -81 -119 -111 -119 -156c0 -31 21 -49 55 -49c27 0 55 12 74 29z" />
    <glyph glyph-name="Gcircumflex" unicode="&#x11c;" horiz-adv-x="770" 
d="M402 -20c-214 0 -312 130 -312 308c0 230 176 440 415 440c88 0 176 -30 223 -91l-16 -16c-45 60 -130 87 -208 87c-225 0 -392 -202 -392 -416c0 -162 87 -292 290 -292c87 0 170 22 222 53l49 278h-184l4 19h205l-55 -309c-54 -34 -145 -61 -241 -61zM528 908h29
l73 -144h-20l-68 132l-120 -132h-24z" />
    <glyph glyph-name="Gbreve" unicode="&#x11e;" horiz-adv-x="770" 
d="M402 -20c-214 0 -312 130 -312 308c0 230 176 440 415 440c88 0 176 -30 223 -91l-16 -16c-45 60 -130 87 -208 87c-225 0 -392 -202 -392 -416c0 -162 87 -292 290 -292c87 0 170 22 222 53l49 278h-184l4 19h205l-55 -309c-54 -34 -145 -61 -241 -61zM660 898
c-21 -83 -73 -126 -144 -126c-65 0 -107 45 -107 126h17c0 -69 37 -106 91 -106c62 0 104 30 127 106h16z" />
    <glyph glyph-name="Gdotaccent" unicode="&#x120;" horiz-adv-x="770" 
d="M402 -20c-214 0 -312 130 -312 308c0 230 176 440 415 440c88 0 176 -30 223 -91l-16 -16c-45 60 -130 87 -208 87c-225 0 -392 -202 -392 -416c0 -162 87 -292 290 -292c87 0 170 22 222 53l49 278h-184l4 19h205l-55 -309c-54 -34 -145 -61 -241 -61zM531 833
c-12 0 -21 7 -21 23c0 14 11 28 25 28c12 0 21 -8 21 -22c0 -16 -12 -29 -25 -29z" />
    <glyph glyph-name="Gcommaaccent" unicode="&#x122;" horiz-adv-x="770" 
d="M402 -20c-214 0 -312 130 -312 308c0 230 176 440 415 440c88 0 176 -30 223 -91l-16 -16c-45 60 -130 87 -208 87c-225 0 -392 -202 -392 -416c0 -162 87 -292 290 -292c87 0 170 22 222 53l49 278h-184l4 19h205l-55 -309c-54 -34 -145 -61 -241 -61zM420 -45l-95 -188
h-17l88 188h24z" />
    <glyph glyph-name="Hcircumflex" unicode="&#x124;" horiz-adv-x="720" 
d="M574 0h-22l63 356h-464l-63 -356h-22l125 708h22l-59 -332h464l59 332h22zM466 908h29l73 -144h-20l-68 132l-120 -132h-24z" />
    <glyph glyph-name="Hbar" unicode="&#x126;" horiz-adv-x="720" 
d="M574 0h-22l63 356h-464l-63 -356h-22l125 708h22l-34 -190h464l34 190h22zM154 376h464l22 124h-464z" />
    <glyph glyph-name="Igrave" unicode="&#xcc;" horiz-adv-x="234" 
d="M88 0h-22l125 708h22zM88 908h28l106 -144h-20z" />
    <glyph glyph-name="Iacute" unicode="&#xcd;" horiz-adv-x="234" 
d="M88 0h-22l125 708h22zM353 908l-135 -144h-20l127 144h28z" />
    <glyph glyph-name="Icircumflex" unicode="&#xce;" horiz-adv-x="234" 
d="M88 0h-22l125 708h22zM221 908h29l73 -144h-20l-68 132l-120 -132h-24z" />
    <glyph glyph-name="Itilde" unicode="&#x128;" horiz-adv-x="234" 
d="M88 0h-22l125 708h22zM224 838c32 -22 41 -24 56 -24c23 0 38 15 49 48h17c-14 -48 -42 -67 -69 -67c-21 0 -33 5 -60 24c-30 22 -40 24 -55 24c-23 0 -38 -18 -49 -51h-17c14 48 42 70 69 70c21 0 33 -6 59 -24z" />
    <glyph glyph-name="Idieresis" unicode="&#xcf;" horiz-adv-x="234" 
d="M88 0h-22l125 708h22zM146 833c-12 0 -21 7 -21 23c0 14 11 28 25 28c12 0 21 -8 21 -22c0 -16 -12 -29 -25 -29zM296 833c-12 0 -21 7 -21 23c0 14 11 28 25 28c12 0 21 -8 21 -22c0 -16 -12 -29 -25 -29z" />
    <glyph glyph-name="Imacron" unicode="&#x12a;" horiz-adv-x="234" 
d="M88 0h-22l125 708h22zM333 821h-232l4 20h232z" />
    <glyph glyph-name="Idotaccent" unicode="&#x130;" horiz-adv-x="234" 
d="M88 0h-22l125 708h22zM222 833c-12 0 -21 7 -21 23c0 14 11 28 25 28c12 0 21 -8 21 -22c0 -16 -12 -29 -25 -29z" />
    <glyph glyph-name="Ibreve" unicode="&#x12c;" horiz-adv-x="234" 
d="M88 0h-22l125 708h22zM359 898c-21 -83 -73 -126 -144 -126c-65 0 -107 45 -107 126h17c0 -69 37 -106 91 -106c62 0 104 30 127 106h16z" />
    <glyph glyph-name="Iogonek" unicode="&#x12e;" horiz-adv-x="234" 
d="M98 -176l7 -16c-24 -19 -51 -31 -82 -31c-42 0 -77 20 -77 63c0 51 34 92 119 161h1l125 707h22l-125 -707v-1h-1c-92 -80 -118 -111 -118 -156c0 -31 21 -49 55 -49c27 0 55 12 74 29z" />
    <glyph glyph-name="Jcircumflex" unicode="&#x134;" horiz-adv-x="480" 
d="M372 193c-23 -130 -85 -211 -210 -211c-83 0 -140 50 -156 111l20 9c17 -60 70 -100 138 -100c114 0 167 79 187 194l90 512h22zM474 908h29l73 -144h-20l-68 132l-120 -132h-24z" />
    <glyph glyph-name="Kcommaaccent" unicode="&#x136;" horiz-adv-x="529" 
d="M156 385h1l394 323h32l-399 -327l308 -381h-28l-308 381h-1l-67 -381h-22l125 708h22zM278 -45l-95 -188h-17l88 188h24z" />
    <glyph glyph-name="Lacute" unicode="&#x139;" horiz-adv-x="498" 
d="M440 0h-374l125 708h22l-121 -688h352zM354 908l-135 -144h-20l127 144h28z" />
    <glyph glyph-name="Lcaron" unicode="&#x13d;" horiz-adv-x="498" 
d="M440 0h-374l125 708h22l-121 -688h352zM408 708l-95 -188h-17l88 188h24z" />
    <glyph glyph-name="Lcommaaccent" unicode="&#x13b;" horiz-adv-x="498" 
d="M440 0h-374l125 708h22l-121 -688h352zM273 -45l-95 -188h-17l88 188h24z" />
    <glyph glyph-name="Lslash" unicode="&#x141;" horiz-adv-x="498" 
d="M111 258l-75 -60l5 27l75 60l75 423h22l-72 -406l240 186l-4 -24l-241 -189l-44 -255h352l-4 -20h-374z" />
    <glyph glyph-name="Ldot" unicode="&#x13f;" horiz-adv-x="498" 
d="M440 0h-374l125 708h22l-121 -688h352zM304 413c-12 0 -21 7 -21 23c0 14 11 28 25 28c12 0 21 -8 21 -22c0 -16 -12 -29 -25 -29z" />
    <glyph glyph-name="Nacute" unicode="&#x143;" horiz-adv-x="749" 
d="M603 0h-32l-360 683h-3l-120 -683h-22l125 708h31l361 -682h3l120 682h22zM590 908l-135 -144h-20l127 144h28z" />
    <glyph glyph-name="Ncaron" unicode="&#x147;" horiz-adv-x="749" 
d="M603 0h-32l-360 683h-3l-120 -683h-22l125 708h31l361 -682h3l120 682h22zM480 764h-29l-73 144h20l68 -132l120 132h24z" />
    <glyph glyph-name="Ntilde" unicode="&#xd1;" horiz-adv-x="749" 
d="M603 0h-32l-360 683h-3l-120 -683h-22l125 708h31l361 -682h3l120 682h22zM480 838c32 -22 41 -24 56 -24c23 0 38 15 49 48h17c-14 -48 -42 -67 -69 -67c-21 0 -33 5 -60 24c-30 22 -40 24 -55 24c-23 0 -38 -18 -49 -51h-17c14 48 42 70 69 70c21 0 33 -6 59 -24z" />
    <glyph glyph-name="Ncommaaccent" unicode="&#x145;" horiz-adv-x="749" 
d="M603 0h-32l-360 683h-3l-120 -683h-22l125 708h31l361 -682h3l120 682h22zM353 -45l-95 -188h-17l88 188h24z" />
    <glyph glyph-name="Eng" unicode="&#x14a;" horiz-adv-x="749" 
d="M586 -97c-14 -75 -41 -144 -132 -144c-9 0 -21 1 -29 3l2 19c9 -2 17 -3 25 -3c85 0 101 64 112 123l16 89l-369 693h-3l-120 -683h-22l125 708h31l363 -680h2l119 680h22z" />
    <glyph glyph-name="Ograve" unicode="&#xd2;" horiz-adv-x="872" 
d="M791 411c0 164 -93 297 -296 297c-230 0 -383 -199 -383 -413c0 -164 94 -295 297 -295c230 0 382 197 382 411zM90 295c0 227 159 433 405 433c214 0 318 -137 318 -317c0 -227 -158 -431 -404 -431c-214 0 -319 135 -319 315zM414 908h28l106 -144h-20z" />
    <glyph glyph-name="Oacute" unicode="&#xd3;" horiz-adv-x="872" 
d="M791 411c0 164 -93 297 -296 297c-230 0 -383 -199 -383 -413c0 -164 94 -295 297 -295c230 0 382 197 382 411zM90 295c0 227 159 433 405 433c214 0 318 -137 318 -317c0 -227 -158 -431 -404 -431c-214 0 -319 135 -319 315zM641 908l-135 -144h-20l127 144h28z" />
    <glyph glyph-name="Ocircumflex" unicode="&#xd4;" horiz-adv-x="872" 
d="M791 411c0 164 -93 297 -296 297c-230 0 -383 -199 -383 -413c0 -164 94 -295 297 -295c230 0 382 197 382 411zM90 295c0 227 159 433 405 433c214 0 318 -137 318 -317c0 -227 -158 -431 -404 -431c-214 0 -319 135 -319 315zM539 908h29l73 -144h-20l-68 132
l-120 -132h-24z" />
    <glyph glyph-name="Otilde" unicode="&#xd5;" horiz-adv-x="872" 
d="M791 411c0 164 -93 297 -296 297c-230 0 -383 -199 -383 -413c0 -164 94 -295 297 -295c230 0 382 197 382 411zM90 295c0 227 159 433 405 433c214 0 318 -137 318 -317c0 -227 -158 -431 -404 -431c-214 0 -319 135 -319 315zM537 838c32 -22 41 -24 56 -24
c23 0 38 15 49 48h17c-14 -48 -42 -67 -69 -67c-21 0 -33 5 -60 24c-30 22 -40 24 -55 24c-23 0 -38 -18 -49 -51h-17c14 48 42 70 69 70c21 0 33 -6 59 -24z" />
    <glyph glyph-name="Odieresis" unicode="&#xd6;" horiz-adv-x="872" 
d="M791 411c0 164 -93 297 -296 297c-230 0 -383 -199 -383 -413c0 -164 94 -295 297 -295c230 0 382 197 382 411zM90 295c0 227 159 433 405 433c214 0 318 -137 318 -317c0 -227 -158 -431 -404 -431c-214 0 -319 135 -319 315zM461 833c-12 0 -21 7 -21 23
c0 14 11 28 25 28c12 0 21 -8 21 -22c0 -16 -12 -29 -25 -29zM611 833c-12 0 -21 7 -21 23c0 14 11 28 25 28c12 0 21 -8 21 -22c0 -16 -12 -29 -25 -29z" />
    <glyph glyph-name="Omacron" unicode="&#x14c;" horiz-adv-x="872" 
d="M791 411c0 164 -93 297 -296 297c-230 0 -383 -199 -383 -413c0 -164 94 -295 297 -295c230 0 382 197 382 411zM90 295c0 227 159 433 405 433c214 0 318 -137 318 -317c0 -227 -158 -431 -404 -431c-214 0 -319 135 -319 315zM650 821h-232l4 20h232z" />
    <glyph glyph-name="Obreve" unicode="&#x14e;" horiz-adv-x="872" 
d="M791 411c0 164 -93 297 -296 297c-230 0 -383 -199 -383 -413c0 -164 94 -295 297 -295c230 0 382 197 382 411zM90 295c0 227 159 433 405 433c214 0 318 -137 318 -317c0 -227 -158 -431 -404 -431c-214 0 -319 135 -319 315zM665 898c-21 -83 -73 -126 -144 -126
c-65 0 -107 45 -107 126h17c0 -69 37 -106 91 -106c62 0 104 30 127 106h16z" />
    <glyph glyph-name="Ohungarumlaut" unicode="&#x150;" horiz-adv-x="872" 
d="M791 411c0 164 -93 297 -296 297c-230 0 -383 -199 -383 -413c0 -164 94 -295 297 -295c230 0 382 197 382 411zM90 295c0 227 159 433 405 433c214 0 318 -137 318 -317c0 -227 -158 -431 -404 -431c-214 0 -319 135 -319 315zM602 908l-135 -144h-20l127 144h28z
M723 908l-135 -144h-20l127 144h28z" />
    <glyph glyph-name="Oslash" unicode="&#xd8;" horiz-adv-x="872" 
d="M722 618l-540 -529c48 -55 122 -89 227 -89c230 0 382 197 382 411c0 79 -22 153 -69 207zM710 630c-48 49 -119 78 -215 78c-230 0 -383 -199 -383 -413c0 -73 19 -140 58 -192zM738 633c50 -55 75 -133 75 -222c0 -227 -158 -431 -404 -431c-108 0 -190 35 -243 94
l-87 -85l-12 14l87 85c-43 54 -64 125 -64 207c0 227 159 433 405 433c100 0 177 -30 231 -82l79 77l12 -13z" />
    <glyph glyph-name="OE" unicode="&#x152;" horiz-adv-x="961" 
d="M429 0c-193 0 -339 104 -339 292c0 292 211 416 459 416h420l-4 -20h-345l-55 -311h331l-3 -20h-331l-59 -337h375l-4 -20h-445zM433 20h49l117 668h-49c-237 0 -438 -114 -438 -393c0 -179 137 -275 321 -275z" />
    <glyph glyph-name="Racute" unicode="&#x154;" horiz-adv-x="594" 
d="M503 0h-24l-162 357h-166l-63 -357h-22l125 708h165c96 0 203 -35 203 -150c0 -166 -132 -197 -220 -200zM537 555c0 101 -92 134 -189 134h-139l-55 -313h160c136 0 223 53 223 179zM493 908l-135 -144h-20l127 144h28z" />
    <glyph glyph-name="Rcaron" unicode="&#x158;" horiz-adv-x="594" 
d="M503 0h-24l-162 357h-166l-63 -357h-22l125 708h165c96 0 203 -35 203 -150c0 -166 -132 -197 -220 -200zM537 555c0 101 -92 134 -189 134h-139l-55 -313h160c136 0 223 53 223 179zM382 764h-29l-73 144h20l68 -132l120 132h24z" />
    <glyph glyph-name="Rcommaaccent" unicode="&#x156;" horiz-adv-x="594" 
d="M503 0h-24l-162 357h-166l-63 -357h-22l125 708h165c96 0 203 -35 203 -150c0 -166 -132 -197 -220 -200zM537 555c0 101 -92 134 -189 134h-139l-55 -313h160c136 0 223 53 223 179zM270 -45l-95 -188h-17l88 188h24z" />
    <glyph glyph-name="Sacute" unicode="&#x15a;" horiz-adv-x="570" 
d="M552 643l-17 -14c-25 46 -98 79 -177 79c-91 0 -218 -52 -218 -179c0 -94 63 -118 156 -151c110 -39 189 -80 189 -188c0 -128 -101 -210 -250 -210c-86 0 -168 41 -202 95l17 13c27 -45 98 -88 191 -88c128 0 222 69 222 189c0 102 -82 137 -185 172
c-88 30 -160 65 -160 167c0 136 129 200 242 200c95 0 162 -38 192 -85zM484 908l-135 -144h-20l127 144h28z" />
    <glyph glyph-name="Scircumflex" unicode="&#x15c;" horiz-adv-x="570" 
d="M552 643l-17 -14c-25 46 -98 79 -177 79c-91 0 -218 -52 -218 -179c0 -94 63 -118 156 -151c110 -39 189 -80 189 -188c0 -128 -101 -210 -250 -210c-86 0 -168 41 -202 95l17 13c27 -45 98 -88 191 -88c128 0 222 69 222 189c0 102 -82 137 -185 172
c-88 30 -160 65 -160 167c0 136 129 200 242 200c95 0 162 -38 192 -85zM394 908h29l73 -144h-20l-68 132l-120 -132h-24z" />
    <glyph glyph-name="Scaron" unicode="&#x160;" horiz-adv-x="570" 
d="M552 643l-17 -14c-25 46 -98 79 -177 79c-91 0 -218 -52 -218 -179c0 -94 63 -118 156 -151c110 -39 189 -80 189 -188c0 -128 -101 -210 -250 -210c-86 0 -168 41 -202 95l17 13c27 -45 98 -88 191 -88c128 0 222 69 222 189c0 102 -82 137 -185 172
c-88 30 -160 65 -160 167c0 136 129 200 242 200c95 0 162 -38 192 -85zM382 764h-29l-73 144h20l68 -132l120 132h24z" />
    <glyph glyph-name="Scedilla" unicode="&#x15e;" horiz-adv-x="570" 
d="M209 -226c-25 0 -66 7 -92 20l7 17c22 -11 61 -18 85 -18c73 0 99 31 99 66c0 34 -32 46 -61 46c-18 0 -57 -6 -74 -15l-9 9l70 81c-86 1 -167 41 -201 95l17 13c27 -45 98 -88 191 -88c128 0 222 69 222 189c0 102 -82 137 -185 172c-88 30 -160 65 -160 167
c0 136 129 200 242 200c95 0 162 -38 192 -85l-17 -14c-25 46 -98 79 -177 79c-91 0 -218 -52 -218 -179c0 -94 63 -118 156 -151c110 -39 189 -80 189 -188c0 -122 -92 -202 -230 -209l-57 -67c18 6 32 8 51 8c37 0 80 -15 80 -61c0 -61 -51 -87 -120 -87z" />
    <glyph glyph-name="Scommaaccent" unicode="&#x218;" horiz-adv-x="570" 
d="M552 643l-17 -14c-25 46 -98 79 -177 79c-91 0 -218 -52 -218 -179c0 -94 63 -118 156 -151c110 -39 189 -80 189 -188c0 -128 -101 -210 -250 -210c-86 0 -168 41 -202 95l17 13c27 -45 98 -88 191 -88c128 0 222 69 222 189c0 102 -82 137 -185 172
c-88 30 -160 65 -160 167c0 136 129 200 242 200c95 0 162 -38 192 -85zM262 -45l-95 -188h-17l88 188h24z" />
    <glyph glyph-name="Tcaron" unicode="&#x164;" horiz-adv-x="515" 
d="M586 688h-237l-121 -688h-22l121 688h-245l4 20h504zM364 764h-29l-73 144h20l68 -132l120 132h24z" />
    <glyph glyph-name="uni0162" unicode="&#x162;" horiz-adv-x="515" 
d="M586 688h-237l-121 -688h-22l121 688h-245l4 20h504zM246 -45l-95 -188h-17l88 188h24z" />
    <glyph glyph-name="uni021A" unicode="&#x21a;" horiz-adv-x="515" 
d="M586 688h-237l-121 -688h-22l121 688h-245l4 20h504zM246 -45l-95 -188h-17l88 188h24z" />
    <glyph glyph-name="Tbar" unicode="&#x166;" horiz-adv-x="540" 
d="M530 527h-196l-93 -527h-22l92 527h-201l4 18h200l26 143h-245l4 20h504l-4 -20h-237l-25 -143h197z" />
    <glyph glyph-name="Thorn" unicode="&#xde;" horiz-adv-x="560" 
d="M292 190h-170l-34 -190h-22l125 708h22l-28 -157h158c93 0 191 -38 191 -157c0 -107 -73 -204 -242 -204zM512 395c0 100 -86 137 -164 137h-167l-56 -322h172c139 0 215 75 215 185z" />
    <glyph glyph-name="Ugrave" unicode="&#xd9;" horiz-adv-x="716" 
d="M629 268c-28 -160 -94 -288 -294 -288c-158 0 -239 82 -239 217c0 24 4 54 9 80l76 431h22l-76 -432c-5 -31 -9 -58 -9 -79c0 -111 66 -197 217 -197c210 0 253 156 273 272l77 436h22zM332 908h28l106 -144h-20z" />
    <glyph glyph-name="Uacute" unicode="&#xda;" horiz-adv-x="716" 
d="M629 268c-28 -160 -94 -288 -294 -288c-158 0 -239 82 -239 217c0 24 4 54 9 80l76 431h22l-76 -432c-5 -31 -9 -58 -9 -79c0 -111 66 -197 217 -197c210 0 253 156 273 272l77 436h22zM568 908l-135 -144h-20l127 144h28z" />
    <glyph glyph-name="Ucircumflex" unicode="&#xdb;" horiz-adv-x="716" 
d="M629 268c-28 -160 -94 -288 -294 -288c-158 0 -239 82 -239 217c0 24 4 54 9 80l76 431h22l-76 -432c-5 -31 -9 -58 -9 -79c0 -111 66 -197 217 -197c210 0 253 156 273 272l77 436h22zM464 908h29l73 -144h-20l-68 132l-120 -132h-24z" />
    <glyph glyph-name="Utilde" unicode="&#x168;" horiz-adv-x="716" 
d="M629 268c-28 -160 -94 -288 -294 -288c-158 0 -239 82 -239 217c0 24 4 54 9 80l76 431h22l-76 -432c-5 -31 -9 -58 -9 -79c0 -111 66 -197 217 -197c210 0 253 156 273 272l77 436h22zM459 838c32 -22 41 -24 56 -24c23 0 38 15 49 48h17c-14 -48 -42 -67 -69 -67
c-21 0 -33 5 -60 24c-30 22 -40 24 -55 24c-23 0 -38 -18 -49 -51h-17c14 48 42 70 69 70c21 0 33 -6 59 -24z" />
    <glyph glyph-name="Udieresis" unicode="&#xdc;" horiz-adv-x="716" 
d="M629 268c-28 -160 -94 -288 -294 -288c-158 0 -239 82 -239 217c0 24 4 54 9 80l76 431h22l-76 -432c-5 -31 -9 -58 -9 -79c0 -111 66 -197 217 -197c210 0 253 156 273 272l77 436h22zM388 833c-12 0 -21 7 -21 23c0 14 11 28 25 28c12 0 21 -8 21 -22
c0 -16 -12 -29 -25 -29zM538 833c-12 0 -21 7 -21 23c0 14 11 28 25 28c12 0 21 -8 21 -22c0 -16 -12 -29 -25 -29z" />
    <glyph glyph-name="Umacron" unicode="&#x16a;" horiz-adv-x="716" 
d="M629 268c-28 -160 -94 -288 -294 -288c-158 0 -239 82 -239 217c0 24 4 54 9 80l76 431h22l-76 -432c-5 -31 -9 -58 -9 -79c0 -111 66 -197 217 -197c210 0 253 156 273 272l77 436h22zM571 821h-232l4 20h232z" />
    <glyph glyph-name="Ubreve" unicode="&#x16c;" horiz-adv-x="716" 
d="M629 268c-28 -160 -94 -288 -294 -288c-158 0 -239 82 -239 217c0 24 4 54 9 80l76 431h22l-76 -432c-5 -31 -9 -58 -9 -79c0 -111 66 -197 217 -197c210 0 253 156 273 272l77 436h22zM586 898c-21 -83 -73 -126 -144 -126c-65 0 -107 45 -107 126h17
c0 -69 37 -106 91 -106c62 0 104 30 127 106h16z" />
    <glyph glyph-name="Uring" unicode="&#x16e;" horiz-adv-x="716" 
d="M629 268c-28 -160 -94 -288 -294 -288c-158 0 -239 82 -239 217c0 24 4 54 9 80l76 431h22l-76 -432c-5 -31 -9 -58 -9 -79c0 -111 66 -197 217 -197c210 0 253 156 273 272l77 436h22zM537 864c0 34 -20 65 -65 65c-52 0 -84 -44 -84 -93c0 -35 19 -64 65 -64
c51 0 84 43 84 92zM370 835c0 58 40 110 103 110c55 0 82 -36 82 -80c0 -58 -39 -110 -103 -110c-55 0 -82 35 -82 80z" />
    <glyph glyph-name="Uhungarumlaut" unicode="&#x170;" horiz-adv-x="716" 
d="M629 268c-28 -160 -94 -288 -294 -288c-158 0 -239 82 -239 217c0 24 4 54 9 80l76 431h22l-76 -432c-5 -31 -9 -58 -9 -79c0 -111 66 -197 217 -197c210 0 253 156 273 272l77 436h22zM526 908l-135 -144h-20l127 144h28zM647 908l-135 -144h-20l127 144h28z" />
    <glyph glyph-name="Uogonek" unicode="&#x172;" horiz-adv-x="716" 
d="M404 -176l7 -16c-24 -19 -51 -31 -82 -31c-42 0 -77 20 -77 63c0 46 27 83 94 140h-11c-158 0 -239 82 -239 217c0 24 4 54 9 80l76 431h22l-76 -432c-5 -31 -9 -58 -9 -79c0 -111 66 -197 217 -197c210 0 253 156 273 272l77 436h22l-78 -440
c-26 -150 -86 -271 -256 -286c-76 -68 -98 -96 -98 -138c0 -31 21 -49 55 -49c27 0 55 12 74 29z" />
    <glyph glyph-name="Wcircumflex" unicode="&#x174;" horiz-adv-x="943" 
d="M1017 708l-365 -708h-35l-57 685h-2l-349 -685h-35l-59 708h23l56 -687h3l349 687h34l57 -687h3l352 687h25zM584 908h29l73 -144h-20l-68 132l-120 -132h-24z" />
    <glyph glyph-name="Wacute" unicode="&#x1e82;" horiz-adv-x="943" 
d="M1017 708l-365 -708h-35l-57 685h-2l-349 -685h-35l-59 708h23l56 -687h3l349 687h34l57 -687h3l352 687h25zM719 908l-135 -144h-20l127 144h28z" />
    <glyph glyph-name="Wdieresis" unicode="&#x1e84;" horiz-adv-x="943" 
d="M1017 708l-365 -708h-35l-57 685h-2l-349 -685h-35l-59 708h23l56 -687h3l349 687h34l57 -687h3l352 687h25zM512 833c-12 0 -21 7 -21 23c0 14 11 28 25 28c12 0 21 -8 21 -22c0 -16 -12 -29 -25 -29zM662 833c-12 0 -21 7 -21 23c0 14 11 28 25 28c12 0 21 -8 21 -22
c0 -16 -12 -29 -25 -29z" />
    <glyph glyph-name="Wgrave" unicode="&#x1e80;" horiz-adv-x="943" 
d="M1017 708l-365 -708h-35l-57 685h-2l-349 -685h-35l-59 708h23l56 -687h3l349 687h34l57 -687h3l352 687h25zM448 908h28l106 -144h-20z" />
    <glyph glyph-name="Yacute" unicode="&#xdd;" horiz-adv-x="513" 
d="M598 708l-324 -398l-55 -310h-22l55 310l-162 398h24l152 -376l305 376h27zM479 908l-135 -144h-20l127 144h28z" />
    <glyph glyph-name="Ycircumflex" unicode="&#x176;" horiz-adv-x="513" 
d="M598 708l-324 -398l-55 -310h-22l55 310l-162 398h24l152 -376l305 376h27zM369 908h29l73 -144h-20l-68 132l-120 -132h-24z" />
    <glyph glyph-name="Ydieresis" unicode="&#x178;" horiz-adv-x="513" 
d="M598 708l-324 -398l-55 -310h-22l55 310l-162 398h24l152 -376l305 376h27zM289 833c-12 0 -21 7 -21 23c0 14 11 28 25 28c12 0 21 -8 21 -22c0 -16 -12 -29 -25 -29zM439 833c-12 0 -21 7 -21 23c0 14 11 28 25 28c12 0 21 -8 21 -22c0 -16 -12 -29 -25 -29z" />
    <glyph glyph-name="Ygrave" unicode="&#x1ef2;" horiz-adv-x="513" 
d="M598 708l-324 -398l-55 -310h-22l55 310l-162 398h24l152 -376l305 376h27zM239 908h28l106 -144h-20z" />
    <glyph glyph-name="Zacute" unicode="&#x179;" horiz-adv-x="594" 
d="M512 0h-498l4 27l582 661h-452l4 20h473l-5 -29l-581 -659h477zM513 908l-135 -144h-20l127 144h28z" />
    <glyph glyph-name="Zcaron" unicode="&#x17d;" horiz-adv-x="594" 
d="M512 0h-498l4 27l582 661h-452l4 20h473l-5 -29l-581 -659h477zM401 764h-29l-73 144h20l68 -132l120 132h24z" />
    <glyph glyph-name="Zdotaccent" unicode="&#x17b;" horiz-adv-x="594" 
d="M512 0h-498l4 27l582 661h-452l4 20h473l-5 -29l-581 -659h477zM405 833c-12 0 -21 7 -21 23c0 14 11 28 25 28c12 0 21 -8 21 -22c0 -16 -12 -29 -25 -29z" />
    <glyph glyph-name="agrave" unicode="&#xe0;" horiz-adv-x="512" 
d="M396 104c-6 -35 -10 -79 -10 -104h-21c0 26 6 74 13 110h-3c-34 -78 -101 -124 -183 -124c-60 0 -147 28 -147 119c0 140 163 165 359 165c6 26 9 53 9 64c0 82 -50 121 -130 121c-54 0 -102 -22 -144 -55l-12 17c48 37 105 57 157 57c96 0 151 -50 151 -137
c0 -14 -4 -38 -6 -51zM393 207l8 44h-28c-176 0 -306 -31 -306 -143c0 -80 73 -103 128 -103c121 0 183 112 198 202zM195 708h28l106 -144h-20z" />
    <glyph glyph-name="aacute" unicode="&#xe1;" horiz-adv-x="512" 
d="M396 104c-6 -35 -10 -79 -10 -104h-21c0 26 6 74 13 110h-3c-34 -78 -101 -124 -183 -124c-60 0 -147 28 -147 119c0 140 163 165 359 165c6 26 9 53 9 64c0 82 -50 121 -130 121c-54 0 -102 -22 -144 -55l-12 17c48 37 105 57 157 57c96 0 151 -50 151 -137
c0 -14 -4 -38 -6 -51zM393 207l8 44h-28c-176 0 -306 -31 -306 -143c0 -80 73 -103 128 -103c121 0 183 112 198 202zM435 708l-135 -144h-20l127 144h28z" />
    <glyph glyph-name="acircumflex" unicode="&#xe2;" horiz-adv-x="512" 
d="M396 104c-6 -35 -10 -79 -10 -104h-21c0 26 6 74 13 110h-3c-34 -78 -101 -124 -183 -124c-60 0 -147 28 -147 119c0 140 163 165 359 165c6 26 9 53 9 64c0 82 -50 121 -130 121c-54 0 -102 -22 -144 -55l-12 17c48 37 105 57 157 57c96 0 151 -50 151 -137
c0 -14 -4 -38 -6 -51zM393 207l8 44h-28c-176 0 -306 -31 -306 -143c0 -80 73 -103 128 -103c121 0 183 112 198 202zM328 708h29l73 -144h-20l-68 132l-120 -132h-24z" />
    <glyph glyph-name="atilde" unicode="&#xe3;" horiz-adv-x="512" 
d="M396 104c-6 -35 -10 -79 -10 -104h-21c0 26 6 74 13 110h-3c-34 -78 -101 -124 -183 -124c-60 0 -147 28 -147 119c0 140 163 165 359 165c6 26 9 53 9 64c0 82 -50 121 -130 121c-54 0 -102 -22 -144 -55l-12 17c48 37 105 57 157 57c96 0 151 -50 151 -137
c0 -14 -4 -38 -6 -51zM393 207l8 44h-28c-176 0 -306 -31 -306 -143c0 -80 73 -103 128 -103c121 0 183 112 198 202zM321 638c32 -22 41 -24 56 -24c23 0 38 15 49 48h17c-14 -48 -42 -67 -69 -67c-21 0 -33 5 -60 24c-30 22 -40 24 -55 24c-23 0 -38 -18 -49 -51h-17
c14 48 42 70 69 70c21 0 33 -6 59 -24z" />
    <glyph glyph-name="adieresis" unicode="&#xe4;" horiz-adv-x="512" 
d="M396 104c-6 -35 -10 -79 -10 -104h-21c0 26 6 74 13 110h-3c-34 -78 -101 -124 -183 -124c-60 0 -147 28 -147 119c0 140 163 165 359 165c6 26 9 53 9 64c0 82 -50 121 -130 121c-54 0 -102 -22 -144 -55l-12 17c48 37 105 57 157 57c96 0 151 -50 151 -137
c0 -14 -4 -38 -6 -51zM393 207l8 44h-28c-176 0 -306 -31 -306 -143c0 -80 73 -103 128 -103c121 0 183 112 198 202zM246 633c-12 0 -21 7 -21 23c0 14 11 28 25 28c12 0 21 -8 21 -22c0 -16 -12 -29 -25 -29zM396 633c-12 0 -21 7 -21 23c0 14 11 28 25 28
c12 0 21 -8 21 -22c0 -16 -12 -29 -25 -29z" />
    <glyph glyph-name="amacron" unicode="&#x101;" horiz-adv-x="512" 
d="M396 104c-6 -35 -10 -79 -10 -104h-21c0 26 6 74 13 110h-3c-34 -78 -101 -124 -183 -124c-60 0 -147 28 -147 119c0 140 163 165 359 165c6 26 9 53 9 64c0 82 -50 121 -130 121c-54 0 -102 -22 -144 -55l-12 17c48 37 105 57 157 57c96 0 151 -50 151 -137
c0 -14 -4 -38 -6 -51zM393 207l8 44h-28c-176 0 -306 -31 -306 -143c0 -80 73 -103 128 -103c121 0 183 112 198 202zM432 621h-232l4 20h232z" />
    <glyph glyph-name="abreve" unicode="&#x103;" horiz-adv-x="512" 
d="M396 104c-6 -35 -10 -79 -10 -104h-21c0 26 6 74 13 110h-3c-34 -78 -101 -124 -183 -124c-60 0 -147 28 -147 119c0 140 163 165 359 165c6 26 9 53 9 64c0 82 -50 121 -130 121c-54 0 -102 -22 -144 -55l-12 17c48 37 105 57 157 57c96 0 151 -50 151 -137
c0 -14 -4 -38 -6 -51zM393 207l8 44h-28c-176 0 -306 -31 -306 -143c0 -80 73 -103 128 -103c121 0 183 112 198 202zM443 698c-21 -83 -73 -126 -144 -126c-65 0 -107 45 -107 126h17c0 -69 37 -106 91 -106c62 0 104 30 127 106h16z" />
    <glyph glyph-name="aring" unicode="&#xe5;" horiz-adv-x="512" 
d="M396 104c-6 -35 -10 -79 -10 -104h-21c0 26 6 74 13 110h-3c-34 -78 -101 -124 -183 -124c-60 0 -147 28 -147 119c0 140 163 165 359 165c6 26 9 53 9 64c0 82 -50 121 -130 121c-54 0 -102 -22 -144 -55l-12 17c48 37 105 57 157 57c96 0 151 -50 151 -137
c0 -14 -4 -38 -6 -51zM393 207l8 44h-28c-176 0 -306 -31 -306 -143c0 -80 73 -103 128 -103c121 0 183 112 198 202zM398 664c0 34 -20 65 -65 65c-52 0 -84 -44 -84 -93c0 -35 19 -64 65 -64c51 0 84 43 84 92zM231 635c0 58 40 110 103 110c55 0 82 -36 82 -80
c0 -58 -39 -110 -103 -110c-55 0 -82 35 -82 80z" />
    <glyph glyph-name="aogonek" unicode="&#x105;" horiz-adv-x="512" 
d="M395 -176l7 -16c-24 -19 -51 -31 -82 -31c-42 0 -77 20 -77 63c0 51 34 91 119 160h3c0 26 6 74 13 110h-3c-34 -78 -101 -124 -183 -124c-60 0 -147 28 -147 119c0 140 163 165 359 165c6 26 9 53 9 64c0 82 -50 121 -130 121c-54 0 -102 -22 -144 -55l-12 17
c48 37 105 57 157 57c96 0 151 -50 151 -137c0 -14 -4 -38 -6 -51l-33 -182c-6 -35 -10 -79 -10 -104h-1c-93 -81 -119 -111 -119 -156c0 -31 21 -49 55 -49c27 0 55 12 74 29zM393 207l8 44h-28c-176 0 -306 -31 -306 -143c0 -80 73 -103 128 -103c121 0 183 112 198 202z
" />
    <glyph glyph-name="ae" unicode="&#xe6;" horiz-adv-x="877" 
d="M594 5c76 0 133 35 176 86l12 -14c-39 -49 -105 -91 -188 -91c-124 0 -189 77 -196 178c-22 -83 -88 -178 -206 -178c-60 0 -147 26 -147 115c0 130 160 154 356 154c7 28 12 61 12 78c0 82 -50 122 -130 122c-54 0 -102 -22 -144 -55l-12 17c48 37 104 57 156 57
c93 0 148 -49 151 -133c40 76 114 133 211 133c125 0 181 -82 181 -181c0 -13 -2 -37 -7 -58h-400c-2 -13 -3 -25 -3 -35c0 -116 59 -195 178 -195zM392 207l6 28h-31c-173 0 -300 -31 -300 -131c0 -77 73 -99 128 -99c121 0 178 112 197 202zM802 254c2 15 3 27 3 41
c0 96 -60 160 -160 160c-136 0 -208 -116 -223 -201h380z" />
    <glyph glyph-name="cacute" unicode="&#x107;" horiz-adv-x="468" 
d="M425 46c-42 -41 -102 -64 -164 -64c-140 0 -203 89 -203 202c0 151 114 290 270 290c58 0 119 -20 150 -60l-14 -15c-29 38 -84 56 -134 56c-145 0 -250 -130 -250 -268c0 -103 58 -185 182 -185c56 0 114 22 152 59zM468 708l-135 -144h-20l127 144h28z" />
    <glyph glyph-name="ccircumflex" unicode="&#x109;" horiz-adv-x="468" 
d="M425 46c-42 -41 -102 -64 -164 -64c-140 0 -203 89 -203 202c0 151 114 290 270 290c58 0 119 -20 150 -60l-14 -15c-29 38 -84 56 -134 56c-145 0 -250 -130 -250 -268c0 -103 58 -185 182 -185c56 0 114 22 152 59zM365 708h29l73 -144h-20l-68 132l-120 -132h-24z" />
    <glyph glyph-name="ccaron" unicode="&#x10d;" horiz-adv-x="468" 
d="M425 46c-42 -41 -102 -64 -164 -64c-140 0 -203 89 -203 202c0 151 114 290 270 290c58 0 119 -20 150 -60l-14 -15c-29 38 -84 56 -134 56c-145 0 -250 -130 -250 -268c0 -103 58 -185 182 -185c56 0 114 22 152 59zM355 564h-29l-73 144h20l68 -132l120 132h24z" />
    <glyph glyph-name="cdotaccent" unicode="&#x10b;" horiz-adv-x="468" 
d="M425 46c-42 -41 -102 -64 -164 -64c-140 0 -203 89 -203 202c0 151 114 290 270 290c58 0 119 -20 150 -60l-14 -15c-29 38 -84 56 -134 56c-145 0 -250 -130 -250 -268c0 -103 58 -185 182 -185c56 0 114 22 152 59zM363 633c-12 0 -21 7 -21 23c0 14 11 28 25 28
c12 0 21 -8 21 -22c0 -16 -12 -29 -25 -29z" />
    <glyph glyph-name="ccedilla" unicode="&#xe7;" horiz-adv-x="468" 
d="M216 -226c-25 0 -66 7 -92 20l7 17c22 -11 61 -18 85 -18c73 0 99 31 99 66c0 34 -32 46 -61 46c-18 0 -57 -6 -74 -15l-9 9l72 84c-128 7 -185 93 -185 201c0 151 114 290 270 290c58 0 119 -20 150 -60l-14 -15c-29 38 -84 56 -134 56c-145 0 -250 -130 -250 -268
c0 -103 58 -185 182 -185c56 0 114 22 152 59l11 -15c-42 -41 -101 -63 -162 -64l-58 -68c18 6 32 8 51 8c37 0 80 -15 80 -61c0 -61 -51 -87 -120 -87z" />
    <glyph glyph-name="dcaron" unicode="&#x10f;" horiz-adv-x="652" 
d="M265 -14c-138 0 -207 88 -207 205c0 149 102 283 262 283c98 0 170 -59 190 -142h3l73 424h22l-133 -756h-22l23 118h-3c-36 -74 -112 -132 -208 -132zM267 5c132 0 233 131 233 267c0 101 -70 183 -180 183c-145 0 -240 -126 -240 -263c0 -103 61 -187 187 -187z
M738 708l-95 -188h-17l88 188h24z" />
    <glyph glyph-name="dcroat" unicode="&#x111;" horiz-adv-x="617" 
d="M639 570h-64l-100 -570h-22l23 118h-3c-36 -74 -112 -132 -208 -132c-138 0 -207 88 -207 205c0 149 102 283 262 283c98 0 170 -59 190 -142h3l41 238h-220l4 18h219l29 168h22l-30 -168h65zM267 5c132 0 233 131 233 267c0 101 -70 183 -180 183
c-145 0 -240 -126 -240 -263c0 -103 61 -187 187 -187z" />
    <glyph glyph-name="eth" unicode="&#xf0;" horiz-adv-x="598" 
d="M529 267c0 101 -61 188 -192 188c-148 0 -242 -126 -242 -262c0 -102 60 -188 191 -188c148 0 243 125 243 262zM338 474c74 0 135 -24 170 -79l6 2c-19 98 -75 206 -121 259l-123 -61l-10 14l121 62c-31 36 -59 63 -83 80l18 11c29 -21 57 -50 83 -82l117 60l14 -13
l-117 -61c59 -77 138 -234 138 -398c0 -149 -102 -282 -265 -282c-142 0 -213 90 -213 206c0 148 102 282 265 282z" />
    <glyph glyph-name="egrave" unicode="&#xe8;" horiz-adv-x="553" 
d="M495 235h-412c-2 -13 -3 -25 -3 -35c0 -123 71 -195 190 -195c76 0 133 35 176 86l12 -14c-39 -49 -105 -91 -188 -91c-137 0 -212 87 -212 209c0 145 107 279 263 279c125 0 181 -82 181 -181c0 -13 -2 -37 -7 -58zM478 254c2 15 3 27 3 41c0 96 -60 160 -160 160
c-141 0 -220 -116 -235 -201h392zM245 708h28l106 -144h-20z" />
    <glyph glyph-name="eacute" unicode="&#xe9;" horiz-adv-x="553" 
d="M495 235h-412c-2 -13 -3 -25 -3 -35c0 -123 71 -195 190 -195c76 0 133 35 176 86l12 -14c-39 -49 -105 -91 -188 -91c-137 0 -212 87 -212 209c0 145 107 279 263 279c125 0 181 -82 181 -181c0 -13 -2 -37 -7 -58zM478 254c2 15 3 27 3 41c0 96 -60 160 -160 160
c-141 0 -220 -116 -235 -201h392zM452 708l-135 -144h-20l127 144h28z" />
    <glyph glyph-name="ecircumflex" unicode="&#xea;" horiz-adv-x="553" 
d="M495 235h-412c-2 -13 -3 -25 -3 -35c0 -123 71 -195 190 -195c76 0 133 35 176 86l12 -14c-39 -49 -105 -91 -188 -91c-137 0 -212 87 -212 209c0 145 107 279 263 279c125 0 181 -82 181 -181c0 -13 -2 -37 -7 -58zM478 254c2 15 3 27 3 41c0 96 -60 160 -160 160
c-141 0 -220 -116 -235 -201h392zM364 708h29l73 -144h-20l-68 132l-120 -132h-24z" />
    <glyph glyph-name="ecaron" unicode="&#x11b;" horiz-adv-x="553" 
d="M495 235h-412c-2 -13 -3 -25 -3 -35c0 -123 71 -195 190 -195c76 0 133 35 176 86l12 -14c-39 -49 -105 -91 -188 -91c-137 0 -212 87 -212 209c0 145 107 279 263 279c125 0 181 -82 181 -181c0 -13 -2 -37 -7 -58zM478 254c2 15 3 27 3 41c0 96 -60 160 -160 160
c-141 0 -220 -116 -235 -201h392zM352 564h-29l-73 144h20l68 -132l120 132h24z" />
    <glyph glyph-name="edieresis" unicode="&#xeb;" horiz-adv-x="553" 
d="M495 235h-412c-2 -13 -3 -25 -3 -35c0 -123 71 -195 190 -195c76 0 133 35 176 86l12 -14c-39 -49 -105 -91 -188 -91c-137 0 -212 87 -212 209c0 145 107 279 263 279c125 0 181 -82 181 -181c0 -13 -2 -37 -7 -58zM478 254c2 15 3 27 3 41c0 96 -60 160 -160 160
c-141 0 -220 -116 -235 -201h392zM283 633c-12 0 -21 7 -21 23c0 14 11 28 25 28c12 0 21 -8 21 -22c0 -16 -12 -29 -25 -29zM433 633c-12 0 -21 7 -21 23c0 14 11 28 25 28c12 0 21 -8 21 -22c0 -16 -12 -29 -25 -29z" />
    <glyph glyph-name="emacron" unicode="&#x113;" horiz-adv-x="553" 
d="M495 235h-412c-2 -13 -3 -25 -3 -35c0 -123 71 -195 190 -195c76 0 133 35 176 86l12 -14c-39 -49 -105 -91 -188 -91c-137 0 -212 87 -212 209c0 145 107 279 263 279c125 0 181 -82 181 -181c0 -13 -2 -37 -7 -58zM478 254c2 15 3 27 3 41c0 96 -60 160 -160 160
c-141 0 -220 -116 -235 -201h392zM467 621h-232l4 20h232z" />
    <glyph glyph-name="ebreve" unicode="&#x115;" horiz-adv-x="553" 
d="M495 235h-412c-2 -13 -3 -25 -3 -35c0 -123 71 -195 190 -195c76 0 133 35 176 86l12 -14c-39 -49 -105 -91 -188 -91c-137 0 -212 87 -212 209c0 145 107 279 263 279c125 0 181 -82 181 -181c0 -13 -2 -37 -7 -58zM478 254c2 15 3 27 3 41c0 96 -60 160 -160 160
c-141 0 -220 -116 -235 -201h392zM485 698c-21 -83 -73 -126 -144 -126c-65 0 -107 45 -107 126h17c0 -69 37 -106 91 -106c62 0 104 30 127 106h16z" />
    <glyph glyph-name="edotaccent" unicode="&#x117;" horiz-adv-x="553" 
d="M495 235h-412c-2 -13 -3 -25 -3 -35c0 -123 71 -195 190 -195c76 0 133 35 176 86l12 -14c-39 -49 -105 -91 -188 -91c-137 0 -212 87 -212 209c0 145 107 279 263 279c125 0 181 -82 181 -181c0 -13 -2 -37 -7 -58zM478 254c2 15 3 27 3 41c0 96 -60 160 -160 160
c-141 0 -220 -116 -235 -201h392zM351 633c-12 0 -21 7 -21 23c0 14 11 28 25 28c12 0 21 -8 21 -22c0 -16 -12 -29 -25 -29z" />
    <glyph glyph-name="eogonek" unicode="&#x119;" horiz-adv-x="553" 
d="M321 -176l7 -16c-24 -19 -51 -31 -82 -31c-42 0 -77 20 -77 63c0 48 29 86 101 146c-137 0 -212 87 -212 209c0 145 107 279 263 279c125 0 181 -82 181 -181c0 -13 -2 -37 -7 -58h-412c-2 -13 -3 -25 -3 -35c0 -123 71 -195 190 -195c76 0 133 35 176 86l12 -14
c-35 -44 -91 -82 -162 -90c-81 -71 -104 -100 -104 -143c0 -31 21 -49 55 -49c27 0 55 12 74 29zM478 254c2 15 3 27 3 41c0 96 -60 160 -160 160c-141 0 -220 -116 -235 -201h392z" />
    <glyph glyph-name="gcircumflex" unicode="&#x11d;" horiz-adv-x="617" 
d="M477 118h-3c-36 -74 -112 -132 -208 -132c-138 0 -207 88 -207 205c0 149 102 283 262 283c98 0 170 -59 190 -142h3l22 128h21l-76 -435c-26 -146 -85 -275 -259 -275c-86 0 -151 32 -194 86l15 15c44 -57 109 -82 179 -82c164 0 213 125 238 258zM268 5
c132 0 233 131 233 267c0 101 -70 183 -180 183c-145 0 -240 -126 -240 -263c0 -103 61 -187 187 -187zM377 708h29l73 -144h-20l-68 132l-120 -132h-24z" />
    <glyph glyph-name="gbreve" unicode="&#x11f;" horiz-adv-x="617" 
d="M477 118h-3c-36 -74 -112 -132 -208 -132c-138 0 -207 88 -207 205c0 149 102 283 262 283c98 0 170 -59 190 -142h3l22 128h21l-76 -435c-26 -146 -85 -275 -259 -275c-86 0 -151 32 -194 86l15 15c44 -57 109 -82 179 -82c164 0 213 125 238 258zM268 5
c132 0 233 131 233 267c0 101 -70 183 -180 183c-145 0 -240 -126 -240 -263c0 -103 61 -187 187 -187zM501 698c-21 -83 -73 -126 -144 -126c-65 0 -107 45 -107 126h17c0 -69 37 -106 91 -106c62 0 104 30 127 106h16z" />
    <glyph glyph-name="gdotaccent" unicode="&#x121;" horiz-adv-x="617" 
d="M477 118h-3c-36 -74 -112 -132 -208 -132c-138 0 -207 88 -207 205c0 149 102 283 262 283c98 0 170 -59 190 -142h3l22 128h21l-76 -435c-26 -146 -85 -275 -259 -275c-86 0 -151 32 -194 86l15 15c44 -57 109 -82 179 -82c164 0 213 125 238 258zM268 5
c132 0 233 131 233 267c0 101 -70 183 -180 183c-145 0 -240 -126 -240 -263c0 -103 61 -187 187 -187zM367 633c-12 0 -21 7 -21 23c0 14 11 28 25 28c12 0 21 -8 21 -22c0 -16 -12 -29 -25 -29z" />
    <glyph glyph-name="gcommaaccent" unicode="&#x123;" horiz-adv-x="617" 
d="M477 118h-3c-36 -74 -112 -132 -208 -132c-138 0 -207 88 -207 205c0 149 102 283 262 283c98 0 170 -59 190 -142h3l22 128h21l-76 -435c-26 -146 -85 -275 -259 -275c-86 0 -151 32 -194 86l15 15c44 -57 109 -82 179 -82c164 0 213 125 238 258zM268 5
c132 0 233 131 233 267c0 101 -70 183 -180 183c-145 0 -240 -126 -240 -263c0 -103 61 -187 187 -187zM326 564l95 188h17l-88 -188h-24z" />
    <glyph glyph-name="hcircumflex" unicode="&#x125;" horiz-adv-x="566" 
d="M144 339h2c40 89 110 135 189 135c99 0 146 -71 146 -149c0 -14 -2 -32 -6 -52l-48 -273h-22l49 274c3 15 5 36 5 50c0 65 -34 131 -127 131c-101 0 -183 -84 -207 -225l-41 -230h-22l133 756h22zM383 940h29l73 -144h-20l-68 132l-120 -132h-24z" />
    <glyph glyph-name="hbar" unicode="&#x127;" horiz-adv-x="566" 
d="M144 339h2c40 89 110 135 189 135c99 0 146 -71 146 -149c0 -14 -2 -32 -6 -52l-48 -273h-22l49 274c3 15 5 36 5 50c0 65 -34 131 -127 131c-101 0 -183 -84 -207 -225l-41 -230h-22l100 570h-64l4 18h63l30 168h22l-30 -168h220l-4 -18h-219z" />
    <glyph glyph-name="dotlessi" unicode="&#x131;" horiz-adv-x="226" 
d="M84 0h-22l81 460h22z" />
    <glyph glyph-name="igrave" unicode="&#xec;" horiz-adv-x="226" 
d="M84 0h-22l81 460h22zM58 708h28l106 -144h-20z" />
    <glyph glyph-name="iacute" unicode="&#xed;" horiz-adv-x="226" 
d="M84 0h-22l81 460h22zM306 708l-135 -144h-20l127 144h28z" />
    <glyph glyph-name="icircumflex" unicode="&#xee;" horiz-adv-x="226" 
d="M84 0h-22l81 460h22zM188 708h29l73 -144h-20l-68 132l-120 -132h-24z" />
    <glyph glyph-name="itilde" unicode="&#x129;" horiz-adv-x="226" 
d="M84 0h-22l81 460h22zM183 638c32 -22 41 -24 56 -24c23 0 38 15 49 48h17c-14 -48 -42 -67 -69 -67c-21 0 -33 5 -60 24c-30 22 -40 24 -55 24c-23 0 -38 -18 -49 -51h-17c14 48 42 70 69 70c21 0 33 -6 59 -24z" />
    <glyph glyph-name="idieresis" unicode="&#xef;" horiz-adv-x="226" 
d="M84 0h-22l81 460h22zM107 633c-12 0 -21 7 -21 23c0 14 11 28 25 28c12 0 21 -8 21 -22c0 -16 -12 -29 -25 -29zM257 633c-12 0 -21 7 -21 23c0 14 11 28 25 28c12 0 21 -8 21 -22c0 -16 -12 -29 -25 -29z" />
    <glyph glyph-name="imacron" unicode="&#x12b;" horiz-adv-x="226" 
d="M84 0h-22l81 460h22zM294 621h-232l4 20h232z" />
    <glyph glyph-name="ibreve" unicode="&#x12d;" horiz-adv-x="226" 
d="M84 0h-22l81 460h22zM319 698c-21 -83 -73 -126 -144 -126c-65 0 -107 45 -107 126h17c0 -69 37 -106 91 -106c62 0 104 30 127 106h16z" />
    <glyph glyph-name="iogonek" unicode="&#x12f;" horiz-adv-x="226" 
d="M93 -176l7 -16c-24 -19 -51 -31 -82 -31c-42 0 -77 20 -77 63c0 51 34 91 119 160h2l81 460h22l-81 -460h-1c-93 -81 -119 -111 -119 -156c0 -31 21 -49 55 -49c27 0 55 12 74 29zM181 633c-12 0 -21 7 -21 23c0 14 11 28 25 28c12 0 21 -8 21 -22c0 -16 -12 -29 -25 -29
z" />
    <glyph glyph-name="dotlessj" unicode="&#x237;" horiz-adv-x="226" 
d="M67 -97c-14 -75 -41 -144 -132 -144c-9 0 -21 1 -29 3l2 19c9 -2 17 -3 25 -3c85 0 101 64 112 123l98 559h22z" />
    <glyph glyph-name="jcircumflex" unicode="&#x135;" horiz-adv-x="226" 
d="M67 -97c-14 -75 -41 -144 -132 -144c-9 0 -21 1 -29 3l2 19c9 -2 17 -3 25 -3c85 0 101 64 112 123l98 559h22zM179 708h29l73 -144h-20l-68 132l-120 -132h-24z" />
    <glyph glyph-name="kcommaaccent" unicode="&#x137;" horiz-adv-x="436" 
d="M128 249h2l272 211h34l-280 -215l226 -245h-31l-222 243h-2l-43 -243h-22l133 756h22zM230 -45l-95 -188h-17l88 188h24z" />
    <glyph glyph-name="kgreenlandic" unicode="&#x138;" horiz-adv-x="436" 
d="M128 249h2l272 211h34l-280 -215l226 -245h-31l-222 243h-2l-43 -243h-22l81 460h22z" />
    <glyph glyph-name="lacute" unicode="&#x13a;" horiz-adv-x="226" 
d="M84 0h-22l133 756h22zM353 936l-135 -144h-20l127 144h28z" />
    <glyph glyph-name="lcaron" unicode="&#x13e;" horiz-adv-x="253" 
d="M84 0h-22l133 756h22zM359 708l-95 -188h-17l88 188h24z" />
    <glyph glyph-name="lcommaaccent" unicode="&#x13c;" horiz-adv-x="226" 
d="M84 0h-22l133 756h22zM104 -46l-95 -188h-17l88 188h24z" />
    <glyph glyph-name="lslash" unicode="&#x142;" horiz-adv-x="226" 
d="M130 362l-76 -60l5 27l76 60l64 367h22l-61 -350l84 63l-5 -24l-84 -66l-67 -379h-22z" />
    <glyph glyph-name="ldot" unicode="&#x140;" horiz-adv-x="252" 
d="M84 0h-22l133 756h22zM253 443c-12 0 -21 7 -21 23c0 14 11 28 25 28c12 0 21 -8 21 -22c0 -16 -12 -29 -25 -29z" />
    <glyph glyph-name="nacute" unicode="&#x144;" horiz-adv-x="566" 
d="M335 474c99 0 146 -71 146 -149c0 -14 -2 -32 -6 -52l-48 -273h-22l49 274c3 15 5 36 5 50c0 65 -34 131 -127 131c-101 0 -183 -84 -207 -225l-41 -230h-22l61 344c5 29 14 90 15 116h22c-2 -26 -11 -87 -17 -121h2c41 89 111 135 190 135zM457 708l-135 -144h-20
l127 144h28z" />
    <glyph glyph-name="ncaron" unicode="&#x148;" horiz-adv-x="566" 
d="M335 474c99 0 146 -71 146 -149c0 -14 -2 -32 -6 -52l-48 -273h-22l49 274c3 15 5 36 5 50c0 65 -34 131 -127 131c-101 0 -183 -84 -207 -225l-41 -230h-22l61 344c5 29 14 90 15 116h22c-2 -26 -11 -87 -17 -121h2c41 89 111 135 190 135zM343 564h-29l-73 144h20
l68 -132l120 132h24z" />
    <glyph glyph-name="ntilde" unicode="&#xf1;" horiz-adv-x="566" 
d="M335 474c99 0 146 -71 146 -149c0 -14 -2 -32 -6 -52l-48 -273h-22l49 274c3 15 5 36 5 50c0 65 -34 131 -127 131c-101 0 -183 -84 -207 -225l-41 -230h-22l61 344c5 29 14 90 15 116h22c-2 -26 -11 -87 -17 -121h2c41 89 111 135 190 135zM353 638
c32 -22 41 -24 56 -24c23 0 38 15 49 48h17c-14 -48 -42 -67 -69 -67c-21 0 -33 5 -60 24c-30 22 -40 24 -55 24c-23 0 -38 -18 -49 -51h-17c14 48 42 70 69 70c21 0 33 -6 59 -24z" />
    <glyph glyph-name="ncommaaccent" unicode="&#x146;" horiz-adv-x="566" 
d="M335 474c99 0 146 -71 146 -149c0 -14 -2 -32 -6 -52l-48 -273h-22l49 274c3 15 5 36 5 50c0 65 -34 131 -127 131c-101 0 -183 -84 -207 -225l-41 -230h-22l61 344c5 29 14 90 15 116h22c-2 -26 -11 -87 -17 -121h2c41 89 111 135 190 135zM271 -45l-95 -188h-17l88 188
h24z" />
    <glyph glyph-name="eng" unicode="&#x14b;" horiz-adv-x="566" 
d="M410 -97c-14 -75 -41 -144 -132 -144c-9 0 -21 1 -29 3l2 19c9 -2 17 -3 25 -3c85 0 101 64 112 123l66 373c3 15 5 36 5 50c0 65 -34 131 -127 131c-101 0 -183 -84 -207 -225l-41 -230h-22l61 344c5 29 14 90 15 116h22c-2 -26 -11 -87 -17 -121h2
c41 89 111 135 190 135c99 0 146 -71 146 -149c0 -14 -2 -32 -6 -52z" />
    <glyph glyph-name="ograve" unicode="&#xf2;" horiz-adv-x="598" 
d="M514 267c0 101 -61 188 -192 188c-148 0 -242 -126 -242 -262c0 -102 60 -188 191 -188c148 0 243 125 243 262zM58 192c0 148 103 282 266 282c141 0 212 -91 212 -206c0 -149 -102 -282 -265 -282c-142 0 -213 90 -213 206zM242 708h28l106 -144h-20z" />
    <glyph glyph-name="oacute" unicode="&#xf3;" horiz-adv-x="598" 
d="M514 267c0 101 -61 188 -192 188c-148 0 -242 -126 -242 -262c0 -102 60 -188 191 -188c148 0 243 125 243 262zM58 192c0 148 103 282 266 282c141 0 212 -91 212 -206c0 -149 -102 -282 -265 -282c-142 0 -213 90 -213 206zM474 708l-135 -144h-20l127 144h28z" />
    <glyph glyph-name="ocircumflex" unicode="&#xf4;" horiz-adv-x="598" 
d="M514 267c0 101 -61 188 -192 188c-148 0 -242 -126 -242 -262c0 -102 60 -188 191 -188c148 0 243 125 243 262zM58 192c0 148 103 282 266 282c141 0 212 -91 212 -206c0 -149 -102 -282 -265 -282c-142 0 -213 90 -213 206zM372 708h29l73 -144h-20l-68 132l-120 -132
h-24z" />
    <glyph glyph-name="otilde" unicode="&#xf5;" horiz-adv-x="598" 
d="M514 267c0 101 -61 188 -192 188c-148 0 -242 -126 -242 -262c0 -102 60 -188 191 -188c148 0 243 125 243 262zM58 192c0 148 103 282 266 282c141 0 212 -91 212 -206c0 -149 -102 -282 -265 -282c-142 0 -213 90 -213 206zM366 638c32 -22 41 -24 56 -24
c23 0 38 15 49 48h17c-14 -48 -42 -67 -69 -67c-21 0 -33 5 -60 24c-30 22 -40 24 -55 24c-23 0 -38 -18 -49 -51h-17c14 48 42 70 69 70c21 0 33 -6 59 -24z" />
    <glyph glyph-name="odieresis" unicode="&#xf6;" horiz-adv-x="598" 
d="M514 267c0 101 -61 188 -192 188c-148 0 -242 -126 -242 -262c0 -102 60 -188 191 -188c148 0 243 125 243 262zM58 192c0 148 103 282 266 282c141 0 212 -91 212 -206c0 -149 -102 -282 -265 -282c-142 0 -213 90 -213 206zM292 633c-12 0 -21 7 -21 23
c0 14 11 28 25 28c12 0 21 -8 21 -22c0 -16 -12 -29 -25 -29zM442 633c-12 0 -21 7 -21 23c0 14 11 28 25 28c12 0 21 -8 21 -22c0 -16 -12 -29 -25 -29z" />
    <glyph glyph-name="omacron" unicode="&#x14d;" horiz-adv-x="598" 
d="M514 267c0 101 -61 188 -192 188c-148 0 -242 -126 -242 -262c0 -102 60 -188 191 -188c148 0 243 125 243 262zM58 192c0 148 103 282 266 282c141 0 212 -91 212 -206c0 -149 -102 -282 -265 -282c-142 0 -213 90 -213 206zM476 621h-232l4 20h232z" />
    <glyph glyph-name="obreve" unicode="&#x14f;" horiz-adv-x="598" 
d="M514 267c0 101 -61 188 -192 188c-148 0 -242 -126 -242 -262c0 -102 60 -188 191 -188c148 0 243 125 243 262zM58 192c0 148 103 282 266 282c141 0 212 -91 212 -206c0 -149 -102 -282 -265 -282c-142 0 -213 90 -213 206zM488 698c-21 -83 -73 -126 -144 -126
c-65 0 -107 45 -107 126h17c0 -69 37 -106 91 -106c62 0 104 30 127 106h16z" />
    <glyph glyph-name="ohungarumlaut" unicode="&#x151;" horiz-adv-x="598" 
d="M514 267c0 101 -61 188 -192 188c-148 0 -242 -126 -242 -262c0 -102 60 -188 191 -188c148 0 243 125 243 262zM58 192c0 148 103 282 266 282c141 0 212 -91 212 -206c0 -149 -102 -282 -265 -282c-142 0 -213 90 -213 206zM432 708l-135 -144h-20l127 144h28zM553 708
l-135 -144h-20l127 144h28z" />
    <glyph glyph-name="oslash" unicode="&#xf8;" horiz-adv-x="598" 
d="M479 384l-359 -316c31 -38 80 -63 151 -63c148 0 243 125 243 262c0 44 -11 84 -35 117zM468 398c-31 35 -79 57 -146 57c-148 0 -242 -126 -242 -262c0 -41 10 -79 30 -110zM496 399c27 -36 40 -81 40 -131c0 -149 -102 -282 -265 -282c-75 0 -132 26 -167 68l-71 -62
l-12 13l72 63c-23 34 -35 77 -35 124c0 148 103 282 266 282c71 0 125 -23 160 -61l69 60l11 -14z" />
    <glyph glyph-name="oe" unicode="&#x153;" horiz-adv-x="1003" 
d="M514 267c0 101 -61 188 -192 188c-148 0 -242 -126 -242 -262c0 -102 60 -188 191 -188c148 0 243 125 243 262zM720 5c76 0 133 35 176 86l12 -14c-39 -49 -105 -91 -188 -91c-118 0 -191 65 -208 162c-39 -94 -124 -162 -241 -162c-142 0 -213 90 -213 206
c0 148 103 282 266 282c122 0 192 -69 209 -162c39 92 125 162 238 162c125 0 181 -82 181 -181c0 -13 -2 -37 -7 -58h-412c-2 -13 -3 -25 -3 -35c0 -123 71 -195 190 -195zM928 254c2 15 3 27 3 41c0 96 -60 160 -160 160c-141 0 -220 -116 -235 -201h392z" />
    <glyph glyph-name="racute" unicode="&#x155;" horiz-adv-x="309" 
d="M145 339c43 95 109 135 177 135c6 0 12 0 17 -1l-3 -19c-5 1 -10 1 -13 1c-116 0 -179 -116 -197 -217l-42 -238h-22l61 344c5 29 14 90 15 116h22c-2 -26 -11 -87 -17 -121h2zM328 708l-135 -144h-20l127 144h28z" />
    <glyph glyph-name="rcaron" unicode="&#x159;" horiz-adv-x="309" 
d="M145 339c43 95 109 135 177 135c6 0 12 0 17 -1l-3 -19c-5 1 -10 1 -13 1c-116 0 -179 -116 -197 -217l-42 -238h-22l61 344c5 29 14 90 15 116h22c-2 -26 -11 -87 -17 -121h2zM257 564h-29l-73 144h20l68 -132l120 132h24z" />
    <glyph glyph-name="rcommaaccent" unicode="&#x157;" horiz-adv-x="309" 
d="M145 339c43 95 109 135 177 135c6 0 12 0 17 -1l-3 -19c-5 1 -10 1 -13 1c-116 0 -179 -116 -197 -217l-42 -238h-22l61 344c5 29 14 90 15 116h22c-2 -26 -11 -87 -17 -121h2zM102 -46l-95 -188h-17l88 188h24z" />
    <glyph glyph-name="sacute" unicode="&#x15b;" horiz-adv-x="400" 
d="M20 50l16 14c22 -33 75 -56 129 -56c84 0 137 54 137 118c0 51 -27 77 -116 106c-79 26 -108 54 -108 106c0 90 84 136 161 136c62 0 107 -24 127 -55l-18 -13c-16 30 -65 49 -110 49c-55 0 -138 -29 -138 -114c0 -52 34 -70 99 -91c96 -31 125 -67 125 -123
c0 -79 -64 -139 -163 -139c-60 0 -117 26 -141 62zM376 708l-135 -144h-20l127 144h28z" />
    <glyph glyph-name="scircumflex" unicode="&#x15d;" horiz-adv-x="400" 
d="M20 50l16 14c22 -33 75 -56 129 -56c84 0 137 54 137 118c0 51 -27 77 -116 106c-79 26 -108 54 -108 106c0 90 84 136 161 136c62 0 107 -24 127 -55l-18 -13c-16 30 -65 49 -110 49c-55 0 -138 -29 -138 -114c0 -52 34 -70 99 -91c96 -31 125 -67 125 -123
c0 -79 -64 -139 -163 -139c-60 0 -117 26 -141 62zM277 708h29l73 -144h-20l-68 132l-120 -132h-24z" />
    <glyph glyph-name="scaron" unicode="&#x161;" horiz-adv-x="400" 
d="M20 50l16 14c22 -33 75 -56 129 -56c84 0 137 54 137 118c0 51 -27 77 -116 106c-79 26 -108 54 -108 106c0 90 84 136 161 136c62 0 107 -24 127 -55l-18 -13c-16 30 -65 49 -110 49c-55 0 -138 -29 -138 -114c0 -52 34 -70 99 -91c96 -31 125 -67 125 -123
c0 -79 -64 -139 -163 -139c-60 0 -117 26 -141 62zM266 564h-29l-73 144h20l68 -132l120 132h24z" />
    <glyph glyph-name="scedilla" unicode="&#x15f;" horiz-adv-x="400" 
d="M129 -226c-25 0 -66 7 -92 20l7 17c22 -11 61 -18 85 -18c73 0 99 31 99 66c0 34 -32 46 -61 46c-18 0 -57 -6 -74 -15l-9 9l76 89c-60 0 -116 26 -140 62l16 14c22 -33 75 -56 129 -56c84 0 137 54 137 118c0 51 -27 77 -116 106c-79 26 -108 54 -108 106
c0 90 84 136 161 136c62 0 107 -24 127 -55l-18 -13c-16 30 -65 49 -110 49c-55 0 -138 -29 -138 -114c0 -52 34 -70 99 -91c96 -31 125 -67 125 -123c0 -73 -55 -130 -142 -138l-64 -75c18 6 32 8 51 8c37 0 80 -15 80 -61c0 -61 -51 -87 -120 -87z" />
    <glyph glyph-name="scommaaccent" unicode="&#x219;" horiz-adv-x="400" 
d="M20 50l16 14c22 -33 75 -56 129 -56c84 0 137 54 137 118c0 51 -27 77 -116 106c-79 26 -108 54 -108 106c0 90 84 136 161 136c62 0 107 -24 127 -55l-18 -13c-16 30 -65 49 -110 49c-55 0 -138 -29 -138 -114c0 -52 34 -70 99 -91c96 -31 125 -67 125 -123
c0 -79 -64 -139 -163 -139c-60 0 -117 26 -141 62zM185 -45l-95 -188h-17l88 188h24z" />
    <glyph glyph-name="germandbls" unicode="&#xdf;" horiz-adv-x="577" 
d="M518 236c0 -125 -89 -246 -261 -246c-14 0 -32 1 -47 3l3 21c20 -3 35 -4 47 -4c144 0 236 103 236 223c0 96 -55 183 -173 183h-16l4 21h16c92 0 193 52 193 169c0 97 -68 142 -148 142c-134 0 -176 -112 -194 -213l-94 -535h-22l95 538c21 120 74 230 214 230
c91 0 171 -50 171 -158c0 -116 -88 -168 -165 -182l-1 -2c71 -14 142 -73 142 -190z" />
    <glyph glyph-name="tcaron" unicode="&#x165;" horiz-adv-x="303" 
d="M232 -1c-17 -6 -35 -11 -55 -11c-57 0 -87 29 -87 77c0 10 3 34 5 44l59 332h-106l3 19h105l24 135h22l-24 -135h126l-3 -19h-126l-59 -335c-2 -10 -4 -31 -4 -39c0 -44 28 -60 70 -60c12 0 34 3 50 9v-17zM389 731l-95 -188h-17l88 188h24z" />
    <glyph glyph-name="uni0163" unicode="&#x163;" horiz-adv-x="292" 
d="M232 -1c-17 -6 -35 -11 -55 -11c-57 0 -87 29 -87 77c0 10 3 34 5 44l59 332h-106l3 19h105l24 135h22l-24 -135h126l-3 -19h-126l-59 -335c-2 -10 -4 -31 -4 -39c0 -44 28 -60 70 -60c12 0 34 3 50 9v-17zM178 -45l-95 -188h-17l88 188h24z" />
    <glyph glyph-name="uni021B" unicode="&#x21b;" horiz-adv-x="292" 
d="M232 -1c-17 -6 -35 -11 -55 -11c-57 0 -87 29 -87 77c0 10 3 34 5 44l59 332h-106l3 19h105l24 135h22l-24 -135h126l-3 -19h-126l-59 -335c-2 -10 -4 -31 -4 -39c0 -44 28 -60 70 -60c12 0 34 3 50 9v-17zM178 -45l-95 -188h-17l88 188h24z" />
    <glyph glyph-name="tbar" unicode="&#x167;" horiz-adv-x="292" 
d="M260 259h-117l-27 -153c-2 -10 -4 -31 -4 -39c0 -44 28 -60 70 -60c12 0 34 3 50 9v-17c-17 -6 -35 -11 -55 -11c-57 0 -87 29 -87 77c0 10 3 34 5 44l26 150h-95l4 18h94l30 164h-106l3 19h105l24 135h22l-24 -135h126l-3 -19h-126l-29 -164h118z" />
    <glyph glyph-name="thorn" unicode="&#xfe;" horiz-adv-x="623" 
d="M143 342h3c36 74 112 132 208 132c138 0 207 -88 207 -205c0 -149 -102 -283 -262 -283c-98 0 -170 59 -190 142h-3l-65 -368h-22l176 996h22zM352 455c-132 0 -233 -131 -233 -267c0 -101 70 -183 180 -183c145 0 240 126 240 263c0 103 -61 187 -187 187z" />
    <glyph glyph-name="ugrave" unicode="&#xf9;" horiz-adv-x="566" 
d="M222 -14c-99 0 -146 71 -146 149c0 14 2 32 6 52l48 273h22l-49 -274c-3 -15 -5 -36 -5 -50c0 -65 34 -131 127 -131c101 0 183 84 207 225l41 230h22l-61 -344c-5 -29 -14 -90 -15 -116h-22c2 26 11 87 17 121h-2c-41 -89 -111 -135 -190 -135zM209 708h28l106 -144h-20
z" />
    <glyph glyph-name="uacute" unicode="&#xfa;" horiz-adv-x="566" 
d="M222 -14c-99 0 -146 71 -146 149c0 14 2 32 6 52l48 273h22l-49 -274c-3 -15 -5 -36 -5 -50c0 -65 34 -131 127 -131c101 0 183 84 207 225l41 230h22l-61 -344c-5 -29 -14 -90 -15 -116h-22c2 26 11 87 17 121h-2c-41 -89 -111 -135 -190 -135zM451 708l-135 -144h-20
l127 144h28z" />
    <glyph glyph-name="ucircumflex" unicode="&#xfb;" horiz-adv-x="566" 
d="M222 -14c-99 0 -146 71 -146 149c0 14 2 32 6 52l48 273h22l-49 -274c-3 -15 -5 -36 -5 -50c0 -65 34 -131 127 -131c101 0 183 84 207 225l41 230h22l-61 -344c-5 -29 -14 -90 -15 -116h-22c2 26 11 87 17 121h-2c-41 -89 -111 -135 -190 -135zM344 708h29l73 -144h-20
l-68 132l-120 -132h-24z" />
    <glyph glyph-name="utilde" unicode="&#x169;" horiz-adv-x="566" 
d="M222 -14c-99 0 -146 71 -146 149c0 14 2 32 6 52l48 273h22l-49 -274c-3 -15 -5 -36 -5 -50c0 -65 34 -131 127 -131c101 0 183 84 207 225l41 230h22l-61 -344c-5 -29 -14 -90 -15 -116h-22c2 26 11 87 17 121h-2c-41 -89 -111 -135 -190 -135zM340 638
c32 -22 41 -24 56 -24c23 0 38 15 49 48h17c-14 -48 -42 -67 -69 -67c-21 0 -33 5 -60 24c-30 22 -40 24 -55 24c-23 0 -38 -18 -49 -51h-17c14 48 42 70 69 70c21 0 33 -6 59 -24z" />
    <glyph glyph-name="udieresis" unicode="&#xfc;" horiz-adv-x="566" 
d="M222 -14c-99 0 -146 71 -146 149c0 14 2 32 6 52l48 273h22l-49 -274c-3 -15 -5 -36 -5 -50c0 -65 34 -131 127 -131c101 0 183 84 207 225l41 230h22l-61 -344c-5 -29 -14 -90 -15 -116h-22c2 26 11 87 17 121h-2c-41 -89 -111 -135 -190 -135zM264 633
c-12 0 -21 7 -21 23c0 14 11 28 25 28c12 0 21 -8 21 -22c0 -16 -12 -29 -25 -29zM414 633c-12 0 -21 7 -21 23c0 14 11 28 25 28c12 0 21 -8 21 -22c0 -16 -12 -29 -25 -29z" />
    <glyph glyph-name="umacron" unicode="&#x16b;" horiz-adv-x="566" 
d="M222 -14c-99 0 -146 71 -146 149c0 14 2 32 6 52l48 273h22l-49 -274c-3 -15 -5 -36 -5 -50c0 -65 34 -131 127 -131c101 0 183 84 207 225l41 230h22l-61 -344c-5 -29 -14 -90 -15 -116h-22c2 26 11 87 17 121h-2c-41 -89 -111 -135 -190 -135zM451 621h-232l4 20h232z
" />
    <glyph glyph-name="ubreve" unicode="&#x16d;" horiz-adv-x="566" 
d="M222 -14c-99 0 -146 71 -146 149c0 14 2 32 6 52l48 273h22l-49 -274c-3 -15 -5 -36 -5 -50c0 -65 34 -131 127 -131c101 0 183 84 207 225l41 230h22l-61 -344c-5 -29 -14 -90 -15 -116h-22c2 26 11 87 17 121h-2c-41 -89 -111 -135 -190 -135zM464 698
c-21 -83 -73 -126 -144 -126c-65 0 -107 45 -107 126h17c0 -69 37 -106 91 -106c62 0 104 30 127 106h16z" />
    <glyph glyph-name="uring" unicode="&#x16f;" horiz-adv-x="566" 
d="M222 -14c-99 0 -146 71 -146 149c0 14 2 32 6 52l48 273h22l-49 -274c-3 -15 -5 -36 -5 -50c0 -65 34 -131 127 -131c101 0 183 84 207 225l41 230h22l-61 -344c-5 -29 -14 -90 -15 -116h-22c2 26 11 87 17 121h-2c-41 -89 -111 -135 -190 -135zM414 664
c0 34 -20 65 -65 65c-52 0 -84 -44 -84 -93c0 -35 19 -64 65 -64c51 0 84 43 84 92zM247 635c0 58 40 110 103 110c55 0 82 -36 82 -80c0 -58 -39 -110 -103 -110c-55 0 -82 35 -82 80z" />
    <glyph glyph-name="uhungarumlaut" unicode="&#x171;" horiz-adv-x="566" 
d="M222 -14c-99 0 -146 71 -146 149c0 14 2 32 6 52l48 273h22l-49 -274c-3 -15 -5 -36 -5 -50c0 -65 34 -131 127 -131c101 0 183 84 207 225l41 230h22l-61 -344c-5 -29 -14 -90 -15 -116h-22c2 26 11 87 17 121h-2c-41 -89 -111 -135 -190 -135zM403 708l-135 -144h-20
l127 144h28zM524 708l-135 -144h-20l127 144h28z" />
    <glyph glyph-name="uogonek" unicode="&#x173;" horiz-adv-x="566" 
d="M429 -176l7 -16c-24 -19 -51 -31 -82 -31c-42 0 -77 20 -77 63c0 51 34 91 119 160h1c2 26 11 87 17 121h-2c-41 -89 -111 -135 -190 -135c-99 0 -146 71 -146 149c0 14 2 32 6 52l48 273h22l-49 -274c-3 -15 -5 -36 -5 -50c0 -65 34 -131 127 -131c101 0 183 84 207 225
l41 230h22l-61 -344c-5 -29 -14 -90 -15 -116c-93 -81 -119 -111 -119 -156c0 -31 21 -49 55 -49c27 0 55 12 74 29z" />
    <glyph glyph-name="wcircumflex" unicode="&#x175;" horiz-adv-x="692" 
d="M707 460l-232 -460h-30l-58 436h-2l-241 -436h-30l-38 460h23l34 -438h2l240 438h31l57 -438h2l218 438h24zM426 708h29l73 -144h-20l-68 132l-120 -132h-24z" />
    <glyph glyph-name="wacute" unicode="&#x1e83;" horiz-adv-x="692" 
d="M707 460l-232 -460h-30l-58 436h-2l-241 -436h-30l-38 460h23l34 -438h2l240 438h31l57 -438h2l218 438h24zM556 708l-135 -144h-20l127 144h28z" />
    <glyph glyph-name="wdieresis" unicode="&#x1e85;" horiz-adv-x="692" 
d="M707 460l-232 -460h-30l-58 436h-2l-241 -436h-30l-38 460h23l34 -438h2l240 438h31l57 -438h2l218 438h24zM348 633c-12 0 -21 7 -21 23c0 14 11 28 25 28c12 0 21 -8 21 -22c0 -16 -12 -29 -25 -29zM498 633c-12 0 -21 7 -21 23c0 14 11 28 25 28c12 0 21 -8 21 -22
c0 -16 -12 -29 -25 -29z" />
    <glyph glyph-name="wgrave" unicode="&#x1e81;" horiz-adv-x="692" 
d="M707 460l-232 -460h-30l-58 436h-2l-241 -436h-30l-38 460h23l34 -438h2l240 438h31l57 -438h2l218 438h24zM282 708h28l106 -144h-20z" />
    <glyph glyph-name="yacute" unicode="&#xfd;" horiz-adv-x="428" 
d="M447 460l-336 -612c-31 -57 -64 -90 -123 -90c-12 0 -31 3 -40 7l4 19c7 -3 23 -6 36 -6c62 0 89 47 112 89l65 120l-96 473h22l89 -448l242 448h25zM404 708l-135 -144h-20l127 144h28z" />
    <glyph glyph-name="ycircumflex" unicode="&#x177;" horiz-adv-x="428" 
d="M447 460l-336 -612c-31 -57 -64 -90 -123 -90c-12 0 -31 3 -40 7l4 19c7 -3 23 -6 36 -6c62 0 89 47 112 89l65 120l-96 473h22l89 -448l242 448h25zM290 708h29l73 -144h-20l-68 132l-120 -132h-24z" />
    <glyph glyph-name="ydieresis" unicode="&#xff;" horiz-adv-x="428" 
d="M447 460l-336 -612c-31 -57 -64 -90 -123 -90c-12 0 -31 3 -40 7l4 19c7 -3 23 -6 36 -6c62 0 89 47 112 89l65 120l-96 473h22l89 -448l242 448h25zM214 633c-12 0 -21 7 -21 23c0 14 11 28 25 28c12 0 21 -8 21 -22c0 -16 -12 -29 -25 -29zM364 633c-12 0 -21 7 -21 23
c0 14 11 28 25 28c12 0 21 -8 21 -22c0 -16 -12 -29 -25 -29z" />
    <glyph glyph-name="ygrave" unicode="&#x1ef3;" horiz-adv-x="428" 
d="M447 460l-336 -612c-31 -57 -64 -90 -123 -90c-12 0 -31 3 -40 7l4 19c7 -3 23 -6 36 -6c62 0 89 47 112 89l65 120l-96 473h22l89 -448l242 448h25zM165 708h28l106 -144h-20z" />
    <glyph glyph-name="zacute" unicode="&#x17a;" horiz-adv-x="430" 
d="M343 0h-338l2 21l378 420h-286l3 19h310l-4 -22l-375 -419h313zM390 708l-135 -144h-20l127 144h28z" />
    <glyph glyph-name="zcaron" unicode="&#x17e;" horiz-adv-x="430" 
d="M343 0h-338l2 21l378 420h-286l3 19h310l-4 -22l-375 -419h313zM283 564h-29l-73 144h20l68 -132l120 132h24z" />
    <glyph glyph-name="zdotaccent" unicode="&#x17c;" horiz-adv-x="430" 
d="M343 0h-338l2 21l378 420h-286l3 19h310l-4 -22l-375 -419h313zM281 633c-12 0 -21 7 -21 23c0 14 11 28 25 28c12 0 21 -8 21 -22c0 -16 -12 -29 -25 -29z" />
    <glyph glyph-name="IJ" unicode="&#x132;" horiz-adv-x="721" 
d="M88 0h-22l125 708h22zM613 193c-23 -130 -85 -211 -210 -211c-83 0 -140 50 -156 111l20 9c17 -60 70 -100 138 -100c114 0 167 79 187 194l90 512h22z" />
    <glyph glyph-name="ij" unicode="&#x133;" horiz-adv-x="451" 
d="M84 0h-22l81 460h22zM181 633c-12 0 -21 7 -21 23c0 14 11 28 25 28c12 0 21 -8 21 -22c0 -16 -12 -29 -25 -29zM292 -97c-14 -75 -41 -144 -132 -144c-9 0 -21 1 -29 3l2 19c9 -2 17 -3 25 -3c85 0 101 64 112 123l98 559h22zM406 633c-12 0 -21 7 -21 23
c0 14 11 28 25 28c12 0 21 -8 21 -22c0 -16 -12 -29 -25 -29z" />
    <glyph glyph-name="f_i" unicode="&#xf001;" horiz-adv-x="494" 
d="M370 762l-4 -17c-12 3 -25 5 -40 5c-73 0 -102 -63 -113 -124l-29 -166h125l-3 -19h-125l-78 -441h-22l78 441h-97l3 19h96l29 165c20 112 80 143 135 143c19 0 33 -2 45 -6zM352 0h-22l81 460h22zM449 633c-12 0 -21 7 -21 23c0 14 11 28 25 28c12 0 21 -8 21 -22
c0 -16 -12 -29 -25 -29z" />
    <glyph glyph-name="f_l" unicode="&#xf002;" horiz-adv-x="494" 
d="M370 762l-4 -17c-12 3 -25 5 -40 5c-73 0 -102 -63 -113 -124l-29 -166h125l-3 -19h-125l-78 -441h-22l78 441h-97l3 19h96l29 165c20 112 80 143 135 143c19 0 33 -2 45 -6zM352 0h-22l133 756h22z" />
    <glyph glyph-name="grave.cap" horiz-adv-x="240" 
d="M89 908h28l106 -144h-20z" />
    <glyph glyph-name="acute" unicode="&#xb4;" horiz-adv-x="240" 
d="M279 708l-135 -144h-20l127 144h28z" />
    <glyph glyph-name="acute.cap" horiz-adv-x="240" 
d="M279 908l-135 -144h-20l127 144h28z" />
    <glyph glyph-name="circumflex" unicode="&#x2c6;" horiz-adv-x="240" 
d="M191 708h29l73 -144h-20l-68 132l-120 -132h-24z" />
    <glyph glyph-name="circumflex.cap" horiz-adv-x="240" 
d="M191 908h29l73 -144h-20l-68 132l-120 -132h-24z" />
    <glyph glyph-name="caron" unicode="&#x2c7;" horiz-adv-x="240" 
d="M188 564h-29l-73 144h20l68 -132l120 132h24z" />
    <glyph glyph-name="caron.cap" horiz-adv-x="240" 
d="M188 764h-29l-73 144h20l68 -132l120 132h24z" />
    <glyph glyph-name="caron.alt" horiz-adv-x="240" 
d="M210 708l-95 -188h-17l88 188h24z" />
    <glyph glyph-name="tilde" unicode="&#x2dc;" horiz-adv-x="240" 
d="M194 638c32 -22 41 -24 56 -24c23 0 38 15 49 48h17c-14 -48 -42 -67 -69 -67c-21 0 -33 5 -60 24c-30 22 -40 24 -55 24c-23 0 -38 -18 -49 -51h-17c14 48 42 70 69 70c21 0 33 -6 59 -24z" />
    <glyph glyph-name="tilde.cap" horiz-adv-x="240" 
d="M194 838c32 -22 41 -24 56 -24c23 0 38 15 49 48h17c-14 -48 -42 -67 -69 -67c-21 0 -33 5 -60 24c-30 22 -40 24 -55 24c-23 0 -38 -18 -49 -51h-17c14 48 42 70 69 70c21 0 33 -6 59 -24z" />
    <glyph glyph-name="dieresis" unicode="&#xa8;" horiz-adv-x="240" 
d="M118 633c-12 0 -21 7 -21 23c0 14 11 28 25 28c12 0 21 -8 21 -22c0 -16 -12 -29 -25 -29zM268 633c-12 0 -21 7 -21 23c0 14 11 28 25 28c12 0 21 -8 21 -22c0 -16 -12 -29 -25 -29z" />
    <glyph glyph-name="dieresis.cap" horiz-adv-x="240" 
d="M118 833c-12 0 -21 7 -21 23c0 14 11 28 25 28c12 0 21 -8 21 -22c0 -16 -12 -29 -25 -29zM268 833c-12 0 -21 7 -21 23c0 14 11 28 25 28c12 0 21 -8 21 -22c0 -16 -12 -29 -25 -29z" />
    <glyph glyph-name="macron" unicode="&#xaf;" horiz-adv-x="240" 
d="M305 621h-232l4 20h232z" />
    <glyph glyph-name="macron.cap" horiz-adv-x="240" 
d="M305 821h-232l4 20h232z" />
    <glyph glyph-name="uni02C9" unicode="&#x2c9;" horiz-adv-x="240" 
d="M305 821h-232l4 20h232z" />
    <glyph glyph-name="breve" unicode="&#x2d8;" horiz-adv-x="240" 
d="M330 698c-21 -83 -73 -126 -144 -126c-65 0 -107 45 -107 126h17c0 -69 37 -106 91 -106c62 0 104 30 127 106h16z" />
    <glyph glyph-name="breve.cap" horiz-adv-x="240" 
d="M330 898c-21 -83 -73 -126 -144 -126c-65 0 -107 45 -107 126h17c0 -69 37 -106 91 -106c62 0 104 30 127 106h16z" />
    <glyph glyph-name="ring" unicode="&#x2da;" horiz-adv-x="240" 
d="M272 664c0 34 -20 65 -65 65c-52 0 -84 -44 -84 -93c0 -35 19 -64 65 -64c51 0 84 43 84 92zM105 635c0 58 40 110 103 110c55 0 82 -36 82 -80c0 -58 -39 -110 -103 -110c-55 0 -82 35 -82 80z" />
    <glyph glyph-name="ring.cap" horiz-adv-x="240" 
d="M272 864c0 34 -20 65 -65 65c-52 0 -84 -44 -84 -93c0 -35 19 -64 65 -64c51 0 84 43 84 92zM105 835c0 58 40 110 103 110c55 0 82 -36 82 -80c0 -58 -39 -110 -103 -110c-55 0 -82 35 -82 80z" />
    <glyph glyph-name="hungarumlaut" unicode="&#x2dd;" horiz-adv-x="240" 
d="M254 708l-135 -144h-20l127 144h28zM375 708l-135 -144h-20l127 144h28z" />
    <glyph glyph-name="hungarumlaut.cap" horiz-adv-x="240" 
d="M254 908l-135 -144h-20l127 144h28zM375 908l-135 -144h-20l127 144h28z" />
    <glyph glyph-name="dotaccent" unicode="&#x2d9;" horiz-adv-x="240" 
d="M194 633c-12 0 -21 7 -21 23c0 14 11 28 25 28c12 0 21 -8 21 -22c0 -16 -12 -29 -25 -29z" />
    <glyph glyph-name="dotaccent.cap" horiz-adv-x="240" 
d="M194 833c-12 0 -21 7 -21 23c0 14 11 28 25 28c12 0 21 -8 21 -22c0 -16 -12 -29 -25 -29z" />
    <glyph glyph-name="cedilla" unicode="&#xb8;" horiz-adv-x="240" 
d="M34 -226c-25 0 -66 7 -92 20l7 17c22 -11 61 -18 85 -18c73 0 99 31 99 66c0 34 -32 46 -61 46c-18 0 -57 -6 -74 -15l-9 9l87 101h21l-74 -86c18 6 32 8 51 8c37 0 80 -15 80 -61c0 -61 -51 -87 -120 -87z" />
    <glyph glyph-name="ogonek" unicode="&#x2db;" horiz-adv-x="240" 
d="M125 -176l7 -16c-24 -19 -51 -31 -82 -31c-42 0 -77 20 -77 63c0 51 34 91 119 160h23c-93 -81 -119 -111 -119 -156c0 -31 21 -49 55 -49c27 0 55 12 74 29z" />
    <glyph glyph-name="commaaccent" horiz-adv-x="240" 
d="M160 -45l-95 -188h-17l88 188h24z" />
    <glyph glyph-name="commaaccent.alt" horiz-adv-x="240" 
d="M150 564l95 188h17l-88 -188h-24z" />
    <glyph glyph-name="ellipsis" unicode="&#x2026;" horiz-adv-x="1000" 
d="M124 -6c-12 0 -21 10 -18 26c2 14 15 25 27 25s21 -11 19 -25c-3 -16 -17 -26 -28 -26zM794 -6c-12 0 -21 10 -18 26c2 14 15 25 27 25s21 -11 19 -25c-3 -16 -17 -26 -28 -26zM459 -6c-12 0 -21 10 -18 26c2 14 15 25 27 25s21 -11 19 -25c-3 -16 -17 -26 -28 -26z" />
    <glyph glyph-name="uni00AD" unicode="&#xad;" horiz-adv-x="300" 
d="M243 245h-180l4 19h180z" />
    <glyph glyph-name="exclamdown" unicode="&#xa1;" horiz-adv-x="276" 
d="M39 -222l91 513h22l-91 -513h-22zM168 492c12 0 21 -7 21 -23c0 -14 -11 -28 -25 -28c-12 0 -21 8 -21 22c0 16 12 29 25 29z" />
    <glyph glyph-name="questiondown" unicode="&#xbf;" horiz-adv-x="472" 
d="M227 242l8 44h22l-10 -53c-7 -44 -27 -91 -93 -137l-39 -30c-48 -37 -94 -82 -94 -154c0 -89 61 -131 136 -131c94 0 154 60 182 139l20 -6c-34 -97 -105 -154 -203 -154c-84 0 -157 48 -157 151c0 87 61 140 118 181c80 57 99 85 110 150zM270 492c12 0 21 -7 21 -23
c0 -14 -11 -28 -25 -28c-12 0 -21 8 -21 22c0 16 12 29 25 29z" />
    <glyph glyph-name="quoteleft" unicode="&#x2018;" horiz-adv-x="220" 
d="M115 480l103 228h17l-96 -228h-24z" />
    <glyph glyph-name="quoteright" unicode="&#x2019;" horiz-adv-x="220" 
d="M235 708l-103 -228h-17l96 228h24z" />
    <glyph glyph-name="quotedblleft" unicode="&#x201c;" 
d="M245 480l103 228h17l-96 -228h-24zM115 480l105 228h17l-98 -228h-24z" />
    <glyph glyph-name="quotedblright" unicode="&#x201d;" 
d="M235 708l-103 -228h-17l96 228h24zM365 708l-105 -228h-17l98 228h24z" />
    <glyph glyph-name="quotesinglbase" unicode="&#x201a;" horiz-adv-x="220" 
d="M120 90l-103 -228h-17l96 228h24z" />
    <glyph glyph-name="quotedblbase" unicode="&#x201e;" 
d="M120 90l-103 -228h-17l96 228h24zM250 90l-105 -228h-17l98 228h24z" />
    <glyph glyph-name="guilsinglleft" unicode="&#x2039;" horiz-adv-x="315" 
d="M83 239l157 196l14 -11l-147 -187l82 -185l-18 -10z" />
    <glyph glyph-name="guilsinglright" unicode="&#x203a;" horiz-adv-x="315" 
d="M235 237l-157 -196l-14 11l147 187l-82 185l18 10z" />
    <glyph glyph-name="guillemotleft" unicode="&#xab;" horiz-adv-x="481" 
d="M83 239l157 196l14 -11l-147 -187l82 -185l-18 -10zM250 239l157 196l14 -11l-147 -187l82 -185l-18 -10z" />
    <glyph glyph-name="guillemotright" unicode="&#xbb;" horiz-adv-x="481" 
d="M402 239l-157 -196l-14 11l147 187l-82 185l18 10zM235 239l-157 -196l-14 11l147 187l-82 185l18 10z" />
    <glyph glyph-name="endash" unicode="&#x2013;" horiz-adv-x="400" 
d="M373 244h-340l4 20h340z" />
    <glyph glyph-name="emdash" unicode="&#x2014;" horiz-adv-x="600" 
d="M573 244h-540l4 20h540z" />
    <glyph glyph-name="bullet" unicode="&#x2022;" horiz-adv-x="500" 
d="M73 354c0 98 79 177 177 177s177 -79 177 -177s-79 -177 -177 -177s-177 79 -177 177z" />
    <glyph glyph-name="periodcentered" unicode="&#xb7;" horiz-adv-x="240" 
d="M128 229c-12 0 -21 7 -21 23c0 14 11 28 25 28c12 0 21 -8 21 -22c0 -16 -12 -29 -25 -29z" />
    <glyph glyph-name="uni2219" unicode="&#x2219;" horiz-adv-x="240" 
d="M128 229c-12 0 -21 7 -21 23c0 14 11 28 25 28c12 0 21 -8 21 -22c0 -16 -12 -29 -25 -29z" />
    <glyph glyph-name="dagger" unicode="&#x2020;" horiz-adv-x="520" 
d="M511 481h-194l-107 -607h-22l107 607h-196l3 20h196l37 207h22l-37 -207h194z" />
    <glyph glyph-name="daggerdbl" unicode="&#x2021;" horiz-adv-x="520" 
d="M295 481h-196l3 20h196l37 207h22l-37 -207h194l-3 -20h-194l-67 -380h194l-4 -20h-194l-36 -207h-22l36 207h-196l4 20h196z" />
    <glyph glyph-name="section" unicode="&#xa7;" horiz-adv-x="560" 
d="M303 147c49 -22 86 -58 86 -124c0 -116 -92 -157 -187 -157c-69 0 -125 26 -164 68l19 16c35 -42 85 -64 147 -64c81 0 164 35 164 130c0 73 -45 104 -113 131c-112 44 -146 73 -146 147c0 98 87 139 159 153c-52 27 -83 54 -83 119c0 93 84 162 179 162
c62 0 113 -19 146 -61l-16 -14c-28 37 -75 56 -132 56c-73 0 -155 -57 -155 -143c0 -71 46 -96 108 -121c112 -45 149 -75 149 -156c0 -87 -88 -135 -161 -142zM280 159c74 5 163 47 163 130c0 72 -46 102 -114 130l-38 16c-68 -9 -160 -51 -160 -138c0 -75 49 -97 108 -121
z" />
    <glyph glyph-name="paragraph" unicode="&#xb6;" horiz-adv-x="600" 
d="M407 -126h-22l144 817h-155l-144 -817h-22l82 467c-118 0 -185 65 -185 148c0 128 99 219 258 219h191z" />
    <glyph glyph-name="brokenbar" unicode="&#xa6;" horiz-adv-x="222" 
d="M120 344h-17v331h17v-331zM120 -175h-17v331h17v-331z" />
    <glyph glyph-name="copyright" unicode="&#xa9;" horiz-adv-x="800" 
d="M20 353c0 210 171 377 381 377c209 0 379 -167 379 -377c0 -209 -170 -375 -379 -375c-210 0 -381 166 -381 375zM42 353c0 -196 162 -353 359 -353c196 0 357 157 357 353c0 197 -161 355 -357 355c-197 0 -359 -158 -359 -355zM555 520l-17 -15c-31 33 -76 53 -121 53
c-118 0 -194 -96 -194 -207s76 -205 194 -205c46 0 93 17 125 48l15 -14c-37 -37 -90 -54 -140 -54c-125 0 -216 94 -216 225s91 226 216 226c53 0 104 -22 138 -57z" />
    <glyph glyph-name="registered" unicode="&#xae;" horiz-adv-x="600" 
d="M440 371h-26l-74 110h-55v-110h-21v251h84c51 0 82 -24 82 -70c0 -44 -34 -66 -67 -68zM409 553c0 40 -31 50 -61 50h-63v-105h48c46 0 76 13 76 55zM112 494c0 126 103 226 229 226c125 0 227 -100 227 -226s-102 -225 -227 -225c-126 0 -229 99 -229 225zM133 494
c0 -112 94 -206 208 -206c113 0 206 94 206 206c0 113 -93 206 -206 206c-114 0 -208 -93 -208 -206z" />
    <glyph glyph-name="trademark" unicode="&#x2122;" horiz-adv-x="1000" 
d="M941 296h-22v391h-2l-169 -391h-13l-166 391h-2v-391h-22v412h37l160 -377l161 377h38v-412zM439 689h-134v-393h-22v393h-133v19h289v-19z" />
    <glyph glyph-name="currency" unicode="&#xa4;" horiz-adv-x="800" 
d="M565 124c-42 -37 -98 -59 -164 -59s-122 22 -164 61l-97 -96l-15 16l96 96c-38 42 -60 100 -60 168c0 65 21 121 56 163l-92 91l16 16l91 -91c42 40 100 64 169 64c68 0 126 -23 168 -63l90 90l16 -16l-90 -90c36 -42 57 -98 57 -164c0 -68 -23 -127 -61 -170l94 -94
l-15 -16zM620 310c0 124 -84 224 -219 224s-218 -100 -218 -224s83 -226 218 -226s219 102 219 226z" />
    <glyph glyph-name="Euro" unicode="&#x20ac;" horiz-adv-x="560" 
d="M570 677c-34 22 -75 31 -125 31c-134 0 -246 -116 -298 -264h331l-10 -19h-327c-12 -39 -24 -93 -26 -141h291l-9 -19h-283c0 -154 83 -265 224 -265c59 0 109 16 152 46l8 -19c-41 -27 -92 -47 -161 -47c-168 0 -244 134 -244 285h-71l11 19h61c0 27 12 99 25 141h-73
l9 19h70c56 167 180 284 319 284c56 0 104 -12 137 -32z" />
    <glyph glyph-name="cent" unicode="&#xa2;" horiz-adv-x="560" 
d="M344 474l12 66h22l-12 -67c53 -3 106 -23 134 -59l-14 -15c-27 35 -77 54 -124 56l-78 -453c56 0 114 22 152 59l11 -15c-42 -41 -104 -64 -166 -64l-11 -54h-22l10 55c-122 10 -178 95 -178 201c0 149 111 286 264 290zM342 455c-139 -6 -240 -133 -240 -268
c0 -96 50 -174 160 -184z" />
    <glyph glyph-name="sterling" unicode="&#xa3;" horiz-adv-x="560" 
d="M233 379h171l-4 -19h-170l-59 -340h256l-4 -20h-387l4 20h109l59 340h-98l4 19h97l24 136c23 130 82 211 201 211c48 0 89 -16 114 -41l-13 -16c-21 22 -59 37 -100 37c-116 0 -161 -82 -181 -194z" />
    <glyph glyph-name="florin" unicode="&#x192;" horiz-adv-x="560" 
d="M564 701l-12 -18c-11 10 -31 18 -50 18c-70 0 -106 -58 -125 -112l-65 -181h118l-3 -19h-121l-147 -409c-26 -74 -59 -124 -136 -124c-21 0 -42 3 -56 13l9 19c15 -8 30 -12 46 -12c70 0 100 55 126 129l136 384h-111l3 19h114l61 173c26 71 63 139 149 139
c28 0 51 -7 64 -19z" />
    <glyph glyph-name="yen" unicode="&#xa5;" horiz-adv-x="560" 
d="M291 354h-190l4 19h184l-166 335h26l159 -330l282 330h29l-292 -335h180l-4 -19h-190l-23 -131h190l-3 -19h-190l-36 -204h-22l36 204h-190l3 19h190z" />
    <glyph glyph-name="ordfeminine" unicode="&#xaa;" 
d="M327 495c-3 -22 -6 -49 -6 -64h-18c0 16 3 45 7 67h-2c-20 -47 -61 -75 -111 -75c-37 0 -88 20 -88 75c0 85 99 101 218 101c3 13 4 29 4 36c0 45 -34 66 -78 66c-33 0 -62 -11 -87 -31l-10 16c30 23 65 34 97 34c58 0 98 -30 98 -83c0 -9 -2 -24 -4 -32zM318 555l5 28
h-16c-95 0 -177 -18 -177 -84c0 -47 41 -58 74 -58c70 0 105 62 114 114z" />
    <glyph glyph-name="ordmasculine" unicode="&#xba;" 
d="M356 594c0 58 -34 109 -110 109c-86 0 -139 -73 -139 -154c0 -58 33 -109 109 -109c86 0 140 73 140 154zM86 549c0 90 63 172 162 172c86 0 129 -56 129 -126c0 -90 -62 -172 -162 -172c-86 0 -129 55 -129 126z" />
    <glyph glyph-name="fraction" unicode="&#x2044;" horiz-adv-x="100" 
d="M350 725l-573 -752l-14 11l573 752z" />
    <glyph glyph-name="uni2215" unicode="&#x2215;" horiz-adv-x="100" 
d="M350 725l-573 -752l-14 11l573 752z" />
    <glyph glyph-name="onequarter" unicode="&#xbc;" horiz-adv-x="800" 
d="M700 725l-573 -752l-14 11l573 752zM201 288h-21l70 398l-107 -64l-10 16l122 70h20zM630 107h-196l4 22l236 291h31l-52 -295h67l-3 -18h-67l-19 -107h-20zM457 125h176l48 272h-3z" />
    <glyph glyph-name="onehalf" unicode="&#xbd;" horiz-adv-x="800" 
d="M700 725l-573 -752l-14 11l573 752zM201 288h-21l70 398l-107 -64l-10 16l122 70h20zM467 18h228l-3 -18h-252l3 20l180 167c76 70 97 103 97 145c0 55 -36 81 -85 81c-47 0 -88 -22 -113 -75l-19 6c27 62 79 87 132 87c68 0 105 -37 105 -98c0 -50 -23 -84 -108 -162z
" />
    <glyph glyph-name="threequarters" unicode="&#xbe;" horiz-adv-x="800" 
d="M700 725l-573 -752l-14 11l573 752zM630 107h-196l4 22l236 291h31l-52 -295h67l-3 -18h-67l-19 -107h-20zM457 125h176l48 272h-3zM314 403c0 -80 -63 -125 -132 -125c-60 0 -104 29 -122 70l18 7c18 -43 66 -59 103 -59c64 0 113 41 113 108c0 65 -43 97 -102 97h-17
l4 18h16c74 0 122 47 122 102c0 59 -39 82 -80 82c-34 0 -67 -18 -88 -43l-14 13c29 31 63 47 104 47c56 0 98 -33 98 -95c0 -69 -51 -107 -108 -114v-2c52 -10 85 -45 85 -106z" />
    <glyph glyph-name="perthousand" unicode="&#x2030;" horiz-adv-x="1000" 
d="M382 588c0 58 -35 109 -111 109c-85 0 -139 -69 -139 -147c0 -59 34 -109 110 -109c85 0 140 68 140 147zM113 548c0 90 62 166 160 166c86 0 129 -55 129 -125c0 -90 -62 -165 -161 -165c-85 0 -128 55 -128 124zM594 158c0 58 -35 109 -111 109
c-85 0 -139 -69 -139 -147c0 -59 34 -109 110 -109c85 0 140 68 140 147zM325 118c0 90 62 166 160 166c86 0 129 -55 129 -125c0 -90 -62 -165 -161 -165c-85 0 -128 55 -128 124zM929 158c0 58 -35 109 -111 109c-85 0 -139 -69 -139 -147c0 -59 34 -109 110 -109
c85 0 140 68 140 147zM660 118c0 90 62 166 160 166c86 0 129 -55 129 -125c0 -90 -62 -165 -161 -165c-85 0 -128 55 -128 124zM654 725l-573 -752l-16 11l573 752z" />
    <glyph glyph-name="minus" unicode="&#x2212;" horiz-adv-x="666" 
d="M566 297h-466v19h466v-19z" />
    <glyph glyph-name="plusminus" unicode="&#xb1;" horiz-adv-x="666" 
d="M573 342h-231v-192h-22v192h-226v20h225v196h22v-196h232v-20zM569 48h-471v20h471v-20z" />
    <glyph glyph-name="multiply" unicode="&#xd7;" horiz-adv-x="666" 
d="M347 308l180 -180l-14 -13l-179 179l-179 -179l-14 13l180 180l-180 180l13 13l180 -180l180 180l13 -13z" />
    <glyph glyph-name="divide" unicode="&#xf7;" horiz-adv-x="666" 
d="M369 470c0 -21 -17 -38 -36 -38s-35 17 -35 38s16 38 35 38s36 -17 36 -38zM573 293h-479v20h479v-20zM369 136c0 -21 -17 -38 -36 -38s-35 17 -35 38c0 22 15 38 35 38c19 0 36 -17 36 -38z" />
    <glyph glyph-name="notequal" unicode="&#x2260;" horiz-adv-x="666" 
d="M352 380h-252v19h261l73 147l18 -8l-69 -139h183v-19h-192l-75 -152h267v-19h-277l-85 -172l-17 9l81 163h-168v19h177z" />
    <glyph glyph-name="approxequal" unicode="&#x2248;" horiz-adv-x="666" 
d="M437 328c73 1 94 43 102 89h18c-6 -55 -37 -109 -121 -110c-87 0 -200 69 -272 69c-77 0 -98 -42 -106 -88h-18c6 55 37 109 118 109c87 0 202 -69 279 -69zM437 140c73 1 94 43 102 89h18c-6 -55 -37 -109 -121 -110c-87 0 -200 69 -272 69c-77 0 -98 -42 -106 -88h-18
c6 55 37 109 118 109c87 0 202 -69 279 -69z" />
    <glyph glyph-name="lessequal" unicode="&#x2264;" horiz-adv-x="666" 
d="M566 0h-466v20h466v-20zM566 67l-466 224v24l466 224v-20l-454 -216l454 -216v-20z" />
    <glyph glyph-name="greaterequal" unicode="&#x2265;" horiz-adv-x="666" 
d="M100 0v20h466v-20h-466zM100 67v20l454 216l-454 216v20l466 -224v-24z" />
    <glyph glyph-name="logicalnot" unicode="&#xac;" horiz-adv-x="666" 
d="M573 134h-22v246h-457v19h479v-265z" />
    <glyph glyph-name="Delta" unicode="&#x2206;" horiz-adv-x="634" 
d="M-35 0l4 18l449 690h33l128 -690l-4 -18h-610zM432 693l-434 -673h558z" />
    <glyph glyph-name="Omega" unicode="&#x2126;" horiz-adv-x="758" 
d="M443 708c-208 0 -337 -164 -337 -351c0 -122 67 -212 179 -236l-21 -121h-228l4 20h209l15 86c-94 24 -180 107 -180 253c0 172 116 369 362 369c146 0 272 -87 272 -268c0 -179 -112 -318 -263 -355l-15 -85h220l-4 -20h-238l22 121c151 33 256 174 256 342
c0 128 -77 245 -253 245z" />
    <glyph glyph-name="mu" unicode="&#xb5;" horiz-adv-x="573" 
d="M143 460h22l-49 -276c-3 -16 -5 -33 -5 -47c0 -90 57 -132 124 -132c132 0 192 124 209 220l42 235h22l-62 -349c-5 -26 -9 -56 -9 -71c0 -27 11 -33 35 -33c14 0 28 3 34 6v-17c-6 -3 -20 -8 -36 -8c-43 0 -54 22 -54 52c0 16 4 45 11 81h-2
c-38 -82 -104 -135 -191 -135c-78 0 -118 44 -134 88h-2l-56 -314h-22z" />
    <glyph glyph-name="degree" unicode="&#xb0;" horiz-adv-x="400" 
d="M404 571c0 -80 -65 -145 -145 -145s-145 65 -145 145s65 145 145 145s145 -65 145 -145zM384 571c0 69 -56 125 -125 125s-125 -56 -125 -125s56 -125 125 -125s125 56 125 125z" />
    <glyph glyph-name="afii61289" unicode="&#x2113;" horiz-adv-x="500" 
d="M286 -14c-51 0 -101 27 -101 115v164l-61 -71h-2l-10 10l73 83v274c0 111 44 160 94 160c46 0 81 -40 81 -113c0 -95 -59 -210 -157 -327v-177c0 -82 48 -101 85 -101c29 0 61 12 88 40h2l9 -11c-30 -31 -66 -46 -101 -46zM343 605c0 61 -30 99 -64 99
c-38 0 -76 -40 -76 -143v-258c86 104 140 216 140 302z" />
    <glyph glyph-name="estimated" unicode="&#x212e;" horiz-adv-x="500" 
d="M561 259h-404v-181c39 -39 87 -59 145 -59c83 0 143 36 193 120l35 -21c-61 -95 -123 -135 -228 -135c-157 0 -258 122 -258 276c0 155 101 276 258 276c154 0 258 -114 259 -276zM157 295h291v145c-42 40 -91 60 -147 60c-57 0 -105 -21 -144 -60v-145z" />
    <glyph glyph-name="infinity" unicode="&#x221e;" horiz-adv-x="722" 
d="M370 234c-46 -53 -117 -120 -178 -120c-69 0 -119 54 -119 134c0 79 50 133 119 133c61 0 132 -67 178 -121c46 54 117 121 178 121c69 0 119 -54 119 -133c0 -80 -50 -134 -119 -134c-61 0 -132 67 -178 120zM382 246c77 -82 120 -114 166 -114c64 0 99 55 99 114
c0 62 -35 117 -99 117c-46 0 -90 -34 -166 -117zM358 246c-76 83 -120 117 -166 117c-64 0 -99 -55 -99 -117c0 -59 35 -114 99 -114c46 0 89 32 166 114z" />
    <glyph glyph-name="partialdiff" unicode="&#x2202;" horiz-adv-x="475" 
d="M401 298c1 29 2 53 2 82c0 207 -82 325 -200 325c-45 0 -76 -13 -110 -40l-11 16c37 31 74 44 119 44c159 0 222 -151 222 -359c0 -148 -26 -232 -57 -288c-40 -71 -89 -95 -148 -95c-103 0 -178 97 -178 220c0 140 81 210 176 210c78 0 148 -46 185 -115zM397 276
c-41 68 -104 116 -178 116c-104 0 -155 -94 -155 -188c0 -88 52 -199 155 -199c134 0 172 172 178 271z" />
    <glyph glyph-name="integral" unicode="&#x222b;" horiz-adv-x="535" 
d="M258 71c0 -108 -2 -148 -6 -173c-10 -64 -41 -102 -89 -102c-25 0 -45 10 -45 30c0 13 11 20 20 20s17 -9 22 -20c4 -9 11 -11 20 -11c33 0 56 58 56 175v509c0 108 2 148 6 173c10 64 41 102 89 102c25 0 45 -10 45 -30c0 -13 -11 -20 -20 -20s-17 9 -22 20
c-4 9 -11 11 -20 11c-33 0 -56 -58 -56 -172v-512z" />
    <glyph glyph-name="radical" unicode="&#x221a;" horiz-adv-x="475" 
d="M261 -215h-31l-168 368l-62 -30l-8 20l81 37l170 -373l205 979h22z" />
    <glyph glyph-name="summation" unicode="&#x2211;" horiz-adv-x="593" 
d="M548 -214h-503v22l339 481l-325 475v22h478v-20h-452l330 -477l-342 -483h475v-20z" />
    <glyph glyph-name="product" unicode="&#x220f;" horiz-adv-x="704" 
d="M612 -214h-22v980h-476v-980h-22v1000h520v-1000z" />
    <glyph glyph-name="lozenge" unicode="&#x25ca;" horiz-adv-x="593" 
d="M470 356l-163 -391h-24l-161 391l161 391h24zM446 356l-151 377l-151 -377l151 -377z" />
    <glyph glyph-name="uniF8FF" unicode="&#xf8ff;" horiz-adv-x="512" 
d="M278 117h-56v67h56v-67zM271 234h-46l-2 17c0 37 4 64 13 81s24 37 46 59c43 41 50 58 50 83c0 48 -35 85 -76 85s-74 -27 -82 -95l-50 8c9 95 63 137 135 137c71 0 124 -52 124 -131c0 -43 -12 -73 -63 -120c-25 -22 -39 -39 -43 -52s-6 -37 -6 -72zM50 50h412v617h-412
v-617zM0 718h512v-718h-512v718z" />
    <glyph glyph-name="uni03A9" unicode="&#x3a9;" horiz-adv-x="758" 
d="M443 708c-208 0 -337 -164 -337 -351c0 -122 67 -212 179 -236l-21 -121h-228l4 20h209l15 86c-94 24 -180 107 -180 253c0 172 116 369 362 369c146 0 272 -87 272 -268c0 -179 -112 -318 -263 -355l-15 -85h220l-4 -20h-238l22 121c151 33 256 174 256 342
c0 128 -77 245 -253 245z" />
    <glyph glyph-name="uni03BC" unicode="&#x3bc;" horiz-adv-x="573" 
d="M143 460h22l-49 -276c-3 -16 -5 -33 -5 -47c0 -90 57 -132 124 -132c132 0 192 124 209 220l42 235h22l-62 -349c-5 -26 -9 -56 -9 -71c0 -27 11 -33 35 -33c14 0 28 3 34 6v-17c-6 -3 -20 -8 -36 -8c-43 0 -54 22 -54 52c0 16 4 45 11 81h-2
c-38 -82 -104 -135 -191 -135c-78 0 -118 44 -134 88h-2l-56 -314h-22z" />
    <glyph glyph-name="pi" unicode="&#x3c0;" horiz-adv-x="609" 
d="M476 440l-56 -317c-4 -21 -7 -42 -7 -54c0 -21 6 -62 63 -62c6 0 24 1 32 4v-17c-9 -4 -27 -6 -36 -6c-41 0 -81 22 -81 75c0 15 3 36 7 57l57 320h-221l-146 -440h-23l146 440h-139l4 20h533l-4 -20h-129z" />
    <glyph glyph-name="uni0394" unicode="&#x394;" horiz-adv-x="634" 
d="M-35 0l4 18l449 690h33l128 -690l-4 -18h-610zM432 693l-434 -673h558z" />
    <glyph glyph-name="zero.denominator" 
d="M139 -11c-80 0 -106 68 -106 140c0 130 50 302 172 302c79 0 105 -69 105 -141c0 -129 -50 -301 -171 -301zM204 413c-96 0 -150 -146 -150 -281c0 -60 18 -125 85 -125c96 0 150 145 150 280c0 61 -17 126 -85 126z" />
    <glyph glyph-name="one.denominator" 
d="M150 0h-21l70 398l-107 -64l-10 16l122 70h20z" />
    <glyph glyph-name="two.denominator" 
d="M36 18h228l-3 -18h-252l3 20l180 167c76 70 97 103 97 145c0 55 -36 81 -85 81c-47 0 -88 -22 -113 -75l-19 6c27 62 79 87 132 87c68 0 105 -37 105 -98c0 -50 -23 -84 -108 -162z" />
    <glyph glyph-name="three.denominator" 
d="M264 114c0 -80 -63 -125 -132 -125c-60 0 -104 29 -122 70l18 7c18 -43 66 -59 103 -59c64 0 113 41 113 108c0 65 -43 97 -102 97h-17l4 18h16c74 0 122 47 122 102c0 59 -39 82 -80 82c-34 0 -67 -18 -88 -43l-14 13c29 31 63 47 104 47c56 0 98 -33 98 -95
c0 -69 -51 -107 -108 -114v-2c52 -10 85 -45 85 -106z" />
    <glyph glyph-name="four.denominator" 
d="M201 107h-196l4 22l236 291h31l-52 -295h67l-3 -18h-67l-19 -107h-20zM28 125h176l48 272h-3z" />
    <glyph glyph-name="five.denominator" 
d="M134 -11c-53 0 -92 24 -114 59l16 13c20 -33 55 -54 97 -54c78 0 130 62 130 138c0 57 -40 99 -102 99c-28 0 -56 -9 -84 -24l38 200h190l-3 -18h-169l-30 -152c21 8 40 11 58 11c75 0 122 -49 122 -114c0 -87 -56 -158 -149 -158z" />
    <glyph glyph-name="six.denominator" 
d="M28 102c0 42 17 78 56 129l142 189h25l-143 -188l1 -1c20 12 42 19 66 19c65 0 111 -43 111 -110c0 -80 -58 -151 -146 -151c-65 0 -112 45 -112 113zM48 102c0 -51 35 -95 93 -95c74 0 125 61 125 132c0 52 -36 93 -92 93c-72 0 -126 -63 -126 -130z" />
    <glyph glyph-name="seven.denominator" 
d="M327 420l-4 -20l-247 -400h-23l249 402h-210l4 18h231z" />
    <glyph glyph-name="eight.denominator" 
d="M284 129c0 -95 -76 -140 -145 -140c-57 0 -115 33 -115 104c0 65 43 117 109 134v1c-39 14 -56 50 -56 83c0 69 56 120 121 120c59 0 105 -33 105 -100c0 -55 -40 -91 -87 -106v-1c34 -12 68 -45 68 -95zM44 94c0 -51 42 -87 95 -87c73 0 125 53 125 122
c0 49 -40 88 -93 88c-69 0 -127 -54 -127 -123zM97 310c0 -44 31 -77 78 -77c65 0 108 48 108 97c0 53 -37 83 -85 83c-58 0 -101 -46 -101 -103z" />
    <glyph glyph-name="nine.denominator" 
d="M317 319c0 -42 -17 -77 -55 -128l-143 -191h-25l144 190l-1 1c-20 -12 -42 -19 -66 -19c-65 0 -111 44 -111 111c0 80 57 148 145 148c65 0 112 -44 112 -112zM297 319c0 51 -35 94 -93 94c-74 0 -124 -58 -124 -129c0 -52 36 -94 92 -94c72 0 125 62 125 129z" />
    <glyph glyph-name="zero.inferior" unicode="&#x2080;" 
d="M115 -148c-80 0 -106 68 -106 140c0 130 50 302 172 302c79 0 105 -69 105 -141c0 -129 -50 -301 -171 -301zM180 276c-96 0 -150 -146 -150 -281c0 -60 18 -125 85 -125c96 0 150 145 150 280c0 61 -17 126 -85 126z" />
    <glyph glyph-name="one.inferior" unicode="&#x2081;" 
d="M126 -137h-21l70 398l-107 -64l-10 16l122 70h20z" />
    <glyph glyph-name="two.inferior" unicode="&#x2082;" 
d="M12 -119h228l-3 -18h-252l3 20l180 167c76 70 97 103 97 145c0 55 -36 81 -85 81c-47 0 -88 -22 -113 -75l-19 6c27 62 79 87 132 87c68 0 105 -37 105 -98c0 -50 -23 -84 -108 -162z" />
    <glyph glyph-name="three.inferior" unicode="&#x2083;" 
d="M240 -23c0 -80 -63 -125 -132 -125c-60 0 -104 29 -122 70l18 7c18 -43 66 -59 103 -59c64 0 113 41 113 108c0 65 -43 97 -102 97h-17l4 18h16c74 0 122 47 122 102c0 59 -39 82 -80 82c-34 0 -67 -18 -88 -43l-14 13c29 31 63 47 104 47c56 0 98 -33 98 -95
c0 -69 -51 -107 -108 -114v-2c52 -10 85 -45 85 -106z" />
    <glyph glyph-name="four.inferior" unicode="&#x2084;" 
d="M177 -30h-196l4 22l236 291h31l-52 -295h67l-3 -18h-67l-19 -107h-20zM4 -12h176l48 272h-3z" />
    <glyph glyph-name="five.inferior" unicode="&#x2085;" 
d="M110 -148c-53 0 -92 24 -114 59l16 13c20 -33 55 -54 97 -54c78 0 130 62 130 138c0 57 -40 99 -102 99c-28 0 -56 -9 -84 -24l38 200h190l-3 -18h-169l-30 -152c21 8 40 11 58 11c75 0 122 -49 122 -114c0 -87 -56 -158 -149 -158z" />
    <glyph glyph-name="six.inferior" unicode="&#x2086;" 
d="M4 -35c0 42 17 78 56 129l142 189h25l-143 -188l1 -1c20 12 42 19 66 19c65 0 111 -43 111 -110c0 -80 -58 -151 -146 -151c-65 0 -112 45 -112 113zM24 -35c0 -51 35 -95 93 -95c74 0 125 61 125 132c0 52 -36 93 -92 93c-72 0 -126 -63 -126 -130z" />
    <glyph glyph-name="seven.inferior" unicode="&#x2087;" 
d="M303 283l-4 -20l-247 -400h-23l249 402h-210l4 18h231z" />
    <glyph glyph-name="eight.inferior" unicode="&#x2088;" 
d="M260 -8c0 -95 -76 -140 -145 -140c-57 0 -115 33 -115 104c0 65 43 117 109 134v1c-39 14 -56 50 -56 83c0 69 56 120 121 120c59 0 105 -33 105 -100c0 -55 -40 -91 -87 -106v-1c34 -12 68 -45 68 -95zM20 -43c0 -51 42 -87 95 -87c73 0 125 53 125 122
c0 49 -40 88 -93 88c-69 0 -127 -54 -127 -123zM73 173c0 -44 31 -77 78 -77c65 0 108 48 108 97c0 53 -37 83 -85 83c-58 0 -101 -46 -101 -103z" />
    <glyph glyph-name="nine.inferior" unicode="&#x2089;" 
d="M293 182c0 -42 -17 -77 -55 -128l-143 -191h-25l144 190l-1 1c-20 -12 -42 -19 -66 -19c-65 0 -111 44 -111 111c0 80 57 148 145 148c65 0 112 -44 112 -112zM273 182c0 51 -35 94 -93 94c-74 0 -124 -58 -124 -129c0 -52 36 -94 92 -94c72 0 125 62 125 129z" />
    <glyph glyph-name="zero.numerator" 
d="M190 277c-80 0 -106 68 -106 140c0 130 50 302 172 302c79 0 105 -69 105 -141c0 -129 -50 -301 -171 -301zM255 701c-96 0 -150 -146 -150 -281c0 -60 18 -125 85 -125c96 0 150 145 150 280c0 61 -17 126 -85 126z" />
    <glyph glyph-name="one.numerator" 
d="M201 288h-21l70 398l-107 -64l-10 16l122 70h20z" />
    <glyph glyph-name="two.numerator" 
d="M87 306h228l-3 -18h-252l3 20l180 167c76 70 97 103 97 145c0 55 -36 81 -85 81c-47 0 -88 -22 -113 -75l-19 6c27 62 79 87 132 87c68 0 105 -37 105 -98c0 -50 -23 -84 -108 -162z" />
    <glyph glyph-name="three.numerator" 
d="M315 402c0 -80 -63 -125 -132 -125c-60 0 -104 29 -122 70l18 7c18 -43 66 -59 103 -59c64 0 113 41 113 108c0 65 -43 97 -102 97h-17l4 18h16c74 0 122 47 122 102c0 59 -39 82 -80 82c-34 0 -67 -18 -88 -43l-14 13c29 31 63 47 104 47c56 0 98 -33 98 -95
c0 -69 -51 -107 -108 -114v-2c52 -10 85 -45 85 -106z" />
    <glyph glyph-name="four.numerator" 
d="M252 395h-196l4 22l236 291h31l-52 -295h67l-3 -18h-67l-19 -107h-20zM79 413h176l48 272h-3z" />
    <glyph glyph-name="five.numerator" 
d="M185 277c-53 0 -92 24 -114 59l16 13c20 -33 55 -54 97 -54c78 0 130 62 130 138c0 57 -40 99 -102 99c-28 0 -56 -9 -84 -24l38 200h190l-3 -18h-169l-30 -152c21 8 40 11 58 11c75 0 122 -49 122 -114c0 -87 -56 -158 -149 -158z" />
    <glyph glyph-name="six.numerator" 
d="M79 390c0 42 17 78 56 129l142 189h25l-143 -188l1 -1c20 12 42 19 66 19c65 0 111 -43 111 -110c0 -80 -58 -151 -146 -151c-65 0 -112 45 -112 113zM99 390c0 -51 35 -95 93 -95c74 0 125 61 125 132c0 52 -36 93 -92 93c-72 0 -126 -63 -126 -130z" />
    <glyph glyph-name="seven.numerator" 
d="M378 708l-4 -20l-247 -400h-23l249 402h-210l4 18h231z" />
    <glyph glyph-name="eight.numerator" 
d="M335 417c0 -95 -76 -140 -145 -140c-57 0 -115 33 -115 104c0 65 43 117 109 134v1c-39 14 -56 50 -56 83c0 69 56 120 121 120c59 0 105 -33 105 -100c0 -55 -40 -91 -87 -106v-1c34 -12 68 -45 68 -95zM95 382c0 -51 42 -87 95 -87c73 0 125 53 125 122
c0 49 -40 88 -93 88c-69 0 -127 -54 -127 -123zM148 598c0 -44 31 -77 78 -77c65 0 108 48 108 97c0 53 -37 83 -85 83c-58 0 -101 -46 -101 -103z" />
    <glyph glyph-name="nine.numerator" 
d="M368 607c0 -42 -17 -77 -55 -128l-143 -191h-25l144 190l-1 1c-20 -12 -42 -19 -66 -19c-65 0 -111 44 -111 111c0 80 57 148 145 148c65 0 112 -44 112 -112zM348 607c0 51 -35 94 -93 94c-74 0 -124 -58 -124 -129c0 -52 36 -94 92 -94c72 0 125 62 125 129z" />
    <glyph glyph-name="zero.superior" unicode="&#x2070;" 
d="M219 442c-80 0 -106 68 -106 140c0 130 50 302 172 302c79 0 105 -69 105 -141c0 -129 -50 -301 -171 -301zM284 866c-96 0 -150 -146 -150 -281c0 -60 18 -125 85 -125c96 0 150 145 150 280c0 61 -17 126 -85 126z" />
    <glyph glyph-name="onesuperior" unicode="&#xb9;" 
d="M230 453h-21l70 398l-107 -64l-10 16l122 70h20z" />
    <glyph glyph-name="twosuperior" unicode="&#xb2;" 
d="M116 471h228l-3 -18h-252l3 20l180 167c76 70 97 103 97 145c0 55 -36 81 -85 81c-47 0 -88 -22 -113 -75l-19 6c27 62 79 87 132 87c68 0 105 -37 105 -98c0 -50 -23 -84 -108 -162z" />
    <glyph glyph-name="threesuperior" unicode="&#xb3;" 
d="M344 567c0 -80 -63 -125 -132 -125c-60 0 -104 29 -122 70l18 7c18 -43 66 -59 103 -59c64 0 113 41 113 108c0 65 -43 97 -102 97h-17l4 18h16c74 0 122 47 122 102c0 59 -39 82 -80 82c-34 0 -67 -18 -88 -43l-14 13c29 31 63 47 104 47c56 0 98 -33 98 -95
c0 -69 -51 -107 -108 -114v-2c52 -10 85 -45 85 -106z" />
    <glyph glyph-name="four.superior" unicode="&#x2074;" 
d="M281 560h-196l4 22l236 291h31l-52 -295h67l-3 -18h-67l-19 -107h-20zM108 578h176l48 272h-3z" />
    <glyph glyph-name="five.superior" unicode="&#x2075;" 
d="M214 442c-53 0 -92 24 -114 59l16 13c20 -33 55 -54 97 -54c78 0 130 62 130 138c0 57 -40 99 -102 99c-28 0 -56 -9 -84 -24l38 200h190l-3 -18h-169l-30 -152c21 8 40 11 58 11c75 0 122 -49 122 -114c0 -87 -56 -158 -149 -158z" />
    <glyph glyph-name="six.superior" unicode="&#x2076;" 
d="M108 555c0 42 17 78 56 129l142 189h25l-143 -188l1 -1c20 12 42 19 66 19c65 0 111 -43 111 -110c0 -80 -58 -151 -146 -151c-65 0 -112 45 -112 113zM128 555c0 -51 35 -95 93 -95c74 0 125 61 125 132c0 52 -36 93 -92 93c-72 0 -126 -63 -126 -130z" />
    <glyph glyph-name="seven.superior" unicode="&#x2077;" 
d="M407 873l-4 -20l-247 -400h-23l249 402h-210l4 18h231z" />
    <glyph glyph-name="eight.superior" unicode="&#x2078;" 
d="M364 582c0 -95 -76 -140 -145 -140c-57 0 -115 33 -115 104c0 65 43 117 109 134v1c-39 14 -56 50 -56 83c0 69 56 120 121 120c59 0 105 -33 105 -100c0 -55 -40 -91 -87 -106v-1c34 -12 68 -45 68 -95zM124 547c0 -51 42 -87 95 -87c73 0 125 53 125 122
c0 49 -40 88 -93 88c-69 0 -127 -54 -127 -123zM177 763c0 -44 31 -77 78 -77c65 0 108 48 108 97c0 53 -37 83 -85 83c-58 0 -101 -46 -101 -103z" />
    <glyph glyph-name="nine.superior" unicode="&#x2079;" 
d="M397 772c0 -42 -17 -77 -55 -128l-143 -191h-25l144 190l-1 1c-20 -12 -42 -19 -66 -19c-65 0 -111 44 -111 111c0 80 57 148 145 148c65 0 112 -44 112 -112zM377 772c0 51 -35 94 -93 94c-74 0 -124 -58 -124 -129c0 -52 36 -94 92 -94c72 0 125 62 125 129z" />
    <glyph glyph-name="interrobang" unicode="&#x203d;" horiz-adv-x="472" 
d="M301 558l-40 -225h1c13 18 25 32 56 56l40 31c48 37 94 82 94 154c0 89 -61 131 -136 131c-94 0 -154 -60 -182 -139l-20 6c34 97 105 154 203 154c84 0 157 -48 157 -151c0 -87 -61 -140 -118 -181c-80 -57 -98 -85 -110 -150l-8 -44h-22l63 358h22zM203 -6
c-12 0 -21 7 -21 23c0 14 11 28 25 28c12 0 21 -8 21 -22c0 -16 -12 -29 -25 -29z" />
    <glyph glyph-name="afii61248" unicode="&#x2105;" horiz-adv-x="790" 
d="M708 725l-573 -752l-16 11l573 752zM343 447c-29 -27 -69 -43 -110 -43c-91 0 -132 56 -132 129c0 98 74 188 175 188c40 0 78 -15 100 -41l-12 -14c-22 25 -56 37 -87 37c-90 0 -156 -81 -156 -168c0 -64 36 -113 113 -113c35 0 73 15 98 39zM712 170
c0 64 -38 117 -120 117c-93 0 -151 -78 -151 -164c0 -64 36 -117 119 -117c93 0 152 77 152 164zM421 122c0 97 66 183 172 183c92 0 139 -58 139 -134c0 -98 -66 -183 -172 -183c-94 0 -139 58 -139 134z" />
    <glyph glyph-name="published" unicode="&#x2117;" horiz-adv-x="800" 
d="M20 353c0 210 171 377 381 377c209 0 379 -167 379 -377c0 -209 -170 -375 -379 -375c-210 0 -381 166 -381 375zM42 353c0 -196 162 -353 359 -353c196 0 357 157 357 353c0 197 -161 355 -357 355c-197 0 -359 -158 -359 -355zM298 127v441h145c74 0 148 -34 148 -127
c0 -83 -60 -134 -141 -134h-130v-180h-22zM320 326h131c64 0 118 39 118 115s-61 108 -121 108h-128v-223z" />
    <glyph glyph-name="uni0406" unicode="&#x406;" horiz-adv-x="234" 
d="M66 0l125 708h22l-125 -708h-22z" />
    <glyph glyph-name="uni0456" unicode="&#x456;" horiz-adv-x="226" 
d="M62 0l81 460h22l-81 -460h-22zM181 633c-12 0 -21 7 -21 23c0 14 11 28 25 28c12 0 21 -8 21 -22c0 -16 -12 -29 -25 -29z" />
    <glyph glyph-name="uni0408" unicode="&#x408;" horiz-adv-x="480" 
d="M162 -18c-83 0 -140 50 -156 111l20 9c17 -60 70 -100 138 -100c114 0 167 79 187 194l90 512h22l-91 -515c-23 -130 -85 -211 -210 -211z" />
    <glyph glyph-name="uni0458" unicode="&#x458;" horiz-adv-x="226" 
d="M-65 -241c-9 0 -21 1 -29 3l2 19c9 -2 17 -3 25 -3c82 0 102 68 112 127l98 555h22l-98 -557c-13 -75 -41 -144 -132 -144zM181 633c-12 0 -21 7 -21 23c0 14 11 28 25 28c12 0 21 -8 21 -22c0 -16 -12 -29 -25 -29z" />
    <glyph glyph-name="uni0410" unicode="&#x410;" horiz-adv-x="633" 
d="M-37 0l455 708h33l126 -708h-22l-36 203h-400l-129 -203h-27zM131 222h385l-84 471z" />
    <glyph glyph-name="uni0411" unicode="&#x411;" horiz-adv-x="595" 
d="M66 0l125 708h379l-3 -20h-358l-54 -305h174c98 0 203 -40 203 -167c0 -114 -78 -216 -258 -216h-208zM91 20h191c147 0 228 80 228 197c0 106 -91 146 -174 146h-185z" />
    <glyph glyph-name="uni0412" unicode="&#x412;" horiz-adv-x="605" 
d="M66 0l125 708h181c99 0 196 -46 196 -152c0 -99 -60 -162 -175 -182v-2c64 -8 147 -60 147 -161c0 -148 -121 -211 -264 -211h-210zM91 20h178c157 0 249 68 249 187c0 107 -94 156 -177 156h-189zM155 383h163c132 0 229 57 229 171c0 91 -84 134 -180 134h-158z" />
    <glyph glyph-name="uni0413" unicode="&#x413;" horiz-adv-x="481" 
d="M66 0l125 708h365l-4 -20h-344l-120 -688h-22z" />
    <glyph glyph-name="uni0414" unicode="&#x414;" horiz-adv-x="714" 
d="M-55 -186l36 206h54c105 87 180 238 224 487l35 201h390l-121 -688h82l-36 -206h-22l33 186h-621l-32 -186h-22zM66 20h475l118 668h-346l-32 -181c-45 -256 -126 -407 -215 -487z" />
    <glyph glyph-name="uni0415" unicode="&#x415;" horiz-adv-x="576" 
d="M66 0l125 708h393l-4 -20h-372l-55 -311h358l-3 -20h-358l-59 -337h402l-4 -20h-423z" />
    <glyph glyph-name="uni0416" unicode="&#x416;" horiz-adv-x="823" 
d="M-45 0l451 385l-276 323h28l276 -323h1l57 323h21l-57 -323h1l388 323h32l-393 -327l302 -381h-28l-302 381h-1l-66 -381h-22l67 381h-1l-446 -381h-32z" />
    <glyph glyph-name="uni0417" unicode="&#x417;" horiz-adv-x="568" 
d="M228 -19c-96 4 -176 47 -208 103l18 12c32 -57 113 -95 200 -95c120 0 222 73 222 209c0 78 -70 153 -180 153h-60l4 20h61c107 0 212 53 212 180c0 79 -61 143 -169 143c-80 0 -127 -29 -166 -74l-17 14c44 47 100 80 185 80c117 0 189 -66 189 -163
c0 -111 -86 -179 -174 -192v-1c78 -14 137 -79 137 -160c0 -151 -119 -229 -254 -229z" />
    <glyph glyph-name="uni0418" unicode="&#x418;" horiz-adv-x="737" 
d="M66 0l125 708h21l-120 -680h3l589 680h32l-125 -708h-22l120 679h-3l-589 -679h-31z" />
    <glyph glyph-name="uni0419" unicode="&#x419;" horiz-adv-x="737" 
d="M66 0l125 708h21l-120 -680h3l589 680h32l-125 -708h-22l120 679h-3l-589 -679h-31zM455 772c-63 0 -105 42 -107 119l17 3c1 -67 38 -102 91 -102c61 0 103 29 126 102l15 -3c-22 -79 -73 -119 -142 -119z" />
    <glyph glyph-name="uni041A" unicode="&#x41a;" horiz-adv-x="529" 
d="M66 0l125 708h21l-57 -323h1l395 323h32l-400 -327l309 -381h-28l-309 381h-1l-66 -381h-22z" />
    <glyph glyph-name="uni041B" unicode="&#x41b;" horiz-adv-x="745" 
d="M28 -7c-12 0 -28 2 -42 5l5 20c14 -3 29 -5 37 -5c152 0 224 200 283 533l28 162h385l-124 -708h-22l121 688h-341l-25 -142c-61 -347 -138 -553 -305 -553z" />
    <glyph glyph-name="uni041C" unicode="&#x41c;" horiz-adv-x="901" 
d="M66 0l125 708h34l191 -676l424 676h40l-125 -708h-22l120 683h-4l-430 -683h-18l-190 683h-3l-120 -683h-22z" />
    <glyph glyph-name="uni041D" unicode="&#x41d;" horiz-adv-x="720" 
d="M66 0l125 708h22l-59 -332h464l59 332h22l-125 -708h-22l63 356h-464l-63 -356h-22z" />
    <glyph glyph-name="uni041E" unicode="&#x41e;" horiz-adv-x="872" 
d="M409 -20c-214 0 -319 135 -319 315c0 227 159 433 405 433c214 0 318 -137 318 -317c0 -227 -158 -431 -404 -431zM409 0c230 0 382 197 382 411c0 164 -93 297 -296 297c-230 0 -383 -199 -383 -413c0 -164 94 -295 297 -295z" />
    <glyph glyph-name="uni041F" unicode="&#x41f;" horiz-adv-x="711" 
d="M66 0l125 708h499l-125 -708h-22l121 688h-456l-120 -688h-22z" />
    <glyph glyph-name="uni0420" unicode="&#x420;" horiz-adv-x="560" 
d="M66 0l125 708h179c93 0 191 -38 191 -157c0 -107 -73 -204 -242 -204h-170l-61 -347h-22zM153 367h171c139 0 215 75 215 185c0 100 -86 136 -164 136h-166z" />
    <glyph glyph-name="uni0421" unicode="&#x421;" horiz-adv-x="724" 
d="M405 -20c-214 0 -315 131 -315 308c0 230 176 440 415 440c88 0 176 -30 223 -91l-16 -16c-45 60 -130 87 -208 87c-225 0 -392 -202 -392 -416c0 -162 89 -292 292 -292c82 0 165 30 231 89l10 -17c-69 -62 -153 -92 -240 -92z" />
    <glyph glyph-name="uni0422" unicode="&#x422;" horiz-adv-x="515" 
d="M206 0l121 688h-245l4 20h504l-4 -20h-237l-121 -688h-22z" />
    <glyph glyph-name="uni0423" unicode="&#x423;" horiz-adv-x="582" 
d="M72 -6c-13 0 -32 3 -42 6l4 21c7 -3 26 -7 39 -7c49 0 88 27 125 79l89 125l-192 490h24l184 -468l333 468h26l-446 -625c-43 -60 -87 -89 -144 -89z" />
    <glyph glyph-name="uni0424" unicode="&#x424;" horiz-adv-x="784" 
d="M337 -20l15 87c-146 7 -269 98 -269 258c0 226 170 338 369 338h5l12 65h22l-12 -66c149 -7 270 -101 270 -257c0 -226 -170 -338 -369 -338h-6l-15 -87h-22zM356 87l98 556h-3c-186 0 -346 -104 -346 -316c0 -146 112 -234 251 -240zM381 87c182 0 346 104 346 316
c0 143 -111 233 -251 239l-98 -555h3z" />
    <glyph glyph-name="uni0425" unicode="&#x425;" horiz-adv-x="570" 
d="M-18 0l315 371l-166 337h24l156 -320l270 320h27l-285 -337l185 -371h-25l-174 354l-299 -354h-28z" />
    <glyph glyph-name="uni0426" unicode="&#x426;" horiz-adv-x="720" 
d="M593 -186l33 186h-560l125 708h21l-121 -688h456l121 688h22l-121 -688h82l-36 -206h-22z" />
    <glyph glyph-name="uni0427" unicode="&#x427;" horiz-adv-x="598" 
d="M430 0l56 318c-42 -11 -106 -23 -189 -23c-123 0 -170 59 -170 134c0 12 1 24 3 36l42 243h22l-42 -243c-2 -11 -3 -21 -3 -31c0 -67 43 -119 148 -119c90 0 154 13 193 24l65 369h22l-125 -708h-22z" />
    <glyph glyph-name="uni0428" unicode="&#x428;" horiz-adv-x="1065" 
d="M66 0l125 708h21l-121 -688h395l121 688h21l-121 -688h395l121 688h21l-124 -708h-854z" />
    <glyph glyph-name="uni0429" unicode="&#x429;" horiz-adv-x="1074" 
d="M948 -186l33 186h-915l125 708h21l-121 -688h395l121 688h21l-121 -688h395l121 688h21l-120 -688h82l-36 -206h-22z" />
    <glyph glyph-name="uni042A" unicode="&#x42a;" horiz-adv-x="671" 
d="M159 0l121 688h-198l3 20h220l-57 -325h158c98 0 203 -40 203 -167c0 -114 -78 -216 -258 -216h-192zM184 20h175c147 0 228 80 228 197c0 106 -91 146 -174 146h-168z" />
    <glyph glyph-name="uni042B" unicode="&#x42b;" horiz-adv-x="765" 
d="M66 0l125 708h21l-57 -325h158c98 0 203 -40 203 -167c0 -114 -78 -216 -258 -216h-192zM91 20h175c147 0 228 80 228 197c0 106 -91 146 -174 146h-168zM598 0l124 708h22l-124 -708h-22z" />
    <glyph glyph-name="uni042C" unicode="&#x42c;" horiz-adv-x="578" 
d="M66 0l125 708h21l-57 -325h158c98 0 203 -40 203 -167c0 -114 -78 -216 -258 -216h-192zM91 20h175c147 0 228 80 228 197c0 106 -91 146 -174 146h-168z" />
    <glyph glyph-name="uni042D" unicode="&#x42d;" horiz-adv-x="724" 
d="M260 -20c-88 0 -186 30 -233 91l16 16c45 -60 140 -87 218 -87c208 0 355 165 378 357h-404l3 20h404c1 11 1 22 1 34c0 162 -96 297 -292 297c-82 0 -165 -30 -231 -89l-10 17c69 62 153 92 240 92c214 0 315 -140 315 -317c0 -230 -164 -431 -405 -431z" />
    <glyph glyph-name="uni042E" unicode="&#x42e;" horiz-adv-x="1036" 
d="M602 -18c-193 0 -282 129 -282 294c0 27 2 53 6 80h-176l-63 -356h-21l125 708h21l-59 -332h176c35 186 166 350 366 350c194 0 282 -131 282 -296c0 -224 -139 -448 -375 -448zM602 2c215 0 353 209 353 427c0 149 -77 277 -260 277c-215 0 -353 -211 -353 -428
c0 -150 78 -276 260 -276z" />
    <glyph glyph-name="uni042F" unicode="&#x42f;" horiz-adv-x="594" 
d="M25 0l272 325c-91 7 -179 50 -179 167c0 114 78 216 258 216h197l-125 -708h-21l57 325h-161l-271 -325h-27zM314 345h173l61 343h-180c-147 0 -228 -80 -228 -197c0 -106 91 -146 174 -146z" />
    <glyph glyph-name="uni0430" unicode="&#x430;" horiz-adv-x="512" 
d="M192 -14c-60 0 -147 28 -147 119c0 140 163 165 359 165c6 26 9 53 9 64c0 82 -50 121 -130 121c-54 0 -102 -22 -144 -55l-12 17c48 37 105 57 157 57c96 0 151 -50 151 -137c0 -14 -4 -38 -6 -51l-33 -182c-6 -35 -10 -79 -10 -104h-21c0 26 6 74 13 110h-3
c-34 -78 -101 -124 -183 -124zM195 5c121 0 183 112 198 202l8 44h-28c-176 0 -306 -31 -306 -143c0 -80 73 -103 128 -103z" />
    <glyph glyph-name="uni0431" unicode="&#x431;" horiz-adv-x="603" 
d="M279 -14c-140 0 -210 90 -210 199c0 15 0 30 3 45c39 227 78 446 267 469l174 21c32 4 71 12 86 44l17 -6c-15 -32 -37 -48 -103 -56l-171 -21c-148 -18 -194 -172 -224 -332h3c34 63 112 125 214 125c133 0 206 -91 206 -205c0 -147 -101 -283 -262 -283zM279 5
c146 0 240 128 240 263c0 103 -65 187 -187 187c-128 0 -241 -126 -241 -269c0 -89 55 -181 188 -181z" />
    <glyph glyph-name="uni0432" unicode="&#x432;" horiz-adv-x="514" 
d="M87 20h169c97 0 154 42 154 115c0 67 -58 97 -109 97h-177zM62 0l81 460h180c64 0 127 -30 127 -99c0 -64 -39 -105 -114 -118v-1c42 -6 96 -39 96 -105c0 -96 -79 -137 -172 -137h-198zM128 252h160c80 0 141 35 141 105c0 56 -52 83 -111 83h-157z" />
    <glyph glyph-name="uni0433" unicode="&#x433;" horiz-adv-x="410" 
d="M62 0l81 460h276l-4 -20h-254l-77 -440h-22z" />
    <glyph glyph-name="uni0434" unicode="&#x434;" horiz-adv-x="585" 
d="M-43 -156l31 176h58c54 55 113 168 138 310l23 130h297l-78 -440h78l-31 -176h-22l28 156h-472l-28 -156h-22zM72 20h332l74 420h-253l-19 -110c-24 -137 -77 -252 -134 -310z" />
    <glyph glyph-name="uni0435" unicode="&#x435;" horiz-adv-x="553" 
d="M270 -14c-137 0 -212 87 -212 209c0 145 107 279 263 279c125 0 181 -82 181 -181c0 -13 -2 -37 -7 -58h-412c-2 -13 -3 -25 -3 -35c0 -123 71 -195 190 -195c76 0 133 35 176 86l12 -14c-39 -49 -105 -91 -188 -91zM86 254h392c2 15 3 27 3 41c0 96 -60 160 -160 160
c-141 0 -220 -116 -235 -201z" />
    <glyph glyph-name="uni0436" unicode="&#x436;" horiz-adv-x="642" 
d="M-36 0l319 248l-200 212h31l196 -210h2l37 210h22l-37 -211h2l272 211h34l-280 -215l226 -245h-31l-222 243h-2l-43 -243h-22l43 244h-2l-311 -244h-34z" />
    <glyph glyph-name="uni0437" unicode="&#x437;" horiz-adv-x="422" 
d="M161 -13c-79 0 -130 31 -158 72l18 14c28 -43 80 -67 140 -67c74 0 148 42 148 125c0 50 -43 101 -126 101h-39l5 20h38c77 0 147 33 147 109c0 53 -43 92 -115 92c-52 0 -89 -15 -125 -52l-15 13c37 38 82 58 140 58c79 0 137 -39 137 -109c0 -65 -50 -112 -116 -122v-1
c58 -11 91 -61 91 -108c0 -90 -69 -145 -170 -145z" />
    <glyph glyph-name="uni0438" unicode="&#x438;" horiz-adv-x="582" 
d="M62 0l81 460h22l-76 -426h2l395 426h25l-81 -460h-22l75 428h-2l-396 -428h-23z" />
    <glyph glyph-name="uni0439" unicode="&#x439;" horiz-adv-x="582" 
d="M345 572c-63 0 -105 42 -107 119l17 3c1 -67 38 -102 91 -102c61 0 103 29 126 102l15 -3c-22 -79 -73 -119 -142 -119zM62 0l81 460h22l-76 -426h2l395 426h25l-81 -460h-22l75 428h-2l-396 -428h-23z" />
    <glyph glyph-name="uni043A" unicode="&#x43a;" horiz-adv-x="444" 
d="M62 0l81 460h22l-37 -211h2l280 211h34l-288 -215l234 -245h-31l-230 243h-2l-43 -243h-22z" />
    <glyph glyph-name="uni043B" unicode="&#x43b;" horiz-adv-x="583" 
d="M24 -5c-12 0 -30 2 -38 5l5 20c5 -2 24 -5 33 -5c104 0 145 130 171 276l30 169h287l-81 -460h-22l77 440h-243l-26 -149c-28 -157 -74 -296 -193 -296z" />
    <glyph glyph-name="uni043C" unicode="&#x43c;" horiz-adv-x="711" 
d="M62 0l81 460h37l134 -428h1l286 428h39l-81 -460h-22l77 440h-2l-293 -440h-17l-138 439h-3l-77 -439h-22z" />
    <glyph glyph-name="uni043D" unicode="&#x43d;" horiz-adv-x="576" 
d="M62 0l81 460h22l-38 -211h318l38 211h22l-81 -460h-22l40 229h-318l-40 -229h-22z" />
    <glyph glyph-name="uni043E" unicode="&#x43e;" horiz-adv-x="598" 
d="M271 -14c-142 0 -213 90 -213 206c0 148 103 282 266 282c141 0 212 -91 212 -206c0 -149 -102 -282 -265 -282zM271 5c148 0 243 125 243 262c0 101 -61 188 -192 188c-148 0 -242 -126 -242 -262c0 -102 60 -188 191 -188z" />
    <glyph glyph-name="uni043F" unicode="&#x43f;" horiz-adv-x="570" 
d="M62 0l81 460h356l-81 -460h-22l77 440h-312l-77 -440h-22z" />
    <glyph glyph-name="uni0440" unicode="&#x440;" horiz-adv-x="623" 
d="M20 -240l123 700h22l-22 -118h3c36 74 112 132 208 132c138 0 207 -88 207 -205c0 -149 -102 -283 -262 -283c-98 0 -170 59 -190 142h-3l-64 -368h-22zM299 5c145 0 240 126 240 263c0 103 -61 187 -187 187c-132 0 -233 -131 -233 -267c0 -101 70 -183 180 -183z" />
    <glyph glyph-name="uni0441" unicode="&#x441;" horiz-adv-x="478" 
d="M261 -18c-140 0 -203 89 -203 202c0 151 114 290 270 290c58 0 119 -20 150 -60l-14 -15c-29 38 -84 56 -134 56c-145 0 -250 -130 -250 -268c0 -103 58 -185 182 -185c56 0 114 22 152 59l11 -15c-42 -41 -102 -64 -164 -64z" />
    <glyph glyph-name="uni0442" unicode="&#x442;" horiz-adv-x="421" 
d="M154 0l77 440h-173l4 20h368l-4 -20h-173l-77 -440h-22z" />
    <glyph glyph-name="uni0443" unicode="&#x443;" horiz-adv-x="428" 
d="M-12 -242c-12 0 -31 3 -40 7l4 19c7 -3 23 -6 36 -6c62 0 89 47 112 89l65 120l-96 473h22l89 -448l242 448h25l-336 -612c-31 -57 -64 -90 -123 -90z" />
    <glyph glyph-name="uni0444" unicode="&#x444;" horiz-adv-x="675" 
d="M241 -240l40 231c-134 6 -223 85 -223 205c0 172 121 276 309 277l53 299h22l-53 -300c134 -6 224 -85 224 -205c0 -172 -122 -276 -310 -277l-40 -230h-22zM285 10l78 443c-164 -2 -283 -94 -283 -257c0 -107 82 -179 205 -186zM307 10c164 2 284 93 284 257
c0 106 -83 178 -206 185z" />
    <glyph glyph-name="uni0445" unicode="&#x445;" horiz-adv-x="435" 
d="M-26 0l226 244l-120 216h25l110 -202l181 202h30l-199 -218l141 -242h-26l-131 228l-208 -228h-29z" />
    <glyph glyph-name="uni0446" unicode="&#x446;" horiz-adv-x="580" 
d="M446 -156l28 156h-412l81 460h22l-78 -440h312l78 440h22l-78 -440h78l-31 -176h-22z" />
    <glyph glyph-name="uni0447" unicode="&#x447;" horiz-adv-x="516" 
d="M342 0l36 209c-29 -7 -86 -20 -149 -20c-79 0 -135 19 -135 95c0 11 1 23 4 37l25 139h22l-25 -139c-2 -12 -3 -23 -3 -33c0 -63 44 -79 111 -79c69 0 128 16 154 22l41 229h22l-81 -460h-22z" />
    <glyph glyph-name="uni0448" unicode="&#x448;" horiz-adv-x="844" 
d="M62 0l81 460h22l-78 -440h282l78 440h22l-78 -440h282l78 440h22l-81 -460h-630z" />
    <glyph glyph-name="uni0449" unicode="&#x449;" horiz-adv-x="854" 
d="M720 -156l28 156h-686l81 460h22l-78 -440h282l78 440h22l-78 -440h282l78 440h22l-78 -440h78l-31 -176h-22z" />
    <glyph glyph-name="uni044A" unicode="&#x44a;" horiz-adv-x="548" 
d="M126 0l77 440h-145l4 20h167l-35 -198h150c67 0 139 -27 139 -114c0 -78 -54 -148 -177 -148h-180zM151 20h161c95 0 148 51 148 127c0 69 -59 95 -113 95h-157z" />
    <glyph glyph-name="uni044B" unicode="&#x44b;" horiz-adv-x="660" 
d="M62 0l81 460h22l-35 -198h150c67 0 139 -27 139 -114c0 -78 -54 -148 -177 -148h-180zM87 20h161c95 0 148 51 148 127c0 69 -59 95 -113 95h-157zM486 0l81 460h22l-81 -460h-22z" />
    <glyph glyph-name="uni044C" unicode="&#x44c;" horiz-adv-x="484" 
d="M62 0l81 460h22l-35 -198h150c67 0 139 -27 139 -114c0 -78 -54 -148 -177 -148h-180zM87 20h161c95 0 148 51 148 127c0 69 -59 95 -113 95h-157z" />
    <glyph glyph-name="uni044D" unicode="&#x44d;" horiz-adv-x="480" 
d="M151 -14c-61 0 -125 21 -156 61l15 15c29 -38 86 -57 141 -57c131 0 226 102 242 224h-244l3 20h243c1 6 1 12 1 18c0 101 -66 187 -182 187c-53 0 -106 -18 -144 -51l-11 14c41 37 98 57 156 57c132 0 203 -91 203 -206c0 -151 -110 -282 -267 -282z" />
    <glyph glyph-name="uni044E" unicode="&#x44e;" horiz-adv-x="770" 
d="M445 -15c-130 0 -204 92 -204 210c0 11 1 23 2 34h-119l-40 -229h-22l81 460h22l-38 -211h118c23 126 122 225 258 225c134 0 205 -92 205 -210c0 -152 -109 -279 -263 -279zM446 5c140 0 240 117 240 256c0 109 -63 193 -183 193c-139 0 -240 -116 -240 -256
c0 -107 66 -193 183 -193z" />
    <glyph glyph-name="uni044F" unicode="&#x44f;" horiz-adv-x="518" 
d="M33 0l172 197c-59 7 -115 37 -115 114c0 78 54 149 177 149h180l-81 -460h-22l35 196h-148l-170 -196h-28zM226 216h157l39 224h-161c-95 0 -148 -52 -148 -128c0 -69 59 -96 113 -96z" />
    <glyph glyph-name="uni0490" unicode="&#x490;" horiz-adv-x="481" 
d="M66 0l125 708h342l28 150h22l-31 -170h-343l-122 -688h-21z" />
    <glyph glyph-name="uni0491" unicode="&#x491;" horiz-adv-x="410" 
d="M62 0l81 460h254l22 126h22l-26 -146h-254l-77 -440h-22z" />
    <glyph glyph-name="uni0403" unicode="&#x403;" horiz-adv-x="481" 
d="M488 908l-135 -144h-20l127 144h28zM66 0l125 708h365l-4 -20h-344l-120 -688h-22z" />
    <glyph glyph-name="uni0453" unicode="&#x453;" horiz-adv-x="410" 
d="M62 0l81 460h276l-4 -20h-254l-77 -440h-22zM412 708l-135 -144h-20l127 144h28z" />
    <glyph glyph-name="uni0405" unicode="&#x405;" horiz-adv-x="570" 
d="M235 -20c-86 0 -168 41 -202 95l17 13c27 -45 98 -88 191 -88c128 0 222 69 222 189c0 102 -82 137 -185 172c-88 30 -160 65 -160 167c0 136 129 200 242 200c95 0 162 -38 192 -85l-17 -14c-25 46 -98 79 -177 79c-91 0 -218 -52 -218 -179c0 -94 63 -118 156 -151
c110 -39 189 -80 189 -188c0 -128 -101 -210 -250 -210z" />
    <glyph glyph-name="uni0455" unicode="&#x455;" horiz-adv-x="400" 
d="M161 -12c-60 0 -117 26 -141 62l16 14c22 -33 75 -56 129 -56c84 0 137 54 137 118c0 51 -27 77 -116 106c-79 26 -108 54 -108 106c0 90 84 136 161 136c62 0 107 -24 127 -55l-18 -13c-16 30 -65 49 -110 49c-55 0 -138 -29 -138 -114c0 -52 34 -70 99 -91
c96 -31 125 -67 125 -123c0 -79 -64 -139 -163 -139z" />
    <glyph glyph-name="uni040C" unicode="&#x40c;" horiz-adv-x="529" 
d="M495 908l-135 -144h-20l127 144h28zM66 0l125 708h21l-57 -323h1l395 323h32l-400 -327l309 -381h-28l-309 381h-1l-66 -381h-22z" />
    <glyph glyph-name="uni045C" unicode="&#x45c;" horiz-adv-x="444" 
d="M412 708l-135 -144h-20l127 144h28zM62 0l81 460h22l-37 -211h2l280 211h34l-288 -215l234 -245h-31l-230 243h-2l-43 -243h-22z" />
    <glyph glyph-name="uni0407" unicode="&#x407;" horiz-adv-x="234" 
d="M66 0l125 708h22l-125 -708h-22zM146 833c-12 0 -21 7 -21 23c0 14 11 28 25 28c12 0 21 -8 21 -22c0 -16 -12 -29 -25 -29zM296 833c-12 0 -21 7 -21 23c0 14 11 28 25 28c12 0 21 -8 21 -22c0 -16 -12 -29 -25 -29z" />
    <glyph glyph-name="uni0457" unicode="&#x457;" horiz-adv-x="226" 
d="M107 633c-12 0 -21 7 -21 23c0 14 11 28 25 28c12 0 21 -8 21 -22c0 -16 -12 -29 -25 -29zM257 633c-12 0 -21 7 -21 23c0 14 11 28 25 28c12 0 21 -8 21 -22c0 -16 -12 -29 -25 -29zM84 0h-22l81 460h22z" />
    <glyph glyph-name="uni040E" unicode="&#x40e;" horiz-adv-x="582" 
d="M72 -6c-13 0 -32 3 -42 6l4 21c7 -3 26 -7 39 -7c49 0 88 27 125 79l89 125l-192 490h24l184 -468l333 468h26l-446 -625c-43 -60 -87 -89 -144 -89zM392 772c-63 0 -105 42 -107 119l17 3c1 -67 38 -102 91 -102c61 0 103 29 126 102l15 -3c-22 -79 -73 -119 -142 -119z
" />
    <glyph glyph-name="uni045E" unicode="&#x45e;" horiz-adv-x="428" 
d="M276 572c-63 0 -105 42 -107 119l17 3c1 -67 38 -102 91 -102c61 0 103 29 126 102l15 -3c-22 -79 -73 -119 -142 -119zM-12 -242c-12 0 -31 3 -40 7l4 19c7 -3 23 -6 36 -6c62 0 89 47 112 89l65 120l-96 473h22l89 -448l242 448h25l-336 -612c-31 -57 -64 -90 -123 -90
z" />
    <glyph glyph-name="uni040F" unicode="&#x40f;" horiz-adv-x="711" 
d="M272 -186l33 186h-239l125 708h21l-121 -688h456l121 688h22l-124 -708h-239l-33 -186h-22z" />
    <glyph glyph-name="uni045F" unicode="&#x45f;" horiz-adv-x="570" 
d="M200 -156l28 156h-166l81 460h22l-78 -440h312l78 440h22l-81 -460h-168l-28 -156h-22z" />
    <glyph glyph-name="uni0409" unicode="&#x409;" horiz-adv-x="1090" 
d="M28 -7c-12 0 -28 2 -42 5l5 20c14 -3 29 -5 37 -5c152 0 224 200 283 533l28 162h385l-57 -325h158c98 0 203 -40 203 -167c0 -114 -78 -216 -258 -216h-192l121 688h-341l-25 -142c-61 -347 -138 -553 -305 -553zM603 20h175c147 0 228 80 228 197
c0 106 -91 146 -174 146h-168z" />
    <glyph glyph-name="uni0459" unicode="&#x459;" horiz-adv-x="831" 
d="M24 -5c-12 0 -30 2 -38 5l5 20c5 -2 24 -5 33 -5c104 0 145 130 171 276l30 169h287l-35 -198h150c67 0 139 -27 139 -114c0 -78 -54 -148 -177 -148h-180l77 440h-243l-26 -149c-28 -157 -74 -296 -193 -296zM434 20h161c95 0 148 51 148 127c0 69 -59 95 -113 95h-157z
" />
    <glyph glyph-name="uni040A" unicode="&#x40a;" horiz-adv-x="1065" 
d="M66 0l125 708h22l-58 -325h464l58 325h22l-57 -325h158c98 0 203 -40 203 -167c0 -114 -78 -216 -258 -216h-192l63 363h-464l-64 -363h-22zM578 20h175c147 0 228 80 228 197c0 106 -91 146 -174 146h-168z" />
    <glyph glyph-name="uni045A" unicode="&#x45a;" horiz-adv-x="824" 
d="M62 0l81 460h22l-37 -204h318l37 204h22l-37 -204h155c65 0 136 -26 136 -111c0 -77 -53 -145 -173 -145h-184l41 236h-318l-41 -236h-22zM427 20h165c93 0 144 49 144 124c0 67 -57 92 -110 92h-161z" />
    <glyph glyph-name="uni0404" unicode="&#x404;" horiz-adv-x="724" 
d="M405 -20c-214 0 -315 140 -315 317c0 230 164 431 405 431c88 0 186 -30 233 -91l-16 -16c-45 60 -140 87 -218 87c-199 0 -342 -151 -375 -331h404l-3 -20h-404c-3 -20 -4 -40 -4 -60c0 -162 96 -297 292 -297c82 0 165 30 231 89l10 -17c-69 -62 -153 -92 -240 -92z
" />
    <glyph glyph-name="uni0454" unicode="&#x454;" horiz-adv-x="480" 
d="M261 -18c-140 0 -203 89 -203 202c0 151 114 290 270 290c58 0 119 -20 150 -60l-14 -15c-29 38 -84 56 -134 56c-123 0 -217 -94 -243 -206h244l-3 -20h-245c-2 -14 -3 -28 -3 -42c0 -103 58 -185 182 -185c56 0 114 22 152 59l11 -15c-42 -41 -102 -64 -164 -64z" />
    <glyph glyph-name="uni2116" unicode="&#x2116;" horiz-adv-x="1016" 
d="M891 417c-86 0 -129 55 -129 126c0 90 63 172 162 172c86 0 129 -56 129 -126c0 -90 -62 -172 -162 -172zM892 434c86 0 140 73 140 154c0 58 -34 109 -110 109c-86 0 -139 -73 -139 -154c0 -58 33 -109 109 -109zM66 0l124 708h35l304 -686l121 686h22l-125 -708h-34
l-305 688l-121 -688h-21zM734 333l4 20h264l-4 -20h-264z" />
    <glyph glyph-name="uni040B" unicode="&#x40b;" horiz-adv-x="753" 
d="M206 0l121 688h-245l4 20h504l-4 -20h-237l-53 -299c41 11 115 24 187 24c132 0 183 -63 183 -140c0 -12 -1 -24 -3 -36l-42 -237h-22l42 241c2 11 3 21 3 32c0 67 -45 120 -164 120c-74 0 -148 -13 -187 -24l-65 -369h-22z" />
    <glyph glyph-name="uni0402" unicode="&#x402;" horiz-adv-x="756" 
d="M420 -9c-29 0 -65 4 -83 8l5 21c12 -3 55 -9 78 -9c155 0 252 79 252 219c0 99 -72 163 -201 163c-58 0 -144 -16 -179 -26l-64 -367h-22l121 688h-245l4 20h504l-4 -20h-237l-53 -300c37 10 119 25 178 25c141 0 220 -74 220 -184c0 -146 -104 -238 -274 -238z" />
    <glyph glyph-name="uni045B" unicode="&#x45b;" horiz-adv-x="566" 
d="M62 0l102 580h-96l4 20h95l28 156h22l-28 -156h166l-4 -20h-165l-42 -241h2c40 89 110 135 189 135c99 0 146 -71 146 -149c0 -14 -2 -32 -6 -52l-48 -273h-22l49 274c3 15 5 36 5 50c0 65 -34 131 -127 131c-101 0 -182 -84 -207 -225l-41 -230h-22z" />
    <glyph glyph-name="uni0452" unicode="&#x452;" horiz-adv-x="566" 
d="M275 -241c-19 0 -33 2 -45 6l4 17c12 -3 25 -5 40 -5c73 0 102 63 113 124l67 373c3 15 5 36 5 50c0 65 -34 131 -127 131c-101 0 -182 -84 -207 -225l-41 -230h-22l102 580h-96l4 20h95l28 156h22l-28 -156h166l-4 -20h-165l-42 -241h2c40 89 110 135 189 135
c99 0 146 -71 146 -149c0 -14 -2 -32 -6 -52l-65 -371c-20 -112 -80 -143 -135 -143z" />
    <glyph glyph-name="uni0401" unicode="&#x401;" horiz-adv-x="590" 
d="M66 0l125 708h393l-4 -20h-372l-55 -311h358l-3 -20h-358l-59 -337h402l-4 -20h-423zM333 833c-12 0 -21 7 -21 23c0 14 11 28 25 28c12 0 21 -8 21 -22c0 -16 -12 -29 -25 -29zM483 833c-12 0 -21 7 -21 23c0 14 11 28 25 28c12 0 21 -8 21 -22c0 -16 -12 -29 -25 -29z
" />
    <glyph glyph-name="uni0451" unicode="&#x451;" horiz-adv-x="553" 
d="M270 -14c-137 0 -212 87 -212 209c0 145 107 279 263 279c125 0 181 -82 181 -181c0 -13 -2 -37 -7 -58h-412c-2 -13 -3 -25 -3 -35c0 -123 71 -195 190 -195c76 0 133 35 176 86l12 -14c-39 -49 -105 -91 -188 -91zM86 254h392c2 15 3 27 3 41c0 96 -60 160 -160 160
c-141 0 -220 -116 -235 -201zM283 633c-12 0 -21 7 -21 23c0 14 11 28 25 28c12 0 21 -8 21 -22c0 -16 -12 -29 -25 -29zM433 633c-12 0 -21 7 -21 23c0 14 11 28 25 28c12 0 21 -8 21 -22c0 -16 -12 -29 -25 -29z" />
    <glyph glyph-name="uni0400" unicode="&#x400;" horiz-adv-x="590" 
d="M66 0l125 708h393l-4 -20h-372l-55 -311h358l-3 -20h-358l-59 -337h402l-4 -20h-423zM292 908h28l106 -144h-20z" />
    <glyph glyph-name="uni0450" unicode="&#x450;" horiz-adv-x="553" 
d="M270 -14c-137 0 -212 87 -212 209c0 145 107 279 263 279c125 0 181 -82 181 -181c0 -13 -2 -37 -7 -58h-412c-2 -13 -3 -25 -3 -35c0 -123 71 -195 190 -195c76 0 133 35 176 86l12 -14c-39 -49 -105 -91 -188 -91zM86 254h392c2 15 3 27 3 41c0 96 -60 160 -160 160
c-141 0 -220 -116 -235 -201zM245 708h28l106 -144h-20z" />
    <glyph glyph-name="uni040D" unicode="&#x40d;" horiz-adv-x="737" 
d="M66 0l125 708h21l-120 -680h3l589 680h32l-125 -708h-22l120 679h-3l-589 -679h-31zM354 908h28l106 -144h-20z" />
    <glyph glyph-name="uni045D" unicode="&#x45d;" horiz-adv-x="582" 
d="M222 708h28l106 -144h-20zM62 0l81 460h22l-76 -426h2l395 426h25l-81 -460h-22l75 428h-2l-396 -428h-23z" />
    <glyph glyph-name="uni2010" unicode="&#x2010;" horiz-adv-x="300" 
d="M243 245h-180l4 19h180z" />
    <glyph glyph-name="cyrbreve" horiz-adv-x="240" 
d="M223 572c-63 0 -105 42 -107 119l17 3c1 -67 38 -102 91 -102c61 0 103 29 126 102l15 -3c-22 -79 -73 -119 -142 -119z" />
    <glyph glyph-name="cyrbreve.cap" horiz-adv-x="240" 
d="M186 772c-63 0 -105 42 -107 119l17 3c1 -67 38 -102 91 -102c61 0 103 29 126 102l15 -3c-22 -79 -73 -119 -142 -119z" />
    <glyph glyph-name="exclam.sc" horiz-adv-x="250" 
d="M190 520l-68 -384h-22l68 384h22zM92 -6c-12 0 -21 7 -21 23c0 15 11 28 25 28c12 0 21 -8 21 -22c0 -17 -12 -29 -25 -29z" />
    <glyph glyph-name="dollar.sc" horiz-adv-x="453" 
d="M285 502l-39 -225c71 -26 124 -57 124 -132c0 -90 -69 -147 -173 -147l-9 -50h-19l9 51c-56 4 -104 30 -126 65l15 13c20 -29 57 -56 115 -60l43 245c-65 22 -115 48 -115 120c0 91 83 135 159 138l9 51h19l-8 -51c63 -3 107 -26 127 -58l-15 -14c-18 29 -62 53 -116 54z
M243 256l-42 -239c87 0 149 46 149 128c0 57 -38 87 -107 111zM266 502c-59 -3 -134 -39 -134 -119c0 -60 37 -81 96 -100z" />
    <glyph glyph-name="percent.sc" horiz-adv-x="661" 
d="M312 432c0 43 -26 83 -85 83c-65 0 -106 -58 -106 -119c0 -44 25 -82 83 -82c66 0 108 56 108 118zM100 395c0 73 50 139 128 139c71 0 105 -45 105 -101c0 -74 -49 -138 -130 -138c-68 0 -103 44 -103 100zM560 123c0 43 -26 83 -85 83c-65 0 -106 -58 -106 -119
c0 -44 25 -82 83 -82c66 0 108 56 108 118zM348 86c0 73 50 139 128 139c71 0 105 -45 105 -101c0 -74 -49 -138 -130 -138c-68 0 -103 44 -103 100zM557 536l-429 -563l-17 11l431 564z" />
    <glyph glyph-name="ampersand.sc" horiz-adv-x="524" 
d="M459 0h-27l-67 87c-51 -65 -101 -101 -175 -101c-64 0 -134 40 -134 129c0 90 65 141 153 176c-35 46 -49 82 -49 116c0 75 57 127 127 127c64 0 102 -43 102 -95c0 -66 -34 -112 -146 -157l122 -161l102 150h26l-115 -166zM367 437c0 43 -32 78 -81 78
c-46 0 -104 -36 -104 -107c0 -38 19 -71 49 -110c95 36 136 78 136 139zM352 103l-130 172c-77 -29 -144 -76 -144 -159c0 -75 59 -111 113 -111c66 0 116 37 161 98z" />
    <glyph glyph-name="parenleft.sc" horiz-adv-x="225" 
d="M214 586l18 -11c-106 -123 -158 -282 -158 -419c0 -78 17 -150 46 -212l-20 -10c-30 60 -49 139 -49 219c0 142 51 306 163 433z" />
    <glyph glyph-name="parenright.sc" horiz-adv-x="225" 
d="M27 -66l-18 11c106 123 158 282 158 419c0 78 -17 150 -46 212l20 10c30 -60 49 -139 49 -219c0 -142 -51 -306 -163 -433z" />
    <glyph glyph-name="bracketleft.sc" horiz-adv-x="225" 
d="M126 -66h-108l115 651h107l-3 -19h-86l-108 -613h86z" />
    <glyph glyph-name="backslash.sc" horiz-adv-x="276" 
d="M26 528l18 8l224 -539l-18 -8z" />
    <glyph glyph-name="bracketright.sc" horiz-adv-x="225" 
d="M115 585h108l-115 -651h-107l3 19h86l108 613h-86z" />
    <glyph glyph-name="braceleft.sc" horiz-adv-x="225" 
d="M17 251l3 18c35 1 59 18 71 84l25 140c12 70 50 92 95 92h38l-3 -19h-38c-40 0 -63 -28 -71 -75l-25 -142c-10 -58 -32 -81 -66 -88v-2c25 -8 38 -26 38 -53c0 -10 -1 -20 -4 -36l-25 -143c-2 -13 -3 -21 -3 -27c0 -31 16 -47 48 -47h37l-3 -19h-37c-39 0 -66 17 -66 65
c0 9 1 18 3 31l24 135c3 18 5 30 5 39c0 33 -17 46 -46 47z" />
    <glyph glyph-name="slash.sc" horiz-adv-x="276" 
d="M315 529l-320 -541l-17 8l320 541z" />
    <glyph glyph-name="braceright.sc" horiz-adv-x="225" 
d="M224 269l-3 -18c-35 -1 -59 -18 -71 -84l-25 -141c-12 -70 -50 -92 -95 -92h-38l3 19h38c40 0 63 28 71 75l25 143c10 58 32 81 66 88v2c-25 8 -38 26 -38 53c0 10 1 20 4 36l25 142c2 13 3 21 3 27c0 31 -16 47 -48 47h-37l3 19h37c39 0 66 -17 66 -65
c0 -9 -1 -18 -3 -31l-24 -134c-3 -18 -5 -30 -5 -39c0 -33 17 -46 46 -47z" />
    <glyph glyph-name="zero.sc" horiz-adv-x="453" 
d="M195 -14c-99 0 -130 85 -130 175c0 157 61 373 214 373c97 0 128 -85 128 -175c0 -156 -61 -373 -212 -373zM277 514c-120 0 -189 -183 -189 -349c0 -76 23 -159 107 -159c120 0 189 183 189 348c0 77 -23 160 -107 160z" />
    <glyph glyph-name="one.sc" horiz-adv-x="453" 
d="M216 0h-22l87 492l-134 -93l-10 17l150 104h21z" />
    <glyph glyph-name="two.sc" horiz-adv-x="453" 
d="M334 0h-303l5 26l219 210c85 81 115 128 115 181c0 59 -44 97 -104 97c-56 0 -104 -33 -130 -91l-20 7c28 66 84 104 150 104c76 0 126 -45 126 -115c0 -71 -40 -119 -124 -199l-208 -200h277z" />
    <glyph glyph-name="three.sc" horiz-adv-x="453" 
d="M184 -14c-62 0 -115 31 -138 86l19 12c21 -49 65 -78 121 -78c97 0 146 70 146 143c0 69 -53 111 -121 111h-24l4 20h19c94 0 149 58 149 138c0 53 -38 96 -102 96c-41 0 -81 -21 -109 -57l-18 12c31 40 75 65 129 65c75 0 122 -50 122 -116c0 -74 -41 -132 -124 -148v-1
c61 -10 97 -62 97 -119c0 -81 -53 -164 -170 -164z" />
    <glyph glyph-name="four.sc" horiz-adv-x="453" 
d="M385 134h-84l-23 -134h-22l23 134h-241l5 27l294 359h33l-66 -366h85zM282 154l62 342h-2l-278 -342h218z" />
    <glyph glyph-name="five.sc" horiz-adv-x="453" 
d="M186 -14c-64 0 -116 33 -140 74l19 14c21 -38 69 -68 122 -68c98 0 157 80 157 173c0 67 -49 122 -126 122c-37 0 -72 -11 -102 -28l47 247h233l-4 -20h-212l-37 -196c21 11 52 17 77 17c90 0 146 -62 146 -139c0 -105 -66 -196 -180 -196z" />
    <glyph glyph-name="six.sc" horiz-adv-x="453" 
d="M79 127c0 -65 45 -121 120 -121c93 0 155 77 155 162c0 66 -45 119 -116 119c-91 0 -159 -75 -159 -160zM56 127c0 49 24 97 72 161l178 232h25l-186 -240l2 -2c19 15 50 29 91 29c80 0 138 -55 138 -137c0 -99 -70 -184 -179 -184c-82 0 -141 57 -141 141z" />
    <glyph glyph-name="seven.sc" horiz-adv-x="453" 
d="M414 520l-5 -27l-306 -493h-25l313 500h-259l3 20h279z" />
    <glyph glyph-name="eight.sc" horiz-adv-x="453" 
d="M376 159c0 -118 -94 -173 -181 -173c-73 0 -142 42 -142 128c0 84 56 146 139 165v2c-42 14 -72 48 -72 103c0 90 71 150 151 150c73 0 128 -46 128 -125c0 -69 -50 -117 -110 -131v-2c49 -14 87 -57 87 -117zM142 384c0 -59 41 -97 100 -97c83 0 135 61 135 121
c0 68 -46 106 -107 106c-76 0 -128 -63 -128 -130zM75 116c0 -69 53 -110 120 -110c93 0 159 62 159 152c0 64 -50 110 -116 110c-88 0 -163 -66 -163 -152z" />
    <glyph glyph-name="nine.sc" horiz-adv-x="453" 
d="M399 394c0 64 -47 120 -119 120c-94 0 -156 -75 -156 -159c0 -65 44 -115 116 -115c91 0 159 69 159 154zM174 0h-28l193 248l-2 2c-21 -15 -58 -30 -98 -30c-81 0 -137 52 -137 134c0 96 71 180 178 180c82 0 141 -59 141 -141c0 -50 -22 -96 -67 -156z" />
    <glyph glyph-name="question.sc" horiz-adv-x="420" 
d="M204 180l-6 -32h-22l7 38c8 44 24 72 69 105l30 22c38 28 66 62 66 109c0 60 -41 91 -96 91c-63 0 -108 -40 -128 -99l-20 7c24 72 81 113 149 113c62 0 117 -35 117 -111c0 -56 -32 -95 -88 -134s-69 -61 -78 -109zM170 -6c-12 0 -21 7 -21 23c0 14 11 28 25 28
c12 0 21 -8 21 -22c0 -16 -12 -29 -25 -29z" />
    <glyph glyph-name="a.sc" horiz-adv-x="490" 
d="M429 0h-22l-26 145h-288l-92 -145h-26l334 520h28zM378 165l-58 335l-214 -335h272z" />
    <glyph glyph-name="b.sc" horiz-adv-x="485" 
d="M214 0h-154l92 520h136c72 0 143 -36 143 -115c0 -71 -44 -117 -125 -133v-1c52 -7 104 -45 104 -116c0 -108 -82 -155 -196 -155zM409 402c0 64 -58 98 -127 98h-112l-38 -219h117c89 0 160 39 160 121zM388 153c0 73 -63 108 -127 108h-132l-43 -241h124
c110 0 178 46 178 133z" />
    <glyph glyph-name="c.sc" horiz-adv-x="528" 
d="M460 75l11 -17c-47 -47 -113 -72 -180 -72c-152 0 -230 96 -230 226c0 170 130 322 304 322c66 0 132 -27 164 -69l-15 -16c-31 42 -91 65 -150 65c-161 0 -281 -146 -281 -299c0 -115 66 -209 208 -209c61 0 122 24 169 69z" />
    <glyph glyph-name="d.sc" horiz-adv-x="582" 
d="M60 0l91 520h133c141 0 250 -76 250 -216c0 -207 -150 -304 -331 -304h-143zM169 500l-84 -480h118c172 0 309 91 309 281c0 124 -94 199 -228 199h-115z" />
    <glyph glyph-name="e.sc" horiz-adv-x="446" 
d="M372 0h-312l91 520h290l-4 -20h-268l-39 -220h259l-3 -20h-259l-42 -240h291z" />
    <glyph glyph-name="f.sc" horiz-adv-x="426" 
d="M430 500h-261l-39 -224h246l-3 -20h-246l-45 -256h-22l90 520h283z" />
    <glyph glyph-name="g.sc" horiz-adv-x="576" 
d="M289 -14c-153 0 -228 96 -228 226c0 170 129 322 303 322c66 0 130 -24 164 -70l-16 -16c-30 42 -90 66 -149 66c-161 0 -280 -146 -280 -299c0 -115 63 -209 207 -209c62 0 121 15 159 38l34 194h-132l4 20h153l-39 -228c-43 -27 -110 -44 -180 -44z" />
    <glyph glyph-name="h.sc" horiz-adv-x="572" 
d="M436 0h-22l45 257h-332l-45 -257h-22l92 520h22l-43 -243h332l43 243h22z" />
    <glyph glyph-name="i.sc" horiz-adv-x="218" 
d="M82 0h-22l92 520h22z" />
    <glyph glyph-name="j.sc" horiz-adv-x="378" 
d="M338 520l-66 -378c-16 -90 -57 -156 -152 -156c-63 0 -105 39 -118 86l21 9c13 -43 45 -75 96 -75c79 0 116 54 131 140l66 374h22z" />
    <glyph glyph-name="k.sc" horiz-adv-x="448" 
d="M131 282h2l290 238h32l-295 -242l223 -278h-28l-223 278h-2l-48 -278h-22l91 520h22z" />
    <glyph glyph-name="l.sc" horiz-adv-x="380" 
d="M336 0h-276l92 520h22l-89 -500h255z" />
    <glyph glyph-name="m.sc" horiz-adv-x="712" 
d="M576 0h-22l87 496h-2l-312 -496h-18l-138 496h-2l-87 -496h-22l92 520h34l136 -491l308 491h38z" />
    <glyph glyph-name="n.sc" horiz-adv-x="587" 
d="M451 0h-32l-248 495h-2l-87 -495h-22l92 520h30l249 -494h3l87 494h22z" />
    <glyph glyph-name="o.sc" horiz-adv-x="637" 
d="M567 303c0 116 -68 211 -209 211c-165 0 -275 -145 -275 -297c0 -116 69 -211 211 -211c164 0 273 143 273 297zM61 216c0 168 119 318 297 318c152 0 231 -99 231 -231c0 -167 -117 -317 -296 -317c-152 0 -232 98 -232 230z" />
    <glyph glyph-name="p.sc" horiz-adv-x="443" 
d="M127 251l-45 -251h-22l92 520h132c76 0 142 -35 142 -120c0 -82 -57 -149 -179 -149h-120zM404 400c0 71 -59 100 -118 100h-116l-40 -229h119c99 0 155 51 155 129z" />
    <glyph glyph-name="q.sc" horiz-adv-x="637" 
d="M397 22v-2h185l-4 -20h-285c-151 0 -232 87 -232 219c0 165 119 315 297 315c152 0 231 -101 231 -229c0 -126 -71 -246 -192 -283zM567 303c0 114 -68 211 -210 211c-164 0 -274 -146 -274 -294c0 -115 68 -200 211 -200c161 0 273 135 273 283z" />
    <glyph glyph-name="r.sc" horiz-adv-x="464" 
d="M384 0h-24l-117 257h-116l-45 -257h-22l92 520h124c74 0 148 -32 148 -116c0 -115 -89 -142 -158 -146zM402 402c0 70 -62 98 -133 98h-99l-40 -223h113c94 0 159 34 159 125z" />
    <glyph glyph-name="s.sc" horiz-adv-x="420" 
d="M18 57l17 14c24 -39 85 -65 146 -65c95 0 155 62 155 134c0 58 -35 91 -131 124c-89 31 -120 60 -120 118c0 102 93 152 179 152c70 0 118 -26 141 -62l-18 -14c-19 35 -73 56 -124 56c-62 0 -156 -33 -156 -131c0 -56 39 -77 110 -101c105 -35 140 -74 140 -141
c0 -89 -69 -155 -180 -155c-68 0 -132 30 -159 71z" />
    <glyph glyph-name="t.sc" horiz-adv-x="395" 
d="M430 500h-173l-88 -500h-22l88 500h-178l4 20h374z" />
    <glyph glyph-name="u.sc" horiz-adv-x="560" 
d="M141 520h22l-57 -319c-4 -20 -5 -38 -5 -54c0 -78 44 -140 151 -140c145 0 178 107 193 194l55 319h22l-56 -325c-20 -114 -66 -209 -215 -209c-119 0 -172 67 -172 160c0 17 2 35 5 53z" />
    <glyph glyph-name="v.sc" horiz-adv-x="456" 
d="M495 520l-308 -520h-34l-85 520h22l82 -500h2l296 500h25z" />
    <glyph glyph-name="w.sc" horiz-adv-x="730" 
d="M760 520l-268 -520h-35l-43 499h-2l-252 -499h-35l-43 520h22l41 -500h3l254 500h31l44 -500h2l256 500h25z" />
    <glyph glyph-name="x.sc" horiz-adv-x="433" 
d="M374 0h-24l-125 254l-215 -254h-27l230 271l-122 249h23l113 -232l196 232h26l-210 -249z" />
    <glyph glyph-name="y.sc" horiz-adv-x="378" 
d="M431 520l-239 -294l-40 -226h-22l40 226l-120 294h24l110 -272l220 272h27z" />
    <glyph glyph-name="z.sc" horiz-adv-x="456" 
d="M370 0h-361l4 27l416 473h-327l4 20h351l-4 -24l-419 -476h340z" />
    <glyph glyph-name="agrave.sc" horiz-adv-x="490" 
d="M429 0h-22l-26 145h-288l-92 -145h-26l334 520h28zM378 165l-58 335l-214 -335h272zM201 708h28l106 -144h-20z" />
    <glyph glyph-name="aacute.sc" horiz-adv-x="490" 
d="M429 0h-22l-26 145h-288l-92 -145h-26l334 520h28zM378 165l-58 335l-214 -335h272zM468 708l-135 -144h-20l127 144h28z" />
    <glyph glyph-name="acircumflex.sc" horiz-adv-x="490" 
d="M429 0h-22l-26 145h-288l-92 -145h-26l334 520h28zM378 165l-58 335l-214 -335h272zM343 708h29l73 -144h-20l-68 132l-120 -132h-24z" />
    <glyph glyph-name="atilde.sc" horiz-adv-x="490" 
d="M429 0h-22l-26 145h-288l-92 -145h-26l334 520h28zM378 165l-58 335l-214 -335h272zM340 638c32 -22 41 -24 56 -24c23 0 38 15 49 48h17c-14 -48 -42 -67 -69 -67c-21 0 -33 5 -60 24c-30 22 -40 24 -55 24c-23 0 -38 -18 -49 -51h-17c14 48 42 70 69 70
c21 0 33 -6 59 -24z" />
    <glyph glyph-name="adieresis.sc" horiz-adv-x="490" 
d="M429 0h-22l-26 145h-288l-92 -145h-26l334 520h28zM378 165l-58 335l-214 -335h272zM265 633c-12 0 -21 7 -21 23c0 14 11 28 25 28c12 0 21 -8 21 -22c0 -16 -12 -29 -25 -29zM415 633c-12 0 -21 7 -21 23c0 14 11 28 25 28c12 0 21 -8 21 -22c0 -16 -12 -29 -25 -29z
" />
    <glyph glyph-name="amacron.sc" horiz-adv-x="490" 
d="M429 0h-22l-26 145h-288l-92 -145h-26l334 520h28zM378 165l-58 335l-214 -335h272zM455 621h-232l4 20h232z" />
    <glyph glyph-name="abreve.sc" horiz-adv-x="490" 
d="M429 0h-22l-26 145h-288l-92 -145h-26l334 520h28zM378 165l-58 335l-214 -335h272zM471 698c-21 -83 -73 -126 -144 -126c-65 0 -107 45 -107 126h17c0 -69 37 -106 91 -106c62 0 104 30 127 106h16z" />
    <glyph glyph-name="aring.sc" horiz-adv-x="490" 
d="M429 0h-22l-26 145h-288l-92 -145h-26l334 520h28zM378 165l-58 335l-214 -335h272zM412 664c0 34 -20 65 -65 65c-52 0 -84 -44 -84 -93c0 -35 19 -64 65 -64c51 0 84 43 84 92zM245 635c0 58 40 110 103 110c55 0 82 -36 82 -80c0 -58 -39 -110 -103 -110
c-55 0 -82 35 -82 80z" />
    <glyph glyph-name="aogonek.sc" horiz-adv-x="490" 
d="M429 0c-93 -81 -118 -111 -118 -156c0 -31 21 -49 55 -49c27 0 55 12 74 29l7 -16c-24 -19 -51 -31 -82 -31c-42 0 -77 20 -77 63c0 51 34 91 119 160l-26 145h-288l-92 -145h-26l334 520h28zM378 165l-58 335l-214 -335h272z" />
    <glyph glyph-name="ae.sc" horiz-adv-x="714" 
d="M640 0h-312l27 155h-233l-129 -155h-27l429 520h314l-4 -20h-268l-39 -220h259l-3 -20h-259l-42 -240h291zM405 500l-267 -325h220l57 325h-10z" />
    <glyph glyph-name="cacute.sc" horiz-adv-x="528" 
d="M460 75l11 -17c-47 -47 -113 -72 -180 -72c-152 0 -230 96 -230 226c0 170 130 322 304 322c66 0 132 -27 164 -69l-15 -16c-31 42 -91 65 -150 65c-161 0 -281 -146 -281 -299c0 -115 66 -209 208 -209c61 0 122 24 169 69zM470 708l-135 -144h-20l127 144h28z" />
    <glyph glyph-name="ccircumflex.sc" horiz-adv-x="528" 
d="M460 75l11 -17c-47 -47 -113 -72 -180 -72c-152 0 -230 96 -230 226c0 170 130 322 304 322c66 0 132 -27 164 -69l-15 -16c-31 42 -91 65 -150 65c-161 0 -281 -146 -281 -299c0 -115 66 -209 208 -209c61 0 122 24 169 69zM388 708h29l73 -144h-20l-68 132l-120 -132
h-24z" />
    <glyph glyph-name="ccaron.sc" horiz-adv-x="528" 
d="M460 75l11 -17c-47 -47 -113 -72 -180 -72c-152 0 -230 96 -230 226c0 170 130 322 304 322c66 0 132 -27 164 -69l-15 -16c-31 42 -91 65 -150 65c-161 0 -281 -146 -281 -299c0 -115 66 -209 208 -209c61 0 122 24 169 69zM381 564h-29l-73 144h20l68 -132l120 132h24z
" />
    <glyph glyph-name="cdotaccent.sc" horiz-adv-x="528" 
d="M460 75l11 -17c-47 -47 -113 -72 -180 -72c-152 0 -230 96 -230 226c0 170 130 322 304 322c66 0 132 -27 164 -69l-15 -16c-31 42 -91 65 -150 65c-161 0 -281 -146 -281 -299c0 -115 66 -209 208 -209c61 0 122 24 169 69zM384 633c-12 0 -21 7 -21 23
c0 14 11 28 25 28c12 0 21 -8 21 -22c0 -16 -12 -29 -25 -29z" />
    <glyph glyph-name="ccedilla.sc" horiz-adv-x="528" 
d="M240 -226c-25 0 -66 7 -92 20l7 17c22 -11 61 -18 85 -18c73 0 99 31 99 66c0 34 -32 46 -61 46c-18 0 -57 -6 -74 -15l-9 9l75 88c-138 8 -209 101 -209 225c0 170 130 322 304 322c66 0 132 -27 164 -69l-15 -16c-31 42 -91 65 -150 65c-161 0 -281 -146 -281 -299
c0 -115 66 -209 208 -209c61 0 122 24 169 69l11 -17c-47 -47 -113 -72 -180 -72l-62 -72c18 6 32 8 51 8c37 0 80 -15 80 -61c0 -61 -51 -87 -120 -87z" />
    <glyph glyph-name="dcaron.sc" horiz-adv-x="582" 
d="M60 0l91 520h133c141 0 250 -76 250 -216c0 -207 -150 -304 -331 -304h-143zM169 500l-84 -480h118c172 0 309 91 309 281c0 124 -94 199 -228 199h-115zM330 564h-29l-73 144h20l68 -132l120 132h24z" />
    <glyph glyph-name="dcroat.sc" horiz-adv-x="582" 
d="M60 0l46 263h-78l4 20h77l42 237h134c141 0 249 -76 249 -216c0 -207 -150 -304 -331 -304h-143zM169 500l-38 -217h177l-4 -20h-177l-42 -243h118c172 0 309 91 309 281c0 124 -94 199 -228 199h-115z" />
    <glyph glyph-name="eth.sc" horiz-adv-x="582" 
d="M60 0l46 263h-78l4 20h77l42 237h134c141 0 249 -76 249 -216c0 -207 -150 -304 -331 -304h-143zM169 500l-38 -217h177l-4 -20h-177l-42 -243h118c172 0 309 91 309 281c0 124 -94 199 -228 199h-115z" />
    <glyph glyph-name="egrave.sc" horiz-adv-x="446" 
d="M372 0h-312l91 520h290l-4 -20h-268l-39 -220h259l-3 -20h-259l-42 -240h291zM188 708h28l106 -144h-20z" />
    <glyph glyph-name="eacute.sc" horiz-adv-x="446" 
d="M372 0h-312l91 520h290l-4 -20h-268l-39 -220h259l-3 -20h-259l-42 -240h291zM425 708l-135 -144h-20l127 144h28z" />
    <glyph glyph-name="ecircumflex.sc" horiz-adv-x="446" 
d="M372 0h-312l91 520h290l-4 -20h-268l-39 -220h259l-3 -20h-259l-42 -240h291zM315 708h29l73 -144h-20l-68 132l-120 -132h-24z" />
    <glyph glyph-name="ecaron.sc" horiz-adv-x="446" 
d="M372 0h-312l91 520h290l-4 -20h-268l-39 -220h259l-3 -20h-259l-42 -240h291zM315 564h-29l-73 144h20l68 -132l120 132h24z" />
    <glyph glyph-name="edieresis.sc" horiz-adv-x="446" 
d="M372 0h-312l91 520h290l-4 -20h-268l-39 -220h259l-3 -20h-259l-42 -240h291zM235 633c-12 0 -21 7 -21 23c0 14 11 28 25 28c12 0 21 -8 21 -22c0 -16 -12 -29 -25 -29zM385 633c-12 0 -21 7 -21 23c0 14 11 28 25 28c12 0 21 -8 21 -22c0 -16 -12 -29 -25 -29z" />
    <glyph glyph-name="emacron.sc" horiz-adv-x="446" 
d="M372 0h-312l91 520h290l-4 -20h-268l-39 -220h259l-3 -20h-259l-42 -240h291zM425 621h-232l4 20h232z" />
    <glyph glyph-name="ebreve.sc" horiz-adv-x="446" 
d="M372 0h-312l91 520h290l-4 -20h-268l-39 -220h259l-3 -20h-259l-42 -240h291zM440 698c-21 -83 -73 -126 -144 -126c-65 0 -107 45 -107 126h17c0 -69 37 -106 91 -106c62 0 104 30 127 106h16z" />
    <glyph glyph-name="edotaccent.sc" horiz-adv-x="446" 
d="M372 0h-312l91 520h290l-4 -20h-268l-39 -220h259l-3 -20h-259l-42 -240h291zM311 633c-12 0 -21 7 -21 23c0 14 11 28 25 28c12 0 21 -8 21 -22c0 -16 -12 -29 -25 -29z" />
    <glyph glyph-name="eogonek.sc" horiz-adv-x="446" 
d="M357 -176l7 -16c-24 -19 -51 -31 -82 -31c-42 0 -77 20 -77 63c0 51 34 91 119 160h-264l91 520h290l-4 -20h-268l-39 -220h259l-3 -20h-259l-42 -240h291l-4 -20h-25c-93 -81 -119 -111 -119 -156c0 -31 21 -49 55 -49c27 0 55 12 74 29z" />
    <glyph glyph-name="gcircumflex.sc" horiz-adv-x="576" 
d="M289 -14c-153 0 -228 96 -228 226c0 170 129 322 303 322c66 0 130 -24 164 -70l-16 -16c-30 42 -90 66 -149 66c-161 0 -280 -146 -280 -299c0 -115 63 -209 207 -209c62 0 121 15 159 38l34 194h-132l4 20h153l-39 -228c-43 -27 -110 -44 -180 -44zM386 708h29l73 -144
h-20l-68 132l-120 -132h-24z" />
    <glyph glyph-name="gbreve.sc" horiz-adv-x="576" 
d="M289 -14c-153 0 -228 96 -228 226c0 170 129 322 303 322c66 0 130 -24 164 -70l-16 -16c-30 42 -90 66 -149 66c-161 0 -280 -146 -280 -299c0 -115 63 -209 207 -209c62 0 121 15 159 38l34 194h-132l4 20h153l-39 -228c-43 -27 -110 -44 -180 -44zM511 698
c-21 -83 -73 -126 -144 -126c-65 0 -107 45 -107 126h17c0 -69 37 -106 91 -106c62 0 104 30 127 106h16z" />
    <glyph glyph-name="gdotaccent.sc" horiz-adv-x="576" 
d="M289 -14c-153 0 -228 96 -228 226c0 170 129 322 303 322c66 0 130 -24 164 -70l-16 -16c-30 42 -90 66 -149 66c-161 0 -280 -146 -280 -299c0 -115 63 -209 207 -209c62 0 121 15 159 38l34 194h-132l4 20h153l-39 -228c-43 -27 -110 -44 -180 -44zM381 633
c-12 0 -21 7 -21 23c0 14 11 28 25 28c12 0 21 -8 21 -22c0 -16 -12 -29 -25 -29z" />
    <glyph glyph-name="gcommaaccent.sc" horiz-adv-x="576" 
d="M289 -14c-153 0 -228 96 -228 226c0 170 129 322 303 322c66 0 130 -24 164 -70l-16 -16c-30 42 -90 66 -149 66c-161 0 -280 -146 -280 -299c0 -115 63 -209 207 -209c62 0 121 15 159 38l34 194h-132l4 20h153l-39 -228c-43 -27 -110 -44 -180 -44zM295 -45l-95 -188
h-17l88 188h24z" />
    <glyph glyph-name="kgreenlandic.sc" horiz-adv-x="448" 
d="M131 282h2l290 238h32l-295 -242l223 -278h-28l-223 278h-2l-48 -278h-22l91 520h22z" />
    <glyph glyph-name="hcircumflex.sc" horiz-adv-x="572" 
d="M436 0h-22l45 257h-332l-45 -257h-22l92 520h22l-43 -243h332l43 243h22zM367 708h29l73 -144h-20l-68 132l-120 -132h-24z" />
    <glyph glyph-name="hbar.sc" horiz-adv-x="572" 
d="M436 0h-22l45 257h-332l-45 -257h-22l92 520h22l-24 -134h332l24 134h22zM131 277h332l16 91h-332z" />
    <glyph glyph-name="igrave.sc" horiz-adv-x="218" 
d="M82 0h-22l92 520h22zM43 708h28l106 -144h-20z" />
    <glyph glyph-name="iacute.sc" horiz-adv-x="218" 
d="M82 0h-22l92 520h22zM311 708l-135 -144h-20l127 144h28z" />
    <glyph glyph-name="ibreve.sc" horiz-adv-x="218" 
d="M82 0h-22l92 520h22zM318 698c-21 -83 -73 -126 -144 -126c-65 0 -107 45 -107 126h17c0 -69 37 -106 91 -106c62 0 104 30 127 106h16z" />
    <glyph glyph-name="icircumflex.sc" horiz-adv-x="218" 
d="M82 0h-22l92 520h22zM185 708h29l73 -144h-20l-68 132l-120 -132h-24z" />
    <glyph glyph-name="itilde.sc" horiz-adv-x="218" 
d="M82 0h-22l92 520h22zM177 638c32 -22 41 -24 56 -24c23 0 38 15 49 48h17c-14 -48 -42 -67 -69 -67c-21 0 -33 5 -60 24c-30 22 -40 24 -55 24c-23 0 -38 -18 -49 -51h-17c14 48 42 70 69 70c21 0 33 -6 59 -24z" />
    <glyph glyph-name="idieresis.sc" horiz-adv-x="218" 
d="M82 0h-22l92 520h22zM100 633c-12 0 -21 7 -21 23c0 14 11 28 25 28c12 0 21 -8 21 -22c0 -16 -12 -29 -25 -29zM250 633c-12 0 -21 7 -21 23c0 14 11 28 25 28c12 0 21 -8 21 -22c0 -16 -12 -29 -25 -29z" />
    <glyph glyph-name="imacron.sc" horiz-adv-x="218" 
d="M82 0h-22l92 520h22zM288 621h-232l4 20h232z" />
    <glyph glyph-name="idotaccent.sc" horiz-adv-x="218" 
d="M82 0h-22l92 520h22zM182 633c-12 0 -21 7 -21 23c0 14 11 28 25 28c12 0 21 -8 21 -22c0 -16 -12 -29 -25 -29z" />
    <glyph glyph-name="iogonek.sc" horiz-adv-x="218" 
d="M82 0c-93 -81 -118 -111 -118 -156c0 -31 21 -49 55 -49c27 0 55 12 74 29l7 -16c-24 -19 -51 -31 -82 -31c-42 0 -77 20 -77 63c0 51 34 91 119 160l92 520h22z" />
    <glyph glyph-name="jcircumflex.sc" horiz-adv-x="378" 
d="M338 520l-66 -378c-16 -90 -57 -156 -152 -156c-63 0 -105 39 -118 86l21 9c13 -43 45 -75 96 -75c79 0 116 54 131 140l66 374h22zM348 708h29l73 -144h-20l-68 132l-120 -132h-24z" />
    <glyph glyph-name="kcommaaccent.sc" horiz-adv-x="448" 
d="M131 282h2l290 238h32l-295 -242l223 -278h-28l-223 278h-2l-48 -278h-22l91 520h22zM225 -45l-95 -188h-17l88 188h24z" />
    <glyph glyph-name="lacute.sc" horiz-adv-x="380" 
d="M336 0h-276l92 520h22l-89 -500h255zM313 708l-135 -144h-20l127 144h28z" />
    <glyph glyph-name="lcaron.sc" horiz-adv-x="380" 
d="M336 0h-276l92 520h22l-89 -500h255zM332 520l-95 -188h-17l88 188h24z" />
    <glyph glyph-name="lcommaaccent.sc" horiz-adv-x="380" 
d="M336 0h-276l92 520h22l-89 -500h255zM220 -45l-95 -188h-17l88 188h24z" />
    <glyph glyph-name="lslash.sc" horiz-adv-x="380" 
d="M336 0h-276l45 255l-74 -57l5 27l73 56l43 239h22l-39 -219l136 104l-4 -24l-137 -106l-45 -255h255z" />
    <glyph glyph-name="ldot.sc" horiz-adv-x="380" 
d="M336 0h-276l92 520h22l-89 -500h255zM246 273c-12 0 -21 7 -21 23c0 14 11 28 25 28c12 0 21 -8 21 -22c0 -16 -12 -29 -25 -29z" />
    <glyph glyph-name="nacute.sc" horiz-adv-x="587" 
d="M451 0h-32l-248 495h-2l-87 -495h-22l92 520h30l249 -494h3l87 494h22zM465 708l-135 -144h-20l127 144h28z" />
    <glyph glyph-name="ncaron.sc" horiz-adv-x="587" 
d="M451 0h-32l-248 495h-2l-87 -495h-22l92 520h30l249 -494h3l87 494h22zM361 564h-29l-73 144h20l68 -132l120 132h24z" />
    <glyph glyph-name="ntilde.sc" horiz-adv-x="587" 
d="M451 0h-32l-248 495h-2l-87 -495h-22l92 520h30l249 -494h3l87 494h22zM370 638c32 -22 41 -24 56 -24c23 0 38 15 49 48h17c-14 -48 -42 -67 -69 -67c-21 0 -33 5 -60 24c-30 22 -40 24 -55 24c-23 0 -38 -18 -49 -51h-17c14 48 42 70 69 70c21 0 33 -6 59 -24z" />
    <glyph glyph-name="ncommaaccent.sc" horiz-adv-x="587" 
d="M451 0h-32l-248 495h-2l-87 -495h-22l92 520h30l249 -494h3l87 494h22zM278 -45l-95 -188h-17l88 188h24z" />
    <glyph glyph-name="ograve.sc" horiz-adv-x="637" 
d="M567 303c0 116 -68 211 -209 211c-165 0 -275 -145 -275 -297c0 -116 69 -211 211 -211c164 0 273 143 273 297zM61 216c0 168 119 318 297 318c152 0 231 -99 231 -231c0 -167 -117 -317 -296 -317c-152 0 -232 98 -232 230zM254 708h28l106 -144h-20z" />
    <glyph glyph-name="oacute.sc" horiz-adv-x="637" 
d="M567 303c0 116 -68 211 -209 211c-165 0 -275 -145 -275 -297c0 -116 69 -211 211 -211c164 0 273 143 273 297zM61 216c0 168 119 318 297 318c152 0 231 -99 231 -231c0 -167 -117 -317 -296 -317c-152 0 -232 98 -232 230zM494 708l-135 -144h-20l127 144h28z" />
    <glyph glyph-name="ocircumflex.sc" horiz-adv-x="637" 
d="M567 303c0 116 -68 211 -209 211c-165 0 -275 -145 -275 -297c0 -116 69 -211 211 -211c164 0 273 143 273 297zM61 216c0 168 119 318 297 318c152 0 231 -99 231 -231c0 -167 -117 -317 -296 -317c-152 0 -232 98 -232 230zM403 708h29l73 -144h-20l-68 132l-120 -132
h-24z" />
    <glyph glyph-name="otilde.sc" horiz-adv-x="637" 
d="M567 303c0 116 -68 211 -209 211c-165 0 -275 -145 -275 -297c0 -116 69 -211 211 -211c164 0 273 143 273 297zM61 216c0 168 119 318 297 318c152 0 231 -99 231 -231c0 -167 -117 -317 -296 -317c-152 0 -232 98 -232 230zM386 638c32 -22 41 -24 56 -24
c23 0 38 15 49 48h17c-14 -48 -42 -67 -69 -67c-21 0 -33 5 -60 24c-30 22 -40 24 -55 24c-23 0 -38 -18 -49 -51h-17c14 48 42 70 69 70c21 0 33 -6 59 -24z" />
    <glyph glyph-name="odieresis.sc" horiz-adv-x="637" 
d="M567 303c0 116 -68 211 -209 211c-165 0 -275 -145 -275 -297c0 -116 69 -211 211 -211c164 0 273 143 273 297zM61 216c0 168 119 318 297 318c152 0 231 -99 231 -231c0 -167 -117 -317 -296 -317c-152 0 -232 98 -232 230zM315 633c-12 0 -21 7 -21 23
c0 14 11 28 25 28c12 0 21 -8 21 -22c0 -16 -12 -29 -25 -29zM465 633c-12 0 -21 7 -21 23c0 14 11 28 25 28c12 0 21 -8 21 -22c0 -16 -12 -29 -25 -29z" />
    <glyph glyph-name="omacron.sc" horiz-adv-x="637" 
d="M567 303c0 116 -68 211 -209 211c-165 0 -275 -145 -275 -297c0 -116 69 -211 211 -211c164 0 273 143 273 297zM61 216c0 168 119 318 297 318c152 0 231 -99 231 -231c0 -167 -117 -317 -296 -317c-152 0 -232 98 -232 230zM498 621h-232l4 20h232z" />
    <glyph glyph-name="obreve.sc" horiz-adv-x="637" 
d="M567 303c0 116 -68 211 -209 211c-165 0 -275 -145 -275 -297c0 -116 69 -211 211 -211c164 0 273 143 273 297zM61 216c0 168 119 318 297 318c152 0 231 -99 231 -231c0 -167 -117 -317 -296 -317c-152 0 -232 98 -232 230zM512 698c-21 -83 -73 -126 -144 -126
c-65 0 -107 45 -107 126h17c0 -69 37 -106 91 -106c62 0 104 30 127 106h16z" />
    <glyph glyph-name="ohungarumlaut.sc" horiz-adv-x="637" 
d="M567 303c0 116 -68 211 -209 211c-165 0 -275 -145 -275 -297c0 -116 69 -211 211 -211c164 0 273 143 273 297zM61 216c0 168 119 318 297 318c152 0 231 -99 231 -231c0 -167 -117 -317 -296 -317c-152 0 -232 98 -232 230zM455 708l-135 -144h-20l127 144h28zM576 708
l-135 -144h-20l127 144h28z" />
    <glyph glyph-name="oslash.sc" horiz-adv-x="637" 
d="M33 -4l-12 13l78 69c-25 38 -38 85 -38 138c0 168 119 318 297 318c78 0 138 -27 176 -71l75 67l11 -14l-75 -66c29 -40 44 -90 44 -147c0 -167 -117 -317 -296 -317c-84 0 -145 29 -184 78zM567 303c0 50 -13 96 -38 132l-403 -356c34 -45 90 -73 168 -73
c164 0 273 143 273 297zM83 217c0 -46 11 -89 33 -124l402 356c-35 40 -88 65 -160 65c-165 0 -275 -145 -275 -297z" />
    <glyph glyph-name="oe.sc" horiz-adv-x="748" 
d="M674 0h-373c-152 0 -242 84 -242 216c0 168 129 304 307 304h377l-4 -20h-268l-39 -220h259l-3 -20h-259l-42 -240h291zM81 217c0 -116 79 -196 221 -196h63l84 478h-83c-165 0 -285 -130 -285 -282z" />
    <glyph glyph-name="racute.sc" horiz-adv-x="464" 
d="M384 0h-24l-117 257h-116l-45 -257h-22l92 520h124c74 0 148 -32 148 -116c0 -115 -89 -142 -158 -146zM402 402c0 70 -62 98 -133 98h-99l-40 -223h113c94 0 159 34 159 125zM390 708l-135 -144h-20l127 144h28z" />
    <glyph glyph-name="rcaron.sc" horiz-adv-x="464" 
d="M384 0h-24l-117 257h-116l-45 -257h-22l92 520h124c74 0 148 -32 148 -116c0 -115 -89 -142 -158 -146zM402 402c0 70 -62 98 -133 98h-99l-40 -223h113c94 0 159 34 159 125zM298 564h-29l-73 144h20l68 -132l120 132h24z" />
    <glyph glyph-name="rcommaaccent.sc" horiz-adv-x="464" 
d="M384 0h-24l-117 257h-116l-45 -257h-22l92 520h124c74 0 148 -32 148 -116c0 -115 -89 -142 -158 -146zM402 402c0 70 -62 98 -133 98h-99l-40 -223h113c94 0 159 34 159 125zM224 -45l-95 -188h-17l88 188h24z" />
    <glyph glyph-name="sacute.sc" horiz-adv-x="420" 
d="M18 57l17 14c24 -39 85 -65 146 -65c95 0 155 62 155 134c0 58 -35 91 -131 124c-89 31 -120 60 -120 118c0 102 93 152 179 152c70 0 118 -26 141 -62l-18 -14c-19 35 -73 56 -124 56c-62 0 -156 -33 -156 -131c0 -56 39 -77 110 -101c105 -35 140 -74 140 -141
c0 -89 -69 -155 -180 -155c-68 0 -132 30 -159 71zM372 708l-135 -144h-20l127 144h28z" />
    <glyph glyph-name="scircumflex.sc" horiz-adv-x="420" 
d="M18 57l17 14c24 -39 85 -65 146 -65c95 0 155 62 155 134c0 58 -35 91 -131 124c-89 31 -120 60 -120 118c0 102 93 152 179 152c70 0 118 -26 141 -62l-18 -14c-19 35 -73 56 -124 56c-62 0 -156 -33 -156 -131c0 -56 39 -77 110 -101c105 -35 140 -74 140 -141
c0 -89 -69 -155 -180 -155c-68 0 -132 30 -159 71zM291 708h29l73 -144h-20l-68 132l-120 -132h-24z" />
    <glyph glyph-name="scaron.sc" horiz-adv-x="420" 
d="M18 57l17 14c24 -39 85 -65 146 -65c95 0 155 62 155 134c0 58 -35 91 -131 124c-89 31 -120 60 -120 118c0 102 93 152 179 152c70 0 118 -26 141 -62l-18 -14c-19 35 -73 56 -124 56c-62 0 -156 -33 -156 -131c0 -56 39 -77 110 -101c105 -35 140 -74 140 -141
c0 -89 -69 -155 -180 -155c-68 0 -132 30 -159 71zM288 564h-29l-73 144h20l68 -132l120 132h24z" />
    <glyph glyph-name="scedilla.sc" horiz-adv-x="420" 
d="M142 -226c-25 0 -66 7 -92 20l7 17c22 -11 61 -18 85 -18c73 0 99 31 99 66c0 34 -32 46 -61 46c-18 0 -57 -6 -74 -15l-9 9l75 87c-66 2 -128 31 -154 71l17 14c24 -39 85 -65 146 -65c95 0 155 62 155 134c0 58 -35 91 -131 124c-89 31 -120 60 -120 118
c0 102 93 152 179 152c70 0 118 -26 141 -62l-18 -14c-19 35 -73 56 -124 56c-62 0 -156 -33 -156 -131c0 -56 39 -77 110 -101c105 -35 140 -74 140 -141c0 -85 -62 -148 -164 -154l-62 -73c18 6 32 8 51 8c37 0 80 -15 80 -61c0 -61 -51 -87 -120 -87z" />
    <glyph glyph-name="scommaaccent.sc" horiz-adv-x="420" 
d="M18 57l17 14c24 -39 85 -65 146 -65c95 0 155 62 155 134c0 58 -35 91 -131 124c-89 31 -120 60 -120 118c0 102 93 152 179 152c70 0 118 -26 141 -62l-18 -14c-19 35 -73 56 -124 56c-62 0 -156 -33 -156 -131c0 -56 39 -77 110 -101c105 -35 140 -74 140 -141
c0 -89 -69 -155 -180 -155c-68 0 -132 30 -159 71zM189 -45l-95 -188h-17l88 188h24z" />
    <glyph glyph-name="tcaron.sc" horiz-adv-x="395" 
d="M430 500h-173l-88 -500h-22l88 500h-178l4 20h374zM268 564h-29l-73 144h20l68 -132l120 132h24z" />
    <glyph glyph-name="tcommaaccent.sc" horiz-adv-x="395" 
d="M430 500h-173l-88 -500h-22l88 500h-178l4 20h374zM187 -45l-95 -188h-17l88 188h24z" />
    <glyph glyph-name="tbar.sc" horiz-adv-x="395" 
d="M344 342h-115l-60 -342h-22l60 342h-116l3 18h116l25 140h-178l4 20h374l-5 -20h-173l-25 -140h115z" />
    <glyph glyph-name="thorn.sc" horiz-adv-x="408" 
d="M82 0h-22l92 520h22l-18 -100h103c74 0 148 -32 148 -116c0 -124 -106 -147 -181 -147h-116zM385 302c0 68 -62 98 -133 98h-99l-40 -223h113c94 0 159 34 159 125z" />
    <glyph glyph-name="ugrave.sc" horiz-adv-x="560" 
d="M141 520h22l-57 -319c-4 -20 -5 -38 -5 -54c0 -78 44 -140 151 -140c145 0 178 107 193 194l55 319h22l-56 -325c-20 -114 -66 -209 -215 -209c-119 0 -172 67 -172 160c0 17 2 35 5 53zM218 708h28l106 -144h-20z" />
    <glyph glyph-name="uacute.sc" horiz-adv-x="560" 
d="M141 520h22l-57 -319c-4 -20 -5 -38 -5 -54c0 -78 44 -140 151 -140c145 0 178 107 193 194l55 319h22l-56 -325c-20 -114 -66 -209 -215 -209c-119 0 -172 67 -172 160c0 17 2 35 5 53zM461 708l-135 -144h-20l127 144h28z" />
    <glyph glyph-name="ucircumflex.sc" horiz-adv-x="560" 
d="M141 520h22l-57 -319c-4 -20 -5 -38 -5 -54c0 -78 44 -140 151 -140c145 0 178 107 193 194l55 319h22l-56 -325c-20 -114 -66 -209 -215 -209c-119 0 -172 67 -172 160c0 17 2 35 5 53zM354 708h29l73 -144h-20l-68 132l-120 -132h-24z" />
    <glyph glyph-name="utilde.sc" horiz-adv-x="560" 
d="M141 520h22l-57 -319c-4 -20 -5 -38 -5 -54c0 -78 44 -140 151 -140c145 0 178 107 193 194l55 319h22l-56 -325c-20 -114 -66 -209 -215 -209c-119 0 -172 67 -172 160c0 17 2 35 5 53zM351 638c32 -22 41 -24 56 -24c23 0 38 15 49 48h17c-14 -48 -42 -67 -69 -67
c-21 0 -33 5 -60 24c-30 22 -40 24 -55 24c-23 0 -38 -18 -49 -51h-17c14 48 42 70 69 70c21 0 33 -6 59 -24z" />
    <glyph glyph-name="udieresis.sc" horiz-adv-x="560" 
d="M141 520h22l-57 -319c-4 -20 -5 -38 -5 -54c0 -78 44 -140 151 -140c145 0 178 107 193 194l55 319h22l-56 -325c-20 -114 -66 -209 -215 -209c-119 0 -172 67 -172 160c0 17 2 35 5 53zM276 633c-12 0 -21 7 -21 23c0 14 11 28 25 28c12 0 21 -8 21 -22
c0 -16 -12 -29 -25 -29zM426 633c-12 0 -21 7 -21 23c0 14 11 28 25 28c12 0 21 -8 21 -22c0 -16 -12 -29 -25 -29z" />
    <glyph glyph-name="umacron.sc" horiz-adv-x="560" 
d="M141 520h22l-57 -319c-4 -20 -5 -38 -5 -54c0 -78 44 -140 151 -140c145 0 178 107 193 194l55 319h22l-56 -325c-20 -114 -66 -209 -215 -209c-119 0 -172 67 -172 160c0 17 2 35 5 53zM462 621h-232l4 20h232z" />
    <glyph glyph-name="ubreve.sc" horiz-adv-x="560" 
d="M141 520h22l-57 -319c-4 -20 -5 -38 -5 -54c0 -78 44 -140 151 -140c145 0 178 107 193 194l55 319h22l-56 -325c-20 -114 -66 -209 -215 -209c-119 0 -172 67 -172 160c0 17 2 35 5 53zM477 698c-21 -83 -73 -126 -144 -126c-65 0 -107 45 -107 126h17
c0 -69 37 -106 91 -106c62 0 104 30 127 106h16z" />
    <glyph glyph-name="uring.sc" horiz-adv-x="560" 
d="M141 520h22l-57 -319c-4 -20 -5 -38 -5 -54c0 -78 44 -140 151 -140c145 0 178 107 193 194l55 319h22l-56 -325c-20 -114 -66 -209 -215 -209c-119 0 -172 67 -172 160c0 17 2 35 5 53zM425 664c0 34 -20 65 -65 65c-52 0 -84 -44 -84 -93c0 -35 19 -64 65 -64
c51 0 84 43 84 92zM258 635c0 58 40 110 103 110c55 0 82 -36 82 -80c0 -58 -39 -110 -103 -110c-55 0 -82 35 -82 80z" />
    <glyph glyph-name="uhungarumlaut.sc" horiz-adv-x="560" 
d="M141 520h22l-57 -319c-4 -20 -5 -38 -5 -54c0 -78 44 -140 151 -140c145 0 178 107 193 194l55 319h22l-56 -325c-20 -114 -66 -209 -215 -209c-119 0 -172 67 -172 160c0 17 2 35 5 53zM404 708l-135 -144h-20l127 144h28zM525 708l-135 -144h-20l127 144h28z" />
    <glyph glyph-name="uogonek.sc" horiz-adv-x="560" 
d="M303 -176l7 -16c-24 -19 -51 -31 -82 -31c-42 0 -77 20 -77 63c0 48 29 86 101 146h-1c-119 0 -172 67 -172 160c0 17 2 35 5 53l57 321h22l-57 -319c-4 -20 -5 -38 -5 -54c0 -78 44 -140 151 -140c145 0 178 107 193 194l55 319h22l-56 -325
c-19 -107 -61 -197 -188 -208c-81 -71 -104 -100 -104 -143c0 -31 21 -49 55 -49c27 0 55 12 74 29z" />
    <glyph glyph-name="wacute.sc" horiz-adv-x="730" 
d="M760 520l-268 -520h-35l-43 499h-2l-252 -499h-35l-43 520h22l41 -500h3l254 500h31l44 -500h2l256 500h25zM572 708l-135 -144h-20l127 144h28z" />
    <glyph glyph-name="wcircumflex.sc" horiz-adv-x="730" 
d="M760 520l-268 -520h-35l-43 499h-2l-252 -499h-35l-43 520h22l41 -500h3l254 500h31l44 -500h2l256 500h25zM448 708h29l73 -144h-20l-68 132l-120 -132h-24z" />
    <glyph glyph-name="wdieresis.sc" horiz-adv-x="730" 
d="M760 520l-268 -520h-35l-43 499h-2l-252 -499h-35l-43 520h22l41 -500h3l254 500h31l44 -500h2l256 500h25zM364 633c-12 0 -21 7 -21 23c0 14 11 28 25 28c12 0 21 -8 21 -22c0 -16 -12 -29 -25 -29zM514 633c-12 0 -21 7 -21 23c0 14 11 28 25 28c12 0 21 -8 21 -22
c0 -16 -12 -29 -25 -29z" />
    <glyph glyph-name="wgrave.sc" horiz-adv-x="730" 
d="M760 520l-268 -520h-35l-43 499h-2l-252 -499h-35l-43 520h22l41 -500h3l254 500h31l44 -500h2l256 500h25zM299 708h28l106 -144h-20z" />
    <glyph glyph-name="yacute.sc" horiz-adv-x="378" 
d="M431 520l-239 -294l-40 -226h-22l40 226l-120 294h24l110 -272l220 272h27zM362 708l-135 -144h-20l127 144h28z" />
    <glyph glyph-name="ycircumflex.sc" horiz-adv-x="378" 
d="M431 520l-239 -294l-40 -226h-22l40 226l-120 294h24l110 -272l220 272h27zM265 708h29l73 -144h-20l-68 132l-120 -132h-24z" />
    <glyph glyph-name="ydieresis.sc" horiz-adv-x="378" 
d="M431 520l-239 -294l-40 -226h-22l40 226l-120 294h24l110 -272l220 272h27zM178 633c-12 0 -21 7 -21 23c0 14 11 28 25 28c12 0 21 -8 21 -22c0 -16 -12 -29 -25 -29zM328 633c-12 0 -21 7 -21 23c0 14 11 28 25 28c12 0 21 -8 21 -22c0 -16 -12 -29 -25 -29z" />
    <glyph glyph-name="ygrave.sc" horiz-adv-x="378" 
d="M431 520l-239 -294l-40 -226h-22l40 226l-120 294h24l110 -272l220 272h27zM138 708h28l106 -144h-20z" />
    <glyph glyph-name="zacute.sc" horiz-adv-x="456" 
d="M370 0h-361l4 27l416 473h-327l4 20h351l-4 -24l-419 -476h340zM382 708l-135 -144h-20l127 144h28z" />
    <glyph glyph-name="zcaron.sc" horiz-adv-x="456" 
d="M370 0h-361l4 27l416 473h-327l4 20h351l-4 -24l-419 -476h340zM294 564h-29l-73 144h20l68 -132l120 132h24z" />
    <glyph glyph-name="zdotaccent.sc" horiz-adv-x="456" 
d="M370 0h-361l4 27l416 473h-327l4 20h351l-4 -24l-419 -476h340zM292 633c-12 0 -21 7 -21 23c0 14 11 28 25 28c12 0 21 -8 21 -22c0 -16 -12 -29 -25 -29z" />
    <glyph glyph-name="ij.sc" horiz-adv-x="590" 
d="M82 0h-22l92 520h22zM550 520l-66 -378c-16 -90 -57 -156 -152 -156c-63 0 -105 39 -118 86l21 9c13 -43 45 -75 96 -75c79 0 116 54 131 140l66 374h22z" />
    <glyph glyph-name="germandbls.sc" horiz-adv-x="840" 
d="M18 57l17 14c24 -39 85 -65 146 -65c95 0 155 62 155 134c0 58 -35 91 -131 124c-89 31 -120 60 -120 118c0 102 93 152 179 152c70 0 118 -26 141 -62l-18 -14c-19 35 -73 56 -124 56c-62 0 -156 -33 -156 -131c0 -56 39 -77 110 -101c105 -35 140 -74 140 -141
c0 -89 -69 -155 -180 -155c-68 0 -132 30 -159 71zM438 57l17 14c24 -39 85 -65 146 -65c95 0 155 62 155 134c0 58 -35 91 -131 124c-89 31 -120 60 -120 118c0 102 93 152 179 152c70 0 118 -26 141 -62l-18 -14c-19 35 -73 56 -124 56c-62 0 -156 -33 -156 -131
c0 -56 39 -77 110 -101c105 -35 140 -74 140 -141c0 -89 -69 -155 -180 -155c-68 0 -132 30 -159 71z" />
    <glyph glyph-name="eng.sc" horiz-adv-x="587" 
d="M434 -97c-14 -75 -41 -144 -132 -144c-9 0 -21 1 -29 3l2 19c9 -2 17 -3 25 -3c85 0 101 64 112 123l16 91l-257 503h-2l-87 -495h-22l92 520h30l251 -489h2l86 489h22z" />
    <glyph glyph-name="grave.sc" horiz-adv-x="240" 
d="M89 708h28l106 -144h-20z" />
    <glyph glyph-name="acute.sc" horiz-adv-x="240" 
d="M279 708l-135 -144h-20l127 144h28z" />
    <glyph glyph-name="circumflex.sc" horiz-adv-x="240" 
d="M191 708h29l73 -144h-20l-68 132l-120 -132h-24z" />
    <glyph glyph-name="caron.sc" horiz-adv-x="240" 
d="M188 564h-29l-73 144h20l68 -132l120 132h24z" />
    <glyph glyph-name="tilde.sc" horiz-adv-x="240" 
d="M194 638c32 -22 41 -24 56 -24c23 0 38 15 49 48h17c-14 -48 -42 -67 -69 -67c-21 0 -33 5 -60 24c-30 22 -40 24 -55 24c-23 0 -38 -18 -49 -51h-17c14 48 42 70 69 70c21 0 33 -6 59 -24z" />
    <glyph glyph-name="dieresis.sc" horiz-adv-x="240" 
d="M118 633c-12 0 -21 7 -21 23c0 14 11 28 25 28c12 0 21 -8 21 -22c0 -16 -12 -29 -25 -29zM268 633c-12 0 -21 7 -21 23c0 14 11 28 25 28c12 0 21 -8 21 -22c0 -16 -12 -29 -25 -29z" />
    <glyph glyph-name="macron.sc" horiz-adv-x="240" 
d="M305 621h-232l4 20h232z" />
    <glyph glyph-name="breve.sc" horiz-adv-x="240" 
d="M330 698c-21 -83 -73 -126 -144 -126c-65 0 -107 45 -107 126h17c0 -69 37 -106 91 -106c62 0 104 30 127 106h16z" />
    <glyph glyph-name="ring.sc" horiz-adv-x="240" 
d="M272 664c0 34 -20 65 -65 65c-52 0 -84 -44 -84 -93c0 -35 19 -64 65 -64c51 0 84 43 84 92zM105 635c0 58 40 110 103 110c55 0 82 -36 82 -80c0 -58 -39 -110 -103 -110c-55 0 -82 35 -82 80z" />
    <glyph glyph-name="hungarumlaut.sc" horiz-adv-x="240" 
d="M254 708l-135 -144h-20l127 144h28zM375 708l-135 -144h-20l127 144h28z" />
    <glyph glyph-name="dotaccent.sc" horiz-adv-x="240" 
d="M194 633c-12 0 -21 7 -21 23c0 14 11 28 25 28c12 0 21 -8 21 -22c0 -16 -12 -29 -25 -29z" />
    <glyph glyph-name="exclamdown.sc" horiz-adv-x="250" 
d="M84 0l68 384h22l-68 -384h-22zM182 526c12 0 21 -7 21 -23c0 -15 -11 -28 -25 -28c-12 0 -21 8 -21 22c0 17 12 29 25 29z" />
    <glyph glyph-name="questiondown.sc" horiz-adv-x="420" 
d="M240 340l6 32h22l-7 -38c-8 -44 -24 -72 -69 -105l-30 -22c-38 -28 -66 -62 -66 -109c0 -60 41 -91 96 -91c63 0 108 40 128 99l20 -7c-24 -72 -81 -113 -149 -113c-62 0 -117 35 -117 111c0 56 32 95 88 134s69 61 78 109zM274 526c12 0 21 -7 21 -23
c0 -14 -11 -28 -25 -28c-12 0 -21 8 -21 22c0 16 12 29 25 29z" />
    <glyph glyph-name="Euro.sc" horiz-adv-x="453" 
d="M429 491c-24 15 -55 23 -89 23c-92 0 -173 -78 -210 -182h235l-9 -19h-232c-9 -28 -18 -68 -19 -103h209l-9 -19h-200c0 -107 59 -185 156 -185c43 0 80 11 110 33l8 -19c-30 -19 -67 -34 -118 -34c-119 0 -177 95 -177 205h-54l10 19h44c0 20 9 72 19 103h-55l9 19h51
c42 124 136 202 231 202c43 0 78 -10 101 -24z" />
    <glyph glyph-name="cent.sc" horiz-adv-x="453" 
d="M314 474l12 66h22l-12 -67c53 -3 106 -23 134 -59l-14 -15c-27 35 -77 54 -124 56l-78 -453c56 0 114 22 152 59l11 -15c-42 -41 -104 -64 -166 -64l-11 -54h-22l10 55c-122 10 -178 95 -178 201c0 149 111 286 264 290zM312 455c-139 -6 -240 -133 -240 -268
c0 -96 50 -174 160 -184z" />
    <glyph glyph-name="sterling.sc" horiz-adv-x="453" 
d="M179 280h124l-4 -19h-123l-42 -241h185l-3 -20h-284l4 20h76l42 241h-71l4 19h70l18 100c17 90 63 154 151 154c36 0 65 -12 83 -29l-13 -16c-14 14 -41 25 -70 25c-75 0 -115 -57 -130 -137z" />
    <glyph glyph-name="florin.sc" horiz-adv-x="453" 
d="M451 512l-12 -18c-13 11 -31 18 -51 18c-40 0 -74 -25 -96 -87l-54 -151h98l-4 -19h-100l-83 -231c-20 -55 -52 -110 -125 -110c-20 0 -43 5 -58 14l9 19c15 -9 34 -13 48 -13c66 0 91 50 114 114l73 207h-88l4 19h91l50 143c30 87 70 114 121 114c25 0 46 -7 63 -19z
" />
    <glyph glyph-name="yen.sc" horiz-adv-x="453" 
d="M224 255h-140l4 19h133l-122 246h24l116 -244l207 244h27l-214 -246h130l-4 -19h-140l-15 -91h139l-4 -19h-138l-26 -145h-21l25 145h-140l4 19h140z" />
    <glyph glyph-name="perthousand.sc" horiz-adv-x="948" 
d="M312 432c0 43 -26 83 -85 83c-65 0 -106 -58 -106 -119c0 -44 25 -82 83 -82c66 0 108 56 108 118zM100 395c0 73 50 139 128 139c71 0 105 -45 105 -101c0 -74 -49 -138 -130 -138c-68 0 -103 44 -103 100zM560 123c0 43 -26 83 -85 83c-65 0 -106 -58 -106 -119
c0 -44 25 -82 83 -82c66 0 108 56 108 118zM348 86c0 73 50 139 128 139c71 0 105 -45 105 -101c0 -74 -49 -138 -130 -138c-68 0 -103 44 -103 100zM847 123c0 43 -26 83 -85 83c-65 0 -106 -58 -106 -119c0 -44 25 -82 83 -82c66 0 108 56 108 118zM635 86
c0 73 50 139 128 139c71 0 105 -45 105 -101c0 -74 -49 -138 -130 -138c-68 0 -103 44 -103 100zM557 536l-429 -563l-17 11l431 564z" />
    <glyph glyph-name="zero.onum" horiz-adv-x="650" 
d="M573 303c0 116 -68 211 -209 211c-165 0 -275 -145 -275 -297c0 -116 69 -211 211 -211c164 0 273 143 273 297zM67 216c0 168 119 318 297 318c152 0 231 -99 231 -231c0 -167 -117 -317 -296 -317c-152 0 -232 98 -232 230z" />
    <glyph glyph-name="one.onum" 
d="M166 0h-22l87 492l-134 -93l-10 17l150 104h21z" />
    <glyph glyph-name="two.onum" horiz-adv-x="520" 
d="M404 0h-377l5 27l157 98c149 93 243 151 243 267c0 80 -64 122 -136 122s-129 -31 -166 -106l-20 7c37 76 97 119 186 119c90 0 158 -50 158 -142c0 -123 -92 -184 -256 -285l-136 -84v-3h346z" />
    <glyph glyph-name="three.onum" horiz-adv-x="520" 
d="M467 488c-80 -62 -208 -157 -311 -230l1 -3c22 6 36 8 56 8c110 0 202 -56 202 -188c0 -168 -140 -245 -280 -245c-31 0 -69 3 -98 10l5 22c29 -8 65 -12 93 -12c140 0 258 77 258 225c0 119 -85 168 -180 168c-31 0 -67 -5 -103 -17l-5 18c100 70 267 194 341 253v3
h-326l3 20h347z" />
    <glyph glyph-name="four.onum" horiz-adv-x="541" 
d="M438 534l-395 -502h294l52 293h22l-52 -293h122l-3 -20h-122l-32 -182h-22l32 182h-320l4 21l395 501h25z" />
    <glyph glyph-name="five.onum" horiz-adv-x="520" 
d="M230 231c-43 0 -91 -12 -124 -27l80 316h299l-4 -20h-279l-68 -267c25 10 65 18 96 18c106 0 195 -56 195 -180c0 -174 -142 -241 -275 -241c-35 0 -76 4 -106 11l5 22c29 -8 64 -13 102 -13c129 0 252 67 252 219c0 113 -81 162 -173 162z" />
    <glyph glyph-name="six.onum" horiz-adv-x="560" 
d="M85 174c0 -90 64 -167 167 -167c132 0 217 106 217 225c0 92 -62 166 -163 166c-128 0 -221 -105 -221 -224zM63 174c0 163 156 351 379 536l16 -14c-127 -100 -268 -245 -333 -365l2 -1c46 58 107 87 180 87c108 0 184 -72 184 -184c0 -131 -94 -245 -241 -245
c-109 0 -187 73 -187 186z" />
    <glyph glyph-name="seven.onum" horiz-adv-x="510" 
d="M483 500c-144 -223 -317 -507 -416 -684l-22 7c97 171 304 508 415 677h-367l4 20h390z" />
    <glyph glyph-name="eight.onum" horiz-adv-x="560" 
d="M487 218c0 -157 -125 -230 -239 -230c-94 0 -187 54 -187 170c0 112 77 200 191 223v2c-75 24 -101 84 -101 141c0 120 96 196 198 196c96 0 170 -53 170 -161c0 -97 -70 -162 -153 -180v-2c63 -19 121 -76 121 -159zM173 523c0 -77 53 -135 136 -135
c115 0 188 84 188 169c0 93 -63 143 -148 143c-102 0 -176 -84 -176 -177zM83 160c0 -90 71 -151 165 -151c128 0 218 89 218 208c0 84 -70 153 -163 153c-121 0 -220 -91 -220 -210z" />
    <glyph glyph-name="nine.onum" horiz-adv-x="560" 
d="M479 348c0 90 -64 167 -167 167c-132 0 -217 -106 -217 -225c0 -92 62 -166 163 -166c128 0 221 105 221 224zM501 348c0 -163 -156 -351 -379 -536l-16 14c127 100 268 245 333 365l-2 1c-46 -58 -107 -87 -180 -87c-108 0 -184 72 -184 184c0 131 94 245 241 245
c109 0 187 -73 187 -186z" />
    <glyph glyph-name="napostrophe.sc" horiz-adv-x="615" 
d="M479 0h-32l-248 495h-2l-87 -495h-22l92 520h30l249 -494h3l87 494h22zM119 520l-95 -188h-17l88 188h24z" />
    <glyph glyph-name="ordfeminine.sc" 
d="M335 430h-20l-13 76h-164l-49 -76h-23l189 293h27zM299 523l-33 186l-118 -186h151z" />
    <glyph glyph-name="fi.sc" horiz-adv-x="644" 
d="M430 500h-261l-39 -224h246l-3 -20h-246l-45 -256h-22l90 520h283zM508 0h-22l92 520h22z" />
    <glyph glyph-name="fl.sc" horiz-adv-x="806" 
d="M430 500h-261l-39 -224h246l-3 -20h-246l-45 -256h-22l90 520h283zM762 0h-276l92 520h22l-89 -500h255z" />
    </font>
</defs>
</svg>
