<?xml version="1.0" standalone="no"?>
<!DOCTYPE svg PUBLIC "-//W3C//DTD SVG 1.1//EN" "http://www.w3.org/Graphics/SVG/1.1/DTD/svg11.dtd" >
<svg>
<metadata>
Created by FontForge 20120731 at Thu Oct 23 09:24:50 2014
 By World Wide Web Server
Copyright (c) 2003 - 2012 Linotype GmbH, www.linotype.com. All rights reserved. This font software may not be reproduced, modified, disclosed or transferred without the express written approval of Linotype GmbH. Avenir is a trademark of Linotype GmbH registered in the U.S. Patent and Trademark Office and may be registered in certain other jurisdictions. This typeface is original artwork of Adrian Frutiger and Akira Kobayashi. The design may be protected in certain jurisdictions.
</metadata>
<defs>
<font id="AvenirNextCyr-DemiItalic" horiz-adv-x="260" >
  <font-face 
    font-family="Avenir Next Cyr"
    font-weight="700"
    font-style="italic"
    font-stretch="normal"
    units-per-em="1000"
    panose-1="2 11 7 3 2 2 2 9 2 4"
    ascent="756"
    descent="-244"
    x-height="480"
    cap-height="708"
    bbox="-266 -250 1183 956"
    underline-thickness="50"
    underline-position="125"
    slope="-12"
    stemh="96"
    stemv="125"
    unicode-range="U+000D-FB04"
  />
<missing-glyph horiz-adv-x="512" 
d="M278 117h-56v67h56v-67zM271 234h-46l-2 17c0 37 4 64 13 81s24 37 46 59c43 41 50 58 50 83c0 48 -35 85 -76 85s-74 -27 -82 -95l-50 8c9 95 63 137 135 137c71 0 124 -52 124 -131c0 -43 -12 -73 -63 -120c-25 -22 -39 -39 -43 -52s-6 -37 -6 -72zM50 50h412v617h-412
v-617zM0 718h512v-718h-512v718z" />
    <glyph glyph-name="napostrophe" unicode="&#x22;n" horiz-adv-x="619" 
d="M238 405h2c33 52 85 88 156 88c106 0 157 -68 157 -149c0 -15 -1 -30 -4 -45l-53 -299h-117l46 264c3 16 5 32 5 48c0 43 -19 81 -79 81c-76 0 -120 -65 -131 -129l-47 -264h-117l66 377c5 25 12 71 15 103h110c-1 -14 -6 -53 -9 -75zM249 708l-123 -195h-98l107 195h114
z" />
    <glyph glyph-name="fi" unicode="fi" horiz-adv-x="601" 
d="M472 0h-117l84 480h118zM596 645c0 -39 -31 -73 -71 -73c-38 0 -70 25 -70 69c0 42 35 73 73 73s68 -27 68 -69zM410 761l-25 -100c-12 4 -24 7 -41 7c-65 0 -86 -60 -95 -109l-14 -79h113l-17 -94h-111l-68 -386h-114l68 386h-91l16 94h89l14 73c20 106 72 215 217 215
c25 0 42 -2 59 -7z" />
    <glyph glyph-name="fl" unicode="fl" horiz-adv-x="600" 
d="M472 0h-117l133 756h117zM410 761l-25 -100c-12 4 -24 7 -41 7c-65 0 -86 -60 -95 -109l-14 -79h113l-17 -94h-111l-68 -386h-114l68 386h-91l16 94h89l14 73c20 106 72 215 217 215c25 0 42 -2 59 -7z" />
    <glyph glyph-name="f_f_l" unicode="ffl" horiz-adv-x="895" 
d="M715 761l-25 -100c-12 4 -24 7 -41 7c-65 0 -86 -60 -95 -109l-14 -79h113l-17 -94h-111l-68 -386h-114l68 386h-191l-68 -386h-114l68 386h-91l16 94h89l14 73c20 106 72 215 217 215c25 0 42 -2 59 -7l-25 -100c-12 4 -24 7 -41 7c-65 0 -86 -60 -95 -109l-14 -79h190
l14 73c20 106 72 215 217 215c25 0 42 -2 59 -7zM777 0h-117l133 756h118z" />
    <glyph glyph-name="f_f_i" unicode="ffi" horiz-adv-x="906" 
d="M715 761l-25 -100c-12 4 -24 7 -41 7c-65 0 -86 -60 -95 -109l-14 -79h113l-17 -94h-111l-68 -386h-114l68 386h-191l-68 -386h-114l68 386h-91l16 94h89l14 73c20 106 72 215 217 215c25 0 42 -2 59 -7l-25 -100c-12 4 -24 7 -41 7c-65 0 -86 -60 -95 -109l-14 -79h190
l14 73c20 106 72 215 217 215c25 0 42 -2 59 -7zM777 0h-117l84 480h118zM901 645c0 -39 -31 -73 -71 -73c-38 0 -70 25 -70 69c0 42 35 73 73 73s68 -27 68 -69z" />
    <glyph glyph-name="f_f" unicode="ff" horiz-adv-x="628" 
d="M715 761l-25 -100c-12 4 -24 7 -41 7c-65 0 -86 -60 -95 -109l-14 -79h113l-17 -94h-111l-68 -386h-114l68 386h-191l-68 -386h-114l68 386h-91l16 94h89l14 73c20 106 72 215 217 215c25 0 42 -2 59 -7l-25 -100c-12 4 -24 7 -41 7c-65 0 -86 -60 -95 -109l-14 -79h190
l14 73c20 106 72 215 217 215c25 0 42 -2 59 -7z" />
    <glyph glyph-name=".notdef" horiz-adv-x="512" 
d="M278 117h-56v67h56v-67zM271 234h-46l-2 17c0 37 4 64 13 81s24 37 46 59c43 41 50 58 50 83c0 48 -35 85 -76 85s-74 -27 -82 -95l-50 8c9 95 63 137 135 137c71 0 124 -52 124 -131c0 -43 -12 -73 -63 -120c-25 -22 -39 -39 -43 -52s-6 -37 -6 -72zM50 50h412v617h-412
v-617zM0 718h512v-718h-512v718z" />
    <glyph glyph-name=".null" horiz-adv-x="500" 
 />
    <glyph glyph-name=".null" horiz-adv-x="500" 
 />
    <glyph glyph-name="CR" unicode="&#xd;" horiz-adv-x="0" 
 />
    <glyph glyph-name="space" unicode=" " horiz-adv-x="250" 
 />
    <glyph glyph-name="exclam" unicode="!" horiz-adv-x="295" 
d="M191 221h-117l86 487h117zM186 72c0 -41 -33 -76 -74 -76c-40 0 -73 26 -73 72c0 44 36 76 76 76s71 -28 71 -72z" />
    <glyph glyph-name="quotedbl" unicode="&#x22;" horiz-adv-x="450" 
d="M377 445h-100l46 263h100zM201 445h-100l47 263h100z" />
    <glyph glyph-name="numbersign" unicode="#" horiz-adv-x="590" 
d="M563 416h-102l-39 -124h90l-14 -83h-100l-68 -209h-86l67 209h-105l-67 -209h-86l67 209h-91l15 83h101l40 124h-90l14 83h102l67 209h86l-66 -209h104l67 209h86l-67 -209h90zM376 416h-105l-39 -124h104z" />
    <glyph glyph-name="dollar" unicode="$" horiz-adv-x="610" 
d="M340 618c-60 -4 -106 -38 -106 -103c0 -44 24 -70 73 -87zM335 298l-38 -207c67 4 112 46 112 110c0 52 -28 78 -74 97zM358 720l13 72h50l-13 -73c77 -7 139 -35 173 -82l-89 -71c-22 29 -55 52 -101 53l-37 -207c114 -44 175 -95 175 -198c0 -122 -94 -213 -249 -224
l-13 -74h-50l13 74c-83 4 -167 38 -209 109l96 68c25 -43 78 -76 131 -76l39 225c-89 28 -169 80 -169 184c0 123 91 214 240 220z" />
    <glyph glyph-name="percent" unicode="%" horiz-adv-x="903" 
d="M233 354c-94 0 -162 67 -162 156c0 117 88 210 207 210c95 0 160 -65 160 -154c0 -119 -86 -212 -205 -212zM342 552c0 42 -28 79 -74 79c-60 0 -101 -47 -101 -109c0 -42 28 -79 73 -79c62 0 102 47 102 109zM642 -11c-94 0 -162 67 -162 156c0 117 88 210 207 210
c95 0 160 -65 160 -154c0 -119 -86 -212 -205 -212zM751 187c0 42 -28 79 -74 79c-60 0 -101 -47 -101 -109c0 -42 28 -79 73 -79c62 0 102 47 102 109zM764 701l-547 -734l-62 39l547 734z" />
    <glyph glyph-name="ampersand" unicode="&#x26;" horiz-adv-x="739" 
d="M399 170l-124 151c-70 -24 -127 -62 -127 -135c0 -57 49 -96 107 -96s103 30 144 80zM442 558c0 44 -27 73 -72 73c-53 0 -89 -39 -89 -91c0 -35 19 -77 40 -101c67 24 121 66 121 119zM375 366l94 -114l86 122h142l-158 -201l147 -173h-146l-70 89
c-77 -77 -149 -103 -225 -103c-127 0 -219 64 -219 190c0 113 85 184 190 223c-27 38 -45 85 -45 135c0 117 88 192 197 192c104 0 185 -60 185 -163c0 -89 -69 -149 -178 -197z" />
    <glyph glyph-name="quotesingle" unicode="'" horiz-adv-x="274" 
d="M201 445h-100l46 263h100z" />
    <glyph glyph-name="parenleft" unicode="(" horiz-adv-x="320" 
d="M191 -112l-90 -43c-50 92 -79 208 -79 330c0 188 74 380 235 557l73 -54c-140 -156 -206 -342 -206 -502c0 -100 24 -206 67 -288z" />
    <glyph glyph-name="parenright" unicode=")" horiz-adv-x="320" 
d="M122 690l90 43c50 -92 79 -208 79 -330c0 -188 -74 -380 -235 -557l-73 54c140 156 206 342 206 502c0 100 -24 206 -67 288z" />
    <glyph glyph-name="asterisk" unicode="*" horiz-adv-x="462" 
d="M312 708v-145l137 45l25 -75l-139 -45l87 -119l-65 -47l-87 120l-85 -117l-63 47l87 116l-140 48l25 75l139 -48v145h79z" />
    <glyph glyph-name="plus" unicode="+" horiz-adv-x="666" 
d="M62 354h220v220h102v-220h220v-102h-220v-220h-102v220h-220v102z" />
    <glyph glyph-name="comma" unicode="," 
d="M179 136l-131 -263h-99l116 263h114z" />
    <glyph glyph-name="hyphen" unicode="-" horiz-adv-x="320" 
d="M260 196h-239l18 100h239z" />
    <glyph glyph-name="period" unicode="." 
d="M159 72c0 -41 -33 -76 -74 -76c-40 0 -73 26 -73 72c0 44 36 76 76 76s71 -28 71 -72z" />
    <glyph glyph-name="slash" unicode="/" horiz-adv-x="388" 
d="M459 725l-448 -772l-76 30l448 773z" />
    <glyph glyph-name="zero" unicode="0" horiz-adv-x="610" 
d="M367 726c149 0 207 -112 207 -244c0 -204 -76 -500 -311 -500c-150 0 -211 107 -211 239c0 207 82 505 315 505zM357 627c-110 0 -184 -196 -184 -384c0 -88 25 -160 98 -160c106 0 180 195 180 384c0 88 -22 160 -94 160z" />
    <glyph glyph-name="one" unicode="1" horiz-adv-x="610" 
d="M343 0h-118l100 565l-160 -115l-56 90l245 168h114z" />
    <glyph glyph-name="two" unicode="2" horiz-adv-x="610" 
d="M191 108h312l-19 -108h-470l19 108l316 265c77 65 104 109 104 158c0 59 -37 95 -105 95c-63 0 -113 -41 -135 -113l-108 31c44 121 141 182 251 182c138 0 219 -78 219 -186c0 -107 -61 -166 -165 -252z" />
    <glyph glyph-name="three" unicode="3" horiz-adv-x="610" 
d="M265 416c115 0 163 49 163 125c0 49 -36 87 -96 87c-61 0 -99 -29 -127 -80l-88 53c48 85 130 125 225 125c111 0 203 -68 203 -181c0 -106 -72 -159 -143 -176v-2c70 -16 116 -77 116 -149c0 -149 -112 -236 -264 -236c-116 0 -198 58 -229 156l111 35
c15 -58 60 -89 125 -89c88 0 135 49 135 122c0 86 -75 116 -151 116h-30l16 94h34z" />
    <glyph glyph-name="four" unicode="4" horiz-adv-x="610" 
d="M536 148h-97l-25 -148h-114l25 148h-330l19 109l371 451h150l-81 -459h100zM341 249l60 334h-4l-263 -334h207z" />
    <glyph glyph-name="five" unicode="5" horiz-adv-x="610" 
d="M262 603l-34 -155c19 5 50 9 75 9c99 0 217 -57 217 -209c0 -180 -132 -266 -265 -266c-119 0 -207 63 -235 142l107 44c17 -50 63 -84 124 -84c95 0 148 65 148 151c0 88 -69 126 -140 126c-51 0 -111 -17 -159 -43l77 390h378l-21 -105h-272z" />
    <glyph glyph-name="six" unicode="6" horiz-adv-x="610" 
d="M140 197c0 -73 59 -116 122 -116c93 0 151 63 151 157c0 75 -57 117 -116 117c-97 0 -157 -69 -157 -158zM270 438c12 4 32 7 48 7c139 0 214 -93 214 -199c0 -142 -100 -264 -275 -264c-135 0 -236 82 -236 215c0 70 30 140 101 227l232 284h143l-228 -268z" />
    <glyph glyph-name="seven" unicode="7" horiz-adv-x="610" 
d="M582 600l-405 -600h-147l423 602h-340l18 106h470z" />
    <glyph glyph-name="eight" unicode="8" horiz-adv-x="610" 
d="M165 189c0 -76 55 -107 111 -107c92 0 142 58 142 134c0 66 -45 106 -109 106c-85 0 -144 -56 -144 -133zM425 367l2 -3c60 -20 105 -77 105 -148c0 -141 -112 -234 -264 -234c-97 0 -217 47 -217 195c0 108 79 186 168 203v3c-48 24 -84 72 -84 133
c0 143 115 210 233 210c100 0 199 -53 199 -174c0 -109 -74 -163 -142 -185zM245 513c0 -53 37 -88 93 -88c62 0 117 40 117 112c0 56 -41 88 -97 88c-69 0 -113 -48 -113 -112z" />
    <glyph glyph-name="nine" unicode="9" horiz-adv-x="610" 
d="M476 511c0 73 -59 116 -122 116c-93 0 -151 -63 -151 -157c0 -75 57 -117 116 -117c97 0 157 69 157 158zM346 270c-12 -4 -32 -7 -48 -7c-139 0 -214 93 -214 199c0 142 100 264 275 264c135 0 236 -82 236 -215c0 -70 -30 -140 -101 -227l-232 -284h-143l228 268z" />
    <glyph glyph-name="colon" unicode=":" horiz-adv-x="300" 
d="M182 72c0 -41 -33 -76 -74 -76c-40 0 -73 26 -73 72c0 44 36 76 76 76s71 -28 71 -72zM239 413c0 -41 -33 -76 -74 -76c-40 0 -73 26 -73 72c0 44 36 76 76 76s71 -28 71 -72z" />
    <glyph glyph-name="semicolon" unicode=";" horiz-adv-x="300" 
d="M198 136l-131 -263h-104l116 263h119zM239 413c0 -41 -33 -76 -74 -76c-40 0 -73 26 -73 72c0 44 36 76 76 76s71 -28 71 -72z" />
    <glyph glyph-name="less" unicode="&#x3c;" horiz-adv-x="666" 
d="M586 42l-506 225v72l506 225v-110l-338 -151l338 -151v-110z" />
    <glyph glyph-name="equal" unicode="=" horiz-adv-x="666" 
d="M80 444h506v-102h-506v102zM80 264h506v-102h-506v102z" />
    <glyph glyph-name="greater" unicode="&#x3e;" horiz-adv-x="666" 
d="M80 564l506 -225v-72l-506 -225v110l338 151l-338 151v110z" />
    <glyph glyph-name="question" unicode="?" horiz-adv-x="517" 
d="M402 355c-61 -43 -82 -62 -91 -121l-4 -26h-115l6 39c10 65 34 100 93 147l52 41c30 23 67 53 67 104c0 53 -30 80 -89 80c-65 0 -105 -50 -117 -105l-113 19c23 107 114 193 244 193c105 0 198 -46 198 -178c0 -82 -45 -133 -131 -193zM309 72c0 -41 -33 -76 -74 -76
c-40 0 -73 26 -73 72c0 44 36 76 76 76s71 -28 71 -72z" />
    <glyph glyph-name="at" unicode="@" horiz-adv-x="800" 
d="M545 160c-54 0 -82 29 -77 67h-4c-23 -33 -67 -67 -125 -67c-77 0 -125 44 -125 118c0 121 97 271 231 271c51 0 91 -24 96 -55h1l15 40h88l-73 -189c-7 -18 -21 -54 -21 -74c0 -23 5 -30 27 -30c68 0 123 96 123 205c0 127 -97 200 -234 200c-210 0 -336 -169 -336 -348
c0 -149 104 -236 264 -236c97 0 175 35 242 92l43 -59c-73 -72 -181 -113 -298 -113c-223 0 -349 127 -349 310c0 233 182 434 433 434c200 0 326 -104 326 -277c0 -171 -115 -289 -247 -289zM494 405c0 36 -12 63 -57 63c-59 0 -124 -89 -124 -168c0 -29 13 -58 55 -58
c70 0 126 94 126 163z" />
    <glyph glyph-name="A" unicode="A" horiz-adv-x="668" 
d="M623 0h-131l-29 163h-303l-101 -163h-146l462 708h107zM446 269l-47 297l-179 -297h226z" />
    <glyph glyph-name="B" unicode="B" horiz-adv-x="646" 
d="M396 708c98 0 206 -40 206 -155c0 -94 -63 -158 -156 -181v-2c77 -12 132 -68 132 -151c0 -144 -125 -219 -302 -219h-251l125 708h246zM365 606h-112l-34 -189h128c57 0 132 28 132 109c0 58 -49 80 -114 80zM334 314h-134l-36 -210h123c88 0 167 32 167 121
c0 55 -43 89 -120 89z" />
    <glyph glyph-name="C" unicode="C" horiz-adv-x="681" 
d="M566 181l79 -70c-56 -71 -148 -129 -281 -129c-189 0 -316 123 -316 304c0 245 182 440 417 440c104 0 198 -44 241 -108l-97 -73c-21 33 -71 75 -148 75c-168 0 -285 -158 -285 -318c0 -116 72 -212 203 -212c70 0 137 29 187 91z" />
    <glyph glyph-name="D" unicode="D" horiz-adv-x="757" 
d="M25 0l125 708h242c159 0 330 -84 330 -296c0 -249 -184 -412 -432 -412h-265zM253 603l-87 -495h129c197 0 299 140 299 288c0 113 -72 207 -232 207h-109z" />
    <glyph glyph-name="E" unicode="E" horiz-adv-x="584" 
d="M500 0h-475l125 708h446l-19 -108h-326l-32 -183h311l-19 -104h-310l-36 -203h354z" />
    <glyph glyph-name="F" unicode="F" horiz-adv-x="556" 
d="M569 600h-315l-35 -196h296l-18 -104h-296l-53 -300h-123l125 708h438z" />
    <glyph glyph-name="G" unicode="G" horiz-adv-x="740" 
d="M393 90c52 1 91 8 129 27l31 180h-152l20 107h271l-63 -366c-70 -35 -164 -56 -254 -56c-197 0 -327 123 -327 304c0 245 182 440 417 440c104 0 198 -35 251 -108l-97 -73c-31 42 -81 75 -158 75c-168 0 -285 -158 -285 -318c0 -123 80 -212 217 -212z" />
    <glyph glyph-name="H" unicode="H" horiz-adv-x="729" 
d="M596 0h-123l55 315h-324l-56 -315h-123l125 708h123l-51 -287h325l51 287h123z" />
    <glyph glyph-name="I" unicode="I" horiz-adv-x="291" 
d="M148 0h-123l125 708h123z" />
    <glyph glyph-name="J" unicode="J" horiz-adv-x="500" 
d="M411 228c-19 -109 -64 -246 -237 -246c-113 0 -186 63 -198 155l115 33c5 -44 35 -79 80 -79c78 0 103 60 117 141l84 476h124z" />
    <glyph glyph-name="K" unicode="K" horiz-adv-x="646" 
d="M612 0h-161l-239 356h-3l-62 -356h-122l125 708h122l-56 -314h3l319 314h166l-367 -334z" />
    <glyph glyph-name="L" unicode="L" horiz-adv-x="511" 
d="M451 0h-426l125 708h123l-106 -598h303z" />
    <glyph glyph-name="M" unicode="M" horiz-adv-x="920" 
d="M788 0h-122l102 571h-3l-319 -571h-86l-115 571h-2l-101 -571h-117l125 708h192l96 -507h2l277 507h195z" />
    <glyph glyph-name="N" unicode="N" horiz-adv-x="788" 
d="M632 0h-153l-232 550h-2l-97 -550h-123l125 708h160l228 -533h2l94 533h123z" />
    <glyph glyph-name="O" unicode="O" horiz-adv-x="829" 
d="M459 726c202 0 335 -117 335 -307c0 -241 -171 -437 -405 -437c-208 0 -341 117 -341 307c0 241 177 437 411 437zM389 90c178 0 278 158 278 318c0 116 -76 212 -214 212c-171 0 -278 -158 -278 -318c0 -116 76 -212 214 -212z" />
    <glyph glyph-name="P" unicode="P" horiz-adv-x="609" 
d="M363 708c155 0 241 -70 241 -186c0 -160 -121 -228 -298 -228h-107l-52 -294h-122l125 708h213zM311 398c100 0 169 27 169 111c0 75 -57 95 -136 95h-90l-37 -206h94z" />
    <glyph glyph-name="Q" unicode="Q" horiz-adv-x="819" 
d="M776 429c0 -198 -104 -286 -167 -327v-2h172l-18 -100h-390c-193 0 -325 115 -325 300c0 238 177 426 403 426c194 0 325 -113 325 -297zM650 416c0 114 -71 204 -200 204c-167 0 -276 -151 -276 -307c0 -113 73 -205 202 -205c161 0 274 150 274 308z" />
    <glyph glyph-name="R" unicode="R" horiz-adv-x="624" 
d="M418 316l147 -316h-139l-134 302h-94l-52 -302h-121l125 708h210c155 0 244 -69 244 -183c0 -113 -73 -184 -186 -209zM308 403c107 0 169 34 169 109c0 70 -53 92 -136 92h-89l-36 -201h92z" />
    <glyph glyph-name="S" unicode="S" horiz-adv-x="574" 
d="M561 634l-90 -72c-27 42 -73 62 -123 62c-51 0 -130 -29 -130 -109c0 -50 38 -75 98 -97c123 -45 193 -102 193 -210c0 -162 -141 -226 -274 -226c-93 0 -194 36 -244 115l100 69c26 -47 85 -80 150 -80c66 0 138 30 138 114c0 65 -59 95 -128 120
c-85 31 -158 76 -158 186c0 142 129 220 268 220c71 0 157 -31 200 -92z" />
    <glyph glyph-name="T" unicode="T" horiz-adv-x="533" 
d="M588 600h-208l-106 -600h-123l105 600h-210l19 108h542z" />
    <glyph glyph-name="U" unicode="U" horiz-adv-x="714" 
d="M633 260c-30 -168 -128 -278 -310 -278c-163 0 -263 86 -263 221c0 18 1 37 5 57l79 448h123l-78 -443c-3 -14 -4 -32 -4 -46c0 -68 39 -129 140 -129c130 0 170 92 185 175l78 443h124z" />
    <glyph glyph-name="V" unicode="V" horiz-adv-x="641" 
d="M727 708l-430 -708h-114l-115 708h130l71 -548h4l315 548h139z" />
    <glyph glyph-name="W" unicode="W" horiz-adv-x="985" 
d="M1055 708l-343 -708h-120l-65 535h-2l-268 -535h-120l-66 708h130l35 -524h2l256 524h128l55 -524h2l245 524h131z" />
    <glyph glyph-name="X" unicode="X" horiz-adv-x="631" 
d="M568 0h-140l-115 281l-232 -281h-154l332 378l-144 330h136l98 -248l202 248h148l-296 -340z" />
    <glyph glyph-name="Y" unicode="Y" horiz-adv-x="575" 
d="M685 708l-342 -401l-55 -307h-123l54 307l-177 401h138l118 -300l237 300h150z" />
    <glyph glyph-name="Z" unicode="Z" horiz-adv-x="588" 
d="M510 0h-550l19 111l466 489h-336l19 108h497l-20 -111l-463 -487h388z" />
    <glyph glyph-name="bracketleft" unicode="[" horiz-adv-x="320" 
d="M159 -156h-190l156 888h191l-14 -77h-90l-129 -734h90z" />
    <glyph glyph-name="backslash" unicode="\" horiz-adv-x="389" 
d="M3 726l83 32l312 -776l-83 -30z" />
    <glyph glyph-name="bracketright" unicode="]" horiz-adv-x="320" 
d="M187 -156h-190l13 77h90l130 734h-90l13 77h191z" />
    <glyph glyph-name="asciicircum" unicode="^" horiz-adv-x="666" 
d="M187 343h-118l223 365h82l223 -365h-118l-147 239z" />
    <glyph glyph-name="underscore" unicode="_" horiz-adv-x="500" 
d="M500 -75v-75h-500v75h500z" />
    <glyph glyph-name="grave" unicode="`" 
d="M147 708l99 -144h-90l-141 144h132z" />
    <glyph glyph-name="a" unicode="a" horiz-adv-x="539" 
d="M357 304c3 16 3 23 3 31c0 46 -31 65 -89 65c-47 0 -100 -20 -139 -48l-45 79c54 39 128 62 201 62c92 0 186 -36 186 -145c0 -12 -2 -32 -4 -45l-35 -195c-6 -37 -12 -82 -12 -108h-108c0 18 2 37 6 57h-2c-37 -44 -89 -67 -156 -67s-151 28 -151 127
c0 158 187 187 345 187zM346 220h-14c-90 0 -207 -10 -207 -84c0 -46 39 -60 78 -60c73 0 125 51 137 114z" />
    <glyph glyph-name="b" unicode="b" horiz-adv-x="638" 
d="M206 403h2c38 56 102 90 173 90c123 0 203 -84 203 -207c0 -165 -110 -298 -264 -298c-71 0 -140 33 -172 93h-2l-14 -81h-111l133 756h118zM464 272c0 70 -42 125 -118 125c-94 0 -168 -87 -168 -189c0 -73 48 -125 122 -125c99 0 164 84 164 189z" />
    <glyph glyph-name="c" unicode="c" horiz-adv-x="492" 
d="M497 412l-84 -68c-17 29 -57 53 -99 53c-99 0 -171 -87 -171 -187c0 -66 37 -126 122 -126c59 0 93 23 123 54l67 -68c-51 -50 -114 -83 -197 -83c-139 0 -231 84 -231 208c0 156 116 298 293 298c72 0 142 -25 177 -81z" />
    <glyph glyph-name="d" unicode="d" horiz-adv-x="634" 
d="M461 403l60 353h118l-134 -756h-111l12 76h-3c-38 -56 -102 -88 -173 -88c-123 0 -203 84 -203 207c0 165 110 298 264 298c87 0 140 -35 168 -90h2zM147 209c0 -70 42 -125 118 -125c94 0 168 87 168 189c0 73 -48 125 -122 125c-99 0 -164 -84 -164 -189z" />
    <glyph glyph-name="e" unicode="e" horiz-adv-x="564" 
d="M496 203h-356c-1 -5 -1 -8 -1 -11c0 -63 55 -110 126 -110c61 0 103 25 137 63l67 -63c-59 -64 -131 -96 -217 -96c-130 0 -225 78 -225 213c0 165 118 294 281 294c115 0 200 -65 200 -192c0 -21 -4 -65 -12 -98zM400 287c1 9 2 17 2 25c0 52 -39 93 -105 93
c-82 0 -135 -66 -146 -118h249z" />
    <glyph glyph-name="f" unicode="f" horiz-adv-x="323" 
d="M410 761l-25 -100c-12 4 -24 7 -41 7c-65 0 -86 -60 -95 -109l-14 -79h113l-17 -94h-111l-68 -386h-114l68 386h-91l16 94h89l14 73c20 106 72 215 217 215c25 0 42 -2 59 -7z" />
    <glyph glyph-name="g" unicode="g" horiz-adv-x="632" 
d="M463 407h3l12 73h112l-76 -439c-29 -169 -105 -281 -300 -281c-79 0 -178 30 -231 86l78 85c37 -44 95 -69 156 -69c117 0 159 70 179 166l8 38h-2c-34 -45 -94 -75 -165 -75c-123 0 -203 83 -203 206c0 164 110 296 264 296c87 0 140 -35 165 -86zM154 211
c0 -70 42 -125 118 -125c94 0 168 87 168 188c0 73 -48 125 -122 125c-99 0 -164 -84 -164 -188z" />
    <glyph glyph-name="h" unicode="h" horiz-adv-x="584" 
d="M461 0h-117l46 264c3 16 5 32 5 48c0 43 -19 81 -79 81c-76 0 -120 -65 -132 -132l-46 -261h-117l133 756h118l-61 -344h2c26 42 77 81 148 81c106 0 157 -68 157 -149c0 -15 -1 -30 -4 -45z" />
    <glyph glyph-name="i" unicode="i" horiz-adv-x="267" 
d="M138 0h-117l84 480h118zM262 645c0 -39 -31 -73 -71 -73c-38 0 -70 25 -70 69c0 42 35 73 73 73s68 -27 68 -69z" />
    <glyph glyph-name="j" unicode="j" horiz-adv-x="267" 
d="M133 -32c-20 -113 -61 -208 -202 -208c-20 0 -41 3 -53 6l23 100c10 -3 23 -4 32 -4c57 0 71 46 81 102l91 516h118zM262 645c0 -39 -31 -73 -71 -73c-38 0 -70 25 -70 69c0 42 35 73 73 73s68 -27 68 -69z" />
    <glyph glyph-name="k" unicode="k" horiz-adv-x="521" 
d="M481 0h-145l-151 246h-3l-44 -246h-117l133 756h118l-85 -479h3l217 203h154l-255 -223z" />
    <glyph glyph-name="l" unicode="l" horiz-adv-x="267" 
d="M138 0h-117l133 756h118z" />
    <glyph glyph-name="m" unicode="m" horiz-adv-x="894" 
d="M87 377c5 25 12 71 15 103h110c-1 -14 -6 -54 -9 -75h2c29 45 75 88 148 88c79 0 129 -40 144 -94c41 58 97 94 170 94c111 0 161 -68 161 -149c0 -15 -1 -30 -4 -45l-53 -299h-117l46 264c3 16 5 32 5 48c0 43 -19 82 -80 82c-75 0 -118 -70 -129 -132l-46 -262h-118
l51 290c2 10 3 19 3 27c0 45 -23 77 -74 77c-72 0 -116 -66 -127 -130l-47 -264h-117z" />
    <glyph glyph-name="n" unicode="n" horiz-adv-x="584" 
d="M203 405h2c33 52 85 88 156 88c106 0 157 -68 157 -149c0 -15 -1 -30 -4 -45l-53 -299h-117l46 264c3 16 5 32 5 48c0 43 -19 81 -79 81c-76 0 -120 -65 -131 -129l-47 -264h-117l66 377c5 25 12 71 15 103h110c-1 -14 -6 -53 -9 -75z" />
    <glyph glyph-name="o" unicode="o" horiz-adv-x="604" 
d="M259 -13c-134 0 -232 85 -232 209c0 157 114 297 290 297c135 0 233 -84 233 -208c0 -160 -114 -298 -291 -298zM432 273c0 71 -47 124 -123 124c-100 0 -166 -88 -166 -189c0 -72 45 -124 122 -124c101 0 167 87 167 189z" />
    <glyph glyph-name="p" unicode="p" horiz-adv-x="635" 
d="M147 76l-53 -316h-118l127 720h111l-12 -77h3c38 56 102 88 173 88c123 0 203 -84 203 -207c0 -165 -110 -298 -264 -298c-87 0 -140 35 -168 90h-2zM461 270c0 70 -42 125 -118 125c-94 0 -168 -87 -168 -189c0 -73 48 -125 122 -125c99 0 164 84 164 189z" />
    <glyph glyph-name="q" unicode="q" horiz-adv-x="632" 
d="M405 76h-2c-38 -56 -102 -88 -173 -88c-123 0 -203 84 -203 207c0 165 110 298 264 298c71 0 140 -35 172 -95h2l14 82h111l-126 -720h-118zM147 209c0 -70 42 -125 118 -125c94 0 168 87 168 189c0 73 -48 125 -122 125c-99 0 -164 -84 -164 -189z" />
    <glyph glyph-name="r" unicode="r" horiz-adv-x="339" 
d="M201 400h2c33 55 78 93 141 93c9 0 21 -1 29 -3l-16 -109c-15 4 -25 5 -36 5c-108 0 -135 -94 -141 -129l-45 -257h-117l67 377c5 25 12 71 15 103h110c-1 -14 -6 -58 -9 -80z" />
    <glyph glyph-name="s" unicode="s" horiz-adv-x="444" 
d="M-24 78l91 60c20 -39 62 -60 110 -60c54 0 90 23 90 60c0 34 -25 47 -82 65c-91 29 -136 59 -136 132c0 93 90 158 209 158c74 0 139 -27 173 -83l-91 -54c-17 27 -43 47 -91 47c-41 0 -85 -14 -85 -57c0 -30 27 -42 77 -56c89 -25 141 -64 141 -144
c0 -106 -97 -164 -208 -164c-103 0 -165 42 -198 96z" />
    <glyph glyph-name="t" unicode="t" horiz-adv-x="340" 
d="M104 385h-85l17 95h83l24 140h116l-24 -140h108l-17 -95h-106l-42 -226c-2 -10 -3 -20 -3 -28c0 -35 23 -46 57 -46c16 0 32 3 45 7l-7 -89c-20 -8 -50 -13 -73 -13c-101 0 -140 45 -140 111c0 18 2 42 6 61z" />
    <glyph glyph-name="u" unicode="u" horiz-adv-x="584" 
d="M350 75h-2c-33 -52 -85 -88 -156 -88c-106 0 -157 68 -157 149c0 15 1 30 4 45l53 299h117l-46 -264c-3 -16 -5 -32 -5 -48c0 -43 19 -81 79 -81c76 0 120 65 131 129l47 264h117l-66 -377c-5 -25 -12 -71 -15 -103h-110c1 14 6 53 9 75z" />
    <glyph glyph-name="v" unicode="v" horiz-adv-x="502" 
d="M534 480l-285 -480h-126l-94 480h123l56 -352h2l200 352h124z" />
    <glyph glyph-name="w" unicode="w" horiz-adv-x="785" 
d="M820 480l-261 -480h-120l-43 339h-2l-179 -339h-120l-66 480h123l33 -345h2l172 345h123l39 -345h2l174 345h123z" />
    <glyph glyph-name="x" unicode="x" horiz-adv-x="513" 
d="M451 0h-133l-89 172l-153 -172h-149l247 255l-129 225h129l78 -150l133 150h144l-220 -231z" />
    <glyph glyph-name="y" unicode="y" horiz-adv-x="506" 
d="M543 480l-340 -584c-49 -86 -91 -136 -184 -136c-20 0 -41 2 -61 7l15 102c15 -5 31 -7 44 -7c44 0 63 25 92 75l36 62l-108 481h126l62 -352h2l192 352h124z" />
    <glyph glyph-name="z" unicode="z" horiz-adv-x="480" 
d="M392 0h-412l18 103l313 283h-244l16 94h387l-18 -103l-311 -281h268z" />
    <glyph glyph-name="braceleft" unicode="{" horiz-adv-x="320" 
d="M187 -156h-72c-59 0 -107 32 -107 101c0 10 1 20 3 31l34 190c11 63 -27 79 -56 79l15 86c30 0 73 15 83 72l34 197c16 91 84 132 151 132h72l-14 -83h-55c-40 0 -51 -31 -56 -61l-33 -187c-14 -79 -85 -108 -117 -112v-2c28 -3 80 -19 80 -89c0 -9 -1 -19 -3 -29
l-32 -181c-5 -30 -6 -61 33 -61h55z" />
    <glyph glyph-name="bar" unicode="|" horiz-adv-x="222" 
d="M60 750h102v-1000h-102v1000z" />
    <glyph glyph-name="braceright" unicode="}" horiz-adv-x="320" 
d="M308 245c-29 0 -72 -16 -83 -79l-34 -190c-16 -91 -84 -132 -150 -132h-73l15 83h55c39 0 50 31 55 61l32 181c17 94 86 115 118 118l1 2c-31 4 -92 33 -78 112l33 187c5 30 6 61 -34 61h-54l14 83h73c58 0 106 -32 106 -101c0 -10 -1 -20 -3 -31l-34 -197
c-11 -57 27 -72 56 -72z" />
    <glyph glyph-name="asciitilde" unicode="~" horiz-adv-x="666" 
d="M345 354c56 -36 66 -37 94 -37c32 0 57 23 78 63l77 -65c-47 -77 -100 -102 -153 -102c-43 0 -77 12 -121 40c-53 33 -72 36 -93 36c-28 0 -53 -16 -78 -63l-77 65c49 81 101 103 153 103c49 0 79 -13 120 -40z" />
    <glyph glyph-name="uni00A0" unicode="&#xa0;" horiz-adv-x="250" 
 />
    <glyph glyph-name="Agrave" unicode="&#xc0;" horiz-adv-x="668" 
d="M623 0h-131l-29 163h-303l-101 -163h-146l462 708h107zM446 269l-47 297l-179 -297h226zM375 908l99 -144h-90l-141 144h132z" />
    <glyph glyph-name="Aacute" unicode="&#xc1;" horiz-adv-x="668" 
d="M623 0h-131l-29 163h-303l-101 -163h-146l462 708h107zM446 269l-47 297l-179 -297h226zM650 908l-165 -144h-93l125 144h133z" />
    <glyph glyph-name="Acircumflex" unicode="&#xc2;" horiz-adv-x="668" 
d="M623 0h-131l-29 163h-303l-101 -163h-146l462 708h107zM446 269l-47 297l-179 -297h226zM615 764h-108l-54 91l-86 -91h-112l140 144h132z" />
    <glyph glyph-name="Atilde" unicode="&#xc3;" horiz-adv-x="668" 
d="M623 0h-131l-29 163h-303l-101 -163h-146l462 708h107zM446 269l-47 297l-179 -297h226zM317 768h-66c22 64 60 125 135 125c27 0 53 -7 75 -18c23 -11 44 -19 62 -19c27 0 43 22 53 44h66c-22 -64 -59 -125 -134 -125c-25 0 -48 7 -69 17c-25 12 -48 21 -68 21
c-27 0 -43 -23 -54 -45z" />
    <glyph glyph-name="Adieresis" unicode="&#xc4;" horiz-adv-x="668" 
d="M623 0h-131l-29 163h-303l-101 -163h-146l462 708h107zM446 269l-47 297l-179 -297h226zM416 846c0 -39 -29 -71 -69 -71c-38 0 -68 24 -68 67c0 42 33 71 71 71s66 -25 66 -67zM614 846c0 -39 -29 -71 -69 -71c-38 0 -68 24 -68 67c0 42 33 71 71 71s66 -25 66 -67z" />
    <glyph glyph-name="Amacron" unicode="&#x100;" horiz-adv-x="668" 
d="M623 0h-131l-29 163h-303l-101 -163h-146l462 708h107zM446 269l-47 297l-179 -297h226zM600 795h-317l13 77h318z" />
    <glyph glyph-name="Abreve" unicode="&#x102;" horiz-adv-x="668" 
d="M623 0h-131l-29 163h-303l-101 -163h-146l462 708h107zM446 269l-47 297l-179 -297h226zM615 908c-24 -97 -93 -143 -187 -143s-151 44 -151 143h66c0 -50 41 -67 92 -67c56 0 96 11 115 67h65z" />
    <glyph glyph-name="Aring" unicode="&#xc5;" horiz-adv-x="668" 
d="M623 0h-131l-29 163h-303l-101 -163h-146l462 708h107zM446 269l-47 297l-179 -297h226zM437 753c-53 0 -90 37 -90 86c0 65 48 117 115 117c53 0 89 -36 89 -85c0 -67 -48 -118 -114 -118zM502 862c0 26 -17 50 -45 50c-36 0 -61 -29 -61 -67c0 -26 16 -48 44 -48
c37 0 62 28 62 65z" />
    <glyph glyph-name="Aogonek" unicode="&#x104;" horiz-adv-x="668" 
d="M567 -195c-32 -22 -66 -38 -106 -38c-53 0 -87 26 -87 80c0 59 63 115 118 153l-29 163h-303l-101 -163h-146l462 708h107l141 -708h-70c-46 -37 -98 -86 -98 -133c0 -25 15 -35 40 -35c20 0 40 9 56 21zM446 269l-47 297l-179 -297h226z" />
    <glyph glyph-name="AE" unicode="&#xc6;" horiz-adv-x="1033" 
d="M1045 708l-19 -108h-326l-32 -183h311l-19 -104h-310l-36 -203h354l-19 -110h-474l32 187h-255l-142 -187h-142l553 708h524zM525 289l55 311h-15l-235 -311h195z" />
    <glyph glyph-name="Cacute" unicode="&#x106;" horiz-adv-x="681" 
d="M566 181l79 -70c-56 -71 -148 -129 -281 -129c-189 0 -316 123 -316 304c0 245 182 440 417 440c104 0 198 -44 241 -108l-97 -73c-21 33 -71 75 -148 75c-168 0 -285 -158 -285 -318c0 -116 72 -212 203 -212c70 0 137 29 187 91zM648 908l-165 -144h-93l125 144h133z
" />
    <glyph glyph-name="Ccircumflex" unicode="&#x108;" horiz-adv-x="681" 
d="M566 181l79 -70c-56 -71 -148 -129 -281 -129c-189 0 -316 123 -316 304c0 245 182 440 417 440c104 0 198 -44 241 -108l-97 -73c-21 33 -71 75 -148 75c-168 0 -285 -158 -285 -318c0 -116 72 -212 203 -212c70 0 137 29 187 91zM663 764h-108l-54 91l-86 -91h-112
l140 144h132z" />
    <glyph glyph-name="Ccaron" unicode="&#x10c;" horiz-adv-x="681" 
d="M566 181l79 -70c-56 -71 -148 -129 -281 -129c-189 0 -316 123 -316 304c0 245 182 440 417 440c104 0 198 -44 241 -108l-97 -73c-21 33 -71 75 -148 75c-168 0 -285 -158 -285 -318c0 -116 72 -212 203 -212c70 0 137 29 187 91zM689 908l-140 -144h-131l-88 144h109
l53 -91l86 91h111z" />
    <glyph glyph-name="Cdotaccent" unicode="&#x10a;" horiz-adv-x="681" 
d="M566 181l79 -70c-56 -71 -148 -129 -281 -129c-189 0 -316 123 -316 304c0 245 182 440 417 440c104 0 198 -44 241 -108l-97 -73c-21 33 -71 75 -148 75c-168 0 -285 -158 -285 -318c0 -116 72 -212 203 -212c70 0 137 29 187 91zM568 845c0 -39 -31 -73 -71 -73
c-38 0 -70 25 -70 69c0 42 35 73 73 73s68 -27 68 -69z" />
    <glyph glyph-name="Ccedilla" unicode="&#xc7;" horiz-adv-x="681" 
d="M448 -138c0 -78 -84 -102 -144 -102c-39 0 -83 11 -109 26l27 48c23 -13 51 -20 78 -20c24 0 65 6 65 41c0 30 -25 36 -47 36c-11 0 -27 -2 -40 -6l-18 25l64 74c-167 16 -276 134 -276 302c0 245 182 440 417 440c104 0 198 -44 241 -108l-97 -73c-21 33 -71 75 -148 75
c-168 0 -285 -158 -285 -318c0 -116 72 -212 203 -212c70 0 137 29 187 91l79 -70c-54 -68 -141 -124 -266 -128l-41 -48c9 2 15 2 20 2c37 0 90 -18 90 -75z" />
    <glyph glyph-name="Dcaron" unicode="&#x10e;" horiz-adv-x="757" 
d="M25 0l125 708h242c159 0 330 -84 330 -296c0 -249 -184 -412 -432 -412h-265zM253 603l-87 -495h129c197 0 299 140 299 288c0 113 -72 207 -232 207h-109zM617 908l-140 -144h-131l-88 144h109l53 -91l86 91h111z" />
    <glyph glyph-name="Dcroat" unicode="&#x110;" horiz-adv-x="757" 
d="M82 325h-64l15 83h64l53 300h242c159 0 330 -84 330 -296c0 -249 -184 -412 -432 -412h-265zM219 408h210l-15 -83h-210l-38 -217h129c197 0 299 140 299 288c0 113 -72 207 -232 207h-109z" />
    <glyph glyph-name="Eth" unicode="&#xd0;" horiz-adv-x="757" 
d="M82 325h-64l15 83h64l53 300h242c159 0 330 -84 330 -296c0 -249 -184 -412 -432 -412h-265zM219 408h210l-15 -83h-210l-38 -217h129c197 0 299 140 299 288c0 113 -72 207 -232 207h-109z" />
    <glyph glyph-name="Egrave" unicode="&#xc8;" horiz-adv-x="584" 
d="M500 0h-475l125 708h446l-19 -108h-326l-32 -183h311l-19 -104h-310l-36 -203h354zM361 908l99 -144h-90l-141 144h132z" />
    <glyph glyph-name="Eacute" unicode="&#xc9;" horiz-adv-x="584" 
d="M500 0h-475l125 708h446l-19 -108h-326l-32 -183h311l-19 -104h-310l-36 -203h354zM574 908l-165 -144h-93l125 144h133z" />
    <glyph glyph-name="Ecircumflex" unicode="&#xca;" horiz-adv-x="584" 
d="M500 0h-475l125 708h446l-19 -108h-326l-32 -183h311l-19 -104h-310l-36 -203h354zM564 764h-108l-54 91l-86 -91h-112l140 144h132z" />
    <glyph glyph-name="Ecaron" unicode="&#x11a;" horiz-adv-x="584" 
d="M500 0h-475l125 708h446l-19 -108h-326l-32 -183h311l-19 -104h-310l-36 -203h354zM583 908l-140 -144h-131l-88 144h109l53 -91l86 91h111z" />
    <glyph glyph-name="Edieresis" unicode="&#xcb;" horiz-adv-x="584" 
d="M500 0h-475l125 708h446l-19 -108h-326l-32 -183h311l-19 -104h-310l-36 -203h354zM360 846c0 -39 -29 -71 -69 -71c-38 0 -68 24 -68 67c0 42 33 71 71 71s66 -25 66 -67zM558 846c0 -39 -29 -71 -69 -71c-38 0 -68 24 -68 67c0 42 33 71 71 71s66 -25 66 -67z" />
    <glyph glyph-name="Emacron" unicode="&#x112;" horiz-adv-x="584" 
d="M500 0h-475l125 708h446l-19 -108h-326l-32 -183h311l-19 -104h-310l-36 -203h354zM539 795h-317l13 77h318z" />
    <glyph glyph-name="Ebreve" unicode="&#x114;" horiz-adv-x="584" 
d="M500 0h-475l125 708h446l-19 -108h-326l-32 -183h311l-19 -104h-310l-36 -203h354zM563 908c-24 -97 -93 -143 -187 -143s-151 44 -151 143h66c0 -50 41 -67 92 -67c56 0 96 11 115 67h65z" />
    <glyph glyph-name="Edotaccent" unicode="&#x116;" horiz-adv-x="584" 
d="M500 0h-475l125 708h446l-19 -108h-326l-32 -183h311l-19 -104h-310l-36 -203h354zM468 845c0 -39 -31 -73 -71 -73c-38 0 -70 25 -70 69c0 42 35 73 73 73s68 -27 68 -69z" />
    <glyph glyph-name="Eogonek" unicode="&#x118;" horiz-adv-x="584" 
d="M483 -195c-32 -22 -66 -38 -106 -38c-53 0 -87 26 -87 80c0 59 63 114 117 153h-382l125 708h446l-19 -108h-326l-32 -183h311l-19 -104h-310l-36 -203h354l-19 -110h-31c-46 -37 -98 -86 -98 -133c0 -25 15 -35 40 -35c20 0 40 9 56 21z" />
    <glyph glyph-name="Gcircumflex" unicode="&#x11c;" horiz-adv-x="740" 
d="M393 90c52 1 91 8 129 27l31 180h-152l20 107h271l-63 -366c-70 -35 -164 -56 -254 -56c-197 0 -327 123 -327 304c0 245 182 440 417 440c104 0 198 -35 251 -108l-97 -73c-31 42 -81 75 -158 75c-168 0 -285 -158 -285 -318c0 -123 80 -212 217 -212zM658 764h-108
l-54 91l-86 -91h-112l140 144h132z" />
    <glyph glyph-name="Gbreve" unicode="&#x11e;" horiz-adv-x="740" 
d="M393 90c52 1 91 8 129 27l31 180h-152l20 107h271l-63 -366c-70 -35 -164 -56 -254 -56c-197 0 -327 123 -327 304c0 245 182 440 417 440c104 0 198 -35 251 -108l-97 -73c-31 42 -81 75 -158 75c-168 0 -285 -158 -285 -318c0 -123 80 -212 217 -212zM671 908
c-24 -97 -93 -143 -187 -143s-151 44 -151 143h66c0 -50 41 -67 92 -67c56 0 96 11 115 67h65z" />
    <glyph glyph-name="Gdotaccent" unicode="&#x120;" horiz-adv-x="740" 
d="M393 90c52 1 91 8 129 27l31 180h-152l20 107h271l-63 -366c-70 -35 -164 -56 -254 -56c-197 0 -327 123 -327 304c0 245 182 440 417 440c104 0 198 -35 251 -108l-97 -73c-31 42 -81 75 -158 75c-168 0 -285 -158 -285 -318c0 -123 80 -212 217 -212zM557 845
c0 -39 -31 -73 -71 -73c-38 0 -70 25 -70 69c0 42 35 73 73 73s68 -27 68 -69z" />
    <glyph glyph-name="Gcommaaccent" unicode="&#x122;" horiz-adv-x="740" 
d="M393 90c52 1 91 8 129 27l31 180h-152l20 107h271l-63 -366c-70 -35 -164 -56 -254 -56c-197 0 -327 123 -327 304c0 245 182 440 417 440c104 0 198 -35 251 -108l-97 -73c-31 42 -81 75 -158 75c-168 0 -285 -158 -285 -318c0 -123 80 -212 217 -212zM405 -45
l-123 -195h-98l107 195h114z" />
    <glyph glyph-name="Hcircumflex" unicode="&#x124;" horiz-adv-x="729" 
d="M596 0h-123l55 315h-324l-56 -315h-123l125 708h123l-51 -287h325l51 287h123zM619 764h-108l-54 91l-86 -91h-112l140 144h132z" />
    <glyph glyph-name="Hbar" unicode="&#x126;" horiz-adv-x="729" 
d="M596 0h-123l55 315h-324l-56 -315h-123l125 708h123l-24 -133h325l24 133h123zM222 421h325l14 79h-325z" />
    <glyph glyph-name="Igrave" unicode="&#xcc;" horiz-adv-x="291" 
d="M148 0h-123l125 708h123zM178 908l99 -144h-90l-141 144h132z" />
    <glyph glyph-name="Iacute" unicode="&#xcd;" horiz-adv-x="291" 
d="M148 0h-123l125 708h123zM415 908l-165 -144h-93l125 144h133z" />
    <glyph glyph-name="Icircumflex" unicode="&#xce;" horiz-adv-x="291" 
d="M148 0h-123l125 708h123zM400 764h-108l-54 91l-86 -91h-112l140 144h132z" />
    <glyph glyph-name="Itilde" unicode="&#x128;" horiz-adv-x="291" 
d="M148 0h-123l125 708h123zM100 768h-66c22 64 60 125 135 125c27 0 53 -7 75 -18c23 -11 44 -19 62 -19c27 0 43 22 53 44h66c-22 -64 -59 -125 -134 -125c-25 0 -48 7 -69 17c-25 12 -48 21 -68 21c-27 0 -43 -23 -54 -45z" />
    <glyph glyph-name="Idieresis" unicode="&#xcf;" horiz-adv-x="291" 
d="M148 0h-123l125 708h123zM201 846c0 -39 -29 -71 -69 -71c-38 0 -68 24 -68 67c0 42 33 71 71 71s66 -25 66 -67zM399 846c0 -39 -29 -71 -69 -71c-38 0 -68 24 -68 67c0 42 33 71 71 71s66 -25 66 -67z" />
    <glyph glyph-name="Imacron" unicode="&#x12a;" horiz-adv-x="291" 
d="M148 0h-123l125 708h123zM381 795h-317l13 77h318z" />
    <glyph glyph-name="Idotaccent" unicode="&#x130;" horiz-adv-x="291" 
d="M148 0h-123l125 708h123zM300 845c0 -39 -31 -73 -71 -73c-38 0 -70 25 -70 69c0 42 35 73 73 73s68 -27 68 -69z" />
    <glyph glyph-name="Ibreve" unicode="&#x12c;" horiz-adv-x="291" 
d="M148 0h-123l125 708h123zM416 908c-24 -97 -93 -143 -187 -143s-151 44 -151 143h66c0 -50 41 -67 92 -67c56 0 96 11 115 67h65z" />
    <glyph glyph-name="Iogonek" unicode="&#x12e;" horiz-adv-x="281" 
d="M153 -195c-32 -22 -66 -38 -106 -38c-53 0 -87 26 -87 80c0 59 63 114 117 153h-52l125 708h123l-125 -708h-9c-46 -37 -98 -86 -98 -133c0 -25 15 -35 40 -35c20 0 40 9 56 21z" />
    <glyph glyph-name="Jcircumflex" unicode="&#x134;" horiz-adv-x="500" 
d="M411 228c-19 -109 -64 -246 -237 -246c-113 0 -186 63 -198 155l115 33c5 -44 35 -79 80 -79c78 0 103 60 117 141l84 476h124zM620 764h-108l-54 91l-86 -91h-112l140 144h132z" />
    <glyph glyph-name="Kcommaaccent" unicode="&#x136;" horiz-adv-x="646" 
d="M612 0h-161l-239 356h-3l-62 -356h-122l125 708h122l-56 -314h3l319 314h166l-367 -334zM346 -45l-123 -195h-98l107 195h114z" />
    <glyph glyph-name="Lacute" unicode="&#x139;" horiz-adv-x="511" 
d="M451 0h-426l125 708h123l-106 -598h303zM426 908l-165 -144h-93l125 144h133z" />
    <glyph glyph-name="Lcaron" unicode="&#x13d;" horiz-adv-x="511" 
d="M451 0h-426l125 708h123l-106 -598h303zM524 708l-123 -195h-98l107 195h114z" />
    <glyph glyph-name="Lcommaaccent" unicode="&#x13b;" horiz-adv-x="511" 
d="M451 0h-426l125 708h123l-106 -598h303zM289 -45l-123 -195h-98l107 195h114z" />
    <glyph glyph-name="Lslash" unicode="&#x141;" horiz-adv-x="518" 
d="M451 0h-426l36 203l-82 -62l19 108l82 62l70 397h123l-53 -302l238 181l-19 -107l-238 -182l-34 -188h303z" />
    <glyph glyph-name="Ldot" unicode="&#x13f;" horiz-adv-x="511" 
d="M451 0h-426l125 708h123l-106 -598h303zM444 425c0 -39 -31 -73 -71 -73c-38 0 -70 25 -70 69c0 42 35 73 73 73s68 -27 68 -69z" />
    <glyph glyph-name="Nacute" unicode="&#x143;" horiz-adv-x="788" 
d="M632 0h-153l-232 550h-2l-97 -550h-123l125 708h160l228 -533h2l94 533h123zM643 908l-165 -144h-93l125 144h133z" />
    <glyph glyph-name="Ncaron" unicode="&#x147;" horiz-adv-x="788" 
d="M632 0h-153l-232 550h-2l-97 -550h-123l125 708h160l228 -533h2l94 533h123zM660 908l-140 -144h-131l-88 144h109l53 -91l86 91h111z" />
    <glyph glyph-name="Ntilde" unicode="&#xd1;" horiz-adv-x="788" 
d="M632 0h-153l-232 550h-2l-97 -550h-123l125 708h160l228 -533h2l94 533h123zM345 768h-66c22 64 60 125 135 125c27 0 53 -7 75 -18c23 -11 44 -19 62 -19c27 0 43 22 53 44h66c-22 -64 -59 -125 -134 -125c-25 0 -48 7 -69 17c-25 12 -48 21 -68 21
c-27 0 -43 -23 -54 -45z" />
    <glyph glyph-name="Ncommaaccent" unicode="&#x145;" horiz-adv-x="788" 
d="M632 0h-153l-232 550h-2l-97 -550h-123l125 708h160l228 -533h2l94 533h123zM380 -45l-123 -195h-98l107 195h114z" />
    <glyph glyph-name="Eng" unicode="&#x14a;" horiz-adv-x="788" 
d="M25 0l125 708h160l233 -501h2l89 501h123l-130 -740c-20 -113 -61 -208 -202 -208c-20 0 -41 3 -53 6l23 100c10 -3 23 -4 32 -4c57 0 71 46 81 102l4 26l-265 560h-2l-97 -550h-123z" />
    <glyph glyph-name="Ograve" unicode="&#xd2;" horiz-adv-x="829" 
d="M459 726c202 0 335 -117 335 -307c0 -241 -171 -437 -405 -437c-208 0 -341 117 -341 307c0 241 177 437 411 437zM389 90c178 0 278 158 278 318c0 116 -76 212 -214 212c-171 0 -278 -158 -278 -318c0 -116 76 -212 214 -212zM478 908l99 -144h-90l-141 144h132z" />
    <glyph glyph-name="Oacute" unicode="&#xd3;" horiz-adv-x="829" 
d="M459 726c202 0 335 -117 335 -307c0 -241 -171 -437 -405 -437c-208 0 -341 117 -341 307c0 241 177 437 411 437zM389 90c178 0 278 158 278 318c0 116 -76 212 -214 212c-171 0 -278 -158 -278 -318c0 -116 76 -212 214 -212zM654 908l-165 -144h-93l125 144h133z" />
    <glyph glyph-name="Ocircumflex" unicode="&#xd4;" horiz-adv-x="829" 
d="M459 726c202 0 335 -117 335 -307c0 -241 -171 -437 -405 -437c-208 0 -341 117 -341 307c0 241 177 437 411 437zM389 90c178 0 278 158 278 318c0 116 -76 212 -214 212c-171 0 -278 -158 -278 -318c0 -116 76 -212 214 -212zM681 764h-108l-54 91l-86 -91h-112
l140 144h132z" />
    <glyph glyph-name="Otilde" unicode="&#xd5;" horiz-adv-x="829" 
d="M459 726c202 0 335 -117 335 -307c0 -241 -171 -437 -405 -437c-208 0 -341 117 -341 307c0 241 177 437 411 437zM389 90c178 0 278 158 278 318c0 116 -76 212 -214 212c-171 0 -278 -158 -278 -318c0 -116 76 -212 214 -212zM369 768h-66c22 64 60 125 135 125
c27 0 53 -7 75 -18c23 -11 44 -19 62 -19c27 0 43 22 53 44h66c-22 -64 -59 -125 -134 -125c-25 0 -48 7 -69 17c-25 12 -48 21 -68 21c-27 0 -43 -23 -54 -45z" />
    <glyph glyph-name="Odieresis" unicode="&#xd6;" horiz-adv-x="829" 
d="M459 726c202 0 335 -117 335 -307c0 -241 -171 -437 -405 -437c-208 0 -341 117 -341 307c0 241 177 437 411 437zM389 90c178 0 278 158 278 318c0 116 -76 212 -214 212c-171 0 -278 -158 -278 -318c0 -116 76 -212 214 -212zM470 846c0 -39 -29 -71 -69 -71
c-38 0 -68 24 -68 67c0 42 33 71 71 71s66 -25 66 -67zM668 846c0 -39 -29 -71 -69 -71c-38 0 -68 24 -68 67c0 42 33 71 71 71s66 -25 66 -67z" />
    <glyph glyph-name="Omacron" unicode="&#x14c;" horiz-adv-x="829" 
d="M459 726c202 0 335 -117 335 -307c0 -241 -171 -437 -405 -437c-208 0 -341 117 -341 307c0 241 177 437 411 437zM389 90c178 0 278 158 278 318c0 116 -76 212 -214 212c-171 0 -278 -158 -278 -318c0 -116 76 -212 214 -212zM652 795h-317l13 77h318z" />
    <glyph glyph-name="Obreve" unicode="&#x14e;" horiz-adv-x="829" 
d="M459 726c202 0 335 -117 335 -307c0 -241 -171 -437 -405 -437c-208 0 -341 117 -341 307c0 241 177 437 411 437zM389 90c178 0 278 158 278 318c0 116 -76 212 -214 212c-171 0 -278 -158 -278 -318c0 -116 76 -212 214 -212zM670 908c-24 -97 -93 -143 -187 -143
s-151 44 -151 143h66c0 -50 41 -67 92 -67c56 0 96 11 115 67h65z" />
    <glyph glyph-name="Ohungarumlaut" unicode="&#x150;" horiz-adv-x="829" 
d="M459 726c202 0 335 -117 335 -307c0 -241 -171 -437 -405 -437c-208 0 -341 117 -341 307c0 241 177 437 411 437zM389 90c178 0 278 158 278 318c0 116 -76 212 -214 212c-171 0 -278 -158 -278 -318c0 -116 76 -212 214 -212zM798 908l-166 -144h-93l125 144h134z
M593 908l-166 -144h-92l124 144h134z" />
    <glyph glyph-name="Oslash" unicode="&#xd8;" horiz-adv-x="829" 
d="M688 656l95 88l42 -43l-95 -87c41 -50 64 -116 64 -195c0 -241 -171 -437 -405 -437c-105 0 -192 31 -252 86l-95 -86l-42 43l97 89c-32 47 -49 106 -49 175c0 241 177 437 411 437c92 0 170 -25 229 -70zM640 528l-413 -378c36 -40 90 -64 161 -64
c181 0 282 161 282 323c0 44 -10 84 -30 119zM602 575c-37 31 -86 50 -148 50c-175 0 -284 -162 -284 -325c0 -36 7 -71 21 -100z" />
    <glyph glyph-name="OE" unicode="&#x152;" horiz-adv-x="1006" 
d="M467 108l87 495h-79c-197 0 -299 -140 -299 -288c0 -113 72 -207 232 -207h59zM480 708h538l-19 -108h-326l-32 -183h311l-19 -104h-310l-36 -203h354l-19 -110h-544c-159 0 -330 84 -330 296c0 249 184 412 432 412z" />
    <glyph glyph-name="Racute" unicode="&#x154;" horiz-adv-x="624" 
d="M418 316l147 -316h-139l-134 302h-94l-52 -302h-121l125 708h210c155 0 244 -69 244 -183c0 -113 -73 -184 -186 -209zM308 403c107 0 169 34 169 109c0 70 -53 92 -136 92h-89l-36 -201h92zM552 908l-165 -144h-93l125 144h133z" />
    <glyph glyph-name="Rcaron" unicode="&#x158;" horiz-adv-x="624" 
d="M418 316l147 -316h-139l-134 302h-94l-52 -302h-121l125 708h210c155 0 244 -69 244 -183c0 -113 -73 -184 -186 -209zM308 403c107 0 169 34 169 109c0 70 -53 92 -136 92h-89l-36 -201h92zM568 908l-140 -144h-131l-88 144h109l53 -91l86 91h111z" />
    <glyph glyph-name="Rcommaaccent" unicode="&#x156;" horiz-adv-x="624" 
d="M418 316l147 -316h-139l-134 302h-94l-52 -302h-121l125 708h210c155 0 244 -69 244 -183c0 -113 -73 -184 -186 -209zM308 403c107 0 169 34 169 109c0 70 -53 92 -136 92h-89l-36 -201h92zM324 -45l-123 -195h-98l107 195h114z" />
    <glyph glyph-name="Sacute" unicode="&#x15a;" horiz-adv-x="574" 
d="M561 634l-90 -72c-27 42 -73 62 -123 62c-51 0 -130 -29 -130 -109c0 -50 38 -75 98 -97c123 -45 193 -102 193 -210c0 -162 -141 -226 -274 -226c-93 0 -194 36 -244 115l100 69c26 -47 85 -80 150 -80c66 0 138 30 138 114c0 65 -59 95 -128 120
c-85 31 -158 76 -158 186c0 142 129 220 268 220c71 0 157 -31 200 -92zM554 908l-165 -144h-93l125 144h133z" />
    <glyph glyph-name="Scircumflex" unicode="&#x15c;" horiz-adv-x="574" 
d="M561 634l-90 -72c-27 42 -73 62 -123 62c-51 0 -130 -29 -130 -109c0 -50 38 -75 98 -97c123 -45 193 -102 193 -210c0 -162 -141 -226 -274 -226c-93 0 -194 36 -244 115l100 69c26 -47 85 -80 150 -80c66 0 138 30 138 114c0 65 -59 95 -128 120
c-85 31 -158 76 -158 186c0 142 129 220 268 220c71 0 157 -31 200 -92zM562 785h-108l-54 91l-86 -91h-112l140 144h132z" />
    <glyph glyph-name="Scaron" unicode="&#x160;" horiz-adv-x="574" 
d="M561 634l-90 -72c-27 42 -73 62 -123 62c-51 0 -130 -29 -130 -109c0 -50 38 -75 98 -97c123 -45 193 -102 193 -210c0 -162 -141 -226 -274 -226c-93 0 -194 36 -244 115l100 69c26 -47 85 -80 150 -80c66 0 138 30 138 114c0 65 -59 95 -128 120
c-85 31 -158 76 -158 186c0 142 129 220 268 220c71 0 157 -31 200 -92zM567 908l-140 -144h-131l-88 144h109l53 -91l86 91h111z" />
    <glyph glyph-name="Scedilla" unicode="&#x15e;" horiz-adv-x="574" 
d="M337 -138c0 -78 -84 -102 -144 -102c-39 0 -83 11 -109 26l27 48c23 -13 51 -20 78 -20c24 0 65 6 65 41c0 30 -25 36 -47 36c-11 0 -27 -2 -40 -6l-18 25l63 73c-86 5 -175 41 -221 114l100 69c26 -47 85 -80 150 -80c66 0 138 30 138 114c0 65 -59 95 -128 120
c-85 31 -158 76 -158 186c0 142 129 220 268 220c71 0 157 -31 200 -92l-90 -72c-27 42 -73 62 -123 62c-51 0 -130 -29 -130 -109c0 -50 38 -75 98 -97c123 -45 193 -102 193 -210c0 -148 -118 -214 -240 -224l-42 -49c9 2 15 2 20 2c37 0 90 -18 90 -75z" />
    <glyph glyph-name="Scommaaccent" unicode="&#x218;" horiz-adv-x="574" 
d="M561 634l-90 -72c-27 42 -73 62 -123 62c-51 0 -130 -29 -130 -109c0 -50 38 -75 98 -97c123 -45 193 -102 193 -210c0 -162 -141 -226 -274 -226c-93 0 -194 36 -244 115l100 69c26 -47 85 -80 150 -80c66 0 138 30 138 114c0 65 -59 95 -128 120
c-85 31 -158 76 -158 186c0 142 129 220 268 220c71 0 157 -31 200 -92zM289 -45l-123 -195h-98l107 195h114z" />
    <glyph glyph-name="Tcaron" unicode="&#x164;" horiz-adv-x="533" 
d="M588 600h-208l-106 -600h-123l105 600h-210l19 108h542zM546 908l-140 -144h-131l-88 144h109l53 -91l86 91h111z" />
    <glyph glyph-name="uni0162" unicode="&#x162;" horiz-adv-x="533" 
d="M588 600h-208l-106 -600h-123l105 600h-210l19 108h542zM270 -45l-123 -195h-98l107 195h114z" />
    <glyph glyph-name="uni021A" unicode="&#x21a;" horiz-adv-x="533" 
d="M588 600h-208l-106 -600h-123l105 600h-210l19 108h542zM270 -45l-123 -195h-98l107 195h114z" />
    <glyph glyph-name="Tbar" unicode="&#x166;" horiz-adv-x="533" 
d="M520 507l-14 -75h-156l-76 -432h-123l75 432h-154l14 75h153l17 93h-210l19 108h542l-19 -108h-208l-17 -93h157z" />
    <glyph glyph-name="Thorn" unicode="&#xde;" horiz-adv-x="609" 
d="M339 570c155 0 241 -70 241 -186c0 -151 -121 -227 -298 -227h-107l-28 -157h-122l125 708h122l-24 -138h91zM287 261c107 0 169 35 169 111c0 71 -53 94 -136 94h-90l-37 -205h94z" />
    <glyph glyph-name="Ugrave" unicode="&#xd9;" horiz-adv-x="714" 
d="M633 260c-30 -168 -128 -278 -310 -278c-163 0 -263 86 -263 221c0 18 1 37 5 57l79 448h123l-78 -443c-3 -14 -4 -32 -4 -46c0 -68 39 -129 140 -129c130 0 170 92 185 175l78 443h124zM397 908l99 -144h-90l-141 144h132z" />
    <glyph glyph-name="Uacute" unicode="&#xda;" horiz-adv-x="714" 
d="M633 260c-30 -168 -128 -278 -310 -278c-163 0 -263 86 -263 221c0 18 1 37 5 57l79 448h123l-78 -443c-3 -14 -4 -32 -4 -46c0 -68 39 -129 140 -129c130 0 170 92 185 175l78 443h124zM620 908l-165 -144h-93l125 144h133z" />
    <glyph glyph-name="Ucircumflex" unicode="&#xdb;" horiz-adv-x="714" 
d="M633 260c-30 -168 -128 -278 -310 -278c-163 0 -263 86 -263 221c0 18 1 37 5 57l79 448h123l-78 -443c-3 -14 -4 -32 -4 -46c0 -68 39 -129 140 -129c130 0 170 92 185 175l78 443h124zM614 764h-108l-54 91l-86 -91h-112l140 144h132z" />
    <glyph glyph-name="Utilde" unicode="&#x168;" horiz-adv-x="714" 
d="M633 260c-30 -168 -128 -278 -310 -278c-163 0 -263 86 -263 221c0 18 1 37 5 57l79 448h123l-78 -443c-3 -14 -4 -32 -4 -46c0 -68 39 -129 140 -129c130 0 170 92 185 175l78 443h124zM319 768h-66c22 64 60 125 135 125c27 0 53 -7 75 -18c23 -11 44 -19 62 -19
c27 0 43 22 53 44h66c-22 -64 -59 -125 -134 -125c-25 0 -48 7 -69 17c-25 12 -48 21 -68 21c-27 0 -43 -23 -54 -45z" />
    <glyph glyph-name="Udieresis" unicode="&#xdc;" horiz-adv-x="714" 
d="M633 260c-30 -168 -128 -278 -310 -278c-163 0 -263 86 -263 221c0 18 1 37 5 57l79 448h123l-78 -443c-3 -14 -4 -32 -4 -46c0 -68 39 -129 140 -129c130 0 170 92 185 175l78 443h124zM411 846c0 -39 -29 -71 -69 -71c-38 0 -68 24 -68 67c0 42 33 71 71 71
s66 -25 66 -67zM609 846c0 -39 -29 -71 -69 -71c-38 0 -68 24 -68 67c0 42 33 71 71 71s66 -25 66 -67z" />
    <glyph glyph-name="Umacron" unicode="&#x16a;" horiz-adv-x="714" 
d="M633 260c-30 -168 -128 -278 -310 -278c-163 0 -263 86 -263 221c0 18 1 37 5 57l79 448h123l-78 -443c-3 -14 -4 -32 -4 -46c0 -68 39 -129 140 -129c130 0 170 92 185 175l78 443h124zM597 795h-317l13 77h318z" />
    <glyph glyph-name="Ubreve" unicode="&#x16c;" horiz-adv-x="714" 
d="M633 260c-30 -168 -128 -278 -310 -278c-163 0 -263 86 -263 221c0 18 1 37 5 57l79 448h123l-78 -443c-3 -14 -4 -32 -4 -46c0 -68 39 -129 140 -129c130 0 170 92 185 175l78 443h124zM619 908c-24 -97 -93 -143 -187 -143s-151 44 -151 143h66c0 -50 41 -67 92 -67
c56 0 96 11 115 67h65z" />
    <glyph glyph-name="Uring" unicode="&#x16e;" horiz-adv-x="714" 
d="M633 260c-30 -168 -128 -278 -310 -278c-163 0 -263 86 -263 221c0 18 1 37 5 57l79 448h123l-78 -443c-3 -14 -4 -32 -4 -46c0 -68 39 -129 140 -129c130 0 170 92 185 175l78 443h124zM437 753c-53 0 -90 37 -90 86c0 65 48 117 115 117c53 0 89 -36 89 -85
c0 -67 -48 -118 -114 -118zM502 862c0 26 -17 50 -45 50c-36 0 -61 -29 -61 -67c0 -26 16 -48 44 -48c37 0 62 28 62 65z" />
    <glyph glyph-name="Uhungarumlaut" unicode="&#x170;" horiz-adv-x="714" 
d="M633 260c-30 -168 -128 -278 -310 -278c-163 0 -263 86 -263 221c0 18 1 37 5 57l79 448h123l-78 -443c-3 -14 -4 -32 -4 -46c0 -68 39 -129 140 -129c130 0 170 92 185 175l78 443h124zM745 908l-166 -144h-93l125 144h134zM540 908l-166 -144h-92l124 144h134z" />
    <glyph glyph-name="Uogonek" unicode="&#x172;" horiz-adv-x="714" 
d="M403 -195c-32 -22 -66 -38 -106 -38c-53 0 -87 26 -87 80c0 51 46 99 94 136c-152 6 -244 90 -244 220c0 18 1 37 5 57l79 448h123l-78 -443c-3 -14 -4 -32 -4 -46c0 -68 39 -129 140 -129c130 0 170 92 185 175l78 443h124l-79 -448c-28 -153 -111 -258 -263 -275
c-40 -35 -79 -78 -79 -118c0 -25 15 -35 40 -35c20 0 40 9 56 21z" />
    <glyph glyph-name="Wcircumflex" unicode="&#x174;" horiz-adv-x="985" 
d="M1055 708l-343 -708h-120l-65 535h-2l-268 -535h-120l-66 708h130l35 -524h2l256 524h128l55 -524h2l245 524h131zM744 764h-108l-54 91l-86 -91h-112l140 144h132z" />
    <glyph glyph-name="Wacute" unicode="&#x1e82;" horiz-adv-x="985" 
d="M1055 708l-343 -708h-120l-65 535h-2l-268 -535h-120l-66 708h130l35 -524h2l256 524h128l55 -524h2l245 524h131zM775 908l-165 -144h-93l125 144h133z" />
    <glyph glyph-name="Wdieresis" unicode="&#x1e84;" horiz-adv-x="985" 
d="M1055 708l-343 -708h-120l-65 535h-2l-268 -535h-120l-66 708h130l35 -524h2l256 524h128l55 -524h2l245 524h131zM550 846c0 -39 -29 -71 -69 -71c-38 0 -68 24 -68 67c0 42 33 71 71 71s66 -25 66 -67zM748 846c0 -39 -29 -71 -69 -71c-38 0 -68 24 -68 67
c0 42 33 71 71 71s66 -25 66 -67z" />
    <glyph glyph-name="Wgrave" unicode="&#x1e80;" horiz-adv-x="985" 
d="M1055 708l-343 -708h-120l-65 535h-2l-268 -535h-120l-66 708h130l35 -524h2l256 524h128l55 -524h2l245 524h131zM520 908l99 -144h-90l-141 144h132z" />
    <glyph glyph-name="Yacute" unicode="&#xdd;" horiz-adv-x="575" 
d="M685 708l-342 -401l-55 -307h-123l54 307l-177 401h138l118 -300l237 300h150zM566 908l-165 -144h-93l125 144h133z" />
    <glyph glyph-name="Ycircumflex" unicode="&#x176;" horiz-adv-x="575" 
d="M685 708l-342 -401l-55 -307h-123l54 307l-177 401h138l118 -300l237 300h150zM539 764h-108l-54 91l-86 -91h-112l140 144h132z" />
    <glyph glyph-name="Ydieresis" unicode="&#x178;" horiz-adv-x="575" 
d="M685 708l-342 -401l-55 -307h-123l54 307l-177 401h138l118 -300l237 300h150zM338 846c0 -39 -29 -71 -69 -71c-38 0 -68 24 -68 67c0 42 33 71 71 71s66 -25 66 -67zM536 846c0 -39 -29 -71 -69 -71c-38 0 -68 24 -68 67c0 42 33 71 71 71s66 -25 66 -67z" />
    <glyph glyph-name="Ygrave" unicode="&#x1ef2;" horiz-adv-x="575" 
d="M685 708l-342 -401l-55 -307h-123l54 307l-177 401h138l118 -300l237 300h150zM326 908l99 -144h-90l-141 144h132z" />
    <glyph glyph-name="Zacute" unicode="&#x179;" horiz-adv-x="588" 
d="M510 0h-550l19 111l466 489h-336l19 108h497l-20 -111l-463 -487h388zM569 908l-165 -144h-93l125 144h133z" />
    <glyph glyph-name="Zcaron" unicode="&#x17d;" horiz-adv-x="588" 
d="M510 0h-550l19 111l466 489h-336l19 108h497l-20 -111l-463 -487h388zM583 908l-140 -144h-131l-88 144h109l53 -91l86 91h111z" />
    <glyph glyph-name="Zdotaccent" unicode="&#x17b;" horiz-adv-x="588" 
d="M510 0h-550l19 111l466 489h-336l19 108h497l-20 -111l-463 -487h388zM469 845c0 -39 -31 -73 -71 -73c-38 0 -70 25 -70 69c0 42 35 73 73 73s68 -27 68 -69z" />
    <glyph glyph-name="agrave" unicode="&#xe0;" horiz-adv-x="539" 
d="M357 304c3 16 3 23 3 31c0 46 -31 65 -89 65c-47 0 -100 -20 -139 -48l-45 79c54 39 128 62 201 62c92 0 186 -36 186 -145c0 -12 -2 -32 -4 -45l-35 -195c-6 -37 -12 -82 -12 -108h-108c0 18 2 37 6 57h-2c-37 -44 -89 -67 -156 -67s-151 28 -151 127
c0 158 187 187 345 187zM346 220h-14c-90 0 -207 -10 -207 -84c0 -46 39 -60 78 -60c73 0 125 51 137 114zM256 708l99 -144h-90l-141 144h132z" />
    <glyph glyph-name="aacute" unicode="&#xe1;" horiz-adv-x="539" 
d="M357 304c3 16 3 23 3 31c0 46 -31 65 -89 65c-47 0 -100 -20 -139 -48l-45 79c54 39 128 62 201 62c92 0 186 -36 186 -145c0 -12 -2 -32 -4 -45l-35 -195c-6 -37 -12 -82 -12 -108h-108c0 18 2 37 6 57h-2c-37 -44 -89 -67 -156 -67s-151 28 -151 127
c0 158 187 187 345 187zM346 220h-14c-90 0 -207 -10 -207 -84c0 -46 39 -60 78 -60c73 0 125 51 137 114zM504 708l-165 -144h-93l125 144h133z" />
    <glyph glyph-name="acircumflex" unicode="&#xe2;" horiz-adv-x="539" 
d="M357 304c3 16 3 23 3 31c0 46 -31 65 -89 65c-47 0 -100 -20 -139 -48l-45 79c54 39 128 62 201 62c92 0 186 -36 186 -145c0 -12 -2 -32 -4 -45l-35 -195c-6 -37 -12 -82 -12 -108h-108c0 18 2 37 6 57h-2c-37 -44 -89 -67 -156 -67s-151 28 -151 127
c0 158 187 187 345 187zM346 220h-14c-90 0 -207 -10 -207 -84c0 -46 39 -60 78 -60c73 0 125 51 137 114zM489 564h-108l-54 91l-86 -91h-112l140 144h132z" />
    <glyph glyph-name="atilde" unicode="&#xe3;" horiz-adv-x="539" 
d="M357 304c3 16 3 23 3 31c0 46 -31 65 -89 65c-47 0 -100 -20 -139 -48l-45 79c54 39 128 62 201 62c92 0 186 -36 186 -145c0 -12 -2 -32 -4 -45l-35 -195c-6 -37 -12 -82 -12 -108h-108c0 18 2 37 6 57h-2c-37 -44 -89 -67 -156 -67s-151 28 -151 127
c0 158 187 187 345 187zM346 220h-14c-90 0 -207 -10 -207 -84c0 -46 39 -60 78 -60c73 0 125 51 137 114zM184 568h-66c22 64 60 125 135 125c27 0 53 -7 75 -18c23 -11 44 -19 62 -19c27 0 43 22 53 44h66c-22 -64 -59 -125 -134 -125c-25 0 -48 7 -69 17
c-25 12 -48 21 -68 21c-27 0 -43 -23 -54 -45z" />
    <glyph glyph-name="adieresis" unicode="&#xe4;" horiz-adv-x="539" 
d="M357 304c3 16 3 23 3 31c0 46 -31 65 -89 65c-47 0 -100 -20 -139 -48l-45 79c54 39 128 62 201 62c92 0 186 -36 186 -145c0 -12 -2 -32 -4 -45l-35 -195c-6 -37 -12 -82 -12 -108h-108c0 18 2 37 6 57h-2c-37 -44 -89 -67 -156 -67s-151 28 -151 127
c0 158 187 187 345 187zM346 220h-14c-90 0 -207 -10 -207 -84c0 -46 39 -60 78 -60c73 0 125 51 137 114zM284 646c0 -39 -29 -71 -69 -71c-38 0 -68 24 -68 67c0 42 33 71 71 71s66 -25 66 -67zM482 646c0 -39 -29 -71 -69 -71c-38 0 -68 24 -68 67c0 42 33 71 71 71
s66 -25 66 -67z" />
    <glyph glyph-name="amacron" unicode="&#x101;" horiz-adv-x="539" 
d="M357 304c3 16 3 23 3 31c0 46 -31 65 -89 65c-47 0 -100 -20 -139 -48l-45 79c54 39 128 62 201 62c92 0 186 -36 186 -145c0 -12 -2 -32 -4 -45l-35 -195c-6 -37 -12 -82 -12 -108h-108c0 18 2 37 6 57h-2c-37 -44 -89 -67 -156 -67s-151 28 -151 127
c0 158 187 187 345 187zM346 220h-14c-90 0 -207 -10 -207 -84c0 -46 39 -60 78 -60c73 0 125 51 137 114zM467 595h-317l13 77h318z" />
    <glyph glyph-name="abreve" unicode="&#x103;" horiz-adv-x="539" 
d="M357 304c3 16 3 23 3 31c0 46 -31 65 -89 65c-47 0 -100 -20 -139 -48l-45 79c54 39 128 62 201 62c92 0 186 -36 186 -145c0 -12 -2 -32 -4 -45l-35 -195c-6 -37 -12 -82 -12 -108h-108c0 18 2 37 6 57h-2c-37 -44 -89 -67 -156 -67s-151 28 -151 127
c0 158 187 187 345 187zM346 220h-14c-90 0 -207 -10 -207 -84c0 -46 39 -60 78 -60c73 0 125 51 137 114zM485 708c-24 -97 -93 -143 -187 -143s-151 44 -151 143h66c0 -50 41 -67 92 -67c56 0 96 11 115 67h65z" />
    <glyph glyph-name="aring" unicode="&#xe5;" horiz-adv-x="539" 
d="M357 304c3 16 3 23 3 31c0 46 -31 65 -89 65c-47 0 -100 -20 -139 -48l-45 79c54 39 128 62 201 62c92 0 186 -36 186 -145c0 -12 -2 -32 -4 -45l-35 -195c-6 -37 -12 -82 -12 -108h-108c0 18 2 37 6 57h-2c-37 -44 -89 -67 -156 -67s-151 28 -151 127
c0 158 187 187 345 187zM346 220h-14c-90 0 -207 -10 -207 -84c0 -46 39 -60 78 -60c73 0 125 51 137 114zM304 553c-53 0 -90 37 -90 86c0 65 48 117 115 117c53 0 89 -36 89 -85c0 -67 -48 -118 -114 -118zM369 662c0 26 -17 50 -45 50c-36 0 -61 -29 -61 -67
c0 -26 16 -48 44 -48c37 0 62 28 62 65z" />
    <glyph glyph-name="aogonek" unicode="&#x105;" horiz-adv-x="539" 
d="M387 -195c-32 -22 -66 -38 -106 -38c-53 0 -87 26 -87 80c0 60 66 117 121 155c0 18 2 36 6 55h-2c-37 -44 -89 -67 -156 -67s-151 28 -151 127c0 158 187 187 345 187c3 16 3 23 3 31c0 46 -31 65 -89 65c-47 0 -100 -20 -139 -48l-45 79c54 39 128 62 201 62
c92 0 186 -36 186 -145c0 -12 -2 -32 -4 -45l-35 -195c-6 -37 -12 -82 -12 -108h-50c-46 -37 -98 -86 -98 -133c0 -25 15 -35 40 -35c20 0 40 9 56 21zM346 220h-14c-90 0 -207 -10 -207 -84c0 -46 39 -60 78 -60c73 0 125 51 137 114z" />
    <glyph glyph-name="ae" unicode="&#xe6;" horiz-adv-x="885" 
d="M629 493c115 0 200 -65 200 -192c0 -21 -4 -65 -12 -98h-356c-1 -5 -1 -8 -1 -11c0 -63 55 -110 126 -110c61 0 103 25 137 63l67 -63c-59 -64 -131 -96 -217 -96s-158 34 -187 99c-29 -45 -89 -95 -203 -95c-70 0 -171 26 -171 130c0 155 184 167 352 167
c4 16 6 38 6 46c0 51 -39 67 -89 67c-47 0 -100 -20 -139 -48l-45 79c54 39 128 62 201 62c90 0 135 -31 152 -82c35 44 95 82 179 82zM348 186l3 17h-33c-114 0 -192 -12 -192 -68c0 -44 38 -58 80 -58c83 0 130 41 142 109zM721 287c1 9 2 17 2 25c0 52 -39 93 -105 93
c-82 0 -135 -66 -146 -118h249z" />
    <glyph glyph-name="cacute" unicode="&#x107;" horiz-adv-x="492" 
d="M497 412l-84 -68c-17 29 -57 53 -99 53c-99 0 -171 -87 -171 -187c0 -66 37 -126 122 -126c59 0 93 23 123 54l67 -68c-51 -50 -114 -83 -197 -83c-139 0 -231 84 -231 208c0 156 116 298 293 298c72 0 142 -25 177 -81zM518 708l-165 -144h-93l125 144h133z" />
    <glyph glyph-name="ccircumflex" unicode="&#x109;" horiz-adv-x="492" 
d="M497 412l-84 -68c-17 29 -57 53 -99 53c-99 0 -171 -87 -171 -187c0 -66 37 -126 122 -126c59 0 93 23 123 54l67 -68c-51 -50 -114 -83 -197 -83c-139 0 -231 84 -231 208c0 156 116 298 293 298c72 0 142 -25 177 -81zM514 564h-108l-54 91l-86 -91h-112l140 144h132z
" />
    <glyph glyph-name="ccaron" unicode="&#x10d;" horiz-adv-x="492" 
d="M497 412l-84 -68c-17 29 -57 53 -99 53c-99 0 -171 -87 -171 -187c0 -66 37 -126 122 -126c59 0 93 23 123 54l67 -68c-51 -50 -114 -83 -197 -83c-139 0 -231 84 -231 208c0 156 116 298 293 298c72 0 142 -25 177 -81zM532 708l-140 -144h-131l-88 144h109l53 -91
l86 91h111z" />
    <glyph glyph-name="cdotaccent" unicode="&#x10b;" horiz-adv-x="492" 
d="M497 412l-84 -68c-17 29 -57 53 -99 53c-99 0 -171 -87 -171 -187c0 -66 37 -126 122 -126c59 0 93 23 123 54l67 -68c-51 -50 -114 -83 -197 -83c-139 0 -231 84 -231 208c0 156 116 298 293 298c72 0 142 -25 177 -81zM425 645c0 -39 -31 -73 -71 -73
c-38 0 -70 25 -70 69c0 42 35 73 73 73s68 -27 68 -69z" />
    <glyph glyph-name="ccedilla" unicode="&#xe7;" horiz-adv-x="492" 
d="M354 -138c0 -78 -84 -102 -144 -102c-39 0 -83 11 -109 26l27 48c23 -13 51 -20 78 -20c24 0 65 6 65 41c0 30 -25 36 -47 36c-11 0 -27 -2 -40 -6l-18 25l67 78c-125 10 -206 90 -206 207c0 156 116 298 293 298c72 0 142 -25 177 -81l-84 -68c-17 29 -57 53 -99 53
c-99 0 -171 -87 -171 -187c0 -66 37 -126 122 -126c59 0 93 23 123 54l67 -68c-44 -43 -97 -73 -164 -81l-47 -54c9 2 15 2 20 2c37 0 90 -18 90 -75z" />
    <glyph glyph-name="dcaron" unicode="&#x10f;" horiz-adv-x="720" 
d="M461 403l60 353h118l-134 -756h-111l12 76h-3c-38 -56 -102 -88 -173 -88c-123 0 -203 84 -203 207c0 165 110 298 264 298c87 0 140 -35 168 -90h2zM147 209c0 -70 42 -125 118 -125c94 0 168 87 168 189c0 73 -48 125 -122 125c-99 0 -164 -84 -164 -189zM845 708
l-123 -195h-98l107 195h114z" />
    <glyph glyph-name="dcroat" unicode="&#x111;" horiz-adv-x="634" 
d="M685 645l-14 -75h-65l-101 -570h-111l12 76h-3c-38 -56 -102 -88 -173 -88c-123 0 -203 84 -203 207c0 165 110 298 264 298c87 0 140 -35 168 -90h2l28 167h-162l14 75h161l19 111h118l-20 -111h66zM147 209c0 -70 42 -125 118 -125c94 0 168 87 168 189
c0 73 -48 125 -122 125c-99 0 -164 -84 -164 -189z" />
    <glyph glyph-name="eth" unicode="&#xf0;" horiz-adv-x="604" 
d="M553 312c0 -160 -89 -325 -294 -325c-134 0 -232 85 -232 209c0 150 106 297 282 297c47 0 92 -12 114 -33l2 2c-21 48 -53 107 -98 151l-117 -51l-49 56l119 51c-16 20 -43 44 -67 65l96 52c31 -27 61 -59 74 -74l122 53l53 -55l-126 -54c71 -86 121 -204 121 -344z
M432 273c0 71 -47 124 -123 124c-100 0 -166 -88 -166 -189c0 -72 45 -124 122 -124c101 0 167 87 167 189z" />
    <glyph glyph-name="egrave" unicode="&#xe8;" horiz-adv-x="564" 
d="M496 203h-356c-1 -5 -1 -8 -1 -11c0 -63 55 -110 126 -110c61 0 103 25 137 63l67 -63c-59 -64 -131 -96 -217 -96c-130 0 -225 78 -225 213c0 165 118 294 281 294c115 0 200 -65 200 -192c0 -21 -4 -65 -12 -98zM400 287c1 9 2 17 2 25c0 52 -39 93 -105 93
c-82 0 -135 -66 -146 -118h249zM266 708l99 -144h-90l-141 144h132z" />
    <glyph glyph-name="eacute" unicode="&#xe9;" horiz-adv-x="564" 
d="M496 203h-356c-1 -5 -1 -8 -1 -11c0 -63 55 -110 126 -110c61 0 103 25 137 63l67 -63c-59 -64 -131 -96 -217 -96c-130 0 -225 78 -225 213c0 165 118 294 281 294c115 0 200 -65 200 -192c0 -21 -4 -65 -12 -98zM400 287c1 9 2 17 2 25c0 52 -39 93 -105 93
c-82 0 -135 -66 -146 -118h249zM504 708l-165 -144h-93l125 144h133z" />
    <glyph glyph-name="ecircumflex" unicode="&#xea;" horiz-adv-x="564" 
d="M496 203h-356c-1 -5 -1 -8 -1 -11c0 -63 55 -110 126 -110c61 0 103 25 137 63l67 -63c-59 -64 -131 -96 -217 -96c-130 0 -225 78 -225 213c0 165 118 294 281 294c115 0 200 -65 200 -192c0 -21 -4 -65 -12 -98zM400 287c1 9 2 17 2 25c0 52 -39 93 -105 93
c-82 0 -135 -66 -146 -118h249zM520 564h-108l-54 91l-86 -91h-112l140 144h132z" />
    <glyph glyph-name="ecaron" unicode="&#x11b;" horiz-adv-x="564" 
d="M496 203h-356c-1 -5 -1 -8 -1 -11c0 -63 55 -110 126 -110c61 0 103 25 137 63l67 -63c-59 -64 -131 -96 -217 -96c-130 0 -225 78 -225 213c0 165 118 294 281 294c115 0 200 -65 200 -192c0 -21 -4 -65 -12 -98zM400 287c1 9 2 17 2 25c0 52 -39 93 -105 93
c-82 0 -135 -66 -146 -118h249zM531 708l-140 -144h-131l-88 144h109l53 -91l86 91h111z" />
    <glyph glyph-name="edieresis" unicode="&#xeb;" horiz-adv-x="564" 
d="M496 203h-356c-1 -5 -1 -8 -1 -11c0 -63 55 -110 126 -110c61 0 103 25 137 63l67 -63c-59 -64 -131 -96 -217 -96c-130 0 -225 78 -225 213c0 165 118 294 281 294c115 0 200 -65 200 -192c0 -21 -4 -65 -12 -98zM400 287c1 9 2 17 2 25c0 52 -39 93 -105 93
c-82 0 -135 -66 -146 -118h249zM313 646c0 -39 -29 -71 -69 -71c-38 0 -68 24 -68 67c0 42 33 71 71 71s66 -25 66 -67zM511 646c0 -39 -29 -71 -69 -71c-38 0 -68 24 -68 67c0 42 33 71 71 71s66 -25 66 -67z" />
    <glyph glyph-name="emacron" unicode="&#x113;" horiz-adv-x="564" 
d="M496 203h-356c-1 -5 -1 -8 -1 -11c0 -63 55 -110 126 -110c61 0 103 25 137 63l67 -63c-59 -64 -131 -96 -217 -96c-130 0 -225 78 -225 213c0 165 118 294 281 294c115 0 200 -65 200 -192c0 -21 -4 -65 -12 -98zM400 287c1 9 2 17 2 25c0 52 -39 93 -105 93
c-82 0 -135 -66 -146 -118h249zM493 595h-317l13 77h318z" />
    <glyph glyph-name="ebreve" unicode="&#x115;" horiz-adv-x="564" 
d="M496 203h-356c-1 -5 -1 -8 -1 -11c0 -63 55 -110 126 -110c61 0 103 25 137 63l67 -63c-59 -64 -131 -96 -217 -96c-130 0 -225 78 -225 213c0 165 118 294 281 294c115 0 200 -65 200 -192c0 -21 -4 -65 -12 -98zM400 287c1 9 2 17 2 25c0 52 -39 93 -105 93
c-82 0 -135 -66 -146 -118h249zM520 708c-24 -97 -93 -143 -187 -143s-151 44 -151 143h66c0 -50 41 -67 92 -67c56 0 96 11 115 67h65z" />
    <glyph glyph-name="edotaccent" unicode="&#x117;" horiz-adv-x="564" 
d="M496 203h-356c-1 -5 -1 -8 -1 -11c0 -63 55 -110 126 -110c61 0 103 25 137 63l67 -63c-59 -64 -131 -96 -217 -96c-130 0 -225 78 -225 213c0 165 118 294 281 294c115 0 200 -65 200 -192c0 -21 -4 -65 -12 -98zM400 287c1 9 2 17 2 25c0 52 -39 93 -105 93
c-82 0 -135 -66 -146 -118h249zM412 645c0 -39 -31 -73 -71 -73c-38 0 -70 25 -70 69c0 42 35 73 73 73s68 -27 68 -69z" />
    <glyph glyph-name="eogonek" unicode="&#x119;" horiz-adv-x="564" 
d="M336 -195c-32 -22 -66 -38 -106 -38c-53 0 -87 26 -87 80c0 52 49 102 98 139c-124 4 -214 81 -214 213c0 165 118 294 281 294c115 0 200 -65 200 -192c0 -21 -4 -65 -12 -98h-356c-1 -5 -1 -8 -1 -11c0 -63 55 -110 126 -110c61 0 103 25 137 63l67 -63
c-45 -49 -97 -79 -158 -90c-43 -36 -87 -82 -87 -125c0 -25 15 -35 40 -35c20 0 40 9 56 21zM400 287c1 9 2 17 2 25c0 52 -39 93 -105 93c-82 0 -135 -66 -146 -118h249z" />
    <glyph glyph-name="gcircumflex" unicode="&#x11d;" horiz-adv-x="632" 
d="M463 407h3l12 73h112l-76 -439c-29 -169 -105 -281 -300 -281c-79 0 -178 30 -231 86l78 85c37 -44 95 -69 156 -69c117 0 159 70 179 166l8 38h-2c-34 -45 -94 -75 -165 -75c-123 0 -203 83 -203 206c0 164 110 296 264 296c87 0 140 -35 165 -86zM154 211
c0 -70 42 -125 118 -125c94 0 168 87 168 188c0 73 -48 125 -122 125c-99 0 -164 -84 -164 -188zM547 564h-108l-54 91l-86 -91h-112l140 144h132z" />
    <glyph glyph-name="gbreve" unicode="&#x11f;" horiz-adv-x="632" 
d="M463 407h3l12 73h112l-76 -439c-29 -169 -105 -281 -300 -281c-79 0 -178 30 -231 86l78 85c37 -44 95 -69 156 -69c117 0 159 70 179 166l8 38h-2c-34 -45 -94 -75 -165 -75c-123 0 -203 83 -203 206c0 164 110 296 264 296c87 0 140 -35 165 -86zM154 211
c0 -70 42 -125 118 -125c94 0 168 87 168 188c0 73 -48 125 -122 125c-99 0 -164 -84 -164 -188zM547 708c-24 -97 -93 -143 -187 -143s-151 44 -151 143h66c0 -50 41 -67 92 -67c56 0 96 11 115 67h65z" />
    <glyph glyph-name="gdotaccent" unicode="&#x121;" horiz-adv-x="632" 
d="M463 407h3l12 73h112l-76 -439c-29 -169 -105 -281 -300 -281c-79 0 -178 30 -231 86l78 85c37 -44 95 -69 156 -69c117 0 159 70 179 166l8 38h-2c-34 -45 -94 -75 -165 -75c-123 0 -203 83 -203 206c0 164 110 296 264 296c87 0 140 -35 165 -86zM154 211
c0 -70 42 -125 118 -125c94 0 168 87 168 188c0 73 -48 125 -122 125c-99 0 -164 -84 -164 -188zM447 645c0 -39 -31 -73 -71 -73c-38 0 -70 25 -70 69c0 42 35 73 73 73s68 -27 68 -69z" />
    <glyph glyph-name="gcommaaccent" unicode="&#x123;" horiz-adv-x="632" 
d="M463 407h3l12 73h112l-76 -439c-29 -169 -105 -281 -300 -281c-79 0 -178 30 -231 86l78 85c37 -44 95 -69 156 -69c117 0 159 70 179 166l8 38h-2c-34 -45 -94 -75 -165 -75c-123 0 -203 83 -203 206c0 164 110 296 264 296c87 0 140 -35 165 -86zM154 211
c0 -70 42 -125 118 -125c94 0 168 87 168 188c0 73 -48 125 -122 125c-99 0 -164 -84 -164 -188zM271 564l123 195h98l-107 -195h-114z" />
    <glyph glyph-name="hcircumflex" unicode="&#x125;" horiz-adv-x="584" 
d="M461 0h-117l46 264c3 16 5 32 5 48c0 43 -19 81 -79 81c-76 0 -120 -65 -132 -132l-46 -261h-117l133 756h118l-61 -344h2c26 42 77 81 148 81c106 0 157 -68 157 -149c0 -15 -1 -30 -4 -45zM564 796h-108l-54 91l-86 -91h-112l140 144h132z" />
    <glyph glyph-name="hbar" unicode="&#x127;" horiz-adv-x="584" 
d="M405 645l-14 -75h-152l-28 -158h2c26 42 77 81 148 81c106 0 157 -68 157 -149c0 -15 -1 -30 -4 -45l-53 -299h-117l46 264c3 16 5 32 5 48c0 43 -19 81 -79 81c-76 0 -120 -65 -132 -132l-46 -261h-117l100 570h-74l14 75h73l20 111h118l-20 -111h153z" />
    <glyph glyph-name="dotlessi" unicode="&#x131;" horiz-adv-x="267" 
d="M138 0h-117l84 480h118z" />
    <glyph glyph-name="igrave" unicode="&#xec;" horiz-adv-x="267" 
d="M138 0h-117l84 480h118zM129 708l99 -144h-90l-141 144h132z" />
    <glyph glyph-name="iacute" unicode="&#xed;" horiz-adv-x="267" 
d="M138 0h-117l84 480h118zM373 708l-165 -144h-93l125 144h133z" />
    <glyph glyph-name="icircumflex" unicode="&#xee;" horiz-adv-x="267" 
d="M138 0h-117l84 480h118zM355 564h-108l-54 91l-86 -91h-112l140 144h132z" />
    <glyph glyph-name="itilde" unicode="&#x129;" horiz-adv-x="267" 
d="M138 0h-117l84 480h118zM55 568h-66c22 64 60 125 135 125c27 0 53 -7 75 -18c23 -11 44 -19 62 -19c27 0 43 22 53 44h66c-22 -64 -59 -125 -134 -125c-25 0 -48 7 -69 17c-25 12 -48 21 -68 21c-27 0 -43 -23 -54 -45z" />
    <glyph glyph-name="idieresis" unicode="&#xef;" horiz-adv-x="267" 
d="M138 0h-117l84 480h118zM158 646c0 -39 -29 -71 -69 -71c-38 0 -68 24 -68 67c0 42 33 71 71 71s66 -25 66 -67zM356 646c0 -39 -29 -71 -69 -71c-38 0 -68 24 -68 67c0 42 33 71 71 71s66 -25 66 -67z" />
    <glyph glyph-name="imacron" unicode="&#x12b;" horiz-adv-x="267" 
d="M138 0h-117l84 480h118zM337 595h-317l13 77h318z" />
    <glyph glyph-name="ibreve" unicode="&#x12d;" horiz-adv-x="267" 
d="M138 0h-117l84 480h118zM371 708c-24 -97 -93 -143 -187 -143s-151 44 -151 143h66c0 -50 41 -67 92 -67c56 0 96 11 115 67h65z" />
    <glyph glyph-name="iogonek" unicode="&#x12f;" horiz-adv-x="267" 
d="M144 -195c-32 -22 -66 -38 -106 -38c-53 0 -87 26 -87 80c0 59 63 114 117 153h-47l84 480h118l-85 -480h-8c-46 -37 -98 -86 -98 -133c0 -25 15 -35 40 -35c20 0 40 9 56 21zM262 645c0 -39 -31 -73 -71 -73c-38 0 -70 25 -70 69c0 42 35 73 73 73s68 -27 68 -69z" />
    <glyph glyph-name="dotlessj" unicode="&#x237;" horiz-adv-x="267" 
d="M133 -32c-20 -113 -61 -208 -202 -208c-20 0 -41 3 -53 6l23 100c10 -3 23 -4 32 -4c57 0 71 46 81 102l91 516h118z" />
    <glyph glyph-name="jcircumflex" unicode="&#x135;" horiz-adv-x="267" 
d="M133 -32c-20 -113 -61 -208 -202 -208c-20 0 -41 3 -53 6l23 100c10 -3 23 -4 32 -4c57 0 71 46 81 102l91 516h118zM355 564h-108l-54 91l-86 -91h-112l140 144h132z" />
    <glyph glyph-name="kcommaaccent" unicode="&#x137;" horiz-adv-x="521" 
d="M481 0h-145l-151 246h-3l-44 -246h-117l133 756h118l-85 -479h3l217 203h154l-255 -223zM279 -45l-123 -195h-98l107 195h114z" />
    <glyph glyph-name="kgreenlandic" unicode="&#x138;" horiz-adv-x="521" 
d="M481 0h-145l-151 246h-3l-44 -246h-117l84 480h118l-36 -203h3l217 203h154l-255 -223z" />
    <glyph glyph-name="lacute" unicode="&#x13a;" horiz-adv-x="267" 
d="M138 0h-117l133 756h118zM417 936l-165 -144h-93l125 144h133z" />
    <glyph glyph-name="lcaron" unicode="&#x13e;" horiz-adv-x="348" 
d="M138 0h-117l133 756h118zM483 708l-123 -195h-98l107 195h114z" />
    <glyph glyph-name="lcommaaccent" unicode="&#x13c;" horiz-adv-x="267" 
d="M138 0h-117l133 756h118zM137 -45l-123 -195h-98l107 195h114z" />
    <glyph glyph-name="lslash" unicode="&#x142;" horiz-adv-x="259" 
d="M289 463l-81 -68l-70 -395h-117l53 300l-82 -70l19 107l82 70l61 349h118l-46 -257l82 70z" />
    <glyph glyph-name="ldot" unicode="&#x140;" horiz-adv-x="391" 
d="M138 0h-117l133 756h118zM405 455c0 -39 -31 -73 -71 -73c-38 0 -70 25 -70 69c0 42 35 73 73 73s68 -27 68 -69z" />
    <glyph glyph-name="nacute" unicode="&#x144;" horiz-adv-x="584" 
d="M203 405h2c33 52 85 88 156 88c106 0 157 -68 157 -149c0 -15 -1 -30 -4 -45l-53 -299h-117l46 264c3 16 5 32 5 48c0 43 -19 81 -79 81c-76 0 -120 -65 -131 -129l-47 -264h-117l66 377c5 25 12 71 15 103h110c-1 -14 -6 -53 -9 -75zM511 708l-165 -144h-93l125 144h133
z" />
    <glyph glyph-name="ncaron" unicode="&#x148;" horiz-adv-x="584" 
d="M203 405h2c33 52 85 88 156 88c106 0 157 -68 157 -149c0 -15 -1 -30 -4 -45l-53 -299h-117l46 264c3 16 5 32 5 48c0 43 -19 81 -79 81c-76 0 -120 -65 -131 -129l-47 -264h-117l66 377c5 25 12 71 15 103h110c-1 -14 -6 -53 -9 -75zM535 708l-140 -144h-131l-88 144
h109l53 -91l86 91h111z" />
    <glyph glyph-name="ntilde" unicode="&#xf1;" horiz-adv-x="584" 
d="M203 405h2c33 52 85 88 156 88c106 0 157 -68 157 -149c0 -15 -1 -30 -4 -45l-53 -299h-117l46 264c3 16 5 32 5 48c0 43 -19 81 -79 81c-76 0 -120 -65 -131 -129l-47 -264h-117l66 377c5 25 12 71 15 103h110c-1 -14 -6 -53 -9 -75zM220 568h-66c22 64 60 125 135 125
c27 0 53 -7 75 -18c23 -11 44 -19 62 -19c27 0 43 22 53 44h66c-22 -64 -59 -125 -134 -125c-25 0 -48 7 -69 17c-25 12 -48 21 -68 21c-27 0 -43 -23 -54 -45z" />
    <glyph glyph-name="ncommaaccent" unicode="&#x146;" horiz-adv-x="584" 
d="M203 405h2c33 52 85 88 156 88c106 0 157 -68 157 -149c0 -15 -1 -30 -4 -45l-53 -299h-117l46 264c3 16 5 32 5 48c0 43 -19 81 -79 81c-76 0 -120 -65 -131 -129l-47 -264h-117l66 377c5 25 12 71 15 103h110c-1 -14 -6 -53 -9 -75zM296 -45l-123 -195h-98l107 195h114
z" />
    <glyph glyph-name="eng" unicode="&#x14b;" horiz-adv-x="584" 
d="M456 -32c-20 -113 -61 -208 -202 -208c-20 0 -41 3 -53 6l23 100c10 -3 23 -4 32 -4c57 0 71 46 81 102l53 300c3 16 5 32 5 48c0 43 -19 81 -79 81c-76 0 -120 -65 -131 -129l-47 -264h-117l66 377c5 25 12 71 15 103h110c-1 -14 -6 -53 -9 -75h2c33 52 85 88 156 88
c106 0 157 -68 157 -149c0 -15 -1 -30 -4 -45z" />
    <glyph glyph-name="ograve" unicode="&#xf2;" horiz-adv-x="604" 
d="M259 -13c-134 0 -232 85 -232 209c0 157 114 297 290 297c135 0 233 -84 233 -208c0 -160 -114 -298 -291 -298zM432 273c0 71 -47 124 -123 124c-100 0 -166 -88 -166 -189c0 -72 45 -124 122 -124c101 0 167 87 167 189zM276 708l99 -144h-90l-141 144h132z" />
    <glyph glyph-name="oacute" unicode="&#xf3;" horiz-adv-x="604" 
d="M259 -13c-134 0 -232 85 -232 209c0 157 114 297 290 297c135 0 233 -84 233 -208c0 -160 -114 -298 -291 -298zM432 273c0 71 -47 124 -123 124c-100 0 -166 -88 -166 -189c0 -72 45 -124 122 -124c101 0 167 87 167 189zM528 708l-165 -144h-93l125 144h133z" />
    <glyph glyph-name="ocircumflex" unicode="&#xf4;" horiz-adv-x="604" 
d="M259 -13c-134 0 -232 85 -232 209c0 157 114 297 290 297c135 0 233 -84 233 -208c0 -160 -114 -298 -291 -298zM432 273c0 71 -47 124 -123 124c-100 0 -166 -88 -166 -189c0 -72 45 -124 122 -124c101 0 167 87 167 189zM527 564h-108l-54 91l-86 -91h-112l140 144h132
z" />
    <glyph glyph-name="otilde" unicode="&#xf5;" horiz-adv-x="604" 
d="M259 -13c-134 0 -232 85 -232 209c0 157 114 297 290 297c135 0 233 -84 233 -208c0 -160 -114 -298 -291 -298zM432 273c0 71 -47 124 -123 124c-100 0 -166 -88 -166 -189c0 -72 45 -124 122 -124c101 0 167 87 167 189zM224 568h-66c22 64 60 125 135 125
c27 0 53 -7 75 -18c23 -11 44 -19 62 -19c27 0 43 22 53 44h66c-22 -64 -59 -125 -134 -125c-25 0 -48 7 -69 17c-25 12 -48 21 -68 21c-27 0 -43 -23 -54 -45z" />
    <glyph glyph-name="odieresis" unicode="&#xf6;" horiz-adv-x="604" 
d="M259 -13c-134 0 -232 85 -232 209c0 157 114 297 290 297c135 0 233 -84 233 -208c0 -160 -114 -298 -291 -298zM432 273c0 71 -47 124 -123 124c-100 0 -166 -88 -166 -189c0 -72 45 -124 122 -124c101 0 167 87 167 189zM324 646c0 -39 -29 -71 -69 -71
c-38 0 -68 24 -68 67c0 42 33 71 71 71s66 -25 66 -67zM522 646c0 -39 -29 -71 -69 -71c-38 0 -68 24 -68 67c0 42 33 71 71 71s66 -25 66 -67z" />
    <glyph glyph-name="omacron" unicode="&#x14d;" horiz-adv-x="604" 
d="M259 -13c-134 0 -232 85 -232 209c0 157 114 297 290 297c135 0 233 -84 233 -208c0 -160 -114 -298 -291 -298zM432 273c0 71 -47 124 -123 124c-100 0 -166 -88 -166 -189c0 -72 45 -124 122 -124c101 0 167 87 167 189zM508 595h-317l13 77h318z" />
    <glyph glyph-name="obreve" unicode="&#x14f;" horiz-adv-x="604" 
d="M259 -13c-134 0 -232 85 -232 209c0 157 114 297 290 297c135 0 233 -84 233 -208c0 -160 -114 -298 -291 -298zM432 273c0 71 -47 124 -123 124c-100 0 -166 -88 -166 -189c0 -72 45 -124 122 -124c101 0 167 87 167 189zM530 708c-24 -97 -93 -143 -187 -143
s-151 44 -151 143h66c0 -50 41 -67 92 -67c56 0 96 11 115 67h65z" />
    <glyph glyph-name="ohungarumlaut" unicode="&#x151;" horiz-adv-x="604" 
d="M259 -13c-134 0 -232 85 -232 209c0 157 114 297 290 297c135 0 233 -84 233 -208c0 -160 -114 -298 -291 -298zM432 273c0 71 -47 124 -123 124c-100 0 -166 -88 -166 -189c0 -72 45 -124 122 -124c101 0 167 87 167 189zM652 708l-166 -144h-93l125 144h134zM447 708
l-166 -144h-92l124 144h134z" />
    <glyph glyph-name="oslash" unicode="&#xf8;" horiz-adv-x="604" 
d="M98 40l-79 -67l-33 41l76 66c-22 32 -35 71 -35 116c0 157 114 297 290 297c63 0 118 -19 160 -51l79 68l35 -40l-77 -67c23 -33 36 -72 36 -118c0 -160 -114 -298 -291 -298c-64 0 -120 19 -161 53zM152 157l241 210c-21 19 -49 30 -84 30c-100 0 -166 -88 -166 -189
c0 -18 3 -36 9 -51zM179 115c21 -19 50 -31 86 -31c101 0 167 87 167 189c0 19 -3 37 -10 52z" />
    <glyph glyph-name="oe" unicode="&#x153;" horiz-adv-x="959" 
d="M457 78c-42 -58 -110 -91 -202 -91c-134 0 -228 85 -228 209c0 161 122 297 294 297c91 0 149 -32 181 -95c47 60 119 95 201 95c115 0 200 -65 200 -192c0 -21 -4 -65 -12 -98h-356c-1 -5 -1 -8 -1 -11c0 -63 55 -110 126 -110c61 0 103 25 137 63l67 -63
c-59 -64 -131 -96 -217 -96s-155 31 -190 92zM795 287c1 9 2 17 2 25c0 52 -39 93 -105 93c-82 0 -135 -66 -146 -118h249zM432 273c0 71 -47 124 -123 124c-96 0 -166 -88 -166 -189c0 -72 45 -124 122 -124c97 0 167 87 167 189z" />
    <glyph glyph-name="racute" unicode="&#x155;" horiz-adv-x="339" 
d="M201 400h2c33 55 78 93 141 93c9 0 21 -1 29 -3l-16 -109c-15 4 -25 5 -36 5c-108 0 -135 -94 -141 -129l-45 -257h-117l67 377c5 25 12 71 15 103h110c-1 -14 -6 -58 -9 -80zM406 708l-165 -144h-93l125 144h133z" />
    <glyph glyph-name="rcaron" unicode="&#x159;" horiz-adv-x="339" 
d="M201 400h2c33 55 78 93 141 93c9 0 21 -1 29 -3l-16 -109c-15 4 -25 5 -36 5c-108 0 -135 -94 -141 -129l-45 -257h-117l67 377c5 25 12 71 15 103h110c-1 -14 -6 -58 -9 -80zM445 708l-140 -144h-131l-88 144h109l53 -91l86 91h111z" />
    <glyph glyph-name="rcommaaccent" unicode="&#x157;" horiz-adv-x="339" 
d="M201 400h2c33 55 78 93 141 93c9 0 21 -1 29 -3l-16 -109c-15 4 -25 5 -36 5c-108 0 -135 -94 -141 -129l-45 -257h-117l67 377c5 25 12 71 15 103h110c-1 -14 -6 -58 -9 -80zM133 -45l-123 -195h-98l107 195h114z" />
    <glyph glyph-name="sacute" unicode="&#x15b;" horiz-adv-x="444" 
d="M-24 78l91 60c20 -39 62 -60 110 -60c54 0 90 23 90 60c0 34 -25 47 -82 65c-91 29 -136 59 -136 132c0 93 90 158 209 158c74 0 139 -27 173 -83l-91 -54c-17 27 -43 47 -91 47c-41 0 -85 -14 -85 -57c0 -30 27 -42 77 -56c89 -25 141 -64 141 -144
c0 -106 -97 -164 -208 -164c-103 0 -165 42 -198 96zM463 708l-165 -144h-93l125 144h133z" />
    <glyph glyph-name="scircumflex" unicode="&#x15d;" horiz-adv-x="444" 
d="M-24 78l91 60c20 -39 62 -60 110 -60c54 0 90 23 90 60c0 34 -25 47 -82 65c-91 29 -136 59 -136 132c0 93 90 158 209 158c74 0 139 -27 173 -83l-91 -54c-17 27 -43 47 -91 47c-41 0 -85 -14 -85 -57c0 -30 27 -42 77 -56c89 -25 141 -64 141 -144
c0 -106 -97 -164 -208 -164c-103 0 -165 42 -198 96zM457 564h-108l-54 91l-86 -91h-112l140 144h132z" />
    <glyph glyph-name="scaron" unicode="&#x161;" horiz-adv-x="444" 
d="M-24 78l91 60c20 -39 62 -60 110 -60c54 0 90 23 90 60c0 34 -25 47 -82 65c-91 29 -136 59 -136 132c0 93 90 158 209 158c74 0 139 -27 173 -83l-91 -54c-17 27 -43 47 -91 47c-41 0 -85 -14 -85 -57c0 -30 27 -42 77 -56c89 -25 141 -64 141 -144
c0 -106 -97 -164 -208 -164c-103 0 -165 42 -198 96zM472 708l-140 -144h-131l-88 144h109l53 -91l86 91h111z" />
    <glyph glyph-name="scedilla" unicode="&#x15f;" horiz-adv-x="444" 
d="M266 -138c0 -78 -84 -102 -144 -102c-39 0 -83 11 -109 26l27 48c23 -13 51 -20 78 -20c24 0 65 6 65 41c0 30 -25 36 -47 36c-11 0 -27 -2 -40 -6l-18 25l63 74c-83 8 -136 46 -165 94l91 60c20 -39 62 -60 110 -60c54 0 90 23 90 60c0 34 -25 47 -82 65
c-91 29 -136 59 -136 132c0 93 90 158 209 158c74 0 139 -27 173 -83l-91 -54c-17 27 -43 47 -91 47c-41 0 -85 -14 -85 -57c0 -30 27 -42 77 -56c89 -25 141 -64 141 -144c0 -99 -84 -155 -184 -163l-42 -48c9 2 15 2 20 2c37 0 90 -18 90 -75z" />
    <glyph glyph-name="scommaaccent" unicode="&#x219;" horiz-adv-x="444" 
d="M-24 78l91 60c20 -39 62 -60 110 -60c54 0 90 23 90 60c0 34 -25 47 -82 65c-91 29 -136 59 -136 132c0 93 90 158 209 158c74 0 139 -27 173 -83l-91 -54c-17 27 -43 47 -91 47c-41 0 -85 -14 -85 -57c0 -30 27 -42 77 -56c89 -25 141 -64 141 -144
c0 -106 -97 -164 -208 -164c-103 0 -165 42 -198 96zM213 -45l-123 -195h-98l107 195h114z" />
    <glyph glyph-name="germandbls" unicode="&#xdf;" horiz-adv-x="627" 
d="M292 -12c-28 0 -63 3 -92 11l18 99c16 -6 49 -10 69 -10c97 0 168 59 168 158c0 74 -63 120 -134 120h-13l18 100h14c57 0 119 33 119 112c0 44 -33 87 -93 87c-97 0 -126 -90 -139 -162l-89 -503h-118l90 509c24 136 89 259 263 259c112 0 203 -67 203 -178
c0 -92 -62 -147 -133 -166v-2c80 -21 133 -90 133 -174c0 -149 -115 -260 -284 -260z" />
    <glyph glyph-name="tcaron" unicode="&#x165;" horiz-adv-x="360" 
d="M104 385h-85l17 95h83l24 140h116l-24 -140h108l-17 -95h-106l-42 -226c-2 -10 -3 -20 -3 -28c0 -35 23 -46 57 -46c16 0 32 3 45 7l-7 -89c-20 -8 -50 -13 -73 -13c-101 0 -140 45 -140 111c0 18 2 42 6 61zM499 731l-123 -195h-98l107 195h114z" />
    <glyph glyph-name="uni0163" unicode="&#x163;" horiz-adv-x="340" 
d="M104 385h-85l17 95h83l24 140h116l-24 -140h108l-17 -95h-106l-42 -226c-2 -10 -3 -20 -3 -28c0 -35 23 -46 57 -46c16 0 32 3 45 7l-7 -89c-20 -8 -50 -13 -73 -13c-101 0 -140 45 -140 111c0 18 2 42 6 61zM196 -45l-123 -195h-98l107 195h114z" />
    <glyph glyph-name="uni021B" unicode="&#x21b;" horiz-adv-x="340" 
d="M104 385h-85l17 95h83l24 140h116l-24 -140h108l-17 -95h-106l-42 -226c-2 -10 -3 -20 -3 -28c0 -35 23 -46 57 -46c16 0 32 3 45 7l-7 -89c-20 -8 -50 -13 -73 -13c-101 0 -140 45 -140 111c0 18 2 42 6 61zM196 -45l-123 -195h-98l107 195h114z" />
    <glyph glyph-name="tbar" unicode="&#x167;" horiz-adv-x="340" 
d="M298 294l-14 -75h-95l-11 -60c-2 -10 -3 -20 -3 -28c0 -35 23 -46 57 -46c16 0 32 3 45 7l-7 -89c-20 -8 -50 -13 -73 -13c-101 0 -140 45 -140 111c0 18 2 42 6 61l10 57h-68l14 75h68l17 91h-85l17 95h83l24 140h116l-24 -140h108l-17 -95h-106l-17 -91h95z" />
    <glyph glyph-name="thorn" unicode="&#xfe;" horiz-adv-x="629" 
d="M147 76l-53 -316h-118l176 996h117l-65 -353h3c36 56 100 88 171 88c123 0 203 -84 203 -207c0 -165 -110 -298 -264 -298c-87 0 -140 35 -168 90h-2zM461 270c0 70 -42 125 -118 125c-94 0 -168 -87 -168 -189c0 -73 48 -125 122 -125c99 0 164 84 164 189z" />
    <glyph glyph-name="ugrave" unicode="&#xf9;" horiz-adv-x="584" 
d="M350 75h-2c-33 -52 -85 -88 -156 -88c-106 0 -157 68 -157 149c0 15 1 30 4 45l53 299h117l-46 -264c-3 -16 -5 -32 -5 -48c0 -43 19 -81 79 -81c76 0 120 65 131 129l47 264h117l-66 -377c-5 -25 -12 -71 -15 -103h-110c1 14 6 53 9 75zM258 708l99 -144h-90l-141 144
h132z" />
    <glyph glyph-name="uacute" unicode="&#xfa;" horiz-adv-x="584" 
d="M350 75h-2c-33 -52 -85 -88 -156 -88c-106 0 -157 68 -157 149c0 15 1 30 4 45l53 299h117l-46 -264c-3 -16 -5 -32 -5 -48c0 -43 19 -81 79 -81c76 0 120 65 131 129l47 264h117l-66 -377c-5 -25 -12 -71 -15 -103h-110c1 14 6 53 9 75zM524 708l-165 -144h-93l125 144
h133z" />
    <glyph glyph-name="ucircumflex" unicode="&#xfb;" horiz-adv-x="584" 
d="M350 75h-2c-33 -52 -85 -88 -156 -88c-106 0 -157 68 -157 149c0 15 1 30 4 45l53 299h117l-46 -264c-3 -16 -5 -32 -5 -48c0 -43 19 -81 79 -81c76 0 120 65 131 129l47 264h117l-66 -377c-5 -25 -12 -71 -15 -103h-110c1 14 6 53 9 75zM507 564h-108l-54 91l-86 -91
h-112l140 144h132z" />
    <glyph glyph-name="utilde" unicode="&#x169;" horiz-adv-x="584" 
d="M350 75h-2c-33 -52 -85 -88 -156 -88c-106 0 -157 68 -157 149c0 15 1 30 4 45l53 299h117l-46 -264c-3 -16 -5 -32 -5 -48c0 -43 19 -81 79 -81c76 0 120 65 131 129l47 264h117l-66 -377c-5 -25 -12 -71 -15 -103h-110c1 14 6 53 9 75zM206 568h-66
c22 64 60 125 135 125c27 0 53 -7 75 -18c23 -11 44 -19 62 -19c27 0 43 22 53 44h66c-22 -64 -59 -125 -134 -125c-25 0 -48 7 -69 17c-25 12 -48 21 -68 21c-27 0 -43 -23 -54 -45z" />
    <glyph glyph-name="udieresis" unicode="&#xfc;" horiz-adv-x="584" 
d="M350 75h-2c-33 -52 -85 -88 -156 -88c-106 0 -157 68 -157 149c0 15 1 30 4 45l53 299h117l-46 -264c-3 -16 -5 -32 -5 -48c0 -43 19 -81 79 -81c76 0 120 65 131 129l47 264h117l-66 -377c-5 -25 -12 -71 -15 -103h-110c1 14 6 53 9 75zM307 646c0 -39 -29 -71 -69 -71
c-38 0 -68 24 -68 67c0 42 33 71 71 71s66 -25 66 -67zM505 646c0 -39 -29 -71 -69 -71c-38 0 -68 24 -68 67c0 42 33 71 71 71s66 -25 66 -67z" />
    <glyph glyph-name="umacron" unicode="&#x16b;" horiz-adv-x="584" 
d="M350 75h-2c-33 -52 -85 -88 -156 -88c-106 0 -157 68 -157 149c0 15 1 30 4 45l53 299h117l-46 -264c-3 -16 -5 -32 -5 -48c0 -43 19 -81 79 -81c76 0 120 65 131 129l47 264h117l-66 -377c-5 -25 -12 -71 -15 -103h-110c1 14 6 53 9 75zM488 595h-317l13 77h318z" />
    <glyph glyph-name="ubreve" unicode="&#x16d;" horiz-adv-x="584" 
d="M350 75h-2c-33 -52 -85 -88 -156 -88c-106 0 -157 68 -157 149c0 15 1 30 4 45l53 299h117l-46 -264c-3 -16 -5 -32 -5 -48c0 -43 19 -81 79 -81c76 0 120 65 131 129l47 264h117l-66 -377c-5 -25 -12 -71 -15 -103h-110c1 14 6 53 9 75zM508 708
c-24 -97 -93 -143 -187 -143s-151 44 -151 143h66c0 -50 41 -67 92 -67c56 0 96 11 115 67h65z" />
    <glyph glyph-name="uring" unicode="&#x16f;" horiz-adv-x="584" 
d="M350 75h-2c-33 -52 -85 -88 -156 -88c-106 0 -157 68 -157 149c0 15 1 30 4 45l53 299h117l-46 -264c-3 -16 -5 -32 -5 -48c0 -43 19 -81 79 -81c76 0 120 65 131 129l47 264h117l-66 -377c-5 -25 -12 -71 -15 -103h-110c1 14 6 53 9 75zM327 553c-53 0 -90 37 -90 86
c0 65 48 117 115 117c53 0 89 -36 89 -85c0 -67 -48 -118 -114 -118zM392 662c0 26 -17 50 -45 50c-36 0 -61 -29 -61 -67c0 -26 16 -48 44 -48c37 0 62 28 62 65z" />
    <glyph glyph-name="uhungarumlaut" unicode="&#x171;" horiz-adv-x="584" 
d="M350 75h-2c-33 -52 -85 -88 -156 -88c-106 0 -157 68 -157 149c0 15 1 30 4 45l53 299h117l-46 -264c-3 -16 -5 -32 -5 -48c0 -43 19 -81 79 -81c76 0 120 65 131 129l47 264h117l-66 -377c-5 -25 -12 -71 -15 -103h-110c1 14 6 53 9 75zM632 708l-166 -144h-93l125 144
h134zM427 708l-166 -144h-92l124 144h134z" />
    <glyph glyph-name="uogonek" unicode="&#x173;" horiz-adv-x="584" 
d="M414 -195c-32 -22 -66 -38 -106 -38c-53 0 -87 26 -87 80c0 60 65 116 120 155c1 15 6 52 9 73h-2c-33 -52 -85 -88 -156 -88c-106 0 -157 68 -157 149c0 15 1 30 4 45l53 299h117l-46 -264c-3 -16 -5 -32 -5 -48c0 -43 19 -81 79 -81c76 0 120 65 131 129l47 264h117
l-66 -377c-5 -25 -12 -71 -15 -103h-51c-46 -37 -98 -86 -98 -133c0 -25 15 -35 40 -35c20 0 40 9 56 21z" />
    <glyph glyph-name="wcircumflex" unicode="&#x175;" horiz-adv-x="785" 
d="M820 480l-261 -480h-120l-43 339h-2l-179 -339h-120l-66 480h123l33 -345h2l172 345h123l39 -345h2l174 345h123zM612 564h-108l-54 91l-86 -91h-112l140 144h132z" />
    <glyph glyph-name="wacute" unicode="&#x1e83;" horiz-adv-x="785" 
d="M820 480l-261 -480h-120l-43 339h-2l-179 -339h-120l-66 480h123l33 -345h2l172 345h123l39 -345h2l174 345h123zM643 708l-165 -144h-93l125 144h133z" />
    <glyph glyph-name="wdieresis" unicode="&#x1e85;" horiz-adv-x="785" 
d="M820 480l-261 -480h-120l-43 339h-2l-179 -339h-120l-66 480h123l33 -345h2l172 345h123l39 -345h2l174 345h123zM419 646c0 -39 -29 -71 -69 -71c-38 0 -68 24 -68 67c0 42 33 71 71 71s66 -25 66 -67zM617 646c0 -39 -29 -71 -69 -71c-38 0 -68 24 -68 67
c0 42 33 71 71 71s66 -25 66 -67z" />
    <glyph glyph-name="wgrave" unicode="&#x1e81;" horiz-adv-x="785" 
d="M820 480l-261 -480h-120l-43 339h-2l-179 -339h-120l-66 480h123l33 -345h2l172 345h123l39 -345h2l174 345h123zM386 708l99 -144h-90l-141 144h132z" />
    <glyph glyph-name="yacute" unicode="&#xfd;" horiz-adv-x="506" 
d="M543 480l-340 -584c-49 -86 -91 -136 -184 -136c-20 0 -41 2 -61 7l15 102c15 -5 31 -7 44 -7c44 0 63 25 92 75l36 62l-108 481h126l62 -352h2l192 352h124zM504 708l-165 -144h-93l125 144h133z" />
    <glyph glyph-name="ycircumflex" unicode="&#x177;" horiz-adv-x="506" 
d="M543 480l-340 -584c-49 -86 -91 -136 -184 -136c-20 0 -41 2 -61 7l15 102c15 -5 31 -7 44 -7c44 0 63 25 92 75l36 62l-108 481h126l62 -352h2l192 352h124zM480 564h-108l-54 91l-86 -91h-112l140 144h132z" />
    <glyph glyph-name="ydieresis" unicode="&#xff;" horiz-adv-x="506" 
d="M543 480l-340 -584c-49 -86 -91 -136 -184 -136c-20 0 -41 2 -61 7l15 102c15 -5 31 -7 44 -7c44 0 63 25 92 75l36 62l-108 481h126l62 -352h2l192 352h124zM286 646c0 -39 -29 -71 -69 -71c-38 0 -68 24 -68 67c0 42 33 71 71 71s66 -25 66 -67zM484 646
c0 -39 -29 -71 -69 -71c-38 0 -68 24 -68 67c0 42 33 71 71 71s66 -25 66 -67z" />
    <glyph glyph-name="ygrave" unicode="&#x1ef3;" horiz-adv-x="506" 
d="M543 480l-340 -584c-49 -86 -91 -136 -184 -136c-20 0 -41 2 -61 7l15 102c15 -5 31 -7 44 -7c44 0 63 25 92 75l36 62l-108 481h126l62 -352h2l192 352h124zM260 708l99 -144h-90l-141 144h132z" />
    <glyph glyph-name="zacute" unicode="&#x17a;" horiz-adv-x="480" 
d="M392 0h-412l18 103l313 283h-244l16 94h387l-18 -103l-311 -281h268zM480 708l-165 -144h-93l125 144h133z" />
    <glyph glyph-name="zcaron" unicode="&#x17e;" horiz-adv-x="480" 
d="M392 0h-412l18 103l313 283h-244l16 94h387l-18 -103l-311 -281h268zM493 708l-140 -144h-131l-88 144h109l53 -91l86 91h111z" />
    <glyph glyph-name="zdotaccent" unicode="&#x17c;" horiz-adv-x="480" 
d="M392 0h-412l18 103l313 283h-244l16 94h387l-18 -103l-311 -281h268zM375 645c0 -39 -31 -73 -71 -73c-38 0 -70 25 -70 69c0 42 35 73 73 73s68 -27 68 -69z" />
    <glyph glyph-name="IJ" unicode="&#x132;" horiz-adv-x="782" 
d="M148 0h-123l125 708h123zM693 228c-19 -109 -64 -246 -237 -246c-113 0 -186 63 -198 155l115 33c5 -44 35 -79 80 -79c78 0 103 60 117 141l84 476h124z" />
    <glyph glyph-name="ij" unicode="&#x133;" horiz-adv-x="539" 
d="M138 0h-117l84 480h118zM262 645c0 -39 -31 -73 -71 -73c-38 0 -70 25 -70 69c0 42 35 73 73 73s68 -27 68 -69zM405 -32c-20 -113 -61 -208 -202 -208c-20 0 -41 3 -53 6l23 100c10 -3 23 -4 32 -4c57 0 71 46 81 102l91 516h118zM534 645c0 -39 -31 -73 -71 -73
c-38 0 -70 25 -70 69c0 42 35 73 73 73s68 -27 68 -69z" />
    <glyph glyph-name="f_i" unicode="&#xf001;" horiz-adv-x="601" 
d="M410 761l-25 -100c-12 4 -24 7 -41 7c-65 0 -86 -60 -95 -109l-14 -79h113l-17 -94h-111l-68 -386h-114l68 386h-91l16 94h89l14 73c20 106 72 215 217 215c25 0 42 -2 59 -7zM472 0h-117l84 480h118zM596 645c0 -39 -31 -73 -71 -73c-38 0 -70 25 -70 69
c0 42 35 73 73 73s68 -27 68 -69z" />
    <glyph glyph-name="f_l" unicode="&#xf002;" horiz-adv-x="600" 
d="M410 761l-25 -100c-12 4 -24 7 -41 7c-65 0 -86 -60 -95 -109l-14 -79h113l-17 -94h-111l-68 -386h-114l68 386h-91l16 94h89l14 73c20 106 72 215 217 215c25 0 42 -2 59 -7zM471 0h-117l133 756h118z" />
    <glyph glyph-name="grave.cap" 
d="M147 908l99 -144h-90l-141 144h132z" />
    <glyph glyph-name="acute" unicode="&#xb4;" 
d="M385 708l-165 -144h-93l125 144h133z" />
    <glyph glyph-name="acute.cap" 
d="M385 908l-165 -144h-93l125 144h133z" />
    <glyph glyph-name="circumflex" unicode="&#x2c6;" 
d="M355 564h-108l-54 91l-86 -91h-112l140 144h132z" />
    <glyph glyph-name="circumflex.cap" 
d="M355 764h-108l-54 91l-86 -91h-112l140 144h132z" />
    <glyph glyph-name="caron" unicode="&#x2c7;" 
d="M380 708l-140 -144h-131l-88 144h109l53 -91l86 91h111z" />
    <glyph glyph-name="caron.cap" 
d="M380 908l-140 -144h-131l-88 144h109l53 -91l86 91h111z" />
    <glyph glyph-name="caron.alt" 
d="M279 708l-123 -195h-98l107 195h114z" />
    <glyph glyph-name="tilde" unicode="&#x2dc;" 
d="M59 568h-66c22 64 60 125 135 125c27 0 53 -7 75 -18c23 -11 44 -19 62 -19c27 0 43 22 53 44h66c-22 -64 -59 -125 -134 -125c-25 0 -48 7 -69 17c-25 12 -48 21 -68 21c-27 0 -43 -23 -54 -45z" />
    <glyph glyph-name="tilde.cap" 
d="M59 768h-66c22 64 60 125 135 125c27 0 53 -7 75 -18c23 -11 44 -19 62 -19c27 0 43 22 53 44h66c-22 -64 -59 -125 -134 -125c-25 0 -48 7 -69 17c-25 12 -48 21 -68 21c-27 0 -43 -23 -54 -45z" />
    <glyph glyph-name="dieresis" unicode="&#xa8;" 
d="M158 646c0 -39 -29 -71 -69 -71c-38 0 -68 24 -68 67c0 42 33 71 71 71s66 -25 66 -67zM356 646c0 -39 -29 -71 -69 -71c-38 0 -68 24 -68 67c0 42 33 71 71 71s66 -25 66 -67z" />
    <glyph glyph-name="dieresis.cap" 
d="M158 846c0 -39 -29 -71 -69 -71c-38 0 -68 24 -68 67c0 42 33 71 71 71s66 -25 66 -67zM356 846c0 -39 -29 -71 -69 -71c-38 0 -68 24 -68 67c0 42 33 71 71 71s66 -25 66 -67z" />
    <glyph glyph-name="macron" unicode="&#xaf;" 
d="M339 595h-317l13 77h318z" />
    <glyph glyph-name="macron.cap" 
d="M339 795h-317l13 77h318z" />
    <glyph glyph-name="uni02C9" unicode="&#x2c9;" 
d="M339 795h-317l13 77h318z" />
    <glyph glyph-name="breve" unicode="&#x2d8;" 
d="M369 708c-24 -97 -93 -143 -187 -143s-151 44 -151 143h66c0 -50 41 -67 92 -67c56 0 96 11 115 67h65z" />
    <glyph glyph-name="breve.cap" 
d="M369 908c-24 -97 -93 -143 -187 -143s-151 44 -151 143h66c0 -50 41 -67 92 -67c56 0 96 11 115 67h65z" />
    <glyph glyph-name="ring" unicode="&#x2da;" 
d="M180 553c-53 0 -90 37 -90 86c0 65 48 117 115 117c53 0 89 -36 89 -85c0 -67 -48 -118 -114 -118zM245 662c0 26 -17 50 -45 50c-36 0 -61 -29 -61 -67c0 -26 16 -48 44 -48c37 0 62 28 62 65z" />
    <glyph glyph-name="ring.cap" 
d="M180 753c-53 0 -90 37 -90 86c0 65 48 117 115 117c53 0 89 -36 89 -85c0 -67 -48 -118 -114 -118zM245 862c0 26 -17 50 -45 50c-36 0 -61 -29 -61 -67c0 -26 16 -48 44 -48c37 0 62 28 62 65z" />
    <glyph glyph-name="hungarumlaut" unicode="&#x2dd;" 
d="M486 708l-166 -144h-93l125 144h134zM281 708l-166 -144h-92l124 144h134z" />
    <glyph glyph-name="hungarumlaut.cap" 
d="M486 908l-166 -144h-93l125 144h134zM281 908l-166 -144h-92l124 144h134z" />
    <glyph glyph-name="dotaccent" unicode="&#x2d9;" 
d="M262 645c0 -39 -31 -73 -71 -73c-38 0 -70 25 -70 69c0 42 35 73 73 73s68 -27 68 -69z" />
    <glyph glyph-name="dotaccent.cap" 
d="M262 845c0 -39 -31 -73 -71 -73c-38 0 -70 25 -70 69c0 42 35 73 73 73s68 -27 68 -69z" />
    <glyph glyph-name="cedilla" unicode="&#xb8;" 
d="M176 -138c0 -78 -84 -102 -144 -102c-39 0 -83 11 -109 26l27 48c23 -13 51 -20 78 -20c24 0 65 6 65 41c0 30 -25 36 -47 36c-11 0 -27 -2 -40 -6l-18 25l78 90h57l-57 -65c9 2 15 2 20 2c37 0 90 -18 90 -75z" />
    <glyph glyph-name="ogonek" unicode="&#x2db;" 
d="M114 -195c-32 -22 -66 -38 -106 -38c-53 0 -87 26 -87 80c0 62 70 120 126 159h60c-47 -38 -105 -90 -105 -139c0 -25 15 -35 40 -35c20 0 40 9 56 21z" />
    <glyph glyph-name="commaaccent" 
d="M216 -45l-123 -195h-98l107 195h114z" />
    <glyph glyph-name="commaaccent.alt" 
d="M64 564l123 195h98l-107 -195h-114z" />
    <glyph glyph-name="ellipsis" unicode="&#x2026;" horiz-adv-x="1000" 
d="M201 72c0 -41 -33 -76 -74 -76c-40 0 -73 26 -73 72c0 44 36 76 76 76s71 -28 71 -72zM535 72c0 -41 -33 -76 -74 -76c-40 0 -73 26 -73 72c0 44 36 76 76 76s71 -28 71 -72zM869 72c0 -41 -33 -76 -74 -76c-40 0 -73 26 -73 72c0 44 36 76 76 76s71 -28 71 -72z" />
    <glyph glyph-name="uni00AD" unicode="&#xad;" horiz-adv-x="320" 
d="M260 196h-239l18 100h239z" />
    <glyph glyph-name="exclamdown" unicode="&#xa1;" horiz-adv-x="295" 
d="M78 273h117l-86 -487h-117zM83 422c0 41 33 76 74 76c40 0 73 -26 73 -72c0 -44 -36 -76 -76 -76s-71 28 -71 72z" />
    <glyph glyph-name="questiondown" unicode="&#xbf;" horiz-adv-x="517" 
d="M107 140c61 43 82 62 91 121l4 26h115l-6 -39c-10 -65 -34 -100 -93 -147l-52 -41c-30 -23 -67 -53 -67 -104c0 -53 30 -80 89 -80c65 0 105 50 117 105l113 -19c-23 -107 -114 -193 -244 -193c-105 0 -198 46 -198 178c0 82 45 133 131 193zM200 423c0 41 33 76 74 76
c40 0 73 -26 73 -72c0 -44 -36 -76 -76 -76s-71 28 -71 72z" />
    <glyph glyph-name="quoteleft" unicode="&#x2018;" horiz-adv-x="268" 
d="M296 708l-116 -263h-113l131 263h98z" />
    <glyph glyph-name="quoteright" unicode="&#x2019;" horiz-adv-x="268" 
d="M296 708l-131 -263h-98l116 263h113z" />
    <glyph glyph-name="quotedblleft" unicode="&#x201c;" horiz-adv-x="461" 
d="M490 708l-116 -263h-114l131 263h99zM296 708l-116 -263h-113l131 263h98z" />
    <glyph glyph-name="quotedblright" unicode="&#x201d;" horiz-adv-x="461" 
d="M490 708l-131 -263h-99l116 263h114zM296 708l-131 -263h-98l116 263h113z" />
    <glyph glyph-name="quotesinglbase" unicode="&#x201a;" horiz-adv-x="268" 
d="M196 136l-132 -263h-98l116 263h114z" />
    <glyph glyph-name="quotedblbase" unicode="&#x201e;" horiz-adv-x="461" 
d="M389 136l-131 -263h-99l116 263h114zM196 136l-132 -263h-98l116 263h114z" />
    <glyph glyph-name="guilsinglleft" unicode="&#x2039;" horiz-adv-x="297" 
d="M216 73l-83 -51l-112 226l191 223l65 -50l-146 -173z" />
    <glyph glyph-name="guilsinglright" unicode="&#x203a;" horiz-adv-x="297" 
d="M257 243l-191 -224l-67 54l149 177l-85 175l80 46z" />
    <glyph glyph-name="guillemotleft" unicode="&#xab;" horiz-adv-x="518" 
d="M21 247l191 224l67 -54l-149 -177l85 -175l-80 -46zM240 247l191 224l67 -54l-149 -177l85 -175l-80 -46z" />
    <glyph glyph-name="guillemotright" unicode="&#xbb;" horiz-adv-x="518" 
d="M478 243l-191 -224l-67 54l149 177l-85 175l80 46zM257 243l-191 -224l-67 54l149 177l-85 175l80 46z" />
    <glyph glyph-name="endash" unicode="&#x2013;" horiz-adv-x="400" 
d="M378 292l-16 -92h-340l16 92h340z" />
    <glyph glyph-name="emdash" unicode="&#x2014;" horiz-adv-x="600" 
d="M578 292l-16 -92h-540l16 92h540z" />
    <glyph glyph-name="bullet" unicode="&#x2022;" horiz-adv-x="500" 
d="M73 354c0 98 79 177 177 177s177 -79 177 -177s-79 -177 -177 -177s-177 79 -177 177z" />
    <glyph glyph-name="periodcentered" unicode="&#xb7;" 
d="M201 297c0 -41 -33 -76 -74 -76c-40 0 -73 26 -73 72c0 44 36 76 76 76s71 -28 71 -72z" />
    <glyph glyph-name="uni2219" unicode="&#x2219;" 
d="M201 297c0 -41 -33 -76 -74 -76c-40 0 -73 26 -73 72c0 44 36 76 76 76s71 -28 71 -72z" />
    <glyph glyph-name="dagger" unicode="&#x2020;" horiz-adv-x="591" 
d="M569 411h-200l-94 -537h-112l95 537h-199l17 94h198l36 203h112l-36 -203h199z" />
    <glyph glyph-name="daggerdbl" unicode="&#x2021;" horiz-adv-x="591" 
d="M501 60h-193l-33 -186h-112l33 186h-192l16 95h193l48 273h-192l16 95h192l33 185h112l-33 -185h193l-16 -95h-194l-48 -273h193z" />
    <glyph glyph-name="section" unicode="&#xa7;" horiz-adv-x="610" 
d="M589 642l-89 -69c-26 38 -68 57 -115 57c-40 0 -100 -18 -100 -77c0 -45 35 -61 113 -95c75 -33 136 -72 136 -165c0 -83 -55 -126 -112 -148c26 -22 46 -58 46 -95c0 -140 -120 -194 -225 -194c-83 0 -196 36 -231 113l100 57c20 -44 80 -68 129 -68c47 0 102 14 102 71
c0 56 -42 75 -134 114c-69 29 -123 67 -123 152c0 79 61 134 120 152c-20 15 -43 49 -43 94c0 132 130 185 229 185c81 0 157 -29 197 -84zM262 234l97 -43c44 13 67 42 67 82c0 46 -33 70 -70 88l-84 41c-49 -11 -77 -48 -77 -87c0 -46 31 -65 67 -81z" />
    <glyph glyph-name="paragraph" unicode="&#xb6;" horiz-adv-x="600" 
d="M456 -126h-89l135 763h-108l-135 -763h-89l82 463c-117 0 -186 62 -186 151c0 83 45 220 269 220h268z" />
    <glyph glyph-name="brokenbar" unicode="&#xa6;" horiz-adv-x="222" 
d="M60 675h102v-350h-102v350zM60 175h102v-350h-102v350z" />
    <glyph glyph-name="copyright" unicode="&#xa9;" horiz-adv-x="800" 
d="M577 506l-63 -63c-19 24 -57 42 -96 42c-81 0 -124 -65 -124 -132c0 -69 45 -135 131 -135c35 0 72 14 93 38l58 -68c-35 -39 -94 -60 -158 -60c-127 0 -230 79 -230 223c0 140 104 224 230 224c63 0 125 -25 159 -69zM20 353c0 210 171 377 381 377
c209 0 379 -167 379 -377c0 -209 -170 -375 -379 -375c-210 0 -381 166 -381 375zM80 353c0 -176 144 -319 321 -319c176 0 319 143 319 319c0 177 -143 321 -319 321c-177 0 -321 -144 -321 -321z" />
    <glyph glyph-name="registered" unicode="&#xae;" horiz-adv-x="600" 
d="M568 493c0 -125 -102 -224 -227 -224c-126 0 -229 99 -229 224c0 126 103 227 229 227c125 0 227 -101 227 -227zM532 493c0 107 -85 193 -191 193c-107 0 -193 -86 -193 -193c0 -105 86 -191 193 -191c106 0 191 86 191 191zM472 368h-83l-50 96h-29v-96h-71v260h112
c50 0 107 -20 107 -82c0 -35 -22 -61 -52 -71zM383 545c0 17 -19 25 -35 25h-38v-54h38c18 0 35 12 35 29z" />
    <glyph glyph-name="trademark" unicode="&#x2122;" horiz-adv-x="999" 
d="M247 296v322h-122v90h346v-90h-122v-322h-102zM550 296v412h142l98 -268l98 268h142v-412h-102v268h-2l-101 -268h-70l-101 268h-2v-268h-102z" />
    <glyph glyph-name="currency" unicode="&#xa4;" horiz-adv-x="920" 
d="M687 462c28 -41 45 -92 45 -153c0 -62 -17 -116 -48 -158l93 -93c-23 -23 -46 -47 -70 -70l-96 95c-42 -28 -93 -43 -150 -43c-54 0 -103 14 -151 45c-32 -33 -65 -65 -98 -97c-23 23 -46 47 -70 70l95 96c-29 40 -45 93 -45 155c0 58 15 109 43 150l-93 93l71 70l94 -93
c43 29 95 46 154 46c58 0 111 -16 153 -45c31 31 61 62 92 92l71 -70zM461 459c-87 0 -145 -69 -145 -150c0 -84 58 -152 145 -152c88 0 145 68 145 152c0 81 -58 150 -145 150z" />
    <glyph glyph-name="Euro" unicode="&#x20ac;" horiz-adv-x="610" 
d="M524 118l24 -93c-40 -25 -92 -43 -163 -43c-182 0 -272 110 -281 240h-90l43 86h45c1 21 6 53 17 92h-72l45 86h52c52 131 170 240 334 240c64 0 122 -14 154 -33l-44 -97c-28 19 -72 28 -121 28c-85 0 -160 -51 -202 -138h277l-43 -86h-265c-9 -24 -16 -70 -16 -92h250
l-42 -86h-208c6 -77 74 -140 178 -140c51 0 86 13 128 36z" />
    <glyph glyph-name="cent" unicode="&#xa2;" horiz-adv-x="610" 
d="M391 491c60 -6 116 -31 146 -79l-84 -68c-14 24 -45 45 -79 51l-55 -311c51 4 81 26 109 54l67 -68c-50 -49 -112 -82 -193 -83l-12 -70h-54l14 74c-112 17 -183 95 -183 204c0 149 106 285 271 297l11 66h54zM321 394c-82 -13 -138 -95 -138 -184c0 -55 22 -110 83 -122
z" />
    <glyph glyph-name="sterling" unicode="&#xa3;" horiz-adv-x="610" 
d="M624 666l-72 -81c-21 27 -58 43 -100 43c-97 0 -129 -88 -140 -151l-14 -78h166l-15 -83h-164l-37 -211h265l-19 -105h-482l18 105h98l38 211h-98l14 83h96l15 83c18 100 83 244 266 244c71 0 128 -22 165 -60z" />
    <glyph glyph-name="florin" unicode="&#x192;" horiz-adv-x="610" 
d="M624 689l-62 -91c-15 10 -33 16 -52 16c-60 0 -82 -56 -100 -102l-33 -86h121l-15 -89h-137l-109 -291c-47 -124 -114 -185 -218 -185c-35 0 -69 8 -97 24l60 90c12 -9 29 -14 45 -14c52 0 76 44 99 104l101 272h-113l16 89h130l42 112c37 99 95 182 211 182
c43 0 77 -11 111 -31z" />
    <glyph glyph-name="yen" unicode="&#xa5;" horiz-adv-x="610" 
d="M657 708l-244 -320h140l-14 -77h-177l-14 -78h177l-13 -77h-175l-27 -156h-115l27 156h-178l13 77h176l13 78h-175l13 77h148l-142 320h130l106 -289l199 289h132z" />
    <glyph glyph-name="ordfeminine" unicode="&#xaa;" horiz-adv-x="380" 
d="M280 559h-7c-49 0 -112 -5 -112 -44c0 -26 21 -33 42 -33c39 0 66 27 73 61zM268 461h-2c-17 -22 -43 -37 -84 -37c-60 0 -93 33 -93 78c0 81 68 112 196 112c1 3 2 7 2 12c0 25 -14 34 -47 34c-23 0 -53 -10 -77 -27l-30 51c44 31 85 39 117 39c77 0 110 -40 110 -89
c0 -12 -2 -21 -4 -32l-18 -106c-4 -21 -5 -51 -5 -65h-68c0 7 1 17 3 30z" />
    <glyph glyph-name="ordmasculine" unicode="&#xba;" horiz-adv-x="380" 
d="M302 591c0 35 -23 60 -61 60c-48 0 -80 -43 -80 -93c0 -35 21 -60 59 -60c49 0 82 43 82 93zM215 426c-85 0 -136 56 -136 123c0 105 76 173 169 173c79 0 135 -49 135 -123c0 -109 -79 -173 -168 -173z" />
    <glyph glyph-name="fraction" unicode="&#x2044;" horiz-adv-x="100" 
d="M343 701l-547 -734l-62 39l547 734z" />
    <glyph glyph-name="uni2215" unicode="&#x2215;" horiz-adv-x="100" 
d="M343 701l-547 -734l-62 39l547 734z" />
    <glyph glyph-name="onequarter" unicode="&#xbc;" horiz-adv-x="900" 
d="M256 279h-92l57 319l-85 -61l-41 61l155 110h81zM743 701l-547 -734l-62 39l547 734zM785 89h-56l-16 -89h-83l15 89h-192l12 70l222 270h100l-46 -267h58zM658 162l28 157h-5l-124 -157h101z" />
    <glyph glyph-name="onehalf" unicode="&#xbd;" horiz-adv-x="900" 
d="M256 279h-92l57 319l-85 -61l-41 61l155 110h81zM743 701l-547 -734l-62 39l547 734zM774 0h-279l14 78l184 151c40 33 57 60 57 87c0 33 -21 46 -54 46c-37 0 -57 -21 -69 -58l-79 22c27 73 85 110 152 110c79 0 134 -43 134 -115c0 -65 -28 -98 -97 -152l-115 -90h167z
" />
    <glyph glyph-name="threequarters" unicode="&#xbe;" horiz-adv-x="900" 
d="M743 701l-547 -734l-62 39l547 734zM785 89h-56l-16 -89h-83l15 89h-192l12 70l222 270h100l-46 -267h58zM658 162l28 157h-5l-124 -157h101zM352 421c0 -96 -72 -143 -157 -143c-75 0 -124 38 -144 97l81 24c10 -34 35 -45 64 -45c44 0 69 24 69 60c0 39 -31 59 -78 59
h-23l11 67h23c59 0 85 26 85 66c0 26 -20 42 -45 42c-28 0 -48 -9 -68 -44l-66 38c33 55 82 79 139 79c84 0 125 -56 125 -112c0 -54 -35 -92 -80 -102c41 -11 64 -48 64 -86z" />
    <glyph glyph-name="perthousand" unicode="&#x2030;" horiz-adv-x="1200" 
d="M208 368c-91 0 -156 64 -156 150c0 113 84 202 199 202c91 0 154 -63 154 -148c0 -115 -83 -204 -197 -204zM313 558c0 41 -27 76 -72 76c-57 0 -97 -45 -97 -104c0 -41 27 -77 70 -77c60 0 99 46 99 105zM595 -13c-91 0 -156 64 -156 150c0 113 84 202 199 202
c91 0 154 -63 154 -148c0 -115 -83 -204 -197 -204zM700 177c0 41 -27 76 -72 76c-57 0 -97 -45 -97 -104c0 -41 27 -77 70 -77c60 0 99 46 99 105zM986 -13c-91 0 -156 64 -156 150c0 113 84 202 199 202c91 0 154 -63 154 -148c0 -115 -83 -204 -197 -204zM1091 177
c0 41 -27 76 -72 76c-57 0 -97 -45 -97 -104c0 -41 27 -77 70 -77c60 0 99 46 99 105zM677 701l-461 -734l-62 39l461 734z" />
    <glyph glyph-name="minus" unicode="&#x2212;" horiz-adv-x="666" 
d="M62 354h542v-102h-542v102z" />
    <glyph glyph-name="plusminus" unicode="&#xb1;" horiz-adv-x="666" 
d="M286 431v143h96v-143h204v-102h-204v-143h-96v143h-206v102h206zM80 32v102h506v-102h-506z" />
    <glyph glyph-name="multiply" unicode="&#xd7;" horiz-adv-x="666" 
d="M150 557l183 -183l182 182l70 -70l-181 -181l185 -186l-74 -74l-183 181l-181 -181l-74 73l185 182l-184 186z" />
    <glyph glyph-name="divide" unicode="&#xf7;" horiz-adv-x="666" 
d="M258 483c0 41 34 75 75 75s75 -34 75 -75s-34 -75 -75 -75s-75 34 -75 75zM258 123c0 41 34 75 75 75s75 -34 75 -75s-34 -75 -75 -75s-75 34 -75 75zM586 250h-506v107h506v-107z" />
    <glyph glyph-name="notequal" unicode="&#x2260;" horiz-adv-x="666" 
d="M586 162h-264l-74 -144l-88 45l50 99h-130v102h181l38 78h-219v102h270l72 143l90 -44l-51 -99h125v-102h-176l-38 -78h214v-102z" />
    <glyph glyph-name="approxequal" unicode="&#x2248;" horiz-adv-x="666" 
d="M602 451c-9 -87 -48 -172 -149 -172c-40 0 -90 17 -136 35c-47 17 -90 34 -117 34c-37 0 -58 -37 -64 -69h-71c4 42 16 85 40 118c23 33 58 55 106 55c42 0 86 -16 130 -33c44 -16 88 -33 128 -33c37 0 56 32 62 65h71zM600 243c-9 -87 -47 -172 -148 -172
c-39 0 -89 17 -136 35c-46 17 -90 34 -118 34c-37 0 -58 -36 -64 -68h-71c8 84 49 172 146 172c42 0 86 -16 130 -33c44 -16 88 -33 128 -33c37 0 56 32 62 65h71z" />
    <glyph glyph-name="lessequal" unicode="&#x2264;" horiz-adv-x="666" 
d="M586 144l-506 170v108l506 177v-113l-359 -118l359 -112v-112zM586 4h-506v107h506v-107z" />
    <glyph glyph-name="greaterequal" unicode="&#x2265;" horiz-adv-x="666" 
d="M80 144v112l359 112l-359 118v113l506 -177v-108zM80 4v107h506v-107h-506z" />
    <glyph glyph-name="logicalnot" unicode="&#xac;" horiz-adv-x="666" 
d="M502 147v195h-440v102h542v-297h-102z" />
    <glyph glyph-name="Delta" unicode="&#x2206;" horiz-adv-x="704" 
d="M-45 0l17 74l421 634h108l134 -627l-19 -81h-661zM418 567l-286 -462h370z" />
    <glyph glyph-name="Omega" unicode="&#x2126;" horiz-adv-x="766" 
d="M660 0h-280l33 185c111 30 189 119 189 253c0 93 -45 182 -180 182c-166 0 -239 -140 -239 -262c0 -83 48 -154 134 -172l-33 -186h-279l18 100h181l4 20c-102 37 -149 128 -149 236c0 215 170 370 377 370c179 0 290 -106 290 -268c0 -159 -84 -288 -228 -338l-4 -20
h184z" />
    <glyph glyph-name="mu" unicode="&#xb5;" horiz-adv-x="600" 
d="M537 89l-7 -90c-24 -7 -47 -9 -67 -9c-71 0 -94 37 -94 85h-2c-28 -47 -85 -88 -144 -88c-40 0 -71 15 -81 37h-2l-47 -264h-117l127 720h118l-43 -245c-5 -29 -8 -50 -8 -71c0 -40 22 -77 77 -77c78 0 121 63 133 129l47 264h118l-63 -355c-5 -30 6 -40 28 -40
c11 0 18 2 27 4z" />
    <glyph glyph-name="degree" unicode="&#xb0;" horiz-adv-x="400" 
d="M74 560c0 88 72 160 160 160s160 -72 160 -160s-72 -160 -160 -160s-160 72 -160 160zM152 560c0 -45 37 -82 82 -82s82 37 82 82s-37 82 -82 82s-82 -37 -82 -82z" />
    <glyph glyph-name="afii61289" unicode="&#x2113;" horiz-adv-x="500" 
d="M489 601c0 -114 -94 -222 -254 -333c-28 -117 -29 -135 -29 -148c0 -35 22 -48 46 -48c26 0 53 11 98 40h2l29 -68c-57 -40 -106 -58 -164 -58c-82 0 -129 44 -129 113c0 12 2 28 16 92l-63 -49h-2l-33 67l118 82l52 244c25 119 99 186 194 186c71 0 119 -53 119 -120z
M392 596c0 26 -15 47 -35 47c-25 0 -47 -22 -59 -80l-41 -191c65 56 135 147 135 224z" />
    <glyph glyph-name="estimated" unicode="&#x212e;" horiz-adv-x="500" 
d="M561 259h-404v-181c39 -39 87 -59 145 -59c83 0 143 36 193 120l35 -21c-61 -95 -123 -135 -228 -135c-157 0 -258 122 -258 276c0 155 101 276 258 276c154 0 258 -114 259 -276zM157 295h291v145c-42 40 -91 60 -147 60c-57 0 -105 -21 -144 -60v-145z" />
    <glyph glyph-name="infinity" unicode="&#x221e;" horiz-adv-x="815" 
d="M770 263c0 -101 -63 -182 -169 -182c-83 0 -141 54 -193 112c-55 -58 -106 -111 -192 -111c-105 0 -171 78 -171 180c0 100 63 179 167 179c87 0 144 -57 196 -119c51 61 108 120 194 120c104 0 168 -79 168 -179zM680 260c0 48 -29 86 -80 86c-52 0 -102 -51 -135 -87
c35 -39 82 -82 138 -82c49 0 77 37 77 83zM350 259c-33 35 -87 86 -138 86c-47 0 -77 -40 -77 -85c0 -49 31 -82 80 -82c51 0 103 45 135 81z" />
    <glyph glyph-name="partialdiff" unicode="&#x2202;" horiz-adv-x="556" 
d="M514 358c0 -170 -45 -371 -255 -371c-132 0 -219 98 -219 228c0 128 87 221 216 221c55 0 101 -20 143 -55v28c2 95 -33 225 -151 225c-47 0 -86 -20 -122 -49l-59 70c55 42 104 66 175 66c207 0 272 -188 272 -363zM398 264l-1 25c-35 39 -72 64 -126 64
c-83 0 -122 -68 -122 -144c0 -72 34 -138 114 -138c95 0 137 113 135 193z" />
    <glyph glyph-name="integral" unicode="&#x222b;" horiz-adv-x="611" 
d="M486 709c0 -30 -22 -52 -52 -52c-63 0 -47 73 -76 73c-14 0 -16 -15 -16 -26c0 -41 4 -81 4 -122v-589c0 -100 -19 -208 -144 -208c-47 0 -111 19 -111 76c0 30 23 53 53 53c63 0 47 -73 74 -73c21 0 17 33 17 46c0 34 -4 68 -4 102v506c0 113 -20 291 145 291
c46 0 110 -22 110 -77z" />
    <glyph glyph-name="radical" unicode="&#x221a;" horiz-adv-x="537" 
d="M549 786l-211 -1000h-106l-152 317l-51 -25l-41 90l148 68l129 -273l168 823h116z" />
    <glyph glyph-name="summation" unicode="&#x2211;" horiz-adv-x="648" 
d="M624 -214h-599v89l303 417l-290 405v89h573v-103h-422l275 -390l-293 -404h453v-103z" />
    <glyph glyph-name="product" unicode="&#x220f;" horiz-adv-x="741" 
d="M679 -214h-114v897h-389v-897h-114v1000h617v-1000z" />
    <glyph glyph-name="lozenge" unicode="&#x25ca;" horiz-adv-x="593" 
d="M524 356l-178 -391h-100l-177 391l177 391h100zM415 356l-119 285l-118 -285l118 -286z" />
    <glyph glyph-name="uniF8FF" unicode="&#xf8ff;" horiz-adv-x="512" 
d="M278 117h-56v67h56v-67zM271 234h-46l-2 17c0 37 4 64 13 81s24 37 46 59c43 41 50 58 50 83c0 48 -35 85 -76 85s-74 -27 -82 -95l-50 8c9 95 63 137 135 137c71 0 124 -52 124 -131c0 -43 -12 -73 -63 -120c-25 -22 -39 -39 -43 -52s-6 -37 -6 -72zM50 50h412v617h-412
v-617zM0 718h512v-718h-512v718z" />
    <glyph glyph-name="uni03A9" unicode="&#x3a9;" horiz-adv-x="766" 
d="M660 0h-280l33 185c111 30 189 119 189 253c0 93 -45 182 -180 182c-166 0 -239 -140 -239 -262c0 -83 48 -154 134 -172l-33 -186h-279l18 100h181l4 20c-102 37 -149 128 -149 236c0 215 170 370 377 370c179 0 290 -106 290 -268c0 -159 -84 -288 -228 -338l-4 -20
h184z" />
    <glyph glyph-name="uni03BC" unicode="&#x3bc;" horiz-adv-x="610" 
d="M537 89l-7 -90c-24 -7 -47 -9 -67 -9c-71 0 -94 37 -94 85h-2c-28 -47 -85 -88 -144 -88c-40 0 -71 15 -81 37h-2l-47 -264h-117l127 720h118l-43 -245c-5 -29 -8 -50 -8 -71c0 -40 22 -77 77 -77c78 0 121 63 133 129l47 264h118l-63 -355c-5 -30 6 -40 28 -40
c11 0 18 2 27 4z" />
    <glyph glyph-name="pi" unicode="&#x3c0;" horiz-adv-x="655" 
d="M364 178l38 204h-133l-130 -382h-119l135 382h-109l17 98h582l-18 -98h-113l-39 -207c-2 -11 -6 -28 -6 -44c0 -28 18 -46 55 -46c11 0 20 0 29 2l-6 -87c-15 -5 -35 -10 -62 -10c-78 0 -130 37 -130 111c0 18 1 34 9 77z" />
    <glyph glyph-name="uni0394" unicode="&#x394;" horiz-adv-x="704" 
d="M-45 0l17 74l421 634h108l134 -627l-19 -81h-661zM418 567l-286 -462h370z" />
    <glyph glyph-name="zero.denominator" horiz-adv-x="400" 
d="M212 436c94 0 129 -68 129 -148c0 -123 -44 -295 -189 -295c-95 0 -133 66 -133 146c0 126 49 297 193 297zM206 359c-59 0 -97 -106 -97 -207c0 -44 12 -81 48 -81c56 0 94 106 94 208c0 47 -11 80 -45 80z" />
    <glyph glyph-name="one.denominator" horiz-adv-x="400" 
d="M207 0h-92l57 319l-85 -61l-41 61l155 110h81z" />
    <glyph glyph-name="two.denominator" horiz-adv-x="400" 
d="M283 0h-279l14 78l184 151c40 33 57 60 57 87c0 33 -21 46 -54 46c-37 0 -57 -21 -69 -58l-79 22c27 73 85 110 152 110c79 0 134 -43 134 -115c0 -65 -28 -98 -97 -152l-115 -90h167z" />
    <glyph glyph-name="three.denominator" horiz-adv-x="400" 
d="M303 136c0 -96 -72 -143 -157 -143c-75 0 -124 38 -144 97l81 24c10 -34 35 -45 64 -45c44 0 69 24 69 60c0 39 -31 59 -78 59h-23l11 67h23c59 0 85 26 85 66c0 26 -20 42 -45 42c-28 0 -48 -9 -68 -44l-66 38c33 55 82 79 139 79c84 0 125 -56 125 -112
c0 -54 -35 -92 -80 -102c41 -11 64 -48 64 -86z" />
    <glyph glyph-name="four.denominator" horiz-adv-x="400" 
d="M323 89h-56l-16 -89h-83l15 89h-192l12 70l222 270h100l-46 -267h58zM196 162l28 157h-5l-124 -157h101z" />
    <glyph glyph-name="five.denominator" horiz-adv-x="400" 
d="M319 154c0 -108 -80 -161 -161 -161c-73 0 -128 37 -147 93l76 31c10 -30 37 -48 68 -48c50 0 77 33 77 78s-31 64 -71 64c-28 0 -68 -11 -104 -30l49 248h235l-15 -77h-157l-15 -72c11 2 21 3 32 3c61 0 133 -36 133 -129z" />
    <glyph glyph-name="six.denominator" horiz-adv-x="400" 
d="M326 153c0 -85 -61 -160 -167 -160c-83 0 -145 51 -145 132c0 42 18 85 60 136l137 168h104l-133 -155l1 -1c5 1 13 2 19 2c80 0 124 -57 124 -122zM240 148c0 37 -26 60 -59 60c-50 0 -81 -36 -81 -82c0 -36 29 -59 62 -59c49 0 78 32 78 81z" />
    <glyph glyph-name="seven.denominator" horiz-adv-x="400" 
d="M116 0h-104l246 352h-192l14 77h289l-13 -73z" />
    <glyph glyph-name="eight.denominator" horiz-adv-x="400" 
d="M338 328c0 -57 -36 -91 -78 -106v-2c35 -17 57 -47 57 -85c0 -86 -70 -142 -163 -142c-62 0 -136 29 -136 120c0 59 41 101 94 117v2c-30 19 -45 47 -45 76c0 87 73 128 145 128c64 0 126 -33 126 -108zM195 260c31 0 59 23 59 59c0 26 -20 43 -47 43
c-35 0 -58 -26 -58 -57c0 -25 18 -45 46 -45zM160 67c47 0 73 29 73 67c0 32 -25 53 -57 53c-44 0 -73 -30 -73 -66c0 -38 29 -54 57 -54z" />
    <glyph glyph-name="nine.denominator" horiz-adv-x="400" 
d="M41 276c0 85 61 160 167 160c83 0 145 -51 145 -132c0 -42 -18 -85 -60 -136l-137 -168h-104l134 155l-1 1c-5 -1 -14 -2 -20 -2c-80 0 -124 57 -124 122zM127 281c0 -37 26 -59 59 -59c50 0 81 35 81 81c0 37 -30 59 -62 59c-47 0 -78 -32 -78 -81z" />
    <glyph glyph-name="zero.inferior" unicode="&#x2080;" horiz-adv-x="400" 
d="M187 294c94 0 129 -68 129 -148c0 -123 -44 -295 -189 -295c-95 0 -133 66 -133 146c0 126 49 297 193 297zM181 217c-59 0 -97 -106 -97 -207c0 -44 12 -81 48 -81c56 0 94 106 94 208c0 47 -11 80 -45 80z" />
    <glyph glyph-name="one.inferior" unicode="&#x2081;" horiz-adv-x="400" 
d="M182 -142h-92l57 319l-85 -61l-41 61l155 110h81z" />
    <glyph glyph-name="two.inferior" unicode="&#x2082;" horiz-adv-x="400" 
d="M258 -142h-279l14 78l184 151c40 33 57 60 57 87c0 33 -21 46 -54 46c-37 0 -57 -21 -69 -58l-79 22c27 73 85 110 152 110c79 0 134 -43 134 -115c0 -65 -28 -98 -97 -152l-115 -90h167z" />
    <glyph glyph-name="three.inferior" unicode="&#x2083;" horiz-adv-x="400" 
d="M278 -6c0 -96 -72 -143 -157 -143c-75 0 -124 38 -144 97l81 24c10 -34 35 -45 64 -45c44 0 69 24 69 60c0 39 -31 59 -78 59h-23l11 67h23c59 0 85 26 85 66c0 26 -20 42 -45 42c-28 0 -48 -9 -68 -44l-66 38c33 55 82 79 139 79c84 0 125 -56 125 -112
c0 -54 -35 -92 -80 -102c41 -11 64 -48 64 -86z" />
    <glyph glyph-name="four.inferior" unicode="&#x2084;" horiz-adv-x="400" 
d="M298 -53h-56l-16 -89h-83l15 89h-192l12 70l222 270h100l-46 -267h58zM171 20l28 157h-5l-124 -157h101z" />
    <glyph glyph-name="five.inferior" unicode="&#x2085;" horiz-adv-x="400" 
d="M294 12c0 -108 -80 -161 -161 -161c-73 0 -128 37 -147 93l76 31c10 -30 37 -48 68 -48c50 0 77 33 77 78s-31 64 -71 64c-28 0 -68 -11 -104 -30l49 248h235l-15 -77h-157l-15 -72c11 2 21 3 32 3c61 0 133 -36 133 -129z" />
    <glyph glyph-name="six.inferior" unicode="&#x2086;" horiz-adv-x="400" 
d="M301 11c0 -85 -61 -160 -167 -160c-83 0 -145 51 -145 132c0 42 18 85 60 136l137 168h104l-133 -155l1 -1c5 1 13 2 19 2c80 0 124 -57 124 -122zM215 6c0 37 -26 60 -59 60c-50 0 -81 -36 -81 -82c0 -36 29 -59 62 -59c49 0 78 32 78 81z" />
    <glyph glyph-name="seven.inferior" unicode="&#x2087;" horiz-adv-x="400" 
d="M91 -142h-104l246 352h-192l14 77h289l-13 -73z" />
    <glyph glyph-name="eight.inferior" unicode="&#x2088;" horiz-adv-x="400" 
d="M313 186c0 -57 -36 -91 -78 -106v-2c35 -17 57 -47 57 -85c0 -86 -70 -142 -163 -142c-62 0 -136 29 -136 120c0 59 41 101 94 117v2c-30 19 -45 47 -45 76c0 87 73 128 145 128c64 0 126 -33 126 -108zM170 118c31 0 59 23 59 59c0 26 -20 43 -47 43
c-35 0 -58 -26 -58 -57c0 -25 18 -45 46 -45zM135 -75c47 0 73 29 73 67c0 32 -25 53 -57 53c-44 0 -73 -30 -73 -66c0 -38 29 -54 57 -54z" />
    <glyph glyph-name="nine.inferior" unicode="&#x2089;" horiz-adv-x="400" 
d="M16 134c0 85 61 160 167 160c83 0 145 -51 145 -132c0 -42 -18 -85 -60 -136l-137 -168h-104l134 155l-1 1c-5 -1 -14 -2 -20 -2c-80 0 -124 57 -124 122zM102 139c0 -37 26 -59 59 -59c50 0 81 35 81 81c0 37 -30 59 -62 59c-47 0 -78 -32 -78 -81z" />
    <glyph glyph-name="zero.numerator" horiz-adv-x="400" 
d="M261 715c94 0 129 -68 129 -148c0 -123 -44 -295 -189 -295c-95 0 -133 66 -133 146c0 126 49 297 193 297zM255 638c-59 0 -97 -106 -97 -207c0 -44 12 -81 48 -81c56 0 94 106 94 208c0 47 -11 80 -45 80z" />
    <glyph glyph-name="one.numerator" horiz-adv-x="400" 
d="M256 279h-92l57 319l-85 -61l-41 61l155 110h81z" />
    <glyph glyph-name="two.numerator" horiz-adv-x="400" 
d="M332 279h-279l14 78l184 151c40 33 57 60 57 87c0 33 -21 46 -54 46c-37 0 -57 -21 -69 -58l-79 22c27 73 85 110 152 110c79 0 134 -43 134 -115c0 -65 -28 -98 -97 -152l-115 -90h167z" />
    <glyph glyph-name="three.numerator" horiz-adv-x="400" 
d="M352 415c0 -96 -72 -143 -157 -143c-75 0 -124 38 -144 97l81 24c10 -34 35 -45 64 -45c44 0 69 24 69 60c0 39 -31 59 -78 59h-23l11 67h23c59 0 85 26 85 66c0 26 -20 42 -45 42c-28 0 -48 -9 -68 -44l-66 38c33 55 82 79 139 79c84 0 125 -56 125 -112
c0 -54 -35 -92 -80 -102c41 -11 64 -48 64 -86z" />
    <glyph glyph-name="four.numerator" horiz-adv-x="400" 
d="M372 368h-56l-16 -89h-83l15 89h-192l12 70l222 270h100l-46 -267h58zM245 441l28 157h-5l-124 -157h101z" />
    <glyph glyph-name="five.numerator" horiz-adv-x="400" 
d="M368 433c0 -108 -80 -161 -161 -161c-73 0 -128 37 -147 93l76 31c10 -30 37 -48 68 -48c50 0 77 33 77 78s-31 64 -71 64c-28 0 -68 -11 -104 -30l49 248h235l-15 -77h-157l-15 -72c11 2 21 3 32 3c61 0 133 -36 133 -129z" />
    <glyph glyph-name="six.numerator" horiz-adv-x="400" 
d="M375 432c0 -85 -61 -160 -167 -160c-83 0 -145 51 -145 132c0 42 18 85 60 136l137 168h104l-133 -155l1 -1c5 1 13 2 19 2c80 0 124 -57 124 -122zM289 427c0 37 -26 60 -59 60c-50 0 -81 -36 -81 -82c0 -36 29 -59 62 -59c49 0 78 32 78 81z" />
    <glyph glyph-name="seven.numerator" horiz-adv-x="400" 
d="M165 279h-104l246 352h-192l14 77h289l-13 -73z" />
    <glyph glyph-name="eight.numerator" horiz-adv-x="400" 
d="M387 607c0 -57 -36 -91 -78 -106v-2c35 -17 57 -47 57 -85c0 -86 -70 -142 -163 -142c-62 0 -136 29 -136 120c0 59 41 101 94 117v2c-30 19 -45 47 -45 76c0 87 73 128 145 128c64 0 126 -33 126 -108zM244 539c31 0 59 23 59 59c0 26 -20 43 -47 43
c-35 0 -58 -26 -58 -57c0 -25 18 -45 46 -45zM209 346c47 0 73 29 73 67c0 32 -25 53 -57 53c-44 0 -73 -30 -73 -66c0 -38 29 -54 57 -54z" />
    <glyph glyph-name="nine.numerator" horiz-adv-x="400" 
d="M90 555c0 85 61 160 167 160c83 0 145 -51 145 -132c0 -42 -18 -85 -60 -136l-137 -168h-104l134 155l-1 1c-5 -1 -14 -2 -20 -2c-80 0 -124 57 -124 122zM176 560c0 -37 26 -59 59 -59c50 0 81 35 81 81c0 37 -30 59 -62 59c-47 0 -78 -32 -78 -81z" />
    <glyph glyph-name="zero.superior" unicode="&#x2070;" horiz-adv-x="400" 
d="M291 884c94 0 129 -68 129 -148c0 -123 -44 -295 -189 -295c-95 0 -133 66 -133 146c0 126 49 297 193 297zM285 807c-59 0 -97 -106 -97 -207c0 -44 12 -81 48 -81c56 0 94 106 94 208c0 47 -11 80 -45 80z" />
    <glyph glyph-name="onesuperior" unicode="&#xb9;" horiz-adv-x="400" 
d="M286 448h-92l57 319l-85 -61l-41 61l155 110h81z" />
    <glyph glyph-name="twosuperior" unicode="&#xb2;" horiz-adv-x="400" 
d="M362 448h-279l14 78l184 151c40 33 57 60 57 87c0 33 -21 46 -54 46c-37 0 -57 -21 -69 -58l-79 22c27 73 85 110 152 110c79 0 134 -43 134 -115c0 -65 -28 -98 -97 -152l-115 -90h167z" />
    <glyph glyph-name="threesuperior" unicode="&#xb3;" horiz-adv-x="400" 
d="M382 584c0 -96 -72 -143 -157 -143c-75 0 -124 38 -144 97l81 24c10 -34 35 -45 64 -45c44 0 69 24 69 60c0 39 -31 59 -78 59h-23l11 67h23c59 0 85 26 85 66c0 26 -20 42 -45 42c-28 0 -48 -9 -68 -44l-66 38c33 55 82 79 139 79c84 0 125 -56 125 -112
c0 -54 -35 -92 -80 -102c41 -11 64 -48 64 -86z" />
    <glyph glyph-name="four.superior" unicode="&#x2074;" horiz-adv-x="400" 
d="M402 537h-56l-16 -89h-83l15 89h-192l12 70l222 270h100l-46 -267h58zM275 610l28 157h-5l-124 -157h101z" />
    <glyph glyph-name="five.superior" unicode="&#x2075;" horiz-adv-x="400" 
d="M398 602c0 -108 -80 -161 -161 -161c-73 0 -128 37 -147 93l76 31c10 -30 37 -48 68 -48c50 0 77 33 77 78s-31 64 -71 64c-28 0 -68 -11 -104 -30l49 248h235l-15 -77h-157l-15 -72c11 2 21 3 32 3c61 0 133 -36 133 -129z" />
    <glyph glyph-name="six.superior" unicode="&#x2076;" horiz-adv-x="400" 
d="M405 601c0 -85 -61 -160 -167 -160c-83 0 -145 51 -145 132c0 42 18 85 60 136l137 168h104l-133 -155l1 -1c5 1 13 2 19 2c80 0 124 -57 124 -122zM319 596c0 37 -26 60 -59 60c-50 0 -81 -36 -81 -82c0 -36 29 -59 62 -59c49 0 78 32 78 81z" />
    <glyph glyph-name="seven.superior" unicode="&#x2077;" horiz-adv-x="400" 
d="M195 448h-104l246 352h-192l14 77h289l-13 -73z" />
    <glyph glyph-name="eight.superior" unicode="&#x2078;" horiz-adv-x="400" 
d="M417 776c0 -57 -36 -91 -78 -106v-2c35 -17 57 -47 57 -85c0 -86 -70 -142 -163 -142c-62 0 -136 29 -136 120c0 59 41 101 94 117v2c-30 19 -45 47 -45 76c0 87 73 128 145 128c64 0 126 -33 126 -108zM274 708c31 0 59 23 59 59c0 26 -20 43 -47 43
c-35 0 -58 -26 -58 -57c0 -25 18 -45 46 -45zM239 515c47 0 73 29 73 67c0 32 -25 53 -57 53c-44 0 -73 -30 -73 -66c0 -38 29 -54 57 -54z" />
    <glyph glyph-name="nine.superior" unicode="&#x2079;" horiz-adv-x="400" 
d="M120 724c0 85 61 160 167 160c83 0 145 -51 145 -132c0 -42 -18 -85 -60 -136l-137 -168h-104l134 155l-1 1c-5 -1 -14 -2 -20 -2c-80 0 -124 57 -124 122zM206 729c0 -37 26 -59 59 -59c50 0 81 35 81 81c0 37 -30 59 -62 59c-47 0 -78 -32 -78 -81z" />
    <glyph glyph-name="interrobang" unicode="&#x203d;" horiz-adv-x="517" 
d="M305 208h-111l52 302h108l-25 -117h1c73 62 91 102 91 149s-31 84 -95 84c-76 0 -118 -56 -130 -111l-105 18c23 107 114 193 244 193c107 0 198 -51 198 -177c0 -87 -47 -142 -131 -203c-61 -44 -87 -73 -93 -113zM309 72c0 -41 -33 -76 -74 -76c-40 0 -73 26 -73 72
c0 44 36 76 76 76s71 -28 71 -72z" />
    <glyph glyph-name="afii61248" unicode="&#x2105;" horiz-adv-x="924" 
d="M246 356c-101 0 -168 62 -168 153c0 111 84 213 211 213c55 0 99 -17 136 -66l-74 -59c-13 22 -36 36 -68 36c-62 0 -104 -53 -104 -114c0 -38 19 -73 73 -73c38 0 61 17 83 40l62 -62c-43 -42 -91 -68 -151 -68zM219 -33l-62 39l547 734l62 -39zM862 203
c0 -117 -80 -214 -207 -214c-97 0 -171 62 -171 153c0 115 80 213 207 213c98 0 171 -62 171 -152zM762 194c0 42 -30 72 -77 72c-62 0 -101 -52 -101 -115c0 -42 27 -73 75 -73c63 0 103 52 103 116z" />
    <glyph glyph-name="published" unicode="&#x2117;" horiz-adv-x="800" 
d="M20 353c0 210 171 377 381 377c209 0 379 -167 379 -377c0 -209 -170 -375 -379 -375c-210 0 -381 166 -381 375zM80 353c0 -176 144 -319 321 -319c176 0 319 143 319 319c0 177 -143 321 -319 321c-177 0 -321 -144 -321 -321zM268 126v442h169c104 0 172 -49 172 -145
c0 -100 -76 -148 -173 -148h-68v-149h-100zM368 362h70c44 0 72 21 72 61c0 39 -27 59 -69 59h-73v-120z" />
    <glyph glyph-name="uni0406" unicode="&#x406;" horiz-adv-x="291" 
d="M25 0l125 708h123l-125 -708h-123z" />
    <glyph glyph-name="uni0456" unicode="&#x456;" horiz-adv-x="267" 
d="M21 0l84 480h118l-85 -480h-117zM191 572c-38 0 -70 25 -70 69c0 42 35 73 73 73s68 -27 68 -69c0 -39 -31 -73 -71 -73z" />
    <glyph glyph-name="uni0408" unicode="&#x408;" horiz-adv-x="500" 
d="M174 -18c-113 0 -186 63 -198 155l115 33c5 -44 35 -79 80 -79c78 0 103 60 117 141l84 476h124l-85 -480c-19 -109 -64 -246 -237 -246z" />
    <glyph glyph-name="uni0458" unicode="&#x458;" horiz-adv-x="267" 
d="M-69 -240c-20 0 -41 3 -53 6l23 100c10 -3 23 -4 32 -4c57 0 71 46 81 102l91 516h118l-90 -512c-20 -113 -61 -208 -202 -208zM191 572c-38 0 -70 25 -70 69c0 42 35 73 73 73s68 -27 68 -69c0 -39 -31 -73 -71 -73z" />
    <glyph glyph-name="uni0410" unicode="&#x410;" horiz-adv-x="668" 
d="M-87 0l462 708h107l141 -708h-131l-29 163h-303l-101 -163h-146zM220 269h226l-47 297z" />
    <glyph glyph-name="uni0411" unicode="&#x411;" horiz-adv-x="640" 
d="M25 0l125 708h451l-19 -108h-327l-33 -180h110c157 0 245 -71 245 -188c0 -159 -120 -232 -299 -232h-253zM166 104h122c102 0 165 35 165 116c0 72 -52 96 -131 96h-118z" />
    <glyph glyph-name="uni0412" unicode="&#x412;" horiz-adv-x="646" 
d="M25 0l125 708h246c98 0 206 -40 206 -155c0 -94 -63 -158 -156 -181v-2c77 -12 132 -68 132 -151c0 -144 -125 -219 -302 -219h-251zM164 104h123c88 0 167 32 167 121c0 55 -43 89 -120 89h-134zM219 417h128c57 0 132 28 132 109c0 58 -49 80 -114 80h-112z" />
    <glyph glyph-name="uni0413" unicode="&#x413;" horiz-adv-x="491" 
d="M25 0l125 708h415l-19 -108h-292l-106 -600h-123z" />
    <glyph glyph-name="uni0414" unicode="&#x414;" horiz-adv-x="768" 
d="M-65 -161l47 271h53c87 77 150 198 188 413l33 185h480l-106 -598h79l-48 -271h-112l29 161h-504l-29 -161h-110zM182 110h325l86 490h-236l-16 -90c-37 -213 -103 -335 -159 -400z" />
    <glyph glyph-name="uni0415" unicode="&#x415;" horiz-adv-x="584" 
d="M25 0l125 708h446l-19 -108h-326l-32 -183h311l-19 -104h-310l-36 -203h354l-19 -110h-475z" />
    <glyph glyph-name="uni0416" unicode="&#x416;" horiz-adv-x="976" 
d="M-85 0l402 384l-224 324h151l197 -306h2l54 306h121l-54 -306h2l304 306h164l-353 -333l256 -375h-152l-228 353h-2l-62 -353h-121l62 353h-2l-353 -353h-164z" />
    <glyph glyph-name="uni0417" unicode="&#x417;" horiz-adv-x="573" 
d="M232 -18c-123 0 -208 40 -257 109l92 76c26 -44 77 -81 155 -81c82 0 158 45 158 132c0 72 -68 96 -148 96h-48l17 103h50c80 0 158 30 158 115c0 55 -48 92 -109 92s-118 -25 -157 -64l-64 77c53 49 132 89 231 89c143 0 221 -64 221 -175c0 -88 -64 -163 -143 -182v-2
c67 -19 118 -71 118 -148c0 -164 -138 -237 -274 -237z" />
    <glyph glyph-name="uni0418" unicode="&#x418;" horiz-adv-x="741" 
d="M25 0l125 708h122l-92 -521h3l418 521h132l-125 -708h-122l92 519h-3l-416 -519h-134z" />
    <glyph glyph-name="uni0419" unicode="&#x419;" horiz-adv-x="741" 
d="M25 0l125 708h122l-92 -521h3l418 521h132l-125 -708h-122l92 519h-3l-416 -519h-134zM454 765c-90 0 -149 48 -152 135l69 13c4 -46 32 -74 82 -74c49 0 91 28 107 74l66 -13c-20 -88 -88 -135 -172 -135z" />
    <glyph glyph-name="uni041A" unicode="&#x41a;" horiz-adv-x="646" 
d="M25 0l125 708h122l-56 -314h3l319 314h166l-367 -334l275 -374h-161l-239 356h-3l-62 -356h-122z" />
    <glyph glyph-name="uni041B" unicode="&#x41b;" horiz-adv-x="763" 
d="M42 -7c-23 0 -56 3 -77 8l24 108c14 -5 25 -7 41 -7c96 0 159 94 212 400l36 206h477l-124 -708h-123l105 600h-234l-21 -120c-62 -358 -146 -487 -316 -487z" />
    <glyph glyph-name="uni041C" unicode="&#x41c;" horiz-adv-x="920" 
d="M25 0l125 708h192l96 -507h2l277 507h195l-124 -708h-122l102 571h-3l-319 -571h-86l-115 571h-2l-101 -571h-117z" />
    <glyph glyph-name="uni041D" unicode="&#x41d;" horiz-adv-x="729" 
d="M25 0l125 708h123l-51 -287h325l51 287h123l-125 -708h-123l55 315h-324l-56 -315h-123z" />
    <glyph glyph-name="uni041E" unicode="&#x41e;" horiz-adv-x="829" 
d="M389 -18c-208 0 -341 117 -341 307c0 241 177 437 411 437c202 0 335 -117 335 -307c0 -241 -171 -437 -405 -437zM389 90c178 0 278 158 278 318c0 116 -76 212 -214 212c-171 0 -278 -158 -278 -318c0 -116 76 -212 214 -212z" />
    <glyph glyph-name="uni041F" unicode="&#x41f;" horiz-adv-x="724" 
d="M25 0l125 708h566l-125 -708h-124l107 600h-320l-106 -600h-123z" />
    <glyph glyph-name="uni0420" unicode="&#x420;" horiz-adv-x="609" 
d="M25 0l125 708h213c155 0 241 -70 241 -186c0 -160 -121 -228 -298 -228h-107l-52 -294h-122zM217 398h94c100 0 169 27 169 111c0 75 -57 95 -136 95h-90z" />
    <glyph glyph-name="uni0421" unicode="&#x421;" horiz-adv-x="681" 
d="M364 -18c-189 0 -316 123 -316 304c0 245 182 440 417 440c104 0 198 -44 241 -108l-97 -73c-21 33 -71 75 -148 75c-168 0 -285 -158 -285 -318c0 -116 72 -212 203 -212c70 0 137 29 187 91l79 -70c-56 -71 -148 -129 -281 -129z" />
    <glyph glyph-name="uni0422" unicode="&#x422;" horiz-adv-x="533" 
d="M151 0l105 600h-210l19 108h542l-19 -108h-208l-106 -600h-123z" />
    <glyph glyph-name="uni0423" unicode="&#x423;" horiz-adv-x="633" 
d="M72 -10c-38 0 -63 6 -75 9l19 106c14 -5 42 -8 60 -8c56 0 82 34 125 88l33 41l-171 482h130l125 -372l260 372h141l-396 -547c-74 -102 -133 -171 -251 -171z" />
    <glyph glyph-name="uni0424" unicode="&#x424;" horiz-adv-x="850" 
d="M304 -18l15 87c-184 20 -276 119 -276 271c0 173 123 314 381 324l11 62h122l-12 -65c184 -20 277 -119 277 -268c0 -177 -124 -317 -381 -327l-15 -84h-122zM338 176l67 380c-169 -11 -234 -106 -234 -214c0 -90 62 -150 167 -166zM460 173c167 11 235 107 235 220
c0 85 -65 145 -168 161z" />
    <glyph glyph-name="uni0425" unicode="&#x425;" horiz-adv-x="631" 
d="M-73 0l332 378l-144 330h136l98 -248l202 248h148l-296 -340l165 -368h-140l-115 281l-232 -281h-154z" />
    <glyph glyph-name="uni0426" unicode="&#x426;" horiz-adv-x="747" 
d="M528 -161l29 161h-532l125 708h123l-106 -598h319l106 598h123l-106 -598h78l-48 -271h-111z" />
    <glyph glyph-name="uni0427" unicode="&#x427;" horiz-adv-x="650" 
d="M394 0l49 277c-37 -10 -99 -22 -160 -22c-135 0 -198 53 -198 155c0 17 2 35 6 56l42 242h122l-39 -227c-2 -13 -4 -26 -4 -37c0 -56 32 -84 110 -84c52 0 111 8 139 20l58 328h123l-125 -708h-123z" />
    <glyph glyph-name="uni0428" unicode="&#x428;" horiz-adv-x="1059" 
d="M25 0l125 708h123l-105 -598h266l105 598h123l-105 -598h266l105 598h123l-125 -708h-901z" />
    <glyph glyph-name="uni0429" unicode="&#x429;" horiz-adv-x="1083" 
d="M864 -161l28 161h-867l125 708h123l-106 -598h266l106 598h123l-106 -598h266l106 598h123l-106 -598h78l-48 -271h-111z" />
    <glyph glyph-name="uni042A" unicode="&#x42a;" horiz-adv-x="687" 
d="M108 0l106 600h-168l18 108h292l-49 -281h84c159 0 249 -73 249 -192c0 -161 -122 -235 -304 -235h-228zM249 104h96c106 0 171 36 171 119c0 76 -53 100 -136 100h-92z" />
    <glyph glyph-name="uni042B" unicode="&#x42b;" horiz-adv-x="869" 
d="M25 0l125 708h123l-49 -281h84c159 0 249 -73 249 -192c0 -161 -122 -235 -304 -235h-228zM166 104h96c106 0 171 36 171 119c0 76 -53 100 -136 100h-92zM612 0l124 708h125l-125 -708h-124z" />
    <glyph glyph-name="uni042C" unicode="&#x42c;" horiz-adv-x="604" 
d="M25 0l125 708h123l-49 -281h84c159 0 249 -73 249 -192c0 -161 -122 -235 -304 -235h-228zM166 104h96c106 0 171 36 171 119c0 76 -53 100 -136 100h-92z" />
    <glyph glyph-name="uni042D" unicode="&#x42d;" horiz-adv-x="692" 
d="M257 -19c-124 0 -223 44 -266 109l96 79c24 -38 80 -78 171 -78c128 0 235 103 260 222h-301l18 104h295c-5 116 -79 203 -210 203c-72 0 -143 -30 -194 -90l-73 73c56 66 149 123 273 123c205 0 331 -122 331 -311c0 -242 -167 -434 -400 -434z" />
    <glyph glyph-name="uni042E" unicode="&#x42e;" horiz-adv-x="1072" 
d="M641 -18c-193 0 -308 121 -308 296c0 10 0 27 1 37h-130l-56 -315h-123l125 708h123l-51 -287h131c50 171 189 305 377 305c191 0 307 -121 307 -296c0 -233 -155 -448 -396 -448zM648 91c158 0 261 162 261 328c0 110 -64 201 -187 201c-158 0 -262 -166 -262 -329
c0 -110 65 -200 188 -200z" />
    <glyph glyph-name="uni042F" unicode="&#x42f;" horiz-adv-x="618" 
d="M-34 0l240 301c-82 28 -127 88 -127 172c0 161 123 235 304 235h227l-125 -708h-123l49 281h-83l-212 -281h-150zM344 382h84l39 222h-87c-108 0 -174 -36 -174 -121c0 -78 55 -101 138 -101z" />
    <glyph glyph-name="uni0430" unicode="&#x430;" horiz-adv-x="539" 
d="M163 -10c-67 0 -151 28 -151 127c0 158 187 187 345 187c3 16 3 23 3 31c0 46 -31 65 -89 65c-47 0 -100 -20 -139 -48l-45 79c54 39 128 62 201 62c92 0 186 -36 186 -145c0 -12 -2 -32 -4 -45l-35 -195c-6 -37 -12 -82 -12 -108h-108c0 18 2 37 6 57h-2
c-37 -44 -89 -67 -156 -67zM203 76c73 0 125 51 137 114l6 30h-14c-90 0 -207 -10 -207 -84c0 -46 39 -60 78 -60z" />
    <glyph glyph-name="uni0431" unicode="&#x431;" horiz-adv-x="611" 
d="M266 -13c-82 0 -139 24 -177 66s-56 102 -56 172c0 95 27 230 72 324c43 87 110 142 228 155l124 14c53 6 76 17 90 47l81 -25c-29 -77 -73 -107 -147 -116l-132 -16c-107 -13 -174 -62 -206 -227h3c49 71 119 107 206 107c121 0 205 -82 205 -210
c0 -171 -129 -291 -291 -291zM271 84c101 0 168 96 168 190c0 67 -43 121 -121 121c-98 0 -167 -92 -167 -185c0 -68 42 -126 120 -126z" />
    <glyph glyph-name="uni0432" unicode="&#x432;" horiz-adv-x="558" 
d="M22 0l83 480h248c67 0 140 -27 140 -104c0 -66 -42 -108 -104 -123v-2c51 -8 88 -46 88 -102c0 -97 -86 -149 -206 -149h-249zM153 87h104c51 0 102 19 102 69c0 31 -24 50 -70 50h-115zM188 287h109c34 0 79 16 79 63c0 33 -30 47 -68 47h-100z" />
    <glyph glyph-name="uni0433" unicode="&#x433;" horiz-adv-x="421" 
d="M21 0l84 480h311l-16 -94h-194l-68 -386h-117z" />
    <glyph glyph-name="uni0434" unicode="&#x434;" horiz-adv-x="630" 
d="M-52 -136l39 232h49c44 47 90 124 114 258l22 126h385l-68 -384h71l-40 -232h-101l24 136h-372l-23 -136h-100zM161 96h211l53 290h-157l-12 -63c-21 -111 -55 -179 -95 -227z" />
    <glyph glyph-name="uni0435" unicode="&#x435;" horiz-adv-x="564" 
d="M252 -14c-130 0 -225 78 -225 213c0 165 118 294 281 294c115 0 200 -65 200 -192c0 -21 -4 -65 -12 -98h-356c-1 -5 -1 -8 -1 -11c0 -63 55 -110 126 -110c61 0 103 25 137 63l67 -63c-59 -64 -131 -96 -217 -96zM151 287h249c1 9 2 17 2 25c0 52 -39 93 -105 93
c-82 0 -135 -66 -146 -118z" />
    <glyph glyph-name="uni0436" unicode="&#x436;" horiz-adv-x="770" 
d="M-70 0l259 259l-154 221h135l143 -215h3l37 215h117l-37 -215h3l205 215h152l-241 -234l173 -246h-138l-158 233h-3l-40 -233h-117l40 233h-3l-223 -233h-153z" />
    <glyph glyph-name="uni0437" unicode="&#x437;" horiz-adv-x="478" 
d="M183 -18c-84 0 -156 26 -199 78l69 75c24 -32 68 -59 126 -59c53 0 101 16 101 71c0 45 -49 56 -106 56h-35l15 84h37c59 0 106 16 106 70c0 32 -34 44 -76 44c-44 0 -92 -17 -124 -51l-52 67c46 50 118 75 199 75c105 0 169 -44 169 -122c0 -59 -46 -106 -107 -119v-2
c54 -12 92 -46 92 -110c0 -99 -98 -157 -215 -157z" />
    <glyph glyph-name="uni0438" unicode="&#x438;" horiz-adv-x="611" 
d="M21 0l83 480h116l-55 -320l268 320h126l-84 -480h-114l55 319h-2l-265 -319h-128z" />
    <glyph glyph-name="uni0439" unicode="&#x439;" horiz-adv-x="611" 
d="M339 565c-84 0 -143 45 -146 129l66 13c4 -45 34 -70 82 -70s87 24 101 70l63 -13c-19 -85 -78 -129 -166 -129zM21 0l83 480h116l-55 -320l268 320h126l-84 -480h-114l55 319h-2l-265 -319h-128z" />
    <glyph glyph-name="uni043A" unicode="&#x43a;" horiz-adv-x="538" 
d="M21 0l83 480h118l-38 -212h3l221 212h153l-256 -234l187 -246h-143l-168 234h-3l-40 -234h-117z" />
    <glyph glyph-name="uni043B" unicode="&#x43b;" horiz-adv-x="600" 
d="M23 -6c-18 0 -55 4 -67 7l18 95c8 -3 20 -4 31 -4c57 0 102 47 132 217l30 171h381l-85 -480h-117l68 386h-149l-19 -105c-37 -204 -100 -287 -223 -287z" />
    <glyph glyph-name="uni043C" unicode="&#x43c;" horiz-adv-x="757" 
d="M21 0l83 480h157l85 -325h1l195 325h163l-85 -480h-113l62 351h-3l-212 -351h-71l-88 352h-2l-61 -352h-111z" />
    <glyph glyph-name="uni043D" unicode="&#x43d;" horiz-adv-x="593" 
d="M21 0l84 480h118l-33 -183h202l32 183h117l-85 -480h-117l36 203h-200l-37 -203h-117z" />
    <glyph glyph-name="uni043E" unicode="&#x43e;" horiz-adv-x="604" 
d="M259 -13c-134 0 -232 85 -232 209c0 157 114 297 290 297c135 0 233 -84 233 -208c0 -160 -114 -298 -291 -298zM265 84c101 0 167 87 167 189c0 71 -47 124 -123 124c-100 0 -166 -88 -166 -189c0 -72 45 -124 122 -124z" />
    <glyph glyph-name="uni043F" unicode="&#x43f;" horiz-adv-x="590" 
d="M21 0l84 480h433l-84 -480h-117l67 386h-198l-68 -386h-117z" />
    <glyph glyph-name="uni0440" unicode="&#x440;" horiz-adv-x="635" 
d="M-24 -240l127 720h111l-12 -77h3c38 56 102 88 173 88c123 0 203 -84 203 -207c0 -165 -110 -298 -264 -298c-87 0 -140 35 -168 90h-2l-53 -316h-118zM297 81c99 0 164 84 164 189c0 70 -42 125 -118 125c-94 0 -168 -87 -168 -189c0 -73 48 -125 122 -125z" />
    <glyph glyph-name="uni0441" unicode="&#x441;" horiz-adv-x="492" 
d="M258 -13c-139 0 -231 84 -231 208c0 156 116 298 293 298c72 0 142 -25 177 -81l-84 -68c-17 29 -57 53 -99 53c-99 0 -171 -87 -171 -187c0 -66 37 -126 122 -126c59 0 93 23 123 54l67 -68c-51 -50 -114 -83 -197 -83z" />
    <glyph glyph-name="uni0442" unicode="&#x442;" horiz-adv-x="468" 
d="M111 0l68 386h-152l16 94h420l-16 -94h-151l-67 -386h-118z" />
    <glyph glyph-name="uni0443" unicode="&#x443;" horiz-adv-x="506" 
d="M19 -240c-20 0 -41 2 -61 7l15 102c15 -5 31 -7 44 -7c44 0 63 25 92 75l36 62l-108 481h126l62 -352h2l192 352h124l-340 -584c-50 -86 -91 -136 -184 -136z" />
    <glyph glyph-name="uni0444" unicode="&#x444;" horiz-adv-x="763" 
d="M226 -240l39 225c-153 17 -238 100 -238 229c0 174 139 273 328 279l45 263h118l-47 -266c154 -16 239 -97 239 -228c0 -175 -138 -274 -328 -280l-38 -222h-118zM283 83l55 310c-116 -6 -192 -65 -192 -173c0 -74 40 -127 137 -137zM400 81c116 6 191 68 191 175
c0 74 -40 125 -137 136z" />
    <glyph glyph-name="uni0445" unicode="&#x445;" horiz-adv-x="513" 
d="M-73 0l247 255l-129 225h129l78 -150l133 150h144l-220 -231l142 -249h-133l-89 172l-153 -172h-149z" />
    <glyph glyph-name="uni0446" unicode="&#x446;" horiz-adv-x="611" 
d="M400 -136l24 136h-402l84 480h117l-68 -384h198l68 384h117l-68 -384h71l-41 -232h-100z" />
    <glyph glyph-name="uni0447" unicode="&#x447;" horiz-adv-x="549" 
d="M296 0l32 179c-30 -8 -76 -14 -128 -14c-98 0 -142 46 -142 121c0 14 1 27 4 42l27 152h115l-24 -131c-2 -12 -3 -22 -3 -31c0 -48 29 -58 76 -58c39 0 73 8 91 12l36 208h117l-84 -480h-117z" />
    <glyph glyph-name="uni0448" unicode="&#x448;" horiz-adv-x="861" 
d="M21 0l84 480h118l-69 -384h177l67 384h118l-68 -384h176l67 384h118l-85 -480h-703z" />
    <glyph glyph-name="uni0449" unicode="&#x449;" horiz-adv-x="882" 
d="M671 -136l24 136h-674l84 480h118l-68 -384h176l67 384h118l-68 -384h176l67 384h118l-68 -384h71l-41 -232h-100z" />
    <glyph glyph-name="uni044A" unicode="&#x44a;" horiz-adv-x="602" 
d="M90 0l66 386h-129l16 94h248l-30 -167h97c117 0 184 -53 184 -141c0 -117 -90 -172 -223 -172h-229zM222 88h94c67 0 108 23 108 76c0 47 -34 63 -85 63h-93z" />
    <glyph glyph-name="uni044B" unicode="&#x44b;" horiz-adv-x="767" 
d="M21 0l83 480h118l-30 -167h97c117 0 184 -53 184 -141c0 -117 -90 -172 -223 -172h-229zM153 88h94c67 0 108 23 108 76c0 47 -34 63 -85 63h-93zM514 0l85 480h116l-84 -480h-117z" />
    <glyph glyph-name="uni044C" unicode="&#x44c;" horiz-adv-x="533" 
d="M21 0l83 480h118l-30 -167h97c117 0 184 -53 184 -141c0 -117 -90 -172 -223 -172h-229zM153 88h94c67 0 108 23 108 76c0 47 -34 63 -85 63h-93z" />
    <glyph glyph-name="uni044D" unicode="&#x44d;" horiz-adv-x="494" 
d="M156 -17c-89 0 -150 28 -186 72l69 74c19 -25 55 -51 116 -51c70 0 138 48 158 124h-191l14 88h186c-5 63 -53 109 -127 109c-52 0 -97 -22 -126 -52l-54 75c46 42 118 71 193 71c145 0 232 -85 232 -218c0 -165 -114 -292 -284 -292z" />
    <glyph glyph-name="uni044E" unicode="&#x44e;" horiz-adv-x="816" 
d="M486 -13c-130 0 -225 81 -224 216h-88l-36 -203h-117l85 480h117l-33 -183h87c34 114 139 196 258 196c140 0 227 -90 227 -211c0 -155 -112 -295 -276 -295zM645 271c0 72 -42 126 -114 126c-84 0 -153 -86 -153 -187c0 -69 43 -125 113 -125c90 0 154 91 154 186z" />
    <glyph glyph-name="uni044F" unicode="&#x44f;" horiz-adv-x="554" 
d="M-14 0l156 184c-56 22 -87 67 -87 125c0 117 90 171 221 171h226l-84 -480h-117l30 168h-68l-127 -168h-150zM255 257h91l25 135h-94c-68 0 -110 -19 -110 -74c0 -48 35 -61 88 -61z" />
    <glyph glyph-name="uni0490" unicode="&#x490;" horiz-adv-x="491" 
d="M25 0l125 708h310l25 137h105l-45 -245h-291l-106 -600h-123z" />
    <glyph glyph-name="uni0491" unicode="&#x491;" horiz-adv-x="421" 
d="M21 0l84 480h218l21 119h92l-38 -213h-193l-67 -386h-117z" />
    <glyph glyph-name="uni0403" unicode="&#x403;" horiz-adv-x="491" 
d="M540 908l-165 -144h-93l125 144h133zM25 0l125 708h415l-19 -108h-292l-106 -600h-123z" />
    <glyph glyph-name="uni0453" unicode="&#x453;" horiz-adv-x="421" 
d="M456 708l-165 -144h-93l125 144h133zM21 0l84 480h311l-16 -94h-194l-68 -386h-117z" />
    <glyph glyph-name="uni0405" unicode="&#x405;" horiz-adv-x="574" 
d="M235 -18c-93 0 -194 36 -244 115l100 69c26 -47 85 -80 150 -80c66 0 138 30 138 114c0 65 -59 95 -128 120c-85 31 -158 76 -158 186c0 142 129 220 268 220c71 0 157 -31 200 -92l-90 -72c-27 42 -73 62 -123 62c-51 0 -130 -29 -130 -109c0 -50 38 -75 98 -97
c123 -45 193 -102 193 -210c0 -162 -141 -226 -274 -226z" />
    <glyph glyph-name="uni0455" unicode="&#x455;" horiz-adv-x="444" 
d="M174 -18c-103 0 -165 42 -198 96l91 60c20 -39 62 -60 110 -60c54 0 90 23 90 60c0 34 -25 47 -82 65c-91 29 -136 59 -136 132c0 93 90 158 209 158c74 0 139 -27 173 -83l-91 -54c-17 27 -43 47 -91 47c-41 0 -85 -14 -85 -57c0 -30 27 -42 77 -56
c89 -25 141 -64 141 -144c0 -106 -97 -164 -208 -164z" />
    <glyph glyph-name="uni040C" unicode="&#x40c;" horiz-adv-x="646" 
d="M606 908l-165 -144h-93l125 144h133zM25 0l125 708h122l-56 -314h3l319 314h166l-367 -334l275 -374h-161l-239 356h-3l-62 -356h-122z" />
    <glyph glyph-name="uni045C" unicode="&#x45c;" horiz-adv-x="521" 
d="M531 708l-165 -144h-93l125 144h133zM21 0l83 480h118l-38 -212h3l221 212h153l-256 -234l187 -246h-143l-168 234h-3l-40 -234h-117z" />
    <glyph glyph-name="uni0407" unicode="&#x407;" horiz-adv-x="291" 
d="M25 0l125 708h123l-125 -708h-123zM197 846c0 -39 -29 -71 -69 -71c-38 0 -68 24 -68 67c0 42 33 71 71 71s66 -25 66 -67zM395 846c0 -39 -29 -71 -69 -71c-38 0 -68 24 -68 67c0 42 33 71 71 71s66 -25 66 -67z" />
    <glyph glyph-name="uni0457" unicode="&#x457;" horiz-adv-x="267" 
d="M158 646c0 -39 -29 -71 -69 -71c-38 0 -68 24 -68 67c0 42 33 71 71 71s66 -25 66 -67zM356 646c0 -39 -29 -71 -69 -71c-38 0 -68 24 -68 67c0 42 33 71 71 71s66 -25 66 -67zM139 0h-117l84 480h118z" />
    <glyph glyph-name="uni040E" unicode="&#x40e;" horiz-adv-x="633" 
d="M72 -10c-38 0 -63 6 -75 9l19 106c14 -5 42 -8 60 -8c56 0 82 34 125 88l33 41l-171 482h130l125 -372l260 372h141l-396 -547c-74 -102 -133 -171 -251 -171zM396 765c-90 0 -149 48 -152 135l69 13c4 -46 32 -74 82 -74c49 0 91 28 107 74l66 -13
c-20 -88 -88 -135 -172 -135z" />
    <glyph glyph-name="uni045E" unicode="&#x45e;" horiz-adv-x="506" 
d="M303 565c-84 0 -143 45 -146 129l66 13c4 -45 34 -70 82 -70s87 24 101 70l63 -13c-19 -85 -78 -129 -166 -129zM19 -240c-20 0 -41 2 -61 7l15 102c15 -5 31 -7 44 -7c44 0 63 25 92 75l36 62l-108 481h126l62 -352h2l192 352h124l-340 -584c-50 -86 -91 -136 -184 -136
z" />
    <glyph glyph-name="uni040F" unicode="&#x40f;" horiz-adv-x="724" 
d="M222 -161l29 161h-226l125 708h124l-106 -598h319l105 598h124l-125 -708h-229l-28 -161h-112z" />
    <glyph glyph-name="uni045F" unicode="&#x45f;" horiz-adv-x="590" 
d="M165 -136l24 136h-168l84 480h117l-67 -384h198l68 384h117l-85 -480h-163l-24 -136h-101z" />
    <glyph glyph-name="uni0409" unicode="&#x409;" horiz-adv-x="1087" 
d="M42 -7c-23 0 -56 3 -77 8l24 108c14 -5 25 -7 41 -7c96 0 159 94 212 400l36 206h477l-50 -281h86c159 0 249 -73 249 -192c0 -161 -122 -235 -304 -235h-228l105 600h-234l-21 -120c-62 -358 -146 -487 -316 -487zM649 104h96c106 0 171 36 171 119
c0 76 -53 100 -136 100h-92z" />
    <glyph glyph-name="uni0459" unicode="&#x459;" horiz-adv-x="858" 
d="M23 -6c-18 0 -55 4 -67 7l18 95c8 -3 20 -4 31 -4c57 0 102 47 132 217l30 171h381l-30 -167h96c117 0 184 -53 184 -141c0 -117 -90 -172 -223 -172h-229l68 386h-149l-19 -105c-37 -204 -100 -287 -223 -287zM478 88h94c67 0 108 23 108 76c0 47 -34 63 -85 63h-92z
" />
    <glyph glyph-name="uni040A" unicode="&#x40a;" horiz-adv-x="1052" 
d="M25 0l125 708h123l-50 -281h325l50 281h123l-50 -281h85c159 0 249 -73 249 -192c0 -161 -122 -235 -304 -235h-228l56 321h-324l-57 -321h-123zM614 104h96c106 0 171 36 171 119c0 76 -53 100 -136 100h-92z" />
    <glyph glyph-name="uni045A" unicode="&#x45a;" horiz-adv-x="851" 
d="M21 0l84 480h118l-32 -175h202l31 175h117l-31 -175h102c114 0 179 -52 179 -137c0 -114 -88 -168 -217 -168h-235l37 211h-200l-38 -211h-117zM472 88h100c63 0 101 22 101 72c0 44 -32 59 -81 59h-97z" />
    <glyph glyph-name="uni0404" unicode="&#x404;" horiz-adv-x="692" 
d="M367 -18c-194 0 -319 126 -319 304c0 249 172 440 412 440c111 0 206 -41 249 -106l-94 -74c-24 37 -77 74 -158 74c-131 0 -225 -92 -262 -204h298l-18 -102h-299c-6 -124 75 -224 208 -224c72 0 144 31 195 91l75 -76c-56 -66 -152 -123 -287 -123z" />
    <glyph glyph-name="uni0454" unicode="&#x454;" horiz-adv-x="494" 
d="M259 -17c-145 0 -232 85 -232 218c0 165 114 292 284 292c89 0 150 -28 186 -72l-69 -74c-19 25 -55 51 -116 51c-65 0 -129 -42 -154 -108h187l-14 -88h-189c1 -70 51 -125 130 -125c52 0 97 22 126 52l54 -75c-46 -42 -118 -71 -193 -71z" />
    <glyph glyph-name="uni2116" unicode="&#x2116;" horiz-adv-x="1041" 
d="M25 0l125 708h140l189 -509h3l91 509h119l-125 -708h-141l-188 506h-4l-89 -506h-120zM717 293l13 73h287l-13 -73h-287zM892 419c-82 0 -138 51 -138 124c0 98 71 174 171 174c81 0 140 -48 140 -123c0 -101 -72 -175 -173 -175zM897 485c54 0 90 47 90 101
c0 37 -25 66 -66 66c-53 0 -89 -47 -89 -101c0 -38 24 -66 65 -66z" />
    <glyph glyph-name="uni040B" unicode="&#x40b;" horiz-adv-x="806" 
d="M150 0l106 600h-210l19 108h542l-19 -108h-208l-36 -203c37 10 103 22 165 22c135 0 197 -55 197 -157c0 -18 -2 -37 -6 -57l-36 -205h-124l35 193c2 13 3 25 3 35c0 57 -34 86 -113 86c-52 0 -109 -8 -139 -20l-52 -294h-124z" />
    <glyph glyph-name="uni0402" unicode="&#x402;" horiz-adv-x="773" 
d="M461 -10c-46 0 -78 4 -97 8l18 104c14 -3 38 -6 53 -6c95 0 166 38 166 124c0 60 -45 96 -139 96c-51 0 -105 -12 -135 -24l-53 -292h-124l106 600h-210l19 108h542l-19 -108h-208l-36 -202c37 10 104 21 154 21c151 0 228 -83 228 -191c0 -161 -127 -238 -265 -238z" />
    <glyph glyph-name="uni045B" unicode="&#x45b;" horiz-adv-x="584" 
d="M21 0l99 564h-72l13 80h73l20 112h118l-20 -112h149l-13 -80h-150l-27 -152h2c26 42 77 81 148 81c106 0 157 -68 157 -149c0 -15 -1 -30 -4 -45l-53 -299h-117l46 264c3 16 5 32 5 48c0 43 -19 81 -79 81c-76 0 -120 -65 -132 -132l-46 -261h-117z" />
    <glyph glyph-name="uni0452" unicode="&#x452;" horiz-adv-x="584" 
d="M245 -240c-23 0 -47 3 -66 9l23 101c13 -5 27 -8 44 -8c61 0 81 46 91 102l53 300c3 16 5 32 5 48c0 43 -19 81 -79 81c-76 0 -120 -65 -132 -132l-46 -261h-117l99 564h-72l13 80h73l20 112h118l-20 -112h149l-13 -80h-150l-27 -152h2c26 42 77 81 148 81
c106 0 157 -68 157 -149c0 -15 -1 -30 -4 -45l-60 -337c-19 -106 -71 -202 -209 -202z" />
    <glyph glyph-name="uni0401" unicode="&#x401;" horiz-adv-x="584" 
d="M25 0l125 708h446l-19 -108h-326l-32 -183h311l-19 -104h-310l-36 -203h354l-19 -110h-475zM360 846c0 -39 -29 -71 -69 -71c-38 0 -68 24 -68 67c0 42 33 71 71 71s66 -25 66 -67zM558 846c0 -39 -29 -71 -69 -71c-38 0 -68 24 -68 67c0 42 33 71 71 71s66 -25 66 -67z
" />
    <glyph glyph-name="uni0451" unicode="&#x451;" horiz-adv-x="564" 
d="M314 646c0 -39 -29 -71 -69 -71c-38 0 -68 24 -68 67c0 42 33 71 71 71s66 -25 66 -67zM512 646c0 -39 -29 -71 -69 -71c-38 0 -68 24 -68 67c0 42 33 71 71 71s66 -25 66 -67zM252 -14c-130 0 -225 78 -225 213c0 165 118 294 281 294c115 0 200 -65 200 -192
c0 -21 -4 -65 -12 -98h-356c-1 -5 -1 -8 -1 -11c0 -63 55 -110 126 -110c61 0 103 25 137 63l67 -63c-59 -64 -131 -96 -217 -96zM151 287h249c1 9 2 17 2 25c0 52 -39 93 -105 93c-82 0 -135 -66 -146 -118z" />
    <glyph glyph-name="uni0400" unicode="&#x400;" horiz-adv-x="584" 
d="M25 0l125 708h446l-19 -108h-326l-32 -183h311l-19 -104h-310l-36 -203h354l-19 -110h-475zM360 908l99 -144h-90l-141 144h132z" />
    <glyph glyph-name="uni0450" unicode="&#x450;" horiz-adv-x="564" 
d="M277 708l99 -144h-90l-141 144h132zM252 -14c-130 0 -225 78 -225 213c0 165 118 294 281 294c115 0 200 -65 200 -192c0 -21 -4 -65 -12 -98h-356c-1 -5 -1 -8 -1 -11c0 -63 55 -110 126 -110c61 0 103 25 137 63l67 -63c-59 -64 -131 -96 -217 -96zM151 287h249
c1 9 2 17 2 25c0 52 -39 93 -105 93c-82 0 -135 -66 -146 -118z" />
    <glyph glyph-name="uni040D" unicode="&#x40d;" horiz-adv-x="741" 
d="M25 0l125 708h122l-92 -521h3l418 521h132l-125 -708h-122l92 519h-3l-416 -519h-134zM407 908l99 -144h-90l-141 144h132z" />
    <glyph glyph-name="uni045D" unicode="&#x45d;" horiz-adv-x="611" 
d="M309 708l99 -144h-90l-141 144h132zM21 0l83 480h116l-55 -320l268 320h126l-84 -480h-114l55 319h-2l-265 -319h-128z" />
    <glyph glyph-name="uni2010" unicode="&#x2010;" horiz-adv-x="320" 
d="M260 196h-239l18 100h239z" />
    <glyph glyph-name="cyrbreve" 
d="M188 565c-84 0 -143 45 -146 129l66 13c4 -45 34 -70 82 -70s87 24 101 70l63 -13c-19 -85 -78 -129 -166 -129z" />
    <glyph glyph-name="cyrbreve.cap" 
d="M188 765c-90 0 -149 48 -152 135l69 13c4 -46 32 -74 82 -74c49 0 91 28 107 74l66 -13c-20 -88 -88 -135 -172 -135z" />
    <glyph glyph-name="exclam.sc" horiz-adv-x="311" 
d="M254 542l-63 -353h-118l63 353h118zM188 70c0 -42 -32 -78 -75 -78c-41 0 -72 27 -72 70s35 76 76 76c42 0 71 -27 71 -68z" />
    <glyph glyph-name="dollar.sc" horiz-adv-x="523" 
d="M471 482l-82 -71c-17 22 -41 35 -68 38l-24 -130c85 -32 137 -72 137 -150c0 -94 -65 -167 -196 -171l-10 -57h-54l10 57c-59 2 -126 35 -158 78l87 67c20 -31 52 -49 87 -52l26 141c-86 30 -133 67 -133 145c0 94 76 161 189 165l9 53h55l-9 -54c59 -5 105 -28 134 -59z
M268 450c-40 -3 -66 -29 -66 -63c0 -27 13 -42 45 -53zM321 157c0 26 -12 47 -44 59l-23 -126c39 3 67 30 67 67z" />
    <glyph glyph-name="percent.sc" horiz-adv-x="737" 
d="M677 151c0 -93 -70 -163 -165 -163c-75 0 -132 44 -132 117c0 94 69 162 166 162c75 0 131 -43 131 -116zM582 139c0 27 -17 45 -46 45c-37 0 -61 -28 -61 -68c0 -29 16 -45 44 -45c39 0 63 28 63 68zM350 437c0 -93 -69 -163 -165 -163c-75 0 -131 45 -131 118
c0 93 69 161 165 161c76 0 131 -43 131 -116zM255 425c0 27 -17 46 -45 46c-38 0 -62 -29 -62 -69c0 -29 16 -46 45 -46c38 0 62 30 62 69zM608 527l-428 -562l-62 42l430 565z" />
    <glyph glyph-name="ampersand.sc" horiz-adv-x="626" 
d="M571 288l-127 -158l107 -130h-144l-41 51c-41 -40 -97 -66 -165 -66c-100 0 -175 53 -175 148c0 88 60 142 140 173c-24 31 -34 65 -34 100c0 89 68 151 164 151c89 0 149 -48 149 -126c0 -67 -45 -119 -129 -155l62 -75l63 87h130zM340 421c0 27 -16 48 -47 48
c-32 0 -56 -24 -56 -59c0 -23 10 -49 27 -68c53 20 76 49 76 79zM306 125l-87 108c-46 -17 -78 -42 -78 -89c0 -45 34 -63 72 -63c36 0 64 13 93 44z" />
    <glyph glyph-name="parenleft.sc" horiz-adv-x="267" 
d="M173 -28l-89 -43c-41 77 -67 168 -67 259c0 139 59 286 187 426l73 -55c-106 -118 -157 -255 -157 -371c0 -72 19 -151 53 -216z" />
    <glyph glyph-name="parenright.sc" horiz-adv-x="267" 
d="M83 571l89 43c41 -77 67 -168 67 -259c0 -139 -59 -286 -187 -426l-73 55c106 118 157 255 157 371c0 72 -19 151 -53 216z" />
    <glyph glyph-name="bracketleft.sc" horiz-adv-x="267" 
d="M142 -66h-170l118 674h171l-14 -77h-73l-91 -520h73z" />
    <glyph glyph-name="backslash.sc" horiz-adv-x="318" 
d="M314 -9l-83 -30l-240 589l83 32z" />
    <glyph glyph-name="bracketright.sc" horiz-adv-x="267" 
d="M113 608h170l-118 -674h-171l14 77h73l91 520h-73z" />
    <glyph glyph-name="braceleft.sc" horiz-adv-x="267" 
d="M173 -66h-65c-51 0 -93 29 -93 82c0 7 1 18 3 30l22 129c1 6 2 12 2 17c0 26 -18 36 -44 36l15 85c32 1 54 13 60 48l25 142c13 73 60 105 116 105h78l-14 -79h-53c-19 0 -28 -11 -31 -31l-24 -139c-11 -64 -60 -83 -98 -88l-1 -2c34 -9 66 -35 66 -85c0 -7 0 -10 -2 -24
l-20 -113c-1 -5 -2 -11 -2 -15c0 -11 5 -19 21 -19h53z" />
    <glyph glyph-name="slash.sc" horiz-adv-x="318" 
d="M363 548l-342 -586l-77 33l342 587z" />
    <glyph glyph-name="braceright.sc" horiz-adv-x="267" 
d="M82 608h65c51 0 93 -29 93 -82c0 -7 -1 -18 -3 -30l-22 -129c-1 -6 -2 -12 -2 -17c0 -26 18 -36 44 -36l-15 -85c-32 -1 -54 -13 -60 -48l-25 -142c-13 -73 -60 -105 -116 -105h-78l14 79h53c19 0 28 11 31 31l24 139c11 64 60 83 98 88l1 2c-34 9 -66 35 -66 85
c0 7 0 10 2 24l20 113c1 5 2 11 2 15c0 11 -5 19 -21 19h-53z" />
    <glyph glyph-name="zero.sc" horiz-adv-x="523" 
d="M469 360c0 -154 -72 -374 -253 -374c-126 0 -178 83 -178 191c0 157 76 379 256 379c124 0 175 -87 175 -196zM348 354c0 55 -19 100 -63 100c-69 0 -126 -141 -126 -266c0 -59 19 -98 62 -98c69 0 127 136 127 264z" />
    <glyph glyph-name="one.sc" horiz-adv-x="523" 
d="M394 542l-97 -542h-119l71 396l-106 -71l-53 86l195 131h109z" />
    <glyph glyph-name="two.sc" horiz-adv-x="523" 
d="M467 406c0 -81 -46 -128 -120 -187l-152 -120h229l-18 -99h-387l17 96l243 198c45 37 68 66 68 103c0 35 -23 59 -62 59c-43 0 -78 -30 -94 -81l-107 25c32 100 114 156 209 156c105 0 174 -60 174 -150z" />
    <glyph glyph-name="three.sc" horiz-adv-x="523" 
d="M454 414c0 -67 -50 -118 -109 -132v-2c53 -15 83 -63 83 -112c0 -114 -85 -182 -208 -182c-92 0 -170 48 -193 133l110 35c10 -48 46 -68 87 -68c54 0 85 33 85 82c0 48 -38 70 -91 70h-35l15 89h35c70 0 103 31 103 78c0 34 -27 55 -61 55c-35 0 -64 -18 -85 -57l-93 47
c42 73 110 106 186 106c98 0 171 -55 171 -142z" />
    <glyph glyph-name="four.sc" horiz-adv-x="523" 
d="M466 205l-17 -96h-75l-19 -109h-111l20 109h-246l19 103l267 330h146l-59 -337h75zM322 424h-2l-165 -219h125z" />
    <glyph glyph-name="five.sc" horiz-adv-x="523" 
d="M462 542l-18 -98h-206l-22 -99c20 6 39 8 54 8c88 0 167 -52 167 -160c0 -132 -96 -207 -215 -207c-98 0 -168 49 -195 127l107 40c14 -46 55 -68 88 -68c60 0 95 40 95 99c0 51 -36 80 -91 80c-37 0 -93 -14 -138 -39l65 317h309z" />
    <glyph glyph-name="six.sc" horiz-adv-x="523" 
d="M447 191c0 -109 -84 -205 -222 -205c-110 0 -194 58 -194 178c0 75 41 138 95 204l144 174h149l-182 -200l1 -3c14 7 37 9 50 9c96 0 159 -67 159 -157zM328 186c0 46 -34 78 -76 78c-61 0 -103 -45 -103 -101c0 -46 35 -80 79 -80c61 0 100 42 100 103z" />
    <glyph glyph-name="seven.sc" horiz-adv-x="523" 
d="M488 542l-18 -97l-295 -445h-138l305 442h-244l17 100h373z" />
    <glyph glyph-name="eight.sc" horiz-adv-x="523" 
d="M463 423c0 -82 -57 -125 -107 -141v-2c43 -15 81 -59 81 -114c0 -109 -91 -180 -217 -180c-81 0 -184 37 -184 151c0 83 63 141 128 154v3c-34 18 -64 53 -64 102c0 109 97 160 194 160c84 0 169 -40 169 -133zM350 407c0 36 -27 58 -64 58c-46 0 -76 -32 -76 -74
c0 -35 25 -58 62 -58c42 0 78 26 78 74zM320 168c0 43 -30 70 -72 70c-55 0 -94 -37 -94 -88c0 -49 36 -70 72 -70c61 0 94 38 94 88z" />
    <glyph glyph-name="nine.sc" horiz-adv-x="523" 
d="M469 381c0 -71 -33 -130 -90 -198l-149 -183h-149l182 203l-1 3c-14 -6 -37 -8 -49 -8c-96 0 -157 65 -157 154c0 107 84 204 221 204c109 0 192 -60 192 -175zM352 381c0 45 -34 79 -78 79c-60 0 -100 -43 -100 -103c0 -46 34 -78 76 -78c60 0 102 46 102 102z" />
    <glyph glyph-name="question.sc" horiz-adv-x="450" 
d="M417 418c0 -58 -27 -100 -91 -141c-52 -32 -64 -47 -68 -74l-2 -14h-113l4 27c6 43 29 75 73 106l30 20c39 27 50 44 50 69c0 28 -23 46 -54 46c-29 0 -59 -16 -70 -61l-109 19c19 86 89 141 186 141c90 0 164 -49 164 -138zM263 70c0 -42 -33 -77 -76 -77
c-42 0 -72 26 -72 69c0 44 35 77 76 77c42 0 72 -28 72 -69z" />
    <glyph glyph-name="a.sc" horiz-adv-x="564" 
d="M515 0h-127l-20 115h-220l-71 -115h-134l351 542h113zM354 208l-33 200l-119 -200h152z" />
    <glyph glyph-name="b.sc" horiz-adv-x="531" 
d="M484 416c0 -62 -35 -111 -99 -132v-2c54 -16 81 -55 81 -111c0 -111 -99 -171 -239 -171h-203l96 542h195c99 0 169 -41 169 -126zM365 394c0 39 -32 53 -75 53h-69l-22 -125h77c40 0 89 20 89 72zM348 176c0 39 -32 59 -81 59h-83l-25 -140h70c62 0 119 19 119 81z" />
    <glyph glyph-name="c.sc" horiz-adv-x="580" 
d="M568 470l-94 -77c-22 35 -60 58 -111 58c-119 0 -197 -102 -197 -215c0 -80 50 -144 136 -144c52 0 97 18 140 66l73 -76c-53 -60 -124 -96 -225 -96c-153 0 -251 95 -251 237c0 187 139 333 327 333c87 0 159 -30 202 -86z" />
    <glyph glyph-name="d.sc" horiz-adv-x="620" 
d="M573 313c0 -189 -139 -313 -334 -313h-215l96 542h193c132 0 260 -65 260 -229zM448 301c0 79 -47 143 -155 143h-71l-61 -345h78c138 0 209 94 209 202z" />
    <glyph glyph-name="e.sc" horiz-adv-x="502" 
d="M479 542l-17 -96h-240l-22 -122h228l-16 -92h-228l-24 -134h260l-17 -98h-379l97 542h358z" />
    <glyph glyph-name="f.sc" horiz-adv-x="482" 
d="M473 542l-17 -96h-233l-23 -132h217l-16 -95h-217l-39 -219h-121l96 542h353z" />
    <glyph glyph-name="g.sc" horiz-adv-x="618" 
d="M568 470l-93 -78c-25 36 -59 58 -113 58c-116 0 -197 -99 -197 -216c0 -79 52 -142 141 -142c36 0 70 6 95 19l19 108h-107l15 90h224l-48 -272c-62 -33 -136 -51 -209 -51c-155 0 -256 95 -256 236c0 189 140 334 326 334c87 0 160 -29 203 -86z" />
    <glyph glyph-name="h.sc" horiz-adv-x="607" 
d="M571 542l-95 -542h-121l41 231h-210l-41 -231h-121l95 542h121l-38 -214h211l38 214h120z" />
    <glyph glyph-name="i.sc" horiz-adv-x="279" 
d="M243 542l-97 -542h-122l97 542h122z" />
    <glyph glyph-name="j.sc" horiz-adv-x="430" 
d="M401 542l-64 -368c-17 -96 -57 -188 -189 -188c-88 0 -148 54 -165 139l109 33c8 -43 31 -65 58 -65c43 0 59 31 68 85l63 364h120z" />
    <glyph glyph-name="k.sc" horiz-adv-x="563" 
d="M593 542l-283 -258l203 -284h-149l-173 258h-2l-44 -258h-121l97 542h119l-41 -227h3l231 227h160z" />
    <glyph glyph-name="l.sc" horiz-adv-x="444" 
d="M386 100l-17 -100h-345l97 542h121l-78 -442h222z" />
    <glyph glyph-name="m.sc" horiz-adv-x="749" 
d="M713 542l-95 -542h-118l69 376h-3l-207 -376h-81l-71 377h-2l-66 -377h-115l96 542h159l71 -366h3l197 366h163z" />
    <glyph glyph-name="n.sc" horiz-adv-x="636" 
d="M600 542l-97 -542h-138l-155 371h-2l-65 -371h-119l96 542h138l156 -369h2l65 369h119z" />
    <glyph glyph-name="o.sc" horiz-adv-x="669" 
d="M622 318c0 -182 -137 -332 -325 -332c-159 0 -258 96 -258 238c0 183 141 332 327 332c157 0 256 -97 256 -238zM497 310c0 79 -51 141 -140 141c-115 0 -193 -104 -193 -216c0 -80 51 -143 140 -143c118 0 193 105 193 218z" />
    <glyph glyph-name="p.sc" horiz-adv-x="511" 
d="M486 390c0 -115 -80 -184 -223 -184h-81l-37 -206h-121l96 542h173c129 0 193 -60 193 -152zM365 379c0 41 -29 68 -82 68h-59l-26 -148h58c75 0 109 34 109 80z" />
    <glyph glyph-name="q.sc" horiz-adv-x="669" 
d="M609 327c0 -125 -63 -191 -110 -224v-2h114l-17 -101h-302c-154 0 -255 89 -255 232c0 181 142 324 317 324c151 0 253 -88 253 -229zM484 317c0 78 -52 131 -138 131c-107 0 -183 -101 -183 -209c0 -87 55 -138 139 -138c107 0 182 103 182 216z" />
    <glyph glyph-name="r.sc" horiz-adv-x="532" 
d="M487 397c0 -87 -48 -142 -133 -162l113 -235h-133l-94 214h-59l-37 -214h-120l96 542h177c125 0 190 -51 190 -145zM365 385c0 39 -26 62 -85 62h-58l-25 -139h55c71 0 113 25 113 77z" />
    <glyph glyph-name="s.sc" horiz-adv-x="473" 
d="M447 480l-85 -71c-21 33 -54 48 -92 48c-51 0 -87 -29 -87 -69c0 -31 18 -45 69 -62c105 -35 152 -81 152 -161c0 -114 -93 -179 -220 -179c-91 0 -160 36 -199 90l91 71c25 -42 72 -60 112 -60c64 0 91 29 91 69c0 38 -30 56 -86 76c-98 33 -132 76 -132 147
c0 109 96 177 217 177c82 0 141 -36 169 -76z" />
    <glyph glyph-name="t.sc" horiz-adv-x="451" 
d="M483 542l-18 -97h-156l-79 -445h-120l78 445h-156l17 97h434z" />
    <glyph glyph-name="u.sc" horiz-adv-x="591" 
d="M563 542l-59 -333c-22 -126 -100 -223 -257 -223c-123 0 -200 70 -200 170c0 14 1 28 4 47l61 339h120l-58 -328c-2 -11 -3 -26 -3 -37c0 -48 28 -84 84 -84c80 0 119 61 132 133l55 316h121z" />
    <glyph glyph-name="v.sc" horiz-adv-x="523" 
d="M572 542l-331 -542h-116l-85 542h125l49 -390h2l227 390h129z" />
    <glyph glyph-name="w.sc" horiz-adv-x="802" 
d="M845 542l-266 -542h-126l-40 375h-1l-182 -375h-126l-59 542h125l30 -379h3l177 379h123l37 -379h2l173 379h130z" />
    <glyph glyph-name="x.sc" horiz-adv-x="549" 
d="M576 542l-235 -262l138 -280h-138l-87 194l-164 -194h-150l257 286l-125 256h136l77 -176l145 176h146z" />
    <glyph glyph-name="y.sc" horiz-adv-x="484" 
d="M545 542l-264 -317l-40 -225h-120l40 227l-136 315h131l82 -219l166 219h141z" />
    <glyph glyph-name="z.sc" horiz-adv-x="509" 
d="M503 542l-16 -91l-332 -351h275l-17 -100h-430l17 98l329 347h-245l18 97h401z" />
    <glyph glyph-name="agrave.sc" horiz-adv-x="564" 
d="M515 0h-127l-20 115h-220l-71 -115h-134l351 542h113zM354 208l-33 200l-119 -200h152zM305 738l99 -144h-90l-141 144h132z" />
    <glyph glyph-name="aacute.sc" horiz-adv-x="564" 
d="M515 0h-127l-20 115h-220l-71 -115h-134l351 542h113zM354 208l-33 200l-119 -200h152zM554 738l-165 -144h-93l125 144h133z" />
    <glyph glyph-name="acircumflex.sc" horiz-adv-x="564" 
d="M515 0h-127l-20 115h-220l-71 -115h-134l351 542h113zM354 208l-33 200l-119 -200h152zM539 594h-108l-54 91l-86 -91h-112l140 144h132z" />
    <glyph glyph-name="atilde.sc" horiz-adv-x="564" 
d="M515 0h-127l-20 115h-220l-71 -115h-134l351 542h113zM354 208l-33 200l-119 -200h152zM233 598h-66c22 64 60 125 135 125c27 0 53 -7 75 -18c23 -11 44 -19 62 -19c27 0 43 22 53 44h66c-22 -64 -59 -125 -134 -125c-25 0 -48 7 -69 17c-25 12 -48 21 -68 21
c-27 0 -43 -23 -54 -45z" />
    <glyph glyph-name="adieresis.sc" horiz-adv-x="564" 
d="M515 0h-127l-20 115h-220l-71 -115h-134l351 542h113zM354 208l-33 200l-119 -200h152zM337 676c0 -39 -29 -71 -69 -71c-38 0 -68 24 -68 67c0 42 33 71 71 71s66 -25 66 -67zM535 676c0 -39 -29 -71 -69 -71c-38 0 -68 24 -68 67c0 42 33 71 71 71s66 -25 66 -67z" />
    <glyph glyph-name="amacron.sc" horiz-adv-x="564" 
d="M515 0h-127l-20 115h-220l-71 -115h-134l351 542h113zM354 208l-33 200l-119 -200h152zM517 625h-317l13 77h318z" />
    <glyph glyph-name="abreve.sc" horiz-adv-x="564" 
d="M515 0h-127l-20 115h-220l-71 -115h-134l351 542h113zM354 208l-33 200l-119 -200h152zM534 738c-24 -97 -93 -143 -187 -143s-151 44 -151 143h66c0 -50 41 -67 92 -67c56 0 96 11 115 67h65z" />
    <glyph glyph-name="aring.sc" horiz-adv-x="564" 
d="M515 0h-127l-20 115h-220l-71 -115h-134l351 542h113zM354 208l-33 200l-119 -200h152zM355 583c-53 0 -90 37 -90 86c0 65 48 117 115 117c53 0 89 -36 89 -85c0 -67 -48 -118 -114 -118zM420 692c0 26 -17 50 -45 50c-36 0 -61 -29 -61 -67c0 -26 16 -48 44 -48
c37 0 62 28 62 65z" />
    <glyph glyph-name="aogonek.sc" horiz-adv-x="564" 
d="M522 -201c-32 -22 -66 -38 -106 -38c-53 0 -87 26 -87 80c0 62 70 120 126 159h-67l-20 115h-220l-71 -115h-134l351 542h113l108 -542c-47 -38 -105 -90 -105 -139c0 -25 15 -35 40 -35c20 0 40 9 56 21zM354 208l-33 200l-119 -200h152z" />
    <glyph glyph-name="ae.sc" horiz-adv-x="851" 
d="M828 542l-17 -96h-240l-21 -122h228l-17 -92h-227l-25 -134h260l-17 -98h-378l22 125h-195l-97 -125h-140l426 542h438zM453 445l-10 1l-176 -229h145z" />
    <glyph glyph-name="cacute.sc" horiz-adv-x="580" 
d="M568 470l-94 -77c-22 35 -60 58 -111 58c-119 0 -197 -102 -197 -215c0 -80 50 -144 136 -144c52 0 97 18 140 66l73 -76c-53 -60 -124 -96 -225 -96c-153 0 -251 95 -251 237c0 187 139 333 327 333c87 0 159 -30 202 -86zM554 738l-165 -144h-93l125 144h133z" />
    <glyph glyph-name="ccircumflex.sc" horiz-adv-x="580" 
d="M568 470l-94 -77c-22 35 -60 58 -111 58c-119 0 -197 -102 -197 -215c0 -80 50 -144 136 -144c52 0 97 18 140 66l73 -76c-53 -60 -124 -96 -225 -96c-153 0 -251 95 -251 237c0 187 139 333 327 333c87 0 159 -30 202 -86zM562 594h-108l-54 91l-86 -91h-112l140 144
h132z" />
    <glyph glyph-name="ccaron.sc" horiz-adv-x="580" 
d="M568 470l-94 -77c-22 35 -60 58 -111 58c-119 0 -197 -102 -197 -215c0 -80 50 -144 136 -144c52 0 97 18 140 66l73 -76c-53 -60 -124 -96 -225 -96c-153 0 -251 95 -251 237c0 187 139 333 327 333c87 0 159 -30 202 -86zM573 738l-140 -144h-131l-88 144h109l53 -91
l86 91h111z" />
    <glyph glyph-name="cdotaccent.sc" horiz-adv-x="580" 
d="M568 470l-94 -77c-22 35 -60 58 -111 58c-119 0 -197 -102 -197 -215c0 -80 50 -144 136 -144c52 0 97 18 140 66l73 -76c-53 -60 -124 -96 -225 -96c-153 0 -251 95 -251 237c0 187 139 333 327 333c87 0 159 -30 202 -86zM455 675c0 -39 -31 -73 -71 -73
c-38 0 -70 25 -70 69c0 42 35 73 73 73s68 -27 68 -69z" />
    <glyph glyph-name="ccedilla.sc" horiz-adv-x="580" 
d="M364 -138c0 -78 -84 -102 -144 -102c-39 0 -83 11 -109 26l27 48c23 -13 51 -20 78 -20c24 0 65 6 65 41c0 30 -25 36 -47 36c-11 0 -27 -2 -40 -6l-18 25l68 79c-126 17 -205 106 -205 234c0 187 139 333 327 333c87 0 159 -30 202 -86l-94 -77c-22 35 -60 58 -111 58
c-119 0 -197 -102 -197 -215c0 -80 50 -144 136 -144c52 0 97 18 140 66l73 -76c-52 -58 -120 -94 -216 -96l-45 -51c9 2 15 2 20 2c37 0 90 -18 90 -75z" />
    <glyph glyph-name="dcaron.sc" horiz-adv-x="620" 
d="M573 313c0 -189 -139 -313 -334 -313h-215l96 542h193c132 0 260 -65 260 -229zM448 301c0 79 -47 143 -155 143h-71l-61 -345h78c138 0 209 94 209 202zM533 738l-140 -144h-131l-88 144h109l53 -91l86 91h111z" />
    <glyph glyph-name="dcroat.sc" horiz-adv-x="620" 
d="M24 0l43 245h-64l15 81h64l38 216h194c130 0 259 -68 259 -230c0 -189 -144 -312 -333 -312h-216zM222 444l-21 -118h120l-15 -81h-119l-26 -146h77c139 0 210 91 210 200c0 79 -46 145 -155 145h-71z" />
    <glyph glyph-name="eth.sc" horiz-adv-x="620" 
d="M24 0l43 245h-64l15 81h64l38 216h194c130 0 259 -68 259 -230c0 -189 -144 -312 -333 -312h-216zM222 444l-21 -118h120l-15 -81h-119l-26 -146h77c139 0 210 91 210 200c0 79 -46 145 -155 145h-71z" />
    <glyph glyph-name="egrave.sc" horiz-adv-x="502" 
d="M479 542l-17 -96h-240l-22 -122h228l-16 -92h-228l-24 -134h260l-17 -98h-379l97 542h358zM269 738l99 -144h-90l-141 144h132z" />
    <glyph glyph-name="eacute.sc" horiz-adv-x="502" 
d="M479 542l-17 -96h-240l-22 -122h228l-16 -92h-228l-24 -134h260l-17 -98h-379l97 542h358zM504 738l-165 -144h-93l125 144h133z" />
    <glyph glyph-name="ecircumflex.sc" horiz-adv-x="502" 
d="M479 542l-17 -96h-240l-22 -122h228l-16 -92h-228l-24 -134h260l-17 -98h-379l97 542h358zM485 594h-108l-54 91l-86 -91h-112l140 144h132z" />
    <glyph glyph-name="ecaron.sc" horiz-adv-x="502" 
d="M479 542l-17 -96h-240l-22 -122h228l-16 -92h-228l-24 -134h260l-17 -98h-379l97 542h358zM511 738l-140 -144h-131l-88 144h109l53 -91l86 91h111z" />
    <glyph glyph-name="edieresis.sc" horiz-adv-x="502" 
d="M479 542l-17 -96h-240l-22 -122h228l-16 -92h-228l-24 -134h260l-17 -98h-379l97 542h358zM281 676c0 -39 -29 -71 -69 -71c-38 0 -68 24 -68 67c0 42 33 71 71 71s66 -25 66 -67zM479 676c0 -39 -29 -71 -69 -71c-38 0 -68 24 -68 67c0 42 33 71 71 71s66 -25 66 -67z
" />
    <glyph glyph-name="emacron.sc" horiz-adv-x="502" 
d="M479 542l-17 -96h-240l-22 -122h228l-16 -92h-228l-24 -134h260l-17 -98h-379l97 542h358zM469 625h-317l13 77h318z" />
    <glyph glyph-name="ebreve.sc" horiz-adv-x="502" 
d="M479 542l-17 -96h-240l-22 -122h228l-16 -92h-228l-24 -134h260l-17 -98h-379l97 542h358zM490 738c-24 -97 -93 -143 -187 -143s-151 44 -151 143h66c0 -50 41 -67 92 -67c56 0 96 11 115 67h65z" />
    <glyph glyph-name="edotaccent.sc" horiz-adv-x="502" 
d="M479 542l-17 -96h-240l-22 -122h228l-16 -92h-228l-24 -134h260l-17 -98h-379l97 542h358zM385 675c0 -39 -31 -73 -71 -73c-38 0 -70 25 -70 69c0 42 35 73 73 73s68 -27 68 -69z" />
    <glyph glyph-name="eogonek.sc" horiz-adv-x="502" 
d="M392 -201c-32 -22 -66 -38 -106 -38c-53 0 -87 26 -87 80c0 62 70 120 126 159h-301l97 542h358l-17 -96h-240l-22 -122h228l-16 -92h-228l-24 -134h260l-17 -98h-18c-47 -38 -105 -90 -105 -139c0 -25 15 -35 40 -35c20 0 40 9 56 21z" />
    <glyph glyph-name="gcircumflex.sc" horiz-adv-x="618" 
d="M568 470l-93 -78c-25 36 -59 58 -113 58c-116 0 -197 -99 -197 -216c0 -79 52 -142 141 -142c36 0 70 6 95 19l19 108h-107l15 90h224l-48 -272c-62 -33 -136 -51 -209 -51c-155 0 -256 95 -256 236c0 189 140 334 326 334c87 0 160 -29 203 -86zM553 594h-108l-54 91
l-86 -91h-112l140 144h132z" />
    <glyph glyph-name="gbreve.sc" horiz-adv-x="618" 
d="M568 470l-93 -78c-25 36 -59 58 -113 58c-116 0 -197 -99 -197 -216c0 -79 52 -142 141 -142c36 0 70 6 95 19l19 108h-107l15 90h224l-48 -272c-62 -33 -136 -51 -209 -51c-155 0 -256 95 -256 236c0 189 140 334 326 334c87 0 160 -29 203 -86zM551 738
c-24 -97 -93 -143 -187 -143s-151 44 -151 143h66c0 -50 41 -67 92 -67c56 0 96 11 115 67h65z" />
    <glyph glyph-name="gdotaccent.sc" horiz-adv-x="618" 
d="M568 470l-93 -78c-25 36 -59 58 -113 58c-116 0 -197 -99 -197 -216c0 -79 52 -142 141 -142c36 0 70 6 95 19l19 108h-107l15 90h224l-48 -272c-62 -33 -136 -51 -209 -51c-155 0 -256 95 -256 236c0 189 140 334 326 334c87 0 160 -29 203 -86zM454 675
c0 -39 -31 -73 -71 -73c-38 0 -70 25 -70 69c0 42 35 73 73 73s68 -27 68 -69z" />
    <glyph glyph-name="gcommaaccent.sc" horiz-adv-x="618" 
d="M568 470l-93 -78c-25 36 -59 58 -113 58c-116 0 -197 -99 -197 -216c0 -79 52 -142 141 -142c36 0 70 6 95 19l19 108h-107l15 90h224l-48 -272c-62 -33 -136 -51 -209 -51c-155 0 -256 95 -256 236c0 189 140 334 326 334c87 0 160 -29 203 -86zM338 -45l-123 -195h-98
l107 195h114z" />
    <glyph glyph-name="kgreenlandic.sc" horiz-adv-x="563" 
d="M593 542l-283 -258l203 -284h-149l-173 258h-2l-44 -258h-121l97 542h119l-41 -227h3l231 227h160z" />
    <glyph glyph-name="hcircumflex.sc" horiz-adv-x="607" 
d="M571 542l-95 -542h-121l41 231h-210l-41 -231h-121l95 542h121l-38 -214h211l38 214h120zM536 594h-108l-54 91l-86 -91h-112l140 144h132z" />
    <glyph glyph-name="hbar.sc" horiz-adv-x="607" 
d="M571 542l-95 -542h-121l41 231h-210l-41 -231h-121l95 542h121l-15 -82h211l15 82h120zM201 324h211l13 76h-211z" />
    <glyph glyph-name="igrave.sc" horiz-adv-x="279" 
d="M243 542l-97 -542h-122l97 542h122zM144 738l99 -144h-90l-141 144h132z" />
    <glyph glyph-name="iacute.sc" horiz-adv-x="279" 
d="M243 542l-97 -542h-122l97 542h122zM383 738l-165 -144h-93l125 144h133z" />
    <glyph glyph-name="ibreve.sc" horiz-adv-x="279" 
d="M243 542l-97 -542h-122l97 542h122zM385 738c-24 -97 -93 -143 -187 -143s-151 44 -151 143h66c0 -50 41 -67 92 -67c56 0 96 11 115 67h65z" />
    <glyph glyph-name="icircumflex.sc" horiz-adv-x="279" 
d="M243 542l-97 -542h-122l97 542h122zM366 594h-108l-54 91l-86 -91h-112l140 144h132z" />
    <glyph glyph-name="itilde.sc" horiz-adv-x="279" 
d="M243 542l-97 -542h-122l97 542h122zM71 598h-66c22 64 60 125 135 125c27 0 53 -7 75 -18c23 -11 44 -19 62 -19c27 0 43 22 53 44h66c-22 -64 -59 -125 -134 -125c-25 0 -48 7 -69 17c-25 12 -48 21 -68 21c-27 0 -43 -23 -54 -45z" />
    <glyph glyph-name="idieresis.sc" horiz-adv-x="279" 
d="M243 542l-97 -542h-122l97 542h122zM170 676c0 -39 -29 -71 -69 -71c-38 0 -68 24 -68 67c0 42 33 71 71 71s66 -25 66 -67zM368 676c0 -39 -29 -71 -69 -71c-38 0 -68 24 -68 67c0 42 33 71 71 71s66 -25 66 -67z" />
    <glyph glyph-name="imacron.sc" horiz-adv-x="279" 
d="M243 542l-97 -542h-122l97 542h122zM351 625h-317l13 77h318z" />
    <glyph glyph-name="idotaccent.sc" horiz-adv-x="279" 
d="M243 542l-97 -542h-122l97 542h122zM268 675c0 -39 -31 -73 -71 -73c-38 0 -70 25 -70 69c0 42 35 73 73 73s68 -27 68 -69z" />
    <glyph glyph-name="iogonek.sc" horiz-adv-x="279" 
d="M153 -201c-32 -22 -66 -38 -106 -38c-53 0 -87 26 -87 80c0 62 70 120 126 159h-62l97 542h122l-97 -542c-47 -38 -105 -90 -105 -139c0 -25 15 -35 40 -35c20 0 40 9 56 21z" />
    <glyph glyph-name="jcircumflex.sc" horiz-adv-x="430" 
d="M401 542l-64 -368c-17 -96 -57 -188 -189 -188c-88 0 -148 54 -165 139l109 33c8 -43 31 -65 58 -65c43 0 59 31 68 85l63 364h120zM526 594h-108l-54 91l-86 -91h-112l140 144h132z" />
    <glyph glyph-name="kcommaaccent.sc" horiz-adv-x="563" 
d="M593 542l-283 -258l203 -284h-149l-173 258h-2l-44 -258h-121l97 542h119l-41 -227h3l231 227h160zM301 -45l-123 -195h-98l107 195h114z" />
    <glyph glyph-name="lacute.sc" horiz-adv-x="444" 
d="M386 100l-17 -100h-345l97 542h121l-78 -442h222zM398 738l-165 -144h-93l125 144h133z" />
    <glyph glyph-name="lcaron.sc" horiz-adv-x="461" 
d="M386 100l-17 -100h-345l97 542h121l-78 -442h222zM481 542l-123 -195h-98l107 195h114z" />
    <glyph glyph-name="lcommaaccent.sc" horiz-adv-x="444" 
d="M386 100l-17 -100h-345l97 542h121l-78 -442h222zM253 -45l-123 -195h-98l107 195h114z" />
    <glyph glyph-name="lslash.sc" horiz-adv-x="444" 
d="M369 0h-344l35 201l-81 -60l19 108l81 60l42 233h120l-23 -132l122 90l-19 -107l-122 -90l-36 -203h222z" />
    <glyph glyph-name="ldot.sc" horiz-adv-x="444" 
d="M386 100l-17 -100h-345l97 542h121l-78 -442h222zM410 315c0 -39 -31 -73 -71 -73c-38 0 -70 25 -70 69c0 42 35 73 73 73s68 -27 68 -69z" />
    <glyph glyph-name="nacute.sc" horiz-adv-x="636" 
d="M600 542l-97 -542h-138l-155 371h-2l-65 -371h-119l96 542h138l156 -369h2l65 369h119zM549 738l-165 -144h-93l125 144h133z" />
    <glyph glyph-name="ncaron.sc" horiz-adv-x="636" 
d="M600 542l-97 -542h-138l-155 371h-2l-65 -371h-119l96 542h138l156 -369h2l65 369h119zM570 738l-140 -144h-131l-88 144h109l53 -91l86 91h111z" />
    <glyph glyph-name="ntilde.sc" horiz-adv-x="636" 
d="M600 542l-97 -542h-138l-155 371h-2l-65 -371h-119l96 542h138l156 -369h2l65 369h119zM252 598h-66c22 64 60 125 135 125c27 0 53 -7 75 -18c23 -11 44 -19 62 -19c27 0 43 22 53 44h66c-22 -64 -59 -125 -134 -125c-25 0 -48 7 -69 17c-25 12 -48 21 -68 21
c-27 0 -43 -23 -54 -45z" />
    <glyph glyph-name="ncommaaccent.sc" horiz-adv-x="636" 
d="M600 542l-97 -542h-138l-155 371h-2l-65 -371h-119l96 542h138l156 -369h2l65 369h119zM323 -45l-123 -195h-98l107 195h114z" />
    <glyph glyph-name="ograve.sc" horiz-adv-x="669" 
d="M622 318c0 -182 -137 -332 -325 -332c-159 0 -258 96 -258 238c0 183 141 332 327 332c157 0 256 -97 256 -238zM497 310c0 79 -51 141 -140 141c-115 0 -193 -104 -193 -216c0 -80 51 -143 140 -143c118 0 193 105 193 218zM337 738l99 -144h-90l-141 144h132z" />
    <glyph glyph-name="oacute.sc" horiz-adv-x="669" 
d="M622 318c0 -182 -137 -332 -325 -332c-159 0 -258 96 -258 238c0 183 141 332 327 332c157 0 256 -97 256 -238zM497 310c0 79 -51 141 -140 141c-115 0 -193 -104 -193 -216c0 -80 51 -143 140 -143c118 0 193 105 193 218zM552 738l-165 -144h-93l125 144h133z" />
    <glyph glyph-name="ocircumflex.sc" horiz-adv-x="669" 
d="M622 318c0 -182 -137 -332 -325 -332c-159 0 -258 96 -258 238c0 183 141 332 327 332c157 0 256 -97 256 -238zM497 310c0 79 -51 141 -140 141c-115 0 -193 -104 -193 -216c0 -80 51 -143 140 -143c118 0 193 105 193 218zM569 594h-108l-54 91l-86 -91h-112l140 144
h132z" />
    <glyph glyph-name="otilde.sc" horiz-adv-x="669" 
d="M622 318c0 -182 -137 -332 -325 -332c-159 0 -258 96 -258 238c0 183 141 332 327 332c157 0 256 -97 256 -238zM497 310c0 79 -51 141 -140 141c-115 0 -193 -104 -193 -216c0 -80 51 -143 140 -143c118 0 193 105 193 218zM265 598h-66c22 64 60 125 135 125
c27 0 53 -7 75 -18c23 -11 44 -19 62 -19c27 0 43 22 53 44h66c-22 -64 -59 -125 -134 -125c-25 0 -48 7 -69 17c-25 12 -48 21 -68 21c-27 0 -43 -23 -54 -45z" />
    <glyph glyph-name="odieresis.sc" horiz-adv-x="669" 
d="M622 318c0 -182 -137 -332 -325 -332c-159 0 -258 96 -258 238c0 183 141 332 327 332c157 0 256 -97 256 -238zM497 310c0 79 -51 141 -140 141c-115 0 -193 -104 -193 -216c0 -80 51 -143 140 -143c118 0 193 105 193 218zM367 676c0 -39 -29 -71 -69 -71
c-38 0 -68 24 -68 67c0 42 33 71 71 71s66 -25 66 -67zM565 676c0 -39 -29 -71 -69 -71c-38 0 -68 24 -68 67c0 42 33 71 71 71s66 -25 66 -67z" />
    <glyph glyph-name="omacron.sc" horiz-adv-x="669" 
d="M622 318c0 -182 -137 -332 -325 -332c-159 0 -258 96 -258 238c0 183 141 332 327 332c157 0 256 -97 256 -238zM497 310c0 79 -51 141 -140 141c-115 0 -193 -104 -193 -216c0 -80 51 -143 140 -143c118 0 193 105 193 218zM549 625h-317l13 77h318z" />
    <glyph glyph-name="obreve.sc" horiz-adv-x="669" 
d="M622 318c0 -182 -137 -332 -325 -332c-159 0 -258 96 -258 238c0 183 141 332 327 332c157 0 256 -97 256 -238zM497 310c0 79 -51 141 -140 141c-115 0 -193 -104 -193 -216c0 -80 51 -143 140 -143c118 0 193 105 193 218zM567 738c-24 -97 -93 -143 -187 -143
s-151 44 -151 143h66c0 -50 41 -67 92 -67c56 0 96 11 115 67h65z" />
    <glyph glyph-name="ohungarumlaut.sc" horiz-adv-x="669" 
d="M622 318c0 -182 -137 -332 -325 -332c-159 0 -258 96 -258 238c0 183 141 332 327 332c157 0 256 -97 256 -238zM497 310c0 79 -51 141 -140 141c-115 0 -193 -104 -193 -216c0 -80 51 -143 140 -143c118 0 193 105 193 218zM693 738l-166 -144h-93l125 144h134zM488 738
l-166 -144h-92l124 144h134z" />
    <glyph glyph-name="oslash.sc" horiz-adv-x="669" 
d="M622 318c0 -182 -137 -332 -325 -332c-73 0 -134 20 -178 56l-78 -69l-39 45l76 68c-26 38 -39 84 -39 138c0 183 141 332 327 332c72 0 132 -21 175 -56l79 70l41 -44l-79 -71c26 -37 40 -84 40 -137zM164 235c0 -24 4 -45 13 -65l275 248c-23 20 -55 33 -95 33
c-115 0 -193 -104 -193 -216zM497 310c0 22 -5 43 -12 61l-276 -246c24 -21 55 -33 95 -33c118 0 193 105 193 218z" />
    <glyph glyph-name="oe.sc" horiz-adv-x="798" 
d="M299 0c-132 0 -260 65 -260 229c0 189 139 313 334 313h402l-17 -96h-240l-22 -122h228l-16 -92h-228l-24 -134h260l-17 -98h-400zM373 443c-138 0 -209 -94 -209 -202c0 -79 47 -143 155 -143h20l62 345h-28z" />
    <glyph glyph-name="racute.sc" horiz-adv-x="532" 
d="M487 397c0 -87 -48 -142 -133 -162l113 -235h-133l-94 214h-59l-37 -214h-120l96 542h177c125 0 190 -51 190 -145zM365 385c0 39 -26 62 -85 62h-58l-25 -139h55c71 0 113 25 113 77zM481 738l-165 -144h-93l125 144h133z" />
    <glyph glyph-name="rcaron.sc" horiz-adv-x="532" 
d="M487 397c0 -87 -48 -142 -133 -162l113 -235h-133l-94 214h-59l-37 -214h-120l96 542h177c125 0 190 -51 190 -145zM365 385c0 39 -26 62 -85 62h-58l-25 -139h55c71 0 113 25 113 77zM506 738l-140 -144h-131l-88 144h109l53 -91l86 91h111z" />
    <glyph glyph-name="rcommaaccent.sc" horiz-adv-x="532" 
d="M487 397c0 -87 -48 -142 -133 -162l113 -235h-133l-94 214h-59l-37 -214h-120l96 542h177c125 0 190 -51 190 -145zM365 385c0 39 -26 62 -85 62h-58l-25 -139h55c71 0 113 25 113 77zM285 -45l-123 -195h-98l107 195h114z" />
    <glyph glyph-name="sacute.sc" horiz-adv-x="473" 
d="M447 480l-85 -71c-21 33 -54 48 -92 48c-51 0 -87 -29 -87 -69c0 -31 18 -45 69 -62c105 -35 152 -81 152 -161c0 -114 -93 -179 -220 -179c-91 0 -160 36 -199 90l91 71c25 -42 72 -60 112 -60c64 0 91 29 91 69c0 38 -30 56 -86 76c-98 33 -132 76 -132 147
c0 109 96 177 217 177c82 0 141 -36 169 -76zM456 738l-165 -144h-93l125 144h133z" />
    <glyph glyph-name="scircumflex.sc" horiz-adv-x="473" 
d="M447 480l-85 -71c-21 33 -54 48 -92 48c-51 0 -87 -29 -87 -69c0 -31 18 -45 69 -62c105 -35 152 -81 152 -161c0 -114 -93 -179 -220 -179c-91 0 -160 36 -199 90l91 71c25 -42 72 -60 112 -60c64 0 91 29 91 69c0 38 -30 56 -86 76c-98 33 -132 76 -132 147
c0 109 96 177 217 177c82 0 141 -36 169 -76zM470 594h-108l-54 91l-86 -91h-112l140 144h132z" />
    <glyph glyph-name="scaron.sc" horiz-adv-x="473" 
d="M447 480l-85 -71c-21 33 -54 48 -92 48c-51 0 -87 -29 -87 -69c0 -31 18 -45 69 -62c105 -35 152 -81 152 -161c0 -114 -93 -179 -220 -179c-91 0 -160 36 -199 90l91 71c25 -42 72 -60 112 -60c64 0 91 29 91 69c0 38 -30 56 -86 76c-98 33 -132 76 -132 147
c0 109 96 177 217 177c82 0 141 -36 169 -76zM487 738l-140 -144h-131l-88 144h109l53 -91l86 91h111z" />
    <glyph glyph-name="scedilla.sc" horiz-adv-x="473" 
d="M274 -138c0 -78 -84 -102 -144 -102c-39 0 -83 11 -109 26l27 48c23 -13 51 -20 78 -20c24 0 65 6 65 41c0 30 -25 36 -47 36c-11 0 -27 -2 -40 -6l-18 25l67 78c-76 7 -134 40 -168 88l91 71c25 -42 72 -60 112 -60c64 0 91 29 91 69c0 38 -30 56 -86 76
c-98 33 -132 76 -132 147c0 109 96 177 217 177c82 0 141 -36 169 -76l-85 -71c-21 33 -54 48 -92 48c-51 0 -87 -29 -87 -69c0 -31 18 -45 69 -62c105 -35 152 -81 152 -161c0 -106 -81 -170 -195 -178l-45 -52c9 2 15 2 20 2c37 0 90 -18 90 -75z" />
    <glyph glyph-name="scommaaccent.sc" horiz-adv-x="473" 
d="M447 480l-85 -71c-21 33 -54 48 -92 48c-51 0 -87 -29 -87 -69c0 -31 18 -45 69 -62c105 -35 152 -81 152 -161c0 -114 -93 -179 -220 -179c-91 0 -160 36 -199 90l91 71c25 -42 72 -60 112 -60c64 0 91 29 91 69c0 38 -30 56 -86 76c-98 33 -132 76 -132 147
c0 109 96 177 217 177c82 0 141 -36 169 -76zM255 -45l-123 -195h-98l107 195h114z" />
    <glyph glyph-name="tcaron.sc" horiz-adv-x="451" 
d="M483 542l-18 -97h-156l-79 -445h-120l78 445h-156l17 97h434zM476 738l-140 -144h-131l-88 144h109l53 -91l86 91h111z" />
    <glyph glyph-name="tcommaaccent.sc" horiz-adv-x="451" 
d="M483 542l-18 -97h-156l-79 -445h-120l78 445h-156l17 97h434zM228 -45l-123 -195h-98l107 195h114z" />
    <glyph glyph-name="tbar.sc" horiz-adv-x="451" 
d="M393 350l-14 -75h-100l-49 -275h-120l48 275h-102l14 75h101l17 95h-156l17 97h434l-18 -97h-156l-17 -95h101z" />
    <glyph glyph-name="thorn.sc" horiz-adv-x="514" 
d="M226 457h80c125 0 183 -53 183 -148c0 -110 -62 -178 -227 -178h-94l-23 -131h-120l96 542h120zM209 358l-23 -132h77c78 0 106 27 106 71c0 40 -21 61 -83 61h-77z" />
    <glyph glyph-name="ugrave.sc" horiz-adv-x="591" 
d="M563 542l-59 -333c-22 -126 -100 -223 -257 -223c-123 0 -200 70 -200 170c0 14 1 28 4 47l61 339h120l-58 -328c-2 -11 -3 -26 -3 -37c0 -48 28 -84 84 -84c80 0 119 61 132 133l55 316h121zM306 738l99 -144h-90l-141 144h132z" />
    <glyph glyph-name="uacute.sc" horiz-adv-x="591" 
d="M563 542l-59 -333c-22 -126 -100 -223 -257 -223c-123 0 -200 70 -200 170c0 14 1 28 4 47l61 339h120l-58 -328c-2 -11 -3 -26 -3 -37c0 -48 28 -84 84 -84c80 0 119 61 132 133l55 316h121zM534 738l-165 -144h-93l125 144h133z" />
    <glyph glyph-name="ucircumflex.sc" horiz-adv-x="591" 
d="M563 542l-59 -333c-22 -126 -100 -223 -257 -223c-123 0 -200 70 -200 170c0 14 1 28 4 47l61 339h120l-58 -328c-2 -11 -3 -26 -3 -37c0 -48 28 -84 84 -84c80 0 119 61 132 133l55 316h121zM528 594h-108l-54 91l-86 -91h-112l140 144h132z" />
    <glyph glyph-name="utilde.sc" horiz-adv-x="591" 
d="M563 542l-59 -333c-22 -126 -100 -223 -257 -223c-123 0 -200 70 -200 170c0 14 1 28 4 47l61 339h120l-58 -328c-2 -11 -3 -26 -3 -37c0 -48 28 -84 84 -84c80 0 119 61 132 133l55 316h121zM227 598h-66c22 64 60 125 135 125c27 0 53 -7 75 -18c23 -11 44 -19 62 -19
c27 0 43 22 53 44h66c-22 -64 -59 -125 -134 -125c-25 0 -48 7 -69 17c-25 12 -48 21 -68 21c-27 0 -43 -23 -54 -45z" />
    <glyph glyph-name="udieresis.sc" horiz-adv-x="591" 
d="M563 542l-59 -333c-22 -126 -100 -223 -257 -223c-123 0 -200 70 -200 170c0 14 1 28 4 47l61 339h120l-58 -328c-2 -11 -3 -26 -3 -37c0 -48 28 -84 84 -84c80 0 119 61 132 133l55 316h121zM327 676c0 -39 -29 -71 -69 -71c-38 0 -68 24 -68 67c0 42 33 71 71 71
s66 -25 66 -67zM525 676c0 -39 -29 -71 -69 -71c-38 0 -68 24 -68 67c0 42 33 71 71 71s66 -25 66 -67z" />
    <glyph glyph-name="umacron.sc" horiz-adv-x="591" 
d="M563 542l-59 -333c-22 -126 -100 -223 -257 -223c-123 0 -200 70 -200 170c0 14 1 28 4 47l61 339h120l-58 -328c-2 -11 -3 -26 -3 -37c0 -48 28 -84 84 -84c80 0 119 61 132 133l55 316h121zM509 625h-317l13 77h318z" />
    <glyph glyph-name="ubreve.sc" horiz-adv-x="591" 
d="M563 542l-59 -333c-22 -126 -100 -223 -257 -223c-123 0 -200 70 -200 170c0 14 1 28 4 47l61 339h120l-58 -328c-2 -11 -3 -26 -3 -37c0 -48 28 -84 84 -84c80 0 119 61 132 133l55 316h121zM530 738c-24 -97 -93 -143 -187 -143s-151 44 -151 143h66
c0 -50 41 -67 92 -67c56 0 96 11 115 67h65z" />
    <glyph glyph-name="uring.sc" horiz-adv-x="591" 
d="M563 542l-59 -333c-22 -126 -100 -223 -257 -223c-123 0 -200 70 -200 170c0 14 1 28 4 47l61 339h120l-58 -328c-2 -11 -3 -26 -3 -37c0 -48 28 -84 84 -84c80 0 119 61 132 133l55 316h121zM344 583c-53 0 -90 37 -90 86c0 65 48 117 115 117c53 0 89 -36 89 -85
c0 -67 -48 -118 -114 -118zM409 692c0 26 -17 50 -45 50c-36 0 -61 -29 -61 -67c0 -26 16 -48 44 -48c37 0 62 28 62 65z" />
    <glyph glyph-name="uhungarumlaut.sc" horiz-adv-x="591" 
d="M563 542l-59 -333c-22 -126 -100 -223 -257 -223c-123 0 -200 70 -200 170c0 14 1 28 4 47l61 339h120l-58 -328c-2 -11 -3 -26 -3 -37c0 -48 28 -84 84 -84c80 0 119 61 132 133l55 316h121zM654 738l-166 -144h-93l125 144h134zM449 738l-166 -144h-92l124 144h134z
" />
    <glyph glyph-name="uogonek.sc" horiz-adv-x="591" 
d="M319 -201c-32 -22 -66 -38 -106 -38c-53 0 -87 26 -87 80c0 55 55 107 107 146c-115 5 -186 73 -186 169c0 14 1 28 4 47l61 339h120l-58 -328c-2 -11 -3 -26 -3 -37c0 -48 28 -84 84 -84c80 0 119 61 132 133l55 316h121l-59 -333c-20 -111 -82 -200 -204 -219
c-45 -37 -93 -84 -93 -129c0 -25 15 -35 40 -35c20 0 40 9 56 21z" />
    <glyph glyph-name="wacute.sc" horiz-adv-x="802" 
d="M845 542l-266 -542h-126l-40 375h-1l-182 -375h-126l-59 542h125l30 -379h3l177 379h123l37 -379h2l173 379h130zM658 738l-165 -144h-93l125 144h133z" />
    <glyph glyph-name="wcircumflex.sc" horiz-adv-x="802" 
d="M845 542l-266 -542h-126l-40 375h-1l-182 -375h-126l-59 542h125l30 -379h3l177 379h123l37 -379h2l173 379h130zM632 594h-108l-54 91l-86 -91h-112l140 144h132z" />
    <glyph glyph-name="wdieresis.sc" horiz-adv-x="802" 
d="M845 542l-266 -542h-126l-40 375h-1l-182 -375h-126l-59 542h125l30 -379h3l177 379h123l37 -379h2l173 379h130zM436 676c0 -39 -29 -71 -69 -71c-38 0 -68 24 -68 67c0 42 33 71 71 71s66 -25 66 -67zM634 676c0 -39 -29 -71 -69 -71c-38 0 -68 24 -68 67
c0 42 33 71 71 71s66 -25 66 -67z" />
    <glyph glyph-name="wgrave.sc" horiz-adv-x="802" 
d="M845 542l-266 -542h-126l-40 375h-1l-182 -375h-126l-59 542h125l30 -379h3l177 379h123l37 -379h2l173 379h130zM402 738l99 -144h-90l-141 144h132z" />
    <glyph glyph-name="yacute.sc" horiz-adv-x="484" 
d="M545 542l-264 -317l-40 -225h-120l40 227l-136 315h131l82 -219l166 219h141zM471 738l-165 -144h-93l125 144h133z" />
    <glyph glyph-name="ycircumflex.sc" horiz-adv-x="484" 
d="M545 542l-264 -317l-40 -225h-120l40 227l-136 315h131l82 -219l166 219h141zM475 594h-108l-54 91l-86 -91h-112l140 144h132z" />
    <glyph glyph-name="ydieresis.sc" horiz-adv-x="484" 
d="M545 542l-264 -317l-40 -225h-120l40 227l-136 315h131l82 -219l166 219h141zM268 676c0 -39 -29 -71 -69 -71c-38 0 -68 24 -68 67c0 42 33 71 71 71s66 -25 66 -67zM466 676c0 -39 -29 -71 -69 -71c-38 0 -68 24 -68 67c0 42 33 71 71 71s66 -25 66 -67z" />
    <glyph glyph-name="ygrave.sc" horiz-adv-x="484" 
d="M545 542l-264 -317l-40 -225h-120l40 227l-136 315h131l82 -219l166 219h141zM251 738l99 -144h-90l-141 144h132z" />
    <glyph glyph-name="zacute.sc" horiz-adv-x="509" 
d="M503 542l-16 -91l-332 -351h275l-17 -100h-430l17 98l329 347h-245l18 97h401zM474 738l-165 -144h-93l125 144h133z" />
    <glyph glyph-name="zcaron.sc" horiz-adv-x="509" 
d="M503 542l-16 -91l-332 -351h275l-17 -100h-430l17 98l329 347h-245l18 97h401zM516 738l-140 -144h-131l-88 144h109l53 -91l86 91h111z" />
    <glyph glyph-name="zdotaccent.sc" horiz-adv-x="509" 
d="M503 542l-16 -91l-332 -351h275l-17 -100h-430l17 98l329 347h-245l18 97h401zM388 675c0 -39 -31 -73 -71 -73c-38 0 -70 25 -70 69c0 42 35 73 73 73s68 -27 68 -69z" />
    <glyph glyph-name="ij.sc" horiz-adv-x="705" 
d="M243 542l-97 -542h-122l97 542h122zM676 542l-64 -368c-17 -96 -57 -188 -189 -188c-88 0 -148 54 -165 139l109 33c8 -43 31 -65 58 -65c43 0 59 31 68 85l63 364h120z" />
    <glyph glyph-name="germandbls.sc" horiz-adv-x="946" 
d="M447 480l-85 -71c-21 33 -54 48 -92 48c-51 0 -87 -29 -87 -69c0 -31 18 -45 69 -62c105 -35 152 -81 152 -161c0 -114 -93 -179 -220 -179c-91 0 -160 36 -199 90l91 71c25 -42 72 -60 112 -60c64 0 91 29 91 69c0 38 -30 56 -86 76c-98 33 -132 76 -132 147
c0 109 96 177 217 177c82 0 141 -36 169 -76zM920 480l-85 -71c-21 33 -54 48 -93 48c-50 0 -87 -29 -87 -69c0 -31 19 -45 70 -62c104 -35 151 -81 151 -161c0 -114 -93 -179 -219 -179c-92 0 -161 36 -199 90l90 71c25 -42 73 -60 113 -60c63 0 90 29 90 69
c0 38 -29 56 -86 76c-98 33 -131 76 -131 147c0 109 95 177 216 177c82 0 141 -36 170 -76z" />
    <glyph glyph-name="eng.sc" horiz-adv-x="636" 
d="M24 0l96 542h138l159 -350h2l62 350h119l-103 -574c-20 -113 -61 -208 -202 -208c-20 0 -41 3 -53 6l23 100c10 -3 23 -4 32 -4c57 0 72 46 81 102l4 26l-172 381h-2l-65 -371h-119z" />
    <glyph glyph-name="grave.sc" 
d="M147 738l99 -144h-90l-141 144h132z" />
    <glyph glyph-name="acute.sc" 
d="M385 738l-165 -144h-93l125 144h133z" />
    <glyph glyph-name="circumflex.sc" 
d="M355 594h-108l-54 91l-86 -91h-112l140 144h132z" />
    <glyph glyph-name="caron.sc" 
d="M380 738l-140 -144h-131l-88 144h109l53 -91l86 91h111z" />
    <glyph glyph-name="tilde.sc" 
d="M59 598h-66c22 64 60 125 135 125c27 0 53 -7 75 -18c23 -11 44 -19 62 -19c27 0 43 22 53 44h66c-22 -64 -59 -125 -134 -125c-25 0 -48 7 -69 17c-25 12 -48 21 -68 21c-27 0 -43 -23 -54 -45z" />
    <glyph glyph-name="dieresis.sc" 
d="M158 676c0 -39 -29 -71 -69 -71c-38 0 -68 24 -68 67c0 42 33 71 71 71s66 -25 66 -67zM356 676c0 -39 -29 -71 -69 -71c-38 0 -68 24 -68 67c0 42 33 71 71 71s66 -25 66 -67z" />
    <glyph glyph-name="macron.sc" 
d="M339 625h-317l13 77h318z" />
    <glyph glyph-name="breve.sc" 
d="M369 738c-24 -97 -93 -143 -187 -143s-151 44 -151 143h66c0 -50 41 -67 92 -67c56 0 96 11 115 67h65z" />
    <glyph glyph-name="ring.sc" 
d="M180 583c-53 0 -90 37 -90 86c0 65 48 117 115 117c53 0 89 -36 89 -85c0 -67 -48 -118 -114 -118zM245 692c0 26 -17 50 -45 50c-36 0 -61 -29 -61 -67c0 -26 16 -48 44 -48c37 0 62 28 62 65z" />
    <glyph glyph-name="hungarumlaut.sc" 
d="M486 738l-166 -144h-93l125 144h134zM281 738l-166 -144h-92l124 144h134z" />
    <glyph glyph-name="dotaccent.sc" 
d="M262 675c0 -39 -31 -73 -71 -73c-38 0 -70 25 -70 69c0 42 35 73 73 73s68 -27 68 -69z" />
    <glyph glyph-name="exclamdown.sc" horiz-adv-x="311" 
d="M39 0l63 353h118l-63 -353h-118zM105 472c0 42 32 78 75 78c41 0 72 -27 72 -70s-35 -76 -76 -76c-42 0 -71 27 -71 68z" />
    <glyph glyph-name="questiondown.sc" horiz-adv-x="450" 
d="M17 124c0 58 27 100 91 141c52 32 64 47 68 74l2 14h113l-4 -27c-6 -43 -29 -75 -73 -106l-30 -20c-39 -27 -50 -44 -50 -69c0 -28 23 -46 54 -46c29 0 59 16 70 61l109 -19c-19 -86 -89 -141 -186 -141c-90 0 -164 49 -164 138zM171 472c0 42 33 77 76 77
c42 0 72 -26 72 -69c0 -44 -35 -77 -76 -77c-42 0 -72 28 -72 69z" />
    <glyph glyph-name="Euro.sc" horiz-adv-x="523" 
d="M511 529l-44 -93c-23 15 -58 23 -91 23c-56 0 -108 -29 -133 -86h194l-35 -74h-186c-5 -18 -9 -44 -9 -56h175l-36 -74h-138c6 -55 48 -87 112 -87c31 0 66 7 99 25l21 -90c-34 -21 -88 -31 -135 -31c-127 0 -205 80 -212 183h-73l36 74h38c1 13 3 33 9 56h-61l37 74h44
c50 125 141 183 262 183c46 0 98 -13 126 -27z" />
    <glyph glyph-name="cent.sc" horiz-adv-x="523" 
d="M391 491c60 -6 116 -31 146 -79l-84 -68c-14 24 -45 45 -79 51l-55 -311c51 4 81 26 109 54l67 -68c-50 -49 -112 -82 -193 -83l-12 -70h-54l14 74c-112 17 -183 95 -183 204c0 149 106 285 271 297l11 66h54zM321 394c-82 -13 -138 -95 -138 -184c0 -55 22 -110 83 -122
z" />
    <glyph glyph-name="sterling.sc" horiz-adv-x="523" 
d="M497 507l-70 -80c-20 23 -45 32 -68 32c-44 0 -75 -31 -87 -100l-7 -39h120l-17 -86h-118l-23 -136h195l-18 -98h-380l17 98h67l24 136h-65l15 86h65l11 61c19 104 84 176 204 176c52 0 100 -18 135 -50z" />
    <glyph glyph-name="florin.sc" horiz-adv-x="523" 
d="M521 522l-59 -83c-16 12 -31 17 -48 17c-23 0 -44 -18 -58 -55l-21 -60h110l-15 -85h-123l-67 -186c-38 -109 -85 -155 -177 -155c-33 0 -72 10 -98 27l50 85c15 -10 33 -16 48 -16c33 0 48 21 67 75l62 170h-102l15 85h114l32 86c32 86 88 128 169 128
c40 0 73 -12 101 -33z" />
    <glyph glyph-name="yen.sc" horiz-adv-x="523" 
d="M546 544l-192 -240h88l-13 -77h-126l-9 -53h126l-13 -78h-126l-17 -96h-112l17 96h-126l13 78h126l10 53h-126l13 77h98l-110 240h121l81 -207l149 207h128z" />
    <glyph glyph-name="perthousand.sc" horiz-adv-x="1040" 
d="M677 151c0 -93 -70 -163 -165 -163c-75 0 -132 44 -132 117c0 94 69 162 166 162c75 0 131 -43 131 -116zM582 139c0 27 -17 45 -46 45c-37 0 -61 -28 -61 -68c0 -29 16 -45 44 -45c39 0 63 28 63 68zM350 437c0 -93 -69 -163 -165 -163c-75 0 -131 45 -131 118
c0 93 69 161 165 161c76 0 131 -43 131 -116zM255 425c0 27 -17 46 -45 46c-38 0 -62 -29 -62 -69c0 -29 16 -46 45 -46c38 0 62 30 62 69zM997 151c0 -93 -70 -163 -165 -163c-75 0 -132 44 -132 117c0 94 69 162 166 162c75 0 131 -43 131 -116zM902 139
c0 27 -17 45 -46 45c-37 0 -61 -28 -61 -68c0 -29 16 -45 44 -45c39 0 63 28 63 68zM608 527l-428 -562l-62 42l430 565z" />
    <glyph glyph-name="zero.onum" horiz-adv-x="687" 
d="M627 321c0 -183 -135 -336 -325 -336c-159 0 -257 98 -257 241c0 185 139 335 326 335c158 0 256 -98 256 -240zM505 311c0 80 -53 145 -143 145c-117 0 -195 -105 -195 -218c0 -81 53 -147 143 -147c120 0 195 104 195 220z" />
    <glyph glyph-name="one.onum" horiz-adv-x="418" 
d="M334 546l-96 -546h-118l72 405l-103 -69l-52 85l189 125h108z" />
    <glyph glyph-name="two.onum" horiz-adv-x="553" 
d="M487 389c0 -129 -132 -203 -251 -265l-44 -24v-3h261l-18 -97h-436l17 96l63 35c184 101 290 159 290 244c0 68 -51 86 -91 86c-51 0 -93 -28 -122 -75l-86 50c45 76 126 125 218 125c102 0 199 -54 199 -172z" />
    <glyph glyph-name="three.onum" horiz-adv-x="550" 
d="M507 546l-19 -106c-56 -44 -173 -121 -246 -166l-1 -4l1 1c8 1 17 2 30 2c75 0 183 -50 183 -180c0 -169 -143 -263 -334 -263c-38 0 -79 3 -113 10l21 104c27 -7 63 -10 92 -10c115 0 211 51 211 149c0 73 -57 111 -143 111c-34 0 -73 -7 -105 -15l-7 86
c81 49 209 135 268 177l1 4h-255l18 100h398z" />
    <glyph glyph-name="four.onum" horiz-adv-x="593" 
d="M544 99l-18 -99h-105l-30 -170h-113l30 170h-315l18 105l344 456h133l-353 -462h188l40 231h112l-40 -231h109z" />
    <glyph glyph-name="five.onum" horiz-adv-x="550" 
d="M524 546l-19 -105h-266l-43 -150c17 3 28 4 48 4c118 0 208 -66 208 -190c0 -153 -102 -276 -322 -276c-37 0 -84 3 -119 10l20 104c27 -7 59 -10 91 -10c108 0 206 37 206 161c0 81 -61 111 -139 111c-39 0 -88 -7 -128 -18l92 359h371z" />
    <glyph glyph-name="six.onum" horiz-adv-x="613" 
d="M551 247c0 -148 -108 -265 -280 -265c-129 0 -232 74 -232 221c0 198 208 386 391 517l101 -59c-106 -68 -215 -158 -278 -240l3 -2c27 15 64 23 91 23c123 0 204 -80 204 -195zM431 238c0 69 -49 118 -114 118c-95 0 -160 -69 -160 -158c0 -69 52 -118 120 -118
c94 0 154 66 154 158z" />
    <glyph glyph-name="seven.onum" horiz-adv-x="537" 
d="M534 546l-18 -102c-142 -211 -302 -464 -395 -626l-121 30c102 165 286 446 386 593h-326l18 105h456z" />
    <glyph glyph-name="eight.onum" horiz-adv-x="613" 
d="M567 554c0 -102 -71 -160 -144 -183l1 -2c60 -19 109 -76 109 -150c0 -152 -120 -237 -268 -237c-107 0 -222 54 -222 191c0 111 82 186 171 205v3c-53 23 -88 72 -88 133c0 133 112 212 238 212c108 0 203 -56 203 -172zM454 535c0 62 -40 96 -100 96
c-70 0 -119 -54 -119 -119c0 -51 36 -93 96 -93c71 0 123 56 123 116zM417 219c0 62 -44 106 -109 106c-86 0 -150 -59 -150 -139c0 -69 50 -108 112 -108c94 0 147 62 147 141z" />
    <glyph glyph-name="nine.onum" horiz-adv-x="613" 
d="M558 340c0 -198 -207 -387 -397 -523l-97 64c106 68 218 158 281 242l-3 2c-27 -16 -64 -24 -91 -24c-123 0 -204 80 -204 195c0 148 108 265 279 265c130 0 232 -74 232 -221zM441 345c0 70 -52 119 -120 119c-95 0 -154 -67 -154 -159c0 -69 49 -117 114 -117
c95 0 160 68 160 157z" />
    <glyph glyph-name="napostrophe.sc" horiz-adv-x="720" 
d="M684 542l-97 -542h-138l-155 371h-2l-65 -371h-119l96 542h138l156 -369h2l65 369h119zM182 542l-123 -195h-98l107 195h114z" />
    <glyph glyph-name="ordfeminine.sc" horiz-adv-x="380" 
d="M349 427h-80l-9 58h-107l-37 -58h-88l196 289h71zM253 537l-12 94l-57 -94h69z" />
    <glyph glyph-name="fi.sc" horiz-adv-x="761" 
d="M725 542l-97 -542h-121l97 542h121zM473 542l-17 -96h-233l-23 -132h217l-16 -95h-217l-39 -219h-121l96 542h353z" />
    <glyph glyph-name="fl.sc" horiz-adv-x="926" 
d="M868 97l-16 -97h-345l96 542h122l-79 -445h222zM473 542l-17 -96h-233l-23 -132h217l-16 -95h-217l-39 -219h-121l96 542h353z" />
    </font>
</defs>
</svg>
