<?xml version="1.0" encoding="UTF-8" standalone="no"?>
<svg width="22px" height="22px" viewBox="0 0 22 22" version="1.1" xmlns="http://www.w3.org/2000/svg" xmlns:xlink="http://www.w3.org/1999/xlink">
    <!-- Generator: Sketch 39.1 (31720) - http://www.bohemiancoding.com/sketch -->
    <title>calendar@3x</title>
    <desc>Created with Sketch.</desc>
    <defs></defs>
    <g id="Page-1" stroke="none" stroke-width="1" fill="none" fill-rule="evenodd">
        <g id="homepage" transform="translate(-549.000000, -476.000000)" fill="#FF7D19">
            <g id="IBE" transform="translate(125.000000, 403.000000)">
                <g id="Pickup" transform="translate(409.000000, 30.000000)">
                    <path d="M21.1268859,47.5021658 C21.5644743,47.5021658 21.9197313,47.1469193 21.9197313,46.7093438 L21.9197313,46.044229 L30.0556341,46.044229 L30.0556341,46.7093438 C30.0556341,47.1469193 30.4108911,47.5021658 30.8484795,47.5021658 C31.2854196,47.5021658 31.6413248,47.1469193 31.6413248,46.7093438 L31.6413248,46.044229 L34.7491749,46.044229 C35.1161009,46.044229 35.4143093,46.3424286 35.4143093,46.7093438 L35.4143093,49.3185903 L16.5856907,49.3185903 L16.5856907,46.7093438 C16.5856907,46.3424286 16.8838991,46.044229 17.2508251,46.044229 L20.3340405,46.044229 L20.3340405,46.7093438 C20.3340405,47.1469193 20.6892975,47.5021658 21.1268859,47.5021658 L21.1268859,47.5021658 Z M35.4143093,50.9042343 L35.4143093,62.7492412 C35.4143093,63.1155081 35.1161009,63.414356 34.7491749,63.414356 L17.2508251,63.414356 C16.8838991,63.414356 16.5856907,63.1155081 16.5856907,62.7492412 L16.5856907,50.9042343 L35.4143093,50.9042343 Z M34.7491749,44.4579368 L31.6413248,44.4579368 L31.6413248,43.792822 C31.6413248,43.3558947 31.2854196,43 30.8484795,43 C30.4108911,43 30.0556341,43.3558947 30.0556341,43.792822 L30.0556341,44.4579368 L21.9197313,44.4579368 L21.9197313,43.792822 C21.9197313,43.3558947 21.5644743,43 21.1268859,43 C20.6892975,43 20.3340405,43.3558947 20.3340405,43.792822 L20.3340405,44.4579368 L17.2508251,44.4579368 C16.0093706,44.4579368 15,45.4679259 15,46.7093438 L15,62.7492412 C15,63.9906592 16.0093706,65 17.2508251,65 L34.7491749,65 C35.9899811,65 37,63.9906592 37,62.7492412 L37,46.7093438 C37,45.4679259 35.9899811,44.4579368 34.7491749,44.4579368 L34.7491749,44.4579368 Z" id="calendar"></path>
                </g>
            </g>
        </g>
    </g>
</svg>