<?xml version="1.0" encoding="utf-8"?>
<!-- Generator: Adobe Illustrator 20.0.0, SVG Export Plug-In . SVG Version: 6.00 Build 0)  -->
<svg version="1.1" id="Layer_1" xmlns="http://www.w3.org/2000/svg" xmlns:xlink="http://www.w3.org/1999/xlink" x="0px" y="0px"
	 viewBox="0 0 18 26" style="enable-background:new 0 0 18 26;" xml:space="preserve">
<style type="text/css">
	.st0{fill:#FF7D19;}
</style>
<title>location_icon</title>
<desc>Created with Sketch.</desc>
<g>
	<path class="st0" d="M8.6,0.7C3.9,0.7,0,4.6,0,9.3c0,6.6,6.5,16.3,8.6,16.3c2.1,0,8.6-9.7,8.6-16.3C17.2,4.6,13.3,0.7,8.6,0.7z
		 M15.5,9.3c0,6-5.4,13.4-6.9,14.5c-1.4-1.1-6.9-8.5-6.9-14.5c0-3.8,3.1-6.9,6.9-6.9C12.4,2.4,15.5,5.5,15.5,9.3z"/>
	<path class="st0" d="M8.6,4C5.7,4,3.3,6.4,3.3,9.3s2.4,5.3,5.3,5.3c2.9,0,5.3-2.4,5.3-5.3S11.5,4,8.6,4z M12.1,9.3
		c0,2-1.6,3.6-3.6,3.6S5,11.3,5,9.3c0-2,1.6-3.6,3.6-3.6S12.1,7.3,12.1,9.3z"/>
</g>
</svg>
