<?xml version="1.0" encoding="utf-8"?>
<!-- Generator: Adobe Illustrator 19.2.0, SVG Export Plug-In . SVG Version: 6.00 Build 0)  -->
<svg version="1.1" id="Layer_1" xmlns="http://www.w3.org/2000/svg" xmlns:xlink="http://www.w3.org/1999/xlink" x="0px" y="0px"
	 viewBox="0 0 306 57.5" style="enable-background:new 0 0 306 57.5;" xml:space="preserve">
<style type="text/css">
	.st0{fill:#FFFFFF;}
	.st1{fill:#F47C22;}
</style>
<g>
	<path class="st0" d="M93.4,11.3c0,0-7.3,11-7.3,11c0,0-0.1,0-0.1,0c-0.6-0.7-3.8-4.8-3.8-4.8c-4,3.1-8.5,5.2-13.4,6.6
		c0,0,5.9,7.7,5.9,7.7c0,0,0,0.1,0,0.1c-0.9,1.3-12.8,18.9-12.8,18.9c0,0-0.1,0-0.1,0c0-13.7,0-25.3,0-25.3c-4.1,0.6-8,0.8-11.8,0.8
		c-1.2,0-2.5,0-3.8,0c0,0,0,10.1,0,10.1c0,0-0.1,0.1-0.1,0c-0.6-1.4-1.4-2.6-2.1-3.4c-5-5.3-22.2-7.2-24.7-10
		c-0.5-0.5-0.7-1.4-0.7-2c0-2.3,1.4-3.7,5.2-3.8c2.8-0.1,5,1.2,5.6,6.5l15.3,0c0-0.6-0.1-1.5-0.2-2c-0.8-7.8-4.8-12.5-19.7-12.5
		c-9.2,0-15.4,1.6-18.9,5.1c-2.2,2.2-3.3,5.1-3.3,8.8c0,2.5,0.6,5.6,2.6,7.7c2.2,2.3,7,4,11.8,5.4c6,1.8,12,3.1,13.1,4.7
		c0.4,0.6,0.7,1.3,0.7,2.1c0,3.5-3.5,4.5-6.8,4.5c-2.1,0-3.5-0.6-4.6-1.7c-1-1.2-1.5-3-1.6-5.4L2,40.3c0.2,4.8,0.7,8.4,3.7,11
		c3,2.6,8.4,4.2,17.8,4.2c13.5,0,20.3-3.7,22.6-9.6c0,0,0.1,0,0.1,0.1l0,8.3l30.2,0c0,0,8.6-12.3,8.6-12.3c0,0,0.1,0,0.1,0
		c0.7,1,8.2,12.3,8.2,12.3l32.2,0l0-30.6c0,0,0-0.1,0.1-0.1c0.9,0,9.3,0,9.3,0V11.3H93.4z M110,51C110,51,110,51,110,51
		c-0.1,0-13.6-18.7-13.6-18.7s0-0.1,0-0.1c0.5-0.7,5.9-8.2,5.9-8.3c0,0,0.1-0.1,0.1-0.1l7.6,0c0,0,0,0,0,0.1c0,1.4,0,26.9,0,26.9
		S110,50.9,110,51z"/>
	<path class="st1" d="M79.3,16.3c-7.1,4.8-17.1,7.6-29.7,7.5c-1.1,0-2.2,0-3.4-0.1l0-12.4c11.5,0.8,19.3-1.2,24-4.7
		C72,5.2,73.3,3.7,74.3,2l16.2,0C88.3,7.8,84.6,12.7,79.3,16.3L79.3,16.3z"/>
	<g>
		<path class="st0" d="M153.9,45.1c-2.8,0-4.6,1.6-4.6,4.3v5.1h-5.1V43.7c0-0.9,0-1.8-0.1-2.8h5c0.1,1,0.1,1.9,0.1,2.9h0.1
			c1.3-2.6,2.7-3.1,6-3.1v4.4C154.9,45.1,154.5,45.1,153.9,45.1L153.9,45.1z"/>
		<path class="st0" d="M165.9,52.1c-2.2,0-3.4-1.1-3.5-3.2h12.2c0-5.2-2.3-8.5-8.8-8.5c-4.6,0-8.6,2.2-8.6,7.4c0,5.3,4.1,7,8.7,7
			c3.7,0,7.4-0.3,8.5-4.6h-5.5C168.6,51.2,168.2,52.1,165.9,52.1z M165.8,43.2c1.8,0,3.3,0.7,3.3,2.9h-6.6
			C162.7,44.8,163.4,43.2,165.8,43.2z"/>
		<path class="st0" d="M190.3,54.4v-6.9c0-2.1-0.9-3.6-3.3-3.6c-2.1,0-3.9,1.6-3.9,4.6v5.9h-5.1V43.7c0-0.9,0-1.8-0.1-2.8h5
			c0.1,0.8,0.1,1.6,0.1,2.4h0.1c1.3-1.8,3.3-2.9,5.7-2.9c4.9,0,6.7,2.8,6.7,6.3v7.7H190.3L190.3,54.4z"/>
		<path class="st0" d="M208.8,51.3c0.5,0,1.2-0.1,2-0.2v3.3c-0.5,0.1-1.8,0.3-3.5,0.3c-3.9,0-6-1.5-6-4.8v-5.7H198V41h3.3v-2.7
			l5.1-1.9V41h4.3v3.3h-4.3v4.2C206.5,50.3,206.7,51.3,208.8,51.3L208.8,51.3z"/>
		<path class="st0" d="M239.2,51.4v-5.1c0-4.6-3-5.8-8.2-5.8c-3.5,0-7.5,1-7.7,4.5h5.3c0-0.9,0.6-1.7,2.5-1.7c2,0,3,0.5,3,2.7h-3.7
			c-5,0-8,1.4-8,4.6c0,2.8,2.2,4.4,6.1,4.4c2.3,0,4.6-0.6,5.8-2.7h0.1c0,0.7,0.1,1.7,0.1,2.2h5C239.2,53.4,239.2,52.4,239.2,51.4z
			 M229.9,52c-1.4,0-2.2-0.6-2.2-1.4c0-1.1,0.7-2,4.2-2h2.1C234,49.9,233.3,52,229.9,52z"/>
		<path class="st0" d="M261.4,43.4c-2.3,0-3.6,1.8-3.6,4.3c0,2.4,1.1,4.3,3.6,4.3c1.7,0,2.9-0.9,3-2.6h5.5c-0.5,4.4-4.8,5.5-8.8,5.5
			c-4,0-8.7-1.8-8.7-7.2c0-5.4,4.4-7.3,9.1-7.3c3.7,0,7.8,1.1,8.3,5.3h-5.3C264.1,44.1,263,43.4,261.4,43.4L261.4,43.4z"/>
		<path class="st0" d="M288.8,51.4v-5.1c0-4.6-3-5.8-8.2-5.8c-3.5,0-7.5,1-7.7,4.5h5.3c0-0.9,0.6-1.7,2.5-1.7c2,0,3,0.5,3,2.7h-3.7
			c-5,0-8,1.4-8,4.6c0,2.8,2.2,4.4,6.1,4.4c2.3,0,4.6-0.6,5.8-2.7h0.1c0,0.7,0.1,1.7,0.1,2.2h5C288.8,53.4,288.8,52.4,288.8,51.4z
			 M279.5,52c-1.4,0-2.2-0.6-2.2-1.4c0-1.1,0.7-2,4.2-2h2.1C283.6,49.9,282.9,52,279.5,52z"/>
		<path class="st0" d="M302.7,45.1c-2.8,0-4.6,1.6-4.6,4.3v5.1H293V43.7c0-0.9,0-1.8-0.1-2.8h5c0.1,1,0.1,1.9,0.1,2.9h0.1
			c1.3-2.6,2.7-3.1,6-3.1v4.4C303.7,45.1,303.3,45.1,302.7,45.1L302.7,45.1z"/>
	</g>
</g>
</svg>
