<?xml version="1.0" encoding="utf-8"?>
<!-- Generator: Adobe Illustrator 14.0.0, SVG Export Plug-In . SVG Version: 6.00 Build 43363)  -->
<!DOCTYPE svg PUBLIC "-//W3C//DTD SVG 1.1//EN" "http://www.w3.org/Graphics/SVG/1.1/DTD/svg11.dtd">
<svg version="1.1" id="Шар_1" xmlns="http://www.w3.org/2000/svg" xmlns:xlink="http://www.w3.org/1999/xlink" x="0px" y="0px"
	 width="45.824px" height="45.823px" viewBox="0 0 45.824 45.823" enable-background="new 0 0 45.824 45.823" xml:space="preserve">
<circle fill="#EC5C65" cx="22.912" cy="22.912" r="22.912"/>
<g>
	<g>
		<rect x="12.645" y="18.102" fill="#FFFFFF" width="4.796" height="14.334"/>
		<path fill="#FFFFFF" d="M15.044,16.143h-0.033c-1.608,0-2.651-1.1-2.651-2.477c0-1.405,1.072-2.475,2.713-2.475
			c1.642,0,2.65,1.07,2.682,2.475C17.755,15.044,16.715,16.143,15.044,16.143L15.044,16.143z"/>
		<path fill="#FFFFFF" d="M34.733,32.436h-4.794v-7.67c0-1.928-0.696-3.242-2.429-3.242c-1.33,0-2.117,0.887-2.462,1.743
			c-0.127,0.307-0.159,0.734-0.159,1.161v8.007h-4.794c0,0,0.063-12.99,0-14.334h4.794v2.033c0.637-0.977,1.774-2.37,4.322-2.37
			c3.155,0,5.522,2.048,5.522,6.453V32.436z"/>
		<path fill="#FFFFFF" d="M24.857,20.18c0.01-0.014,0.02-0.031,0.032-0.045v0.045H24.857z"/>
		<path fill="#FFFFFF" d="M24.857,20.18"/>
	</g>
</g>
</svg>
