<?xml version="1.0" encoding="utf-8"?>
<!-- Generator: Adobe Illustrator 14.0.0, SVG Export Plug-In . SVG Version: 6.00 Build 43363)  -->
<!DOCTYPE svg PUBLIC "-//W3C//DTD SVG 1.1//EN" "http://www.w3.org/Graphics/SVG/1.1/DTD/svg11.dtd">
<svg version="1.1" id="Шар_1" xmlns="http://www.w3.org/2000/svg" xmlns:xlink="http://www.w3.org/1999/xlink" x="0px" y="0px"
	 width="45.824px" height="45.823px" viewBox="0 0 45.824 45.823" enable-background="new 0 0 45.824 45.823" xml:space="preserve">
<circle fill="#EC5C65" cx="22.912" cy="22.912" r="22.912"/>
<path fill="#FFFFFF" d="M33.544,29.375l-3.438-3.439c-0.686-0.682-1.818-0.661-2.527,0.048l-1.732,1.732
	c-0.108-0.061-0.222-0.123-0.341-0.19c-1.095-0.607-2.59-1.437-4.167-3.013c-1.58-1.581-2.412-3.081-3.018-4.176
	c-0.066-0.114-0.127-0.226-0.187-0.334l1.161-1.16l0.572-0.572c0.709-0.71,0.73-1.843,0.047-2.526l-3.439-3.438
	c-0.682-0.685-1.816-0.663-2.528,0.047l-0.967,0.975l0.025,0.026c-0.325,0.415-0.595,0.893-0.797,1.407
	c-0.187,0.491-0.304,0.961-0.355,1.429c-0.455,3.765,1.266,7.204,5.932,11.871c6.452,6.45,11.653,5.965,11.877,5.94
	c0.487-0.059,0.956-0.175,1.433-0.359c0.511-0.2,0.989-0.471,1.402-0.795l0.021,0.019l0.983-0.962
	C34.207,31.192,34.228,30.06,33.544,29.375L33.544,29.375z M33.544,29.375"/>
</svg>
